<svg xmlns="http://www.w3.org/2000/svg" xmlns:xlink="http://www.w3.org/1999/xlink" viewBox="0 0 185.85 82.24"><defs><style>.cls-1{fill:#fff;}.cls-1,.cls-4{fill-rule:evenodd;}.cls-2{fill:#212121;stroke:#000;stroke-miterlimit:10;}.cls-3{mask:url(#mask);}.cls-4{fill:#e07631;}</style><mask id="mask" x="90.91" y="14.87" width="35.95" height="48.61" maskUnits="userSpaceOnUse"><g transform="translate(12.41 9.03)"><g id="mask-2"><polygon id="path-1" class="cls-1" points="78.5 5.84 114.44 5.84 114.44 54.45 78.5 54.45 78.5 5.84"/></g></g></mask></defs><g id="Capa_2" data-name="Capa 2"><rect class="cls-2" x="0.5" y="0.5" width="184.85" height="81.24"/></g><g id="Capa_1" data-name="Capa 1"><g id="Page-1"><polygon id="Fill-1" class="cls-1" points="29.63 19.31 16.38 28.18 20.76 35.91 27.38 31.87 27.38 58.89 38.56 58.89 38.56 19.31 29.63 19.31"/><polygon id="Fill-2" class="cls-1" points="131.58 58.89 142.7 58.89 142.7 29.11 131.58 29.11 131.58 58.89"/><g id="Group-20"><path id="Fill-3" class="cls-1" d="M124.81,5.5a5.76,5.76,0,0,0-5.76,5.65,5.71,5.71,0,1,0,5.76-5.65" transform="translate(12.41 9.03)"/><path id="Fill-5" class="cls-1" d="M151.43,41.33c-1.5,0-2.54-1.27-2.54-3V28.83h5.88V20.07h-5.88V11.9h-10.6v8.17h-3.74v8.76h3.74V40.47a9.65,9.65,0,0,0,10.08,10.08,12,12,0,0,0,7.66-3l-1.9-7a4.31,4.31,0,0,1-2.7.86" transform="translate(12.41 9.03)"/><g id="Group-17"><g class="cls-3"><path id="Fill-15" class="cls-1" d="M98.78,40.47H89.62V34.13h9.16c2.41,0,4.14,1.33,4.14,3.17S101.19,40.47,98.78,40.47Zm-9.16-20.8h7.49c2.3,0,4,1.27,4,3s-1.67,3-4,3H89.62Zm17.51,9.45a9.61,9.61,0,0,0,5.47-8.87c0-5.58-4.91-9.7-12.07-10V5.84H88.67v4.44H78.5V49.86H88.67v4.59h11.86V49.86h.09c8.06,0,13.82-4.32,13.82-10.66C114.44,34.82,111.74,31.08,107.13,29.12Z" transform="translate(12.41 9.03)"/></g></g><polygon id="Fill-18" class="cls-4" points="75.38 19.31 64.69 30 54.01 19.31 44.91 28.42 55.59 39.1 44.91 49.78 54.01 58.89 64.69 48.21 75.38 58.89 84.48 49.78 73.8 39.1 84.48 28.42 75.38 19.31"/></g></g></g></svg>