<?xml version="1.0" encoding="utf-8"?>
<svg version="1.1" id="Capa_1" xmlns="http://www.w3.org/2000/svg" xmlns:xlink="http://www.w3.org/1999/xlink" x="0px" y="0px"
	 viewBox="0 0 41 41" style="enable-background:new 0 0 41 41;" xml:space="preserve">
<style type="text/css">
	.st0{fill:#FFFFFF;}
	.st1{fill:#449BF7;}
</style>
<g>
	<rect x="7.8" y="4.6" class="st0" width="27" height="30.4"/>
	<path class="st1" d="M10.7,16.3c0,0.8,0.6,1.4,1.4,1.4h0.2v-0.9h-0.1c-0.3,0-0.6-0.3-0.6-0.6c0-0.3,0.3-0.6,0.6-0.6h0.1v-0.8h-0.2
		C11.3,14.9,10.7,15.6,10.7,16.3z M15.5,24c0.1,3.7,3,6.7,6.7,6.7s6.8-3.1,6.8-6.9c0-3.7-2.8-6.7-6.3-6.9h-5.2v0.8h4.8
		c3.3,0,5.9,2.7,5.9,6.1s-2.7,6.1-5.9,6.1s-5.9-2.6-6-5.9"/>
	<path class="st1" d="M40.2,5.9c-0.9-2.4-2.8-4.3-5.2-5.2C32.8,0,30.8,0,26.6,0H14.3c-4.1,0-6.2,0-8.4,0.7C3.5,1.6,1.6,3.5,0.7,5.9
		C0,8.1,0,10.2,0,14.3v12.4c0,4.1,0,6.2,0.7,8.4c0.9,2.4,2.8,4.3,5.2,5.2C8.1,41,10.2,41,14.3,41h12.4c4.1,0,6.2,0,8.4-0.7
		c2.4-0.9,4.3-2.8,5.2-5.2c0.7-2.2,0.7-4.3,0.7-8.4V14.3C40.9,10.2,40.9,8.1,40.2,5.9z M22.1,33.9c-5.4,0-9.7-4.4-9.8-9.9l0,0v-5.1
		h-0.2c-1.4,0-2.5-1.1-2.5-2.6c0-1.4,1.1-2.6,2.5-2.6h0.2v-6c0-1.4,1.1-2.6,2.5-2.6s2.5,1.1,2.5,2.6v6.1h5.2c5.2,0.2,9.4,4.6,9.4,10
		C32,29.4,27.6,33.9,22.1,33.9z M13.5,24c0.1,4.8,4.1,8.7,8.8,8.7c4.8,0,8.7-4,8.7-8.9c-0.2-4.8-3.9-8.7-8.6-8.9l0,0h-5.1v0.8h5.4
		c4.2,0.2,7.5,3.7,7.5,8.1c0,4.5-3.5,8.1-7.9,8.1c-4.3,0-7.8-3.6-8-7.9"/>
	<path class="st1" d="M22.1,28.8c2.7,0,4.8-2.2,4.8-4.9S24.7,19,22.1,19h-4.9v5C17.4,26.7,19.5,28.8,22.1,28.8z M14.3,7.7
		c0-0.3,0.3-0.6,0.6-0.6c0.3,0,0.6,0.3,0.6,0.6V24h0.8V7.7c0-0.8-0.6-1.4-1.4-1.4s-1.4,0.6-1.4,1.4V24h0.8
		C14.3,24,14.3,7.7,14.3,7.7z"/>
</g>
</svg>
