<svg xmlns="http://www.w3.org/2000/svg" viewBox="0 0 87.83 63"><defs><style>.cls-1{fill:#f5b126;}.cls-1,.cls-2,.cls-3{fill-rule:evenodd;}.cls-2{fill:#28323e;}.cls-3{fill:#eed92c;}</style></defs><g id="Capa_2" data-name="Capa 2"><g id="Capa_1-2" data-name="Capa 1"><path class="cls-1" d="M79.24,22.44a10.4,10.4,0,0,0-3.73-3,11.7,11.7,0,0,0-4.8-.87,14.63,14.63,0,0,0-12.53,6.07,19,19,0,0,0-2.93,6.46,29.5,29.5,0,0,0-.94,7.73,14.6,14.6,0,0,0,.54,4,7.68,7.68,0,0,0,1.6,2.93,7.37,7.37,0,0,0,3.06,1.94h0a15.4,15.4,0,0,0,5,.73,13.21,13.21,0,0,0,5.13-1,16.41,16.41,0,0,0,4.6-2.8l1.53-1.33,6,6.66L80.3,51.29A23,23,0,0,1,72.57,56a27,27,0,0,1-8.93,1.53A23.93,23.93,0,0,1,55,56.09a14.55,14.55,0,0,1-5.93-3.93,14.78,14.78,0,0,1-3.27-5.93,24.82,24.82,0,0,1-1-7.13,38.55,38.55,0,0,1,1.67-11.6A27.13,27.13,0,0,1,51.58,18a24,24,0,0,1,8.53-6.33,28.49,28.49,0,0,1,11.8-2.33,22.65,22.65,0,0,1,8.39,1.46,15.52,15.52,0,0,1,6.8,5.27l.73.93-7.59,6.4Z"/><path class="cls-2" d="M79.64.65a4.72,4.72,0,0,1,1.73,6.46L51.05,60.62a4.73,4.73,0,1,1-8.2-4.73L73.17,2.38A4.69,4.69,0,0,1,79.64.65"/><path class="cls-1" d="M67.51,7.31A26.15,26.15,0,0,0,50.38,53L76.17,8.84a27,27,0,0,0-8.66-1.53M28.12,41H16.53a5,5,0,1,0,0,10H28.12a5,5,0,1,0,0-10m-1.66-11.4V29.1a4.75,4.75,0,0,0-4.73-4.73h-17A4.75,4.75,0,0,0,0,29.1v.47A4.75,4.75,0,0,0,4.73,34.3h17a4.75,4.75,0,0,0,4.73-4.73m5.2-21.73h-12a4.75,4.75,0,0,0-4.73,4.74V13a4.75,4.75,0,0,0,4.73,4.73H31.72A4.75,4.75,0,0,0,36.45,13v-.46a4.76,4.76,0,0,0-4.79-4.74"/><path class="cls-3" d="M54.85,45.43A16.68,16.68,0,0,1,66.24,16.77a16.9,16.9,0,0,1,4.2.54l.6.2Z"/></g></g></svg>