<svg xmlns="http://www.w3.org/2000/svg" viewBox="0 0 61.75 82.91"><defs><style>.cls-1{fill:#086eaa;}</style></defs><g id="Capa_2" data-name="Capa 2"><g id="Layer_1" data-name="Layer 1"><path class="cls-1" d="M41.86,30.31c3.9-1.2,7.8-2.5,11.7-3.8-1.4,4-2.8,8-4.1,12.1,2.4,3.5,4.9,7,7.5,10.6l-12.4-.6c-2.3,3.4-4.7,6.8-7,10.2-.9-2.6-1.7-5.2-2.5-7.8-7.8,5.7-13.7,14.7-16.8,24.2,12.5-1.8,37.5-4.5,41.9-5.2-1-16.8-.9-31.7.9-46.9l-25.6,1.8c2,1.8,4.2,3.6,6.4,5.4M43,60.11c-.1-.4-.1-4.1-.1-4.4h.5c.1.4,1.3,4,1.3,4a10.46,10.46,0,0,1-1.7.4m5.8.3c-.4-.6-3.2-6.4-3.4-6.9.1-.1.3-.2.4-.3.3.5,4.5,6.1,4.5,6.2-.5.3-1,.7-1.5,1m7.9-2.1c-.6-.5-6-5.4-6.4-5.8.1-.1.1-.2.2-.3.5.4,6.9,4.7,6.9,4.8-.2.4-.5.9-.7,1.3m2-20.4c-.7.1-6.6.3-7.1.3,0-.2-.1-.3-.1-.5.5-.1,6.8-1.5,6.9-1.5.1.6.2,1.1.3,1.7"/><path class="cls-1" d="M16.06,41.61c.4-.2,3.7-1.3,4-1.4.1.2.1.3.2.5-.3.2-3.5,2.5-3.6,2.5-.2-.5-.4-1.1-.6-1.6m2.1-6.3a11,11,0,0,1,.2-1.8c.6.1,6.5,1.3,7,1.4v.3h-6.9l-.3.1m5.9-5.4a6.11,6.11,0,0,1,.7-1.4,54,54,0,0,1,4.6,3.3c-.1.1-.1.2-.2.4-.4-.3-5-2.3-5.1-2.3M3,27.21c2.2,12.9,6.1,32.4,8.7,45.2A47,47,0,0,1,29,44.71c-2.4-.8-4.8-1.7-7.1-2.5,3.4-2.3,6.8-4.7,10.2-7,0-3.3.1-6.7.2-10Z"/><path class="cls-1" d="M34.16,48.31c-.2-.6-.4-1.2-.6-1.9-.7-.2-1.4-.5-2-.7-10.2,7.2-19.1,24.2-19.6,37.2h1.8c1.9-15.7,12.5-28.4,20.4-34.6"/><path class="cls-1" d="M35.86,37.71l-5,3.5c1.9.7,3.9,1.4,5.8,2.1.6,2,1.2,4.1,1.8,6.1,1.2-1.7,2.3-3.3,3.5-5l6.1.3c-1.2-1.7-2.5-3.5-3.7-5.2.7-2,1.3-4,2-5.9-1.9.6-3.9,1.2-5.8,1.8l-4.8-3.9c.1,1.9.1,4.1.1,6.2m-31-19.5c-.6-2.1,4.4-5.9,12,2.4a30.75,30.75,0,0,1-4.2.3c-3.9,0-7.2-.9-7.8-2.7m34.4,1.7c3.3-2.3,7.4-4.6,11.1-5.3,1.6-.3,8.7-1.2,4.6,3-1.8,1.7-5.9,2.5-10.7,2.5a27.53,27.53,0,0,1-5-.2m.9-14.6c1-.3,3.1-.5,4.1,1.1,1.7,2.3-4,9.1-11.7,12.4.6-4,1.8-11.1,7-13.3h0c-.1,0,.2-.1.6-.2m-22.8-.7c3.6-1.9,10.7,4.7,9.7,14.4-9.5-3-12.9-12.9-9.7-14.4m-5.6,6.9c-8.1-3.2-16.9,5.7-8.1,11.7,5.2,3.6,12.9,1,26.5-2.2,10.7,2.2,20.8,1.8,26.2-.8,6.1-3,5.8-6.5,4.9-7.9-1.8-2.8-11.5-1.7-16.7,1.9,2-1.9,5.1-4.9,5-8.3-.1-3-3.4-5.1-6.5-5.1-2.5,0-7.9.9-12.2,8.3a14,14,0,0,0-7.6-8.3,11.08,11.08,0,0,0-4.4-.8c-5.3-.2-10.3,3.5-7.1,11.5"/></g></g></svg>