<!-- <?xml version="1.0" encoding="utf-8"?> -->
<svg xmlns="http://www.w3.org/2000/svg" width="31" height="31" viewBox="0 0 31 31">
  <g fill="#00c1de">
    <path fill-rule="nonzero" d="M15.299.12c4.06 0 7.825 1.609 10.65 4.53 2.824 2.921 4.413 6.737 4.413 10.85 0 4.113-1.53 7.929-4.413 10.85-2.884 2.862-6.65 4.471-10.71 4.471-4.06 0-7.825-1.55-10.708-4.471C1.706 23.429.118 19.613.118 15.5c0-4.113 1.588-7.929 4.472-10.91C7.473 1.73 11.239.12 15.299.12zM9.414 23.726c-.411-.12-1.118-.537-1.118-1.908V4.59a14.464 14.464 0 00-2.059 1.73 13.035 13.035 0 00-3.766 9.18c0 3.458 1.354 6.737 3.884 9.121 2.412 2.444 5.648 3.816 9.061 3.816 3.413 0 6.65-1.372 9.062-3.816a13.035 13.035 0 003.765-9.18c0-3.458-1.353-6.737-3.765-9.181a12.736 12.736 0 00-1.942-1.61v17.17c0 1.37-.706 1.788-1.118 1.907-.765.179-1.412-.179-2-1.014l-4.002-6.02-4.001 6.02c-.765 1.193-1.589 1.133-2 1.014zm10.65-4.054V3.458c-3-1.252-6.472-1.252-9.473-.06v16.275l2.766-4.292c.47-.716 1.177-1.133 1.942-1.133.764 0 1.47.417 1.941 1.133l2.825 4.292z"></path>
  </g>
</svg>