<?xml version="1.0" encoding="UTF-8"?>
<!-- Generator: Adobe Illustrator 23.0.6, SVG Export Plug-In . SVG Version: 6.00 Build 0)  -->
<svg version="1.1" id="Layer_1" xmlns="http://www.w3.org/2000/svg" xmlns:xlink="http://www.w3.org/1999/xlink" x="0px" y="0px" viewBox="0 0 86 86" style="enable-background:new 0 0 86 86;" xml:space="preserve">
<style type="text/css">
	.st0{fill:#008DE4;}
	.st1{fill:#FFFFFF;}
</style>
<title>instant</title>
<path class="st0" d="M58.9,84.8c-0.3,0-0.6-0.1-0.9-0.2c-0.9-0.4-1.5-1.2-1.5-2.2v-5.3h-40c-0.4,0-0.7-0.3-0.7-0.7s0.3-0.7,0.7-0.7  h40.7c0.4,0,0.7,0.3,0.7,0.7c0,0,0,0,0,0c0,7,0,7,1,7h0.4l23.8-23.8l-0.7-0.7C59.4,35.9,59.4,35.9,58.9,35.9h-1v17.5l0.7,0.2  c2.5,0.8,3.9,3.4,3.1,5.9s-3.4,3.9-5.9,3.1c-2.5-0.8-3.9-3.4-3.1-5.9c0.5-1.5,1.6-2.7,3.1-3.1l0.7-0.2v-9.8H29.1v5.3  c0,1-0.6,1.8-1.5,2.2c-0.3,0.1-0.6,0.2-0.9,0.2c-0.6,0-1.3-0.2-1.7-0.7l-24-24c-0.3-0.3-0.3-0.7,0-1c0,0,0,0,0,0l24-24  c0.9-0.9,2.5-0.9,3.4,0c0.5,0.5,0.7,1.1,0.7,1.7v5.3h21.5c0.4,0,0.7,0.3,0.7,0.7c0,0.4-0.3,0.7-0.7,0.7H28.5c-0.4,0-0.7-0.3-0.7-0.7  c0-7,0-7-1-7h-0.4L2.5,26l0.7,0.7c23.1,23.1,23.1,23.1,23.6,23.1h1V34.5l-0.7-0.2c-2.5-0.8-3.9-3.4-3.1-5.9c0.8-2.5,3.4-3.9,5.9-3.1  c2.5,0.8,3.9,3.4,3.1,5.9c-0.5,1.5-1.6,2.7-3.1,3.1l-0.7,0.2v7.6h27.4v-5.3c0-1,0.6-1.8,1.5-2.2c0.3-0.1,0.6-0.2,0.9-0.2  c0.6,0,1.2,0.3,1.7,0.7l24,24c0.3,0.3,0.3,0.7,0,1c0,0,0,0,0,0l-24,24C60.2,84.6,59.6,84.8,58.9,84.8z M57.2,54.7  c-1.9,0-3.4,1.5-3.4,3.3s1.5,3.4,3.3,3.4c1.9,0,3.4-1.5,3.4-3.3c0,0,0,0,0,0C60.6,56.2,59.1,54.7,57.2,54.7z M28.5,26.5  c-1.9,0-3.3,1.5-3.3,3.4c0,1.9,1.5,3.3,3.4,3.3c1.8,0,3.3-1.5,3.3-3.3C31.8,28,30.3,26.5,28.5,26.5z M9.2,81.2  c-2.6,0-4.7-2.1-4.7-4.7c0-2.6,2.1-4.7,4.7-4.7s4.7,2.1,4.7,4.7c0,0,0,0,0,0C13.9,79.1,11.8,81.2,9.2,81.2z M9.2,73.1  c-1.9,0-3.4,1.5-3.4,3.3c0,1.9,1.5,3.4,3.3,3.4s3.4-1.5,3.4-3.3c0,0,0,0,0,0C12.6,74.6,11.1,73.1,9.2,73.1z M33.6,70.4  c-0.4,0-0.7-0.3-0.7-0.7s0.3-0.7,0.7-0.7h18.9c0.4,0,0.7,0.3,0.7,0.7s-0.3,0.7-0.7,0.7H33.6z M41.9,16.6c-0.4,0-0.7-0.3-0.7-0.7  c0-0.4,0.3-0.7,0.7-0.7h18.9c0.4,0,0.7,0.3,0.7,0.7c0,0.4-0.3,0.7-0.7,0.7H41.9z M76.5,13.9c-2,0-3.8-1.4-4.5-3.3l-0.2-0.7H58.3  c-0.4,0-0.7-0.3-0.7-0.7c0-0.4,0.3-0.7,0.7-0.7c0,0,0,0,0,0h13.4L72,7.8c0.6-1.9,2.4-3.3,4.5-3.3c2.6,0,4.7,2.1,4.7,4.7  C81.2,11.8,79.1,13.9,76.5,13.9C76.5,13.9,76.5,13.9,76.5,13.9z M76.5,5.9c-1.7,0-3.2,1.3-3.3,3V9v0.1c0,0,0,0.1,0,0.1  c0,0,0,0.1,0,0.1v0.1v0.1c0.2,1.8,1.9,3.2,3.7,3c1.8-0.2,3.2-1.9,3-3.7C79.6,7.2,78.2,5.9,76.5,5.9L76.5,5.9z"/>
<circle class="st0" cx="76.1" cy="9.4" r="5.8"/>
<path class="st1" d="M77.1,6.8h-2.4l-0.2,1.1h2.2c1.1,0,1.4,0.4,1.4,1c0,0.4-0.1,0.8-0.2,1.1c-0.2,0.5-0.5,1-1.8,1h-2.1l-0.2,1.1  h2.4c0.5,0,1.1-0.1,1.6-0.3c0.9-0.5,1.4-1.3,1.6-2.3C79.6,7.9,79.2,6.8,77.1,6.8"/>
<path class="st1" d="M73.6,8.9c-0.4,0-0.7,0.2-0.8,0.6c0,0,0,0,0,0c-0.1,0.3-0.1,0.5-0.1,0.5h2.5c0.4,0,0.7-0.2,0.8-0.6c0,0,0,0,0,0  c0.1-0.3,0.1-0.5,0.1-0.5H73.6z"/>
</svg>