<?xml version="1.0" encoding="UTF-8"?>
<!-- Generator: Adobe Illustrator 23.0.6, SVG Export Plug-In . SVG Version: 6.00 Build 0)  -->
<svg version="1.1" id="Layer_1" xmlns="http://www.w3.org/2000/svg" xmlns:xlink="http://www.w3.org/1999/xlink" x="0px" y="0px" viewBox="0 0 86 86" style="enable-background:new 0 0 86 86;" xml:space="preserve">
<style type="text/css">
	.st0{fill:#008DE4;}
	.st1{fill:none;stroke:#008DE4;stroke-width:1.6;stroke-linecap:round;stroke-miterlimit:10;}
	.st2{fill:#FFFFFF;}
</style>
<title>microfees</title>
<path class="st0" d="M44.2,59.9v1.8c0,0.6-0.4,1-1,1l0,0c-0.6,0-1-0.4-1-1V60c-2.5,0-4.8-1.3-6.2-3.3c-0.4-0.7-0.2-1.5,0.4-2  c0,0,0,0,0.1,0l0,0c0.7-0.4,1.5-0.2,1.9,0.5c0.9,1.2,2.3,1.9,3.8,2v-7.4c-3-1.1-5.8-2.3-5.8-6.1c0-3.4,2.6-5.5,5.8-5.8V36  c0-0.6,0.4-1,1-1l0,0c0.6,0,1,0.4,1,1v1.8c1.9,0.2,3.7,1.2,4.8,2.8c0.4,0.6,0.3,1.5-0.3,1.9c0,0-0.1,0.1-0.1,0.1l0,0  c-0.6,0.3-1.4,0.2-1.8-0.4c-0.6-0.8-1.5-1.4-2.5-1.6v7c3,1.1,5.9,2.3,5.9,6.2C50.2,57.3,47.7,59.5,44.2,59.9z M42.3,46.9v-6.4  c-1.7,0-3,1.4-3,3.1C39.3,45.3,40.3,46.1,42.3,46.9L42.3,46.9z M47.3,53.9c0-1.8-1.2-2.6-3.1-3.4v6.6C45.9,57.1,47.3,55.6,47.3,53.9  L47.3,53.9z"/>
<path class="st1" d="M48.1,16H30.2c-2.1-0.1-3.9,1.5-4,3.6v29.8h-9c-3.1,0-5,3.1-3.4,5.5l29,30l0,0L72.2,55c1.7-2.4-0.3-5.5-3.4-5.5  h-8.2V2"/>
<line class="st1" x1="65.3" y1="25.4" x2="65.3" y2="43.1"/>
<path class="st0" d="M51.9,12.3c-2.1,0-3.8,1.7-3.8,3.8s1.7,3.8,3.8,3.8c2.1,0,3.8-1.7,3.8-3.8v0C55.6,14,53.9,12.3,51.9,12.3z   M51.9,18.7c-1.5,0-2.7-1.2-2.7-2.7s1.2-2.7,2.7-2.7c1.5,0,2.7,1.2,2.7,2.7c0,0,0,0,0,0C54.5,17.5,53.3,18.7,51.9,18.7z"/>
<circle class="st0" cx="60.5" cy="4.7" r="4.7"/>
<path class="st2" d="M61.3,2.5h-1.9l-0.2,0.9h1.7c0.9,0,1.1,0.3,1.1,0.8c0,0.3-0.1,0.6-0.2,0.9c-0.1,0.4-0.4,0.8-1.4,0.8h-1.7  l-0.2,0.9h1.9c0.4,0,0.9,0,1.3-0.2c0.7-0.4,1.1-1.1,1.2-1.9C63.2,3.5,62.9,2.5,61.3,2.5"/>
<path class="st2" d="M58.5,4.2c-0.3,0-0.6,0.2-0.6,0.5c0,0,0,0,0,0c-0.1,0.3-0.1,0.4-0.1,0.4h2c0.3,0,0.6-0.2,0.6-0.5c0,0,0,0,0,0  c0.1-0.3,0.1-0.4,0.1-0.4H58.5z"/>
</svg>