<?xml version="1.0" encoding="UTF-8"?>
<!-- Generator: Adobe Illustrator 23.0.6, SVG Export Plug-In . SVG Version: 6.00 Build 0)  -->
<svg version="1.1" id="Layer_1" xmlns="http://www.w3.org/2000/svg" xmlns:xlink="http://www.w3.org/1999/xlink" x="0px" y="0px" viewBox="0 0 86 86" style="enable-background:new 0 0 86 86;" xml:space="preserve">
<style type="text/css">
	.st0{fill:#008DE4;}
	.st1{fill:#FFFFFF;}
</style>
<title>secure</title>
<path class="st0" d="M41.6,81.7c-4.5,0-8.9-0.7-13.1-2.2c-0.2-0.1-0.4-0.2-0.5-0.4c-0.1-0.2-0.1-0.4,0-0.6c0.1-0.3,0.4-0.6,0.8-0.6  c0.1,0,0.2,0,0.3,0.1c11.5,4,24.1,2.3,34.1-4.6c0.1-0.1,0.3-0.2,0.5-0.2c0.3,0,0.5,0.1,0.7,0.3c0.1,0.2,0.2,0.4,0.1,0.6  c0,0.2-0.2,0.4-0.3,0.6C57.6,79.2,49.7,81.7,41.6,81.7z M41.3,75.7c-2.6,0-4.8-1.8-5.3-4.4l-0.1-0.5l-0.5-0.1  c-8.8-1.8-16.3-7.4-20.4-15.3c-0.1-0.2-0.1-0.4-0.1-0.7c0.1-0.2,0.2-0.4,0.4-0.5c0.1-0.1,0.3-0.1,0.4-0.1c0.3,0,0.6,0.2,0.8,0.5  c3.9,7.4,10.8,12.6,18.9,14.4l0.6,0.1l0.2-0.6c1.1-2.7,4.1-4.1,6.9-3c2,0.8,3.4,2.7,3.4,4.9C46.5,73.3,44.2,75.7,41.3,75.7z   M41.3,66.7c-2,0-3.7,1.7-3.7,3.7s1.7,3.7,3.7,3.7c2,0,3.7-1.7,3.7-3.7C45,68.3,43.3,66.7,41.3,66.7C41.3,66.7,41.3,66.7,41.3,66.7z   M11.1,67.4L10.7,67c-8.4-10.1-11-23.9-6.8-36.3c0.1-0.4,0.5-0.6,0.9-0.6c0.1,0,0.2,0,0.3,0c0.2,0.1,0.4,0.2,0.5,0.4  c0.1,0.2,0.1,0.4,0,0.6C1.6,43,4,56.2,12,65.8l0.3,0.4 M54.8,68.6c-0.3,0-0.6-0.2-0.8-0.5c-0.1-0.2-0.1-0.4-0.1-0.7  c0.1-0.2,0.2-0.4,0.4-0.5c7.7-4.1,13-11.6,14.4-20.1c0.1-0.4,0.4-0.8,0.9-0.8h0.1c0.5,0.1,0.8,0.5,0.8,1c0,0,0,0,0,0  c-0.7,4.5-2.5,8.9-5.2,12.6c-2.7,3.7-6.1,6.7-10.1,8.9C55.1,68.6,55,68.7,54.8,68.6L54.8,68.6z M41.2,62.6  c-11.2,0-20.3-9.1-20.3-20.3C20.9,31.1,30,22,41.2,22s20.3,9.1,20.3,20.3c0,0,0,0,0,0C61.5,53.5,52.5,62.6,41.2,62.6L41.2,62.6z   M33.3,49.1c-2.2,0.4-3.8,2.4-3.8,4.6v3l0.3,0.2c6.6,5.5,16.2,5.5,22.9,0l0.3-0.2v-3c0-2.3-1.6-4.2-3.8-4.6l-2.7-0.5l-0.3,0.3  c-2.7,2.7-7.2,2.7-9.9,0c0,0,0,0,0,0L36,48.6L33.3,49.1z M40.8,33.9c3.8,0.1,6.9,3.3,6.9,7.1v2.5c0,0.9-0.2,1.8-0.5,2.6l-0.3,0.8  l2.7,0.6c2.9,0.5,5,2.9,5.3,5.8l0.1,1.9l1.1-1.5c6.3-8.2,4.7-19.9-3.5-26.2s-19.9-4.7-26.2,3.5c-5.1,6.7-5.1,16,0,22.7l1.1,1.5  l0.1-1.8c0.2-2.9,2.4-5.3,5.3-5.8l1.9-0.3l-0.3-0.8c-0.3-0.8-0.5-1.7-0.5-2.6v-2.6C34,37.3,37.2,33.9,40.8,33.9z M40.8,35.7  c-2.9,0.1-5.3,2.5-5.2,5.4v2.5c-0.2,2.9,2,5.3,4.9,5.5c2.9,0.2,5.3-2,5.5-4.9c0-0.2,0-0.4,0-0.6v-2.5C46,38.2,43.7,35.7,40.8,35.7  L40.8,35.7z M76.8,57.7c-0.1,0-0.2,0-0.3-0.1c-0.2-0.1-0.4-0.3-0.5-0.5c-0.1-0.2-0.1-0.4,0-0.6c5-12.1,3.2-25.8-4.6-36.3l-0.3-0.5  L70.6,20c-0.7,0.3-1.5,0.5-2.3,0.5c-1.4,0-2.8-0.5-3.8-1.5c-2-2-2.1-5.3-0.1-7.3c0,0,0,0,0.1-0.1c2.1-2,5.4-2,7.5,0  c1.8,1.7,2.1,4.5,0.6,6.6l-0.3,0.4l0.3,0.4C81,30,82.9,44.5,77.6,57.2C77.5,57.5,77.2,57.7,76.8,57.7L76.8,57.7z M12.8,39.7h-0.1  c-0.5-0.1-0.8-0.5-0.7-1c0.7-4.5,2.3-8.8,4.9-12.6c2.5-3.6,5.7-6.7,9.5-8.9c0.1-0.1,0.2-0.1,0.4-0.1c0.3,0,0.6,0.2,0.7,0.5  c0.2,0.4,0.1,1-0.3,1.2c-7.3,4.3-12.3,11.7-13.6,20.1C13.5,39.3,13.2,39.7,12.8,39.7L12.8,39.7z M45,13.4l0.5,0.1  c8.7,1.3,16.4,6.4,21,13.9c0.1,0.2,0.2,0.4,0.1,0.6c-0.1,0.2-0.2,0.4-0.4,0.5c-0.1,0.1-0.3,0.1-0.4,0.1c-0.3,0-0.6-0.2-0.8-0.4  c-4.2-7-11.4-11.8-19.5-13.1l-0.5-0.1 M44.3,14l-25.5-2.3c-0.3,0-0.5-0.1-0.7-0.3C18,11.2,17.9,11,18,10.8c0-0.2,0.2-0.4,0.3-0.5  C25.1,5.5,33.1,3,41.4,3.1c5,0,10,0.9,14.6,2.7c0.2,0.1,0.4,0.2,0.5,0.4c0.1,0.2,0.1,0.4,0,0.6c-0.1,0.3-0.5,0.5-0.8,0.5  c-0.1,0-0.2,0-0.3-0.1c-12-4.6-25.4-3-36,4.3c-0.2,0.1-0.3,0.2-0.5,0.2L44.3,14z"/>
<path class="st0" d="M14.5,64.9c-2.6,0-4.7,2.1-4.7,4.7c0,2.6,2.1,4.7,4.7,4.7s4.7-2.1,4.7-4.7l0,0C19.2,67,17.1,64.9,14.5,64.9z   M14.5,72.9c-1.9,0-3.4-1.5-3.4-3.3s1.5-3.3,3.3-3.3s3.4,1.5,3.4,3.3l0,0C17.8,71.4,16.3,72.9,14.5,72.9  C14.5,72.9,14.5,72.9,14.5,72.9z"/>
<path class="st0" d="M40.9,9.6c-2.6,0-4.7,2.1-4.7,4.7c0,2.6,2.1,4.7,4.7,4.7c2.6,0,4.7-2.1,4.7-4.7c0,0,0,0,0,0  C45.6,11.7,43.5,9.6,40.9,9.6z M40.9,17.7c-1.9,0-3.4-1.5-3.4-3.4s1.5-3.4,3.4-3.4c1.9,0,3.4,1.5,3.4,3.4  C44.3,16.2,42.8,17.7,40.9,17.7z"/>
<circle class="st0" cx="68.2" cy="15.2" r="5.8"/>
<path class="st1" d="M69.2,12.5h-2.4l-0.2,1.1h2.2c1.1,0,1.4,0.4,1.4,1c0,0.4-0.1,0.7-0.2,1.1c-0.2,0.5-0.5,1-1.8,1H66l-0.2,1.1h2.4  c0.5,0,1.1-0.1,1.6-0.3c0.9-0.5,1.5-1.3,1.6-2.3C71.7,13.6,71.3,12.4,69.2,12.5"/>
<path class="st1" d="M65.7,14.6c-0.4,0-0.7,0.2-0.8,0.6c0,0,0,0,0,0c-0.1,0.3-0.1,0.5-0.1,0.5h2.5c0.4,0,0.7-0.2,0.8-0.6  c0,0,0,0,0,0c0.1-0.3,0.1-0.5,0.1-0.5H65.7z"/>
</svg>