<?xml version="1.0" encoding="utf-8"?>
<!-- Generator: Adobe Illustrator 24.2.1, SVG Export Plug-In . SVG Version: 6.00 Build 0)  -->
<svg version="1.1" id="Capa_1" xmlns="http://www.w3.org/2000/svg" xmlns:xlink="http://www.w3.org/1999/xlink" x="0px" y="0px"
	 viewBox="0 0 86 86" style="enable-background:new 0 0 86 86;" xml:space="preserve">
<style type="text/css">
	.st0{fill:#008DE4;}
	.st1{enable-background:new    ;}
	.st2{fill:none;stroke:#008DE4;stroke-width:1.6;stroke-linecap:round;stroke-linejoin:round;stroke-miterlimit:10;}
	.st3{fill:#FFFFFF;}
</style>
<g>
	<path class="st0" d="M43,1.6c22.8,0,41.4,18.6,41.4,41.4S65.8,84.4,43,84.4S1.6,65.8,1.6,43S20.2,1.6,43,1.6 M43,0
		C19.3,0,0,19.2,0,43s19.3,43,43,43s43-19.3,43-43S66.7,0,43,0L43,0z"/>
</g>
<g class="st1">
	<path class="st2" d="M5.3,24.6C5.2,25.9,4.7,40.4,7,48.4c1.1,3.9,2.8,6.1,3.2,6.7c1.1,1.5,2.6,2.7,4,3.8c1.8,1.4,3.7,2.8,5.9,3.2
		c3.4,0.6,6.7-1.1,9.8-2.4s7-2.3,9.8-0.4c3.7,2.4,5.3,8.9,3,12.4c-1.9,2.9-5.7,2.3-6.6,4.9c-0.8,2.2,2.3,6.4,4,8.4"/>
	<path class="st2" d="M79.1,62.6c-2.4-1.1-4.7-2.3-7-3.4"/>
	<path class="st2" d="M54.9,63c-2.6,5.3-3.4,7-4.8,6c-6.9-4.9-0.5-10.5-4.9-15.5c-6.4-7.3-11.1-0.7-17.9-3.1
		c-3.8-1.3-4.4-5.4-3.5-8.1c0.9-2.7,5.1-1.7,10.5-5c3.9-2.4,10.5-6.8,10.1-12.3c-0.4-5.8-6.9-8.5-7-13.9c0-3.8,3.4-8.1,6.4-10.2"/>
	<path class="st2" d="M65.7,8.2c-1.8,4.5-5.7,6.2-8.2,5.5c-4.9-1.5-7.3,10.8-1.9,14.1s9.9,2.9,10.6,2.7s10.8-5.9,18.4,6"/>
</g>
<g>
	<g>
		<g>
			<path class="st0" d="M19.5,1.9c6.5,0,11.6,5.2,11.6,11.9c0,5.1-7.3,15.5-11.3,20.6c-4-5.1-11.4-15.5-11.4-20.6
				C8.4,7,13.2,1.9,19.5,1.9 M19.5,0.3c-7.5,0-12.7,6-12.7,13.5s13,23.1,13,23.1s12.9-15.7,12.9-23.1S27,0.3,19.5,0.3L19.5,0.3z"/>
		</g>
	</g>
	<g>
		<circle class="st0" cx="19.8" cy="12.6" r="12"/>
		<path class="st3" d="M22.3,5.8h-6l-0.5,2.8l5.4,0c2.7,0,3.5,1,3.4,2.6c0,0.8-0.4,2.2-0.5,2.7c-0.4,1.2-1.3,2.6-4.4,2.6l-5.3,0
			l-0.5,2.8h6c2.1,0,3-0.2,4-0.7c2.1-1,3.4-3.1,3.9-5.8C28.6,8.7,27.6,5.8,22.3,5.8"/>
		<path class="st3" d="M13.7,11.2c-1.6,0-1.8,1-2,1.6c-0.2,0.8-0.3,1.1-0.3,1.1h6.2c1.6,0,1.8-1,2-1.6c0.2-0.8,0.3-1.1,0.3-1.1
			L13.7,11.2z"/>
	</g>
</g>
<g>
	<g>
		<g>
			<path class="st0" d="M62.3,39.5c6.5,0,11.6,5.2,11.6,11.9c0,5.1-7.3,15.5-11.3,20.6c-4-5.1-11.4-15.5-11.4-20.6
				C51.2,44.6,56,39.5,62.3,39.5 M62.3,37.9c-7.5,0-12.7,6-12.7,13.5s13,23.1,13,23.1s12.9-15.7,12.9-23.1S69.7,37.9,62.3,37.9
				L62.3,37.9z"/>
		</g>
	</g>
	<g>
		<circle class="st0" cx="62.5" cy="50.2" r="12"/>
		<path class="st3" d="M65.1,43.4h-6l-0.5,2.8l5.4,0c2.7,0,3.5,1,3.4,2.6c0,0.8-0.4,2.2-0.5,2.7c-0.4,1.2-1.3,2.6-4.4,2.6l-5.3,0
			l-0.5,2.8h6c2.1,0,3-0.2,4-0.7c2.1-1,3.4-3.1,3.9-5.8C71.3,46.3,70.4,43.4,65.1,43.4"/>
		<path class="st3" d="M56.5,48.8c-1.6,0-1.8,1-2,1.6c-0.2,0.8-0.3,1.1-0.3,1.1h6.2c1.6,0,1.8-1,2-1.6c0.2-0.8,0.3-1.1,0.3-1.1H56.5
			z"/>
	</g>
</g>
</svg>
