<?xml version="1.0" encoding="UTF-8"?>
<!-- Generator: Adobe Illustrator 23.0.0, SVG Export Plug-In . SVG Version: 6.00 Build 0)  -->
<svg version="1.1" id="Layer_1" xmlns="http://www.w3.org/2000/svg" xmlns:xlink="http://www.w3.org/1999/xlink" x="0px" y="0px" viewBox="0 0 100.1 100.1" style="enable-background:new 0 0 100.1 100.1;" xml:space="preserve">
<style type="text/css">
	.st0{fill:#392666;}
</style>
<g>
	<path class="st0" d="M43.7,48.9c0,0,4.2-1.4,3.5-6.6c-0.3-2.5-2-4.2-4.1-4.7c-1.5-0.4-3.2-0.7-5.1-0.7c-1.1,0-2.2-0.1-3.6-0.1h-5.2   c-0.5,0-1.1,0.1-1.7,0.1c-1.2,0.2-1.8,0.9-2,2.1c-0.1,0.6-0.1,1.1-0.1,1.5v18.8c0,0.6,0,1,0.1,1.6c0.2,1.1,0.7,1.7,1.8,1.9   c0.5,0.1,0.9,0.1,1.2,0.1h10.6c2.2,0,4.1-0.5,5.7-1.5c1.9-1.1,3.1-3,3.4-5.2C49.1,51.3,43.7,48.9,43.7,48.9L43.7,48.9z M34.2,43.7   h1.4c0.7,0,1.4,0,2.1,0.1c0.9,0.1,1.5,0.8,1.6,1.8c0,1.1-0.5,1.9-1.4,2c-0.7,0.1-1.4,0.1-2.1,0.2h-1.5L34.2,43.7L34.2,43.7z    M38.6,55.9c-0.4,0.1-0.9,0.2-1.3,0.3h-3V52h1.6c0.8,0,1.6,0.1,2.4,0.2c0.8,0.1,1.4,0.8,1.4,1.8C39.8,55,39.3,55.6,38.6,55.9   L38.6,55.9z M75.2,58.4c-2.7-1.1-4.1-2.9-5.4-5l-0.4-0.7l0.7-0.4c0.2-0.1,0.4-0.2,0.5-0.3c0.4-0.2,0.7-0.4,1-0.6   c0.6-0.4,1-0.8,1.3-1.1c1.3-1.5,1.7-3.6,1.4-5.8c-0.3-2.4-1.7-4.6-3.5-5.8c-1.9-1.2-3.9-1.8-6.9-1.9h-8.6c-0.5,0-1.1,0.1-1.7,0.1   c-1.2,0.2-1.8,0.9-2,2.1c-0.1,0.5-0.1,1-0.1,1.5v18.9c0,0.5,0,1,0.1,1.5c0.2,1.2,0.8,1.8,1.9,2c1.3,0.1,2.9,0.2,4,0   c1.6-0.2,2.3-0.9,2.3-2.6v-6.4l0.7-0.1c0.5-0.1,0.3-0.1,0.6-0.1c1.1,0,1.3,0.7,1.7,1.7l0.1,0.2c0,0.1,0.1,0.2,0.1,0.3l0.1,0.2   c0.9,2.1,1.7,4.1,3.2,5.7c1,1.1,2.6,1.4,4,1.4c0.6,0,1.2-0.1,1.8-0.3C73.8,62.3,75.2,60.3,75.2,58.4L75.2,58.4z M63.9,48.3   c-0.7,0.1-1.4,0.1-2.1,0.2h-1.6v-4.7h1.5c0.7,0,1.4,0.1,2.2,0.2c1,0.2,1.7,1,1.7,2.1C65.7,47.3,65,48.2,63.9,48.3L63.9,48.3z    M20.3,45.8c-1.1-5.3-4.8-8.7-9.4-8.7s-8.3,3.4-9.4,8.7S0,53.6,0,57.3c0,2.6,0.4,4.3,1.2,5.2c0.5,0.5,1.3,0.8,2.3,0.8   c1.9,0,3.2-1.4,4-2.8c0.6-1.1,1.5-2.6,3.4-2.6s2.7,1.4,3.4,2.6c0.8,1.3,2.1,2.8,4,2.8c1,0,1.8-0.3,2.3-0.8c0.9-0.9,1.3-2.6,1.3-5.2   C21.8,53.5,21.4,51.1,20.3,45.8z M8.3,51.6v-1.7c0-0.7,0.1-1.5,0.2-2.2c0.2-1.1,1.1-1.9,2.3-1.9s2.2,0.8,2.4,1.9   c0.1,0.7,0.2,1.5,0.2,2.2v0.9l0.1,0.9H8.3V51.6z M98.4,45.8c-1.1-5.3-4.8-8.7-9.4-8.7s-8.3,3.4-9.4,8.7s-1.5,7.8-1.5,11.5   c0,2.6,0.4,4.3,1.3,5.2c0.5,0.5,1.3,0.8,2.3,0.8c1.9,0,3.2-1.4,4-2.8c0.6-1.1,1.5-2.6,3.4-2.6s2.7,1.4,3.4,2.6   c0.8,1.3,2.1,2.8,4,2.8c1,0,1.8-0.3,2.3-0.8c0.9-0.9,1.3-2.6,1.3-5.2C99.9,53.5,99.6,51.1,98.4,45.8z M86.4,51.6v-1.7   c0-0.7,0.1-1.5,0.2-2.2c0.2-1.1,1.1-1.9,2.3-1.9s2.2,0.8,2.4,1.9c0.1,0.7,0.2,1.5,0.2,2.2v0.9l0.1,0.9h-5.2V51.6z"/>
</g>
</svg>