<?xml version="1.0" encoding="UTF-8"?>
<!-- Generator: Adobe Illustrator 23.0.0, SVG Export Plug-In . SVG Version: 6.00 Build 0)  -->
<svg version="1.1" id="Capa_1" xmlns="http://www.w3.org/2000/svg" xmlns:xlink="http://www.w3.org/1999/xlink" x="0px" y="0px" viewBox="0 0 50.1 50.1" style="enable-background:new 0 0 50.1 50.1;" xml:space="preserve">
<style type="text/css">
	.st0{fill:#FF9300;}
	.st1{fill:#FFFFFF;}
</style>
<g>
	<path class="st0" d="M49.3,31.1C46,44.5,32.4,52.7,18.9,49.3C5.6,46-2.5,32.4,0.8,19S17.6-2.6,31.2,0.7   C44.5,4.1,52.7,17.7,49.3,31.1L49.3,31.1z"/>
	<path class="st1" d="M36,21.5c0.5-3.3-2-5.1-5.5-6.3l1.1-4.5L29,10l-1.1,4.4c-0.7-0.2-1.5-0.3-2.2-0.5l1.1-4.4L24,8.8l-1.1,4.5   c-0.6-0.1-1.2-0.3-1.8-0.4l0,0L17.4,12l-0.7,2.9l2,0.5c1.1,0.3,1.3,1,1.3,1.6l-1.3,5c0.1,0,0.2,0,0.3,0.1c-0.1,0-0.2,0-0.3-0.1   l-1.8,7.2c-0.1,0.3-0.5,0.8-1.3,0.7l-2-0.5l-1.4,3.1l3.6,0.9c0.7,0.2,1.3,0.3,2,0.5l-1.1,4.6l2.7,0.7l1.1-4.5   c0.8,0.2,1.5,0.4,2.2,0.6l-1.1,4.5l2.7,0.7l1.1-4.6c4.7,0.9,8.2,0.5,9.7-3.7c1.2-3.4-0.1-5.4-2.5-6.7C34.3,25.1,35.8,23.9,36,21.5   L36,21.5z M29.9,30.3c-0.8,3.4-6.6,1.6-8.5,1.1l1.5-6.1C24.8,25.8,30.8,26.7,29.9,30.3L29.9,30.3z M30.6,21.4   c-0.8,3.1-5.6,1.5-7.1,1.1l1.4-5.5C26.5,17.5,31.5,18.2,30.6,21.4z"/>
</g>
</svg>