<?xml version="1.0" encoding="UTF-8"?>
<!-- Generator: Adobe Illustrator 23.0.0, SVG Export Plug-In . SVG Version: 6.00 Build 0)  -->
<svg version="1.1" id="Layer_1" xmlns="http://www.w3.org/2000/svg" xmlns:xlink="http://www.w3.org/1999/xlink" x="0px" y="0px" viewBox="0 0 243.5 243.5" style="enable-background:new 0 0 243.5 243.5;" xml:space="preserve">
<style type="text/css">
	.st0{fill:#3587C8;}
	.st1{fill:#FFFFFF;}
</style>
<path class="st0" d="M220.9,187.5H116.2l-50.3,50.9v-50.9H22.6C10.2,187.5,0,177.3,0,164.9V27.7C0,15.3,10.2,5.1,22.6,5.1h198.3  c12.4,0,22.6,10.2,22.6,22.6v137.2C243.5,177.3,233.3,187.5,220.9,187.5z"/>
<g>
	<g>
		<path class="st1" d="M137.8,43.4H90l-4,22.1l43.1,0.1c21.2,0,27.5,7.7,27.3,20.5c-0.1,6.6-2.9,17.7-4.2,21.2    c-3.3,9.6-10,20.5-35.2,20.5H75.1l-4,22.2h47.7c16.8,0,24-2,31.5-5.5c16.8-7.8,26.8-24.3,30.8-46    C187.2,66.3,179.8,43.4,137.8,43.4"/>
		<path class="st1" d="M69.4,85.6c-12.5,0-14.3,8.2-15.5,13.1c-1.6,6.5-2.1,9.1-2.1,9.1h48.9c12.5,0,14.3-8.2,15.5-13.1    c1.6-6.5,2.1-9.1,2.1-9.1H69.4L69.4,85.6z"/>
	</g>
</g>
</svg>