<?xml version="1.0" encoding="UTF-8"?>
<!-- Generator: Adobe Illustrator 24.0.2, SVG Export Plug-In . SVG Version: 6.00 Build 0)  -->
<svg version="1.1" id="Layer_2" xmlns="http://www.w3.org/2000/svg" xmlns:xlink="http://www.w3.org/1999/xlink" x="0px" y="0px" viewBox="0 0 178 178" style="enable-background:new 0 0 178 178;" xml:space="preserve">
<style type="text/css">
	.st0{fill:url(#SVGID_1_);}
</style>
<linearGradient id="SVGID_1_" gradientUnits="userSpaceOnUse" x1="0.9763" y1="89" x2="177.0237" y2="89">
	<stop offset="0" style="stop-color:#2D88C8"/>
	<stop offset="0.2205" style="stop-color:#3691CE"/>
	<stop offset="0.5869" style="stop-color:#4EABDE"/>
	<stop offset="1" style="stop-color:#71CFF5"/>
</linearGradient>
<path class="st0" d="M165.6,10.5H12.4C6.1,10.5,1,15.6,1,21.9v109.1c0,6.3,5.1,11.4,11.4,11.4h15.8l-0.9,25.2l25.1-25.2h113.3  c6.3,0,11.4-5.1,11.4-11.4V21.9C177,15.6,171.9,10.5,165.6,10.5z M27.7,86.3c0,0,0.5-2.4,1.9-8.2c1.1-4.5,2.7-11.9,14.1-11.9h44.4  c0,0-0.5,2.4-1.9,8.2c-1.1,4.5-2.7,11.9-14.1,11.9H27.7z M145.2,78c-3.6,19.6-12.7,34.7-27.9,41.7c-6.9,3.2-13.4,5-28.6,5H45.4  l3.6-20.1l38,0c22.9,0,29-9.9,31.9-18.6c1.1-3.3,3.7-13.3,3.8-19.3c0.2-11.6-5.5-18.6-24.8-18.6l-39.1,0l3.6-20.1h43.4  C143.9,27.9,150.6,48.7,145.2,78z"/>
</svg>