<?xml version="1.0" encoding="UTF-8"?>
<!-- Generator: Adobe Illustrator 24.2.1, SVG Export Plug-In . SVG Version: 6.00 Build 0)  -->
<svg version="1.1" id="Layer_1" xmlns="http://www.w3.org/2000/svg" xmlns:xlink="http://www.w3.org/1999/xlink" x="0px" y="0px" viewBox="0 0 52 52" style="enable-background:new 0 0 52 52;" xml:space="preserve">
<style type="text/css">
	.st0{fill:#B3B5B6;}
	.st1{fill:#77C7C4;}
	.st2{fill:#6C6E70;}
</style>
<g id="그룹_67">
	<g id="그룹_70">
		<path id="패스_65" class="st0" d="M26.7,9.8l3.9-2.2V2.2L26.7,0V9.8z"/>
		<path id="패스_66" class="st1" d="M12.4,33.1v-15l12.9-7.5V0L3.9,12.4c-0.4,0.2-0.7,0.7-0.7,1.1v24.8l0,0.1L12.4,33.1z"/>
		<path id="패스_67" class="st2" d="M39,34.1l-13,7.5l-12.9-7.4L4,39.5l21.4,12.4c0.4,0.2,0.9,0.2,1.3,0l21.5-12.4l0,0L39,34.1z"/>
		<path id="패스_68" class="st0" d="M48.1,12.4l-8.5-4.9v5.3l-9.1,5.3l9.1,5.3V33l9.2,5.3V13.5C48.8,13.1,48.5,12.6,48.1,12.4z"/>
		<path id="패스_69" class="st2" d="M21.5,23.3l0,10.5l8.9-5.1V18.2L21.5,23.3z"/>
	</g>
</g>
</svg>