<?xml version="1.0" encoding="UTF-8"?>
<!-- Generator: Adobe Illustrator 23.0.0, SVG Export Plug-In . SVG Version: 6.00 Build 0)  -->
<svg version="1.1" id="Layer_1" xmlns="http://www.w3.org/2000/svg" xmlns:xlink="http://www.w3.org/1999/xlink" x="0px" y="0px" viewBox="0 0 1244 1244" style="enable-background:new 0 0 1244 1244;" xml:space="preserve">
<style type="text/css">
	.st0{fill:none;stroke:#008DE4;stroke-width:55.0765;stroke-miterlimit:10;}
	.st1{fill:#008DE4;stroke:#008DE4;stroke-miterlimit:10;}
	.st2{fill:#FFFFFF;}
</style>
<g>
	<ellipse class="st0" cx="622" cy="621.9" rx="594" ry="293.3"/>
	
		<ellipse transform="matrix(0.8604 -0.5096 0.5096 0.8604 -230.1467 403.8367)" class="st0" cx="622.1" cy="622" rx="293.3" ry="594"/>
	
		<ellipse transform="matrix(0.5096 -0.8604 0.8604 0.5096 -230.1176 840.2011)" class="st0" cx="622" cy="622" rx="594" ry="293.3"/>
</g>
<path class="st1" d="M783,339.6c-51.2-7.1-105.2-10.9-161-10.9c-55.7,0-109.7,3.8-160.9,10.9c-32.2,40.4-63,85-91.4,133  c-29.5,49.8-54.5,100-74.9,149.4c20.4,49.4,45.4,99.7,74.9,149.5c28.4,48,59.2,92.5,91.4,132.9c51.2,7,105.1,10.8,160.9,10.8  s109.8-3.8,161-10.9c32.2-40.4,62.9-84.9,91.4-132.9c29.5-49.8,54.5-100.1,74.9-149.5c-20.4-49.4-45.4-99.6-74.9-149.4  C846,424.5,815.2,380,783,339.6z"/>
<g>
	<g>
		<path class="st2" d="M684,434.2H519.5l-13.6,76.2l148.5,0.2c73.1,0,94.7,26.5,94.1,70.6c-0.3,22.6-10.1,60.7-14.3,73.1    c-11.3,33-34.4,70.6-121.2,70.5l-144.3-0.1L455,800.9H619c57.9,0,82.5-6.7,108.6-18.8c57.8-26.7,92.2-83.7,106-158.2    C854.3,513.1,828.7,434.2,684,434.2"/>
		<path class="st2" d="M448.6,579.3c-43.1,0-49.3,28.1-53.3,45.1c-5.3,22.2-7.1,31.2-7.1,31.2h168.4c43.1,0,49.3-28.1,53.3-45.1    c5.3-22.2,7.1-31.2,7.1-31.2H448.6z"/>
	</g>
</g>
</svg>