<?xml version="1.0" encoding="UTF-8"?>
<!-- Generator: Adobe Illustrator 23.0.0, SVG Export Plug-In . SVG Version: 6.00 Build 0)  -->
<svg version="1.1" id="Layer_1" xmlns="http://www.w3.org/2000/svg" xmlns:xlink="http://www.w3.org/1999/xlink" x="0px" y="0px" viewBox="0 0 22 22" style="enable-background:new 0 0 22 22;" xml:space="preserve">
<style type="text/css">
	.st0{fill:url(#Combined-Shape_1_);}
</style>
<title>evercoin-logo</title>
<desc>Created with Sketch.</desc>
<linearGradient id="Combined-Shape_1_" gradientUnits="userSpaceOnUse" x1="-104.6015" y1="2.9651" x2="-104.1514" y2="3.4152" gradientTransform="matrix(141.7949 0 0 27.2665 14807.5781 -77.0795)">
	<stop offset="0" style="stop-color:#05B068"/>
	<stop offset="1" style="stop-color:#11B89A"/>
</linearGradient>
<path id="Combined-Shape" class="st0" d="M12.9,12.3l-4.3,0.5c0.5,2.7,2.2,4,4.3,4c2,0,3.2-0.8,3.8-2.1H22c-1.2,3.6-4.3,6.1-8.9,6.1  c-4.9,0-8.3-2.9-9.2-7.4L0,13.8l2.7-3.2l0.9-0.1c0.3-5.5,4.1-9.2,9.9-9.2c2.1,0,3.9,0.6,5.4,1.8l-2.3,3.9c-0.9-0.9-2.1-1.5-2.9-1.5  c-1.7,0-4.6,0.2-5.1,4.4L14.9,9L12.9,12.3z"/>
</svg>