<?xml version="1.0" encoding="UTF-8"?>
<!-- Generator: Adobe Illustrator 23.0.0, SVG Export Plug-In . SVG Version: 6.00 Build 0)  -->
<svg version="1.1" id="Layer_1" xmlns="http://www.w3.org/2000/svg" xmlns:xlink="http://www.w3.org/1999/xlink" x="0px" y="0px" viewBox="0 0 396 396" style="enable-background:new 0 0 396 396;" xml:space="preserve">
<style type="text/css">
	.st0{fill:#FF6901;}
	.st1{fill:#264176;}
</style>
<title>Jaxx_Primary_Icon)RGB_Screeen</title>
<path class="st0" d="M33.8,60.7c-39.9,33.9-45.2,94.3-11.9,134.9L125.8,322c32.4,39.9,91,45.9,130.8,13.6c0.6-0.5,1.2-1,1.8-1.5  c39.9-33.9,45.2-94.3,11.9-134.9L166.4,72.8C134,32.9,75.4,26.8,35.5,59.2C34.9,59.7,34.4,60.2,33.8,60.7z"/>
<path class="st1" d="M271.1,321L271.1,321c28.4-35.7,28-86.4-0.9-121.7L198,111.3l31.6-38.5c32.4-39.9,91-46,130.9-13.6  c0.6,0.5,1.2,1,1.8,1.5c39.9,33.9,45.2,94.3,11.9,134.9L271.1,321z"/>
</svg>