<?xml version="1.0" encoding="UTF-8"?>
<!-- Generator: Adobe Illustrator 23.0.0, SVG Export Plug-In . SVG Version: 6.00 Build 0)  -->
<svg version="1.1" id="Layer_1" xmlns="http://www.w3.org/2000/svg" xmlns:xlink="http://www.w3.org/1999/xlink" x="0px" y="0px" viewBox="0 0 19.9 19.9" style="enable-background:new 0 0 19.9 19.9;" xml:space="preserve">
<style type="text/css">
	.st0{fill:#142533;}
</style>
<path class="st0" d="M16.7,0H7.6v12.3h12.3V3.2C19.9,1.4,18.5,0,16.7,0C16.7,0,16.7,0,16.7,0z M4.8,0H3.2C1.4,0,0,1.4,0,3.2  c0,0,0,0,0,0v1.6h4.8V0z M0,7.6h4.8v4.8H0V7.6z M15.2,19.9h1.6c1.8,0,3.2-1.4,3.2-3.2c0,0,0,0,0,0v-1.5h-4.8V19.9z M7.6,15.2h4.8  v4.8H7.6V15.2z M0,15.2v1.6c0,1.8,1.4,3.2,3.2,3.2c0,0,0,0,0,0h1.6v-4.8H0z"/>
</svg>