<?xml version="1.0" encoding="UTF-8"?>
<!-- Generator: Adobe Illustrator 23.0.6, SVG Export Plug-In . SVG Version: 6.00 Build 0)  -->
<svg version="1.1" id="Layer_1" xmlns="http://www.w3.org/2000/svg" xmlns:xlink="http://www.w3.org/1999/xlink" x="0px" y="0px" viewBox="0 0 300 300" style="enable-background:new 0 0 300 300;" xml:space="preserve">
<style type="text/css">
	.st0{fill:#3778B9;}
</style>
<g>
	<path class="st0" d="M279.9,132.7l-60.6,6.4c-8.7,0.9-14.9,8.7-14,17.3l1.5,13.9c0.9,8.7,8.7,14.9,17.3,14l60.6-6.4   c8.7-0.9,14.9-8.7,14-17.3l-1.5-13.9C296.3,138,288.6,131.8,279.9,132.7z M227.5,174.3c-7.2,0.8-13.7-4.5-14.5-11.7   c-0.8-7.2,4.5-13.7,11.7-14.5c7.2-0.8,13.7,4.5,14.5,11.7C240,167.1,234.7,173.5,227.5,174.3z"/>
	<path class="st0" d="M218.2,129.1l52.6-5.5l-2.3-22.1c-1.5-14-14-24.2-28-22.7L24.1,101.5c-14,1.5-24.2,14-22.7,28L13.2,242   c1.5,14,14,24.2,28,22.7L257.6,242c14-1.5,24.2-14,22.7-28l-2.7-25.2l-52.6,5.5c-14.1,1.5-26.8-8.8-28.3-22.9l-1.5-13.9   C193.8,143.3,204.1,130.6,218.2,129.1z M58.9,181.7c0.5-3.5,1.1-9.3,9.8-10.2l34.1-3.6c0,0-0.2,1.9-0.8,6.5   c-0.5,3.5-1.1,9.3-9.8,10.2l-34.1,3.6C58.2,188.2,58.3,186.3,58.9,181.7z M147.6,172.3c-1.2,15.4-6.9,27.6-18.1,34.3   c-5,3-9.9,4.9-21.6,6.1l-33.2,3.5l1.1-15.7l29.2-3.1c17.6-1.8,21.4-9.9,23-16.8c0.6-2.6,1.8-10.5,1.3-15.1   c-0.8-8.9-5.7-13.8-20.5-12.3l-30,3.1l1.1-15.7l33.3-3.5C142.6,134.1,149.4,149.5,147.6,172.3z"/>
	<g>
		<path class="st0" d="M225.3,64.9c-4.8-13.2-19.5-20.1-32.7-15.3L83.8,89.2L228.6,74L225.3,64.9z"/>
	</g>
	<g>
		<path class="st0" d="M165.1,44.6c-6.6-9.8-19.9-12.4-29.7-5.8L54.9,93l114.7-41.7L165.1,44.6z"/>
	</g>
</g>
</svg>