<?xml version="1.0" encoding="UTF-8"?>
<!-- Generator: Adobe Illustrator 24.2.1, SVG Export Plug-In . SVG Version: 6.00 Build 0)  -->
<svg version="1.1" id="Layer_1" xmlns="http://www.w3.org/2000/svg" xmlns:xlink="http://www.w3.org/1999/xlink" x="0px" y="0px" viewBox="0 0 39.9 39.9" style="enable-background:new 0 0 39.9 39.9;" xml:space="preserve">
<style type="text/css">
	.st0{fill:#57AFC2;}
	.st1{fill:url(#SVGID_1_);}
</style>
<g>
	<path class="st0" d="M35,0L22,8V0h-4.5v10.7L2.5,20l15,9.2v10.7H22v-8l13.1,8l2.2-4.1L22,26.4V13.3L37.2,4L35,0z M17.5,16.1v7.6   l-6.2-3.8C11.3,19.9,17.5,16.1,17.5,16.1z"/>
	
		<linearGradient id="SVGID_1_" gradientUnits="userSpaceOnUse" x1="-238.8412" y1="406.4626" x2="-238.8412" y2="407.0512" gradientTransform="matrix(34.775 0 0 -39.858 8325.6328 16240.6436)">
		<stop offset="0" style="stop-color:#327583"/>
		<stop offset="1" style="stop-color:#327583;stop-opacity:0"/>
	</linearGradient>
	<path class="st1" d="M35,0L22,8V0h-4.5v10.7L2.5,20l15,9.2v10.7H22v-8l13.1,8l2.2-4.1L22,26.4V13.3L37.2,4L35,0z M17.5,16.1v7.6   l-6.2-3.8C11.3,19.9,17.5,16.1,17.5,16.1z"/>
</g>
</svg>