<?xml version="1.0" encoding="utf-8"?>
<!-- Generator: Adobe Illustrator 23.0.0, SVG Export Plug-In . SVG Version: 6.00 Build 0)  -->
<svg version="1.1" id="图层_1" xmlns="http://www.w3.org/2000/svg" xmlns:xlink="http://www.w3.org/1999/xlink" x="0px" y="0px"
	 viewBox="0 0 29.1 32.2" style="enable-background:new 0 0 29.1 32.2;" xml:space="preserve">
<style type="text/css">
	.st0{fill:#222222;}
</style>
<path id="Combined-Shape_4_" class="st0" d="M23.9,8.7l-7.5-4.2c-0.3,0.3-0.7,0.6-1.2,0.7v8.5c1.1,0.3,2,1.3,2,2.5
	c0,0.2,0,0.5-0.1,0.7l7.5,4.2c0.3-0.3,0.7-0.6,1.2-0.7v-8.5c-1.1-0.3-2-1.3-2-2.5C23.8,9.1,23.9,8.9,23.9,8.7L23.9,8.7z M27.1,11.9
	v8.5c1.1,0.3,2,1.3,2,2.5c0,1.4-1.2,2.6-2.6,2.6c-0.7,0-1.4-0.3-1.9-0.8l-7.5,4.2c0.1,0.2,0.1,0.4,0.1,0.7c0,1.4-1.2,2.6-2.6,2.6
	S12,31.1,12,29.6c0-0.2,0-0.5,0.1-0.7l-7.5-4.2c-0.6,0.4-1.2,0.7-2,0.7c-1.4,0-2.6-1.1-2.6-2.6c0-1.2,0.8-2.2,2-2.5v-8.5
	c-1.1-0.3-2-1.3-2-2.5c0-1.4,1.2-2.6,2.6-2.6C3.4,6.8,4,7.1,4.5,7.6L12,3.3c-0.1-0.2-0.1-0.4-0.1-0.7c0-1.4,1.2-2.6,2.6-2.6
	s2.6,1.1,2.6,2.6c0,0.2,0,0.5-0.1,0.7l7.5,4.2C25,7,25.6,6.7,26.4,6.7c1.4,0,2.6,1.1,2.6,2.6C29.1,10.6,28.2,11.6,27.1,11.9
	L27.1,11.9z M23.9,23.5c-0.1-0.2-0.1-0.4-0.1-0.7c0-0.2,0-0.5,0.1-0.7l-7.5-4.2c-0.5,0.5-1.1,0.8-1.9,0.8c-0.7,0-1.4-0.3-1.9-0.8
	l-7.4,4.2c0.1,0.2,0.1,0.4,0.1,0.7c0,0.2,0,0.5-0.1,0.7l7.5,4.2c0.5-0.5,1.1-0.8,1.9-0.8c0.7,0,1.4,0.3,1.9,0.8L23.9,23.5L23.9,23.5
	z M12,16.8c-0.1-0.2-0.1-0.4-0.1-0.7c0-1.2,0.8-2.2,2-2.5V5.1C13.4,5,13,4.7,12.7,4.4L5.2,8.7c0,0.2,0,0.4,0,0.7
	c0,1.2-0.8,2.2-2,2.5v8.5c0.5,0.1,0.9,0.4,1.2,0.7L12,16.8L12,16.8z"/>
</svg>
