<?xml version="1.0" encoding="UTF-8"?>
<!-- Generator: Adobe Illustrator 23.0.0, SVG Export Plug-In . SVG Version: 6.00 Build 0)  -->
<svg version="1.1" id="Layer_1" xmlns="http://www.w3.org/2000/svg" xmlns:xlink="http://www.w3.org/1999/xlink" x="0px" y="0px" viewBox="0 0 420 420" style="enable-background:new 0 0 420 420;" xml:space="preserve">
<style type="text/css">
	.st0{display:none;fill:none;stroke:#FFFFFF;stroke-miterlimit:10;}
	.st1{fill:url(#SVGID_1_);}
	.st2{fill:#FFFFFF;}
</style>
<path class="st0" d="M-1488.8,875h-14l0.4,119.6h-54.8l-0.6,43h82.8c-10,5.3-19.7,11.4-27.3,16.3v27h17"/>
<linearGradient id="SVGID_1_" gradientUnits="userSpaceOnUse" x1="61.5076" y1="-159.2924" x2="358.4924" y2="137.6924" gradientTransform="matrix(1 0 0 1 0 220.8)">
	<stop offset="0" style="stop-color:#30B5EC"/>
	<stop offset="1" style="stop-color:#1E58BB"/>
</linearGradient>
<circle class="st1" cx="210" cy="210" r="210"/>
<path class="st2" d="M305.3,202.5c-2.2-1.3-4.5-2.5-6.8-3.5h-0.3l1.6-1.5c3-2.4,6-5,8.5-8c11.8-13.6,15.2-28.8,10.2-45.3  c-4-13.6-13.2-23.7-27.6-31c-11-5.5-23.4-8-38.3-8H131l0.4,119.5H76.6v47h80l-25,15.2v28h123.6c8,0,16.5-1,25-2.3  c28.6-5,51-32.2,51-62C331.2,228.9,322.5,212.6,305.3,202.5L305.3,202.5z M262.5,183.7c-2.5,1.7-5.7,2.6-9,3.4  c-2.4,0.7-5,0.7-7.3,0.7h-67v-41H252c8.7,0.2,16,6,18.6,14.6c2.4,8.2-1,17.4-8,22.4L262.5,183.7z M197.5,273.7h-18.3v-48h74.5  c10.7,0,18.3,3.5,23.7,11c4.4,6,5.5,14,3,21.3c-2.6,7-8,12.2-15,14c-4.3,1-8.4,1.7-12,1.8h-56L197.5,273.7z"/>
</svg>