<?xml version="1.0" encoding="utf-8"?>
<!-- Generator: Adobe Illustrator 23.0.0, SVG Export Plug-In . SVG Version: 6.00 Build 0)  -->
<svg version="1.1" id="Layer_1" xmlns="http://www.w3.org/2000/svg" xmlns:xlink="http://www.w3.org/1999/xlink" x="0px" y="0px"
	 viewBox="0 0 44 44" style="enable-background:new 0 0 44 44;" xml:space="preserve">
<style type="text/css">
	.st0{fill:#4F4677;}
</style>
<path class="st0" d="M22.5,0.2C13.4,0.1,5,5.2,1.7,13.9c-3.2,8.3-1,18.3,5.7,24.3c6.6,6,16.8,7.2,24.7,3.2
	c8-4.2,12.6-12.9,11.6-21.9C42.6,8.6,33.4,0.3,22.5,0.2z M18.2,27.7c-1.8,2.2-5,2.4-7.2,0.6c-0.3-0.2-0.5-0.5-0.7-0.7
	c0,0.9,0.1,1.6-1.1,1.7c-1,0.1-1.5-0.5-1.5-1.4v-11c0-0.6,0-1.6-0.9-1.2H6.4c-1.2,0-1.6-1.7-0.8-2.5c0.6-0.4,1.2-0.5,1.9-0.3h2.4
	c0.7-0.1,1.3-0.1,1.3,0.8v4.6c2.3-2.3,5.8-2.2,7.4,0.8C20.1,21.8,20,25.2,18.2,27.7z M27.4,29.2h-4.9c-0.9,0-1.7-0.2-1.9-1.2
	c-0.2-0.9,0.1-1.8,1.1-1.8l0.7,0.2c1,0.1,0.7-2.8,0.7-3.4c0-0.8,0.4-3.5-0.9-3.1c-0.9,0-1.5-0.3-1.6-1.4c0-1.8,1.5-1.6,2.8-1.5
	c0.8,0.1,2.1-0.4,2.8-0.1c0.6,0.2,0.5,0.8,0.6,1.4v4.9c0,0.6-0.3,3.7,0.9,3.1c0.9,0,1.6,0.1,1.4,1.4C28.9,28.5,28.3,29.2,27.4,29.2z
	 M38,18.2c0,2.5-3.7,0.1-3.9,1.9c-0.2,1.4,0,3,0,4.4c0,0.7-0.1,1.6,0.8,1.8c1.2,0.3,1.1-1.3,1.1-2c0-1.1,1-1.9,2.1-1.3
	c1.1,0.7,0.9,2.6,0.6,3.6c-0.8,2.6-4.4,3.5-6.6,2.1c-2.2-1.4-1.5-4.6-1.4-6.8v-2c0-0.6,0-0.5-0.5-0.5c-0.4,0-1,0.1-1.4-0.1
	c-0.6-0.3-0.7-1.1-0.6-1.7c0.4-1.3,1.8-0.3,2.1-1.5c0.2-0.8,0-1.7,0-2.6c0-0.7,0.2-1,0.9-1l1.3,0.1c0.3,0,0.9-0.2,1.1-0.1
	c0.6,0.4,0.2,2.1,0.2,2.8c0,0.4-0.1,1,0.2,1.2s1.1,0.1,1.4,0.1C36.7,16.9,38,16.9,38,18.2z"/>
<path class="st0" d="M13.2,19.7c-3.2,0-3.3,7.3,0.2,6.8c1.6-0.3,1.8-2.2,1.8-3.5C15.2,21.6,14.9,19.7,13.2,19.7z"/>
</svg>
