<?xml version="1.0" encoding="utf-8"?>
<!-- Generator: Adobe Illustrator 23.0.0, SVG Export Plug-In . SVG Version: 6.00 Build 0)  -->
<svg version="1.1" id="Layer_1" xmlns="http://www.w3.org/2000/svg" xmlns:xlink="http://www.w3.org/1999/xlink" x="0px" y="0px"
	 viewBox="0 0 104 104" style="enable-background:new 0 0 104 104;" xml:space="preserve">
<style type="text/css">
	.st0{fill-rule:evenodd;clip-rule:evenodd;fill:#97C554;}
	.st1{fill-rule:evenodd;clip-rule:evenodd;fill:#709B30;}
</style>
<title>logo</title>
<desc>Created with Sketch.</desc>
<path id="Path-1-Copy-9" class="st0" d="M3.9,88.9c4.8,5.1,31.1,29.4,72.5,1.2c29.9-23.3,29.1-73.8,26.3-89
	C101.7,3.3,67,79.3,3.9,88.9z M102.7,1.1c-0.4-0.2-38.8-5.4-76.9,19.1C2.2,35.4-0.9,57.6,0.2,72.5C55.5,66.3,101.4,2.8,102.7,1.1z"
	/>
<path id="Path-1-Copy-8" class="st1" d="M102.7,1.1c-0.4-0.2-38.8-5.4-76.9,19.1C2.2,35.4-0.9,57.6,0.2,72.5
	C55.5,66.3,101.4,2.8,102.7,1.1z"/>
</svg>
