<?xml version="1.0" encoding="utf-8"?>
<!-- Generator: Adobe Illustrator 23.0.6, SVG Export Plug-In . SVG Version: 6.00 Build 0)  -->
<svg version="1.1" id="Layer_1" xmlns="http://www.w3.org/2000/svg" xmlns:xlink="http://www.w3.org/1999/xlink" x="0px" y="0px"
	 viewBox="0 0 158.8 158.8" style="enable-background:new 0 0 158.8 158.8;" xml:space="preserve">
<style type="text/css">
	.st0{fill:#D53127;}
	.st1{fill:#F47320;}
	.st2{fill:url(#SVGID_1_);}
</style>
<path class="st0" d="M26.5,37.8h22.6l-17.6,43c0,0-9.2-0.2-12-8.2c-0.8-2.4-0.9-4.9-0.2-7.4L26.5,37.8z"/>
<path class="st1" d="M114.2,38.8l-28.8-0.5l6.5-21.4C94,10,90.1,2.7,83.2,0.6C82,0.2,80.7,0,79.4,0H53.2l-30,107.8
	c0,0-10.8,46.1,30,50.3c0,0,64.4,13.2,85.1-64.7C138.3,93.3,149.2,46.3,114.2,38.8z M94.5,92.2c0,0-1.2,19.9-16.2,23.4
	c-2.2,0.6-4.6,0.3-6.6-0.7c-2.3-1.2-4.8-3.7-4.7-8.9c0-1.5,0.3-3,0.7-4.4l5.5-20.7h15.1C88.4,80.8,95.3,83.1,94.5,92.2z"/>
<linearGradient id="SVGID_1_" gradientUnits="userSpaceOnUse" x1="134.3801" y1="745.9334" x2="89.0701" y2="676.4034" gradientTransform="matrix(1 0 0 1 0 -632)">
	<stop  offset="0.41" style="stop-color:#F47320"/>
	<stop  offset="0.5" style="stop-color:#F16D21"/>
	<stop  offset="0.62" style="stop-color:#E95C22"/>
	<stop  offset="0.75" style="stop-color:#DC4125"/>
	<stop  offset="0.81" style="stop-color:#D53127"/>
</linearGradient>
<path class="st2" d="M139.7,71.6c-2.8-31.6-25.5-32.9-25.5-32.9l-28.8-0.5L73.1,81.1h15.1c2.8,0.2,7.8,4.7,6.2,12.8"/>
</svg>
