<svg xmlns="http://www.w3.org/2000/svg" viewBox="0 0 99.76 99.88"><defs><style>.cls-1{fill:#ff9300;}.cls-2{fill:#fff;}</style></defs><g id="Capa_2" data-name="Capa 2"><g id="Capa_1-2" data-name="Capa 1"><path class="cls-1" d="M98.31,62.09A49.9,49.9,0,1,1,62.06,1.44,50.3,50.3,0,0,1,98.31,62.09Z"/><path class="cls-2" d="M71.76,42.93c1-6.54-4-10.16-10.93-12.55l2.15-9L57.59,20l-2.15,8.78c-1.39-.39-3-.62-4.39-1L53.21,19l-5.39-1.38-2.16,9c-1.23-.23-2.38-.61-3.61-.77h0L34.5,24.07l-1.38,5.77,4,1A3.11,3.11,0,0,1,39.74,34l-2.62,9.93a.69.69,0,0,1,.61.23.69.69,0,0,1-.61-.23L33.5,58.25a2.29,2.29,0,0,1-2.62,1.38l-4-1-2.77,6.16,7.16,1.77c1.38.38,2.62.61,4,1l-2.15,9.16L38.5,78.1l2.16-9c1.62.38,3,.77,4.39,1.23l-2.16,9,5.39,1.38,2.15-9.16c9.4,1.77,16.32,1,19.32-7.39,2.39-6.77-.23-10.77-5-13.31,3.62-.77,6.47-3.16,7-7.93ZM59.44,60.48c-1.62,6.77-13.16,3.15-16.93,2.15l3-12.16c3.77,1,15.7,2.85,13.93,10ZM61.06,42.7c-1.62,6.16-11.16,3-14.17,2.15l2.78-10.93C52.67,35,62.6,36.39,61.06,42.7Z"/></g></g></svg>