<?xml version="1.0" encoding="UTF-8"?>
<!-- Generator: Adobe Illustrator 24.0.2, SVG Export Plug-In . SVG Version: 6.00 Build 0)  -->
<svg version="1.1" xmlns="http://www.w3.org/2000/svg" xmlns:xlink="http://www.w3.org/1999/xlink" x="0px" y="0px" viewBox="0 0 195 115" style="enable-background:new 0 0 195 115;" xml:space="preserve">
<style type="text/css">
	.st0{fill:url(#SVGID_1_);}
	.st1{fill:url(#SVGID_2_);}
	.st2{fill:url(#SVGID_3_);}
	.st3{fill:url(#SVGID_4_);}
	.st4{display:none;enable-background:new    ;}
	.st5{display:inline;fill:#45B049;}
	.st6{fill:#008DE4;}
</style>
<g id="Layer_1">
	<title>dash_instantSend_icon</title>
</g>
<g id="Layer_2">
	<linearGradient id="SVGID_1_" gradientUnits="userSpaceOnUse" x1="14.6188" y1="36.4905" x2="82.5327" y2="36.4905">
		<stop offset="0" style="stop-color:#0E73BA"/>
		<stop offset="1" style="stop-color:#28A9E1"/>
	</linearGradient>
	<path class="st0" d="M80,46.3V26.6c1.4-0.2,2.5-1.6,2.5-3c0-1.7-1.3-3.1-3.1-3.1c-0.6,0-1.3,0.2-1.7,0.5L63.9,7.4   c0.3-0.5,0.5-1.1,0.5-1.7c0-1.7-1.3-3.1-3.1-3.1c-1.5,0-2.7,1-3,2.5H38.9c-0.2-1.4-1.6-2.5-3-2.5c-1.7,0-3.1,1.3-3.1,3.1   c0,0.6,0.2,1.3,0.5,1.7l-14,13.8c-0.5-0.3-1.1-0.5-1.7-0.5c-1.7,0-3.1,1.3-3.1,3.1c0,1.5,1,2.7,2.5,3v19.6c-1.4,0.2-2.5,1.6-2.5,3   c0,1.7,1.3,3.1,3.1,3.1c0.6,0,1.3-0.2,1.7-0.5l13.9,13.9c-0.3,0.5-0.5,1.1-0.5,1.7c0,1.7,1.3,3.1,3.1,3.1c1.5,0,2.7-1,3-2.5h19.6   c0.2,1.4,1.6,2.5,3,2.5c1.7,0,3.1-1.3,3.1-3.1c0-0.6-0.2-1.3-0.5-1.7l13.9-13.9c0.5,0.3,1.1,0.5,1.7,0.5c1.7,0,3.1-1.3,3.1-3.1   C82.5,47.8,81.4,46.6,80,46.3z M77.7,46.7l-5.1-5.1l1.5-3.6L77.7,46.7L77.7,46.7z M71.8,40.8l-2.6-2.6c0.3-0.5,0.5-1,0.5-1.6   c0-0.6-0.2-1.3-0.5-1.7l2.6-2.6l1.8,4.2L71.8,40.8z M37.5,64.8L37.5,64.8l10.4-25.3c0.2,0,0.5,0.1,0.6,0.1c0.2,0,0.4,0,0.5-0.1   l4,9.6L37.5,64.8z M37.5,8.1l15.7,15.7l-4,9.6c-0.2,0-0.3,0-0.5,0c-0.2,0-0.5,0-0.6,0.1L37.5,8.1L37.5,8.1z M50.3,39.1   c0.9-0.5,1.4-1.5,1.4-2.6c0-1.1-0.5-2-1.4-2.6l3.8-9.2l10.1,10c-0.3,0.5-0.5,1.1-0.5,1.7c0,0.6,0.2,1.3,0.5,1.7l-10.1,10L50.3,39.1   z M72.7,31.4l5.1-5.1l0,0l-3.6,8.6L72.7,31.4z M76.9,25.4l-4.7,4.7l-4.4-10.7l8.7,3.6c0,0.2-0.1,0.4-0.1,0.6   C76.4,24.3,76.6,24.9,76.9,25.4z M71.2,31.1L68.3,34c-0.5-0.3-1.1-0.5-1.7-0.5c-0.6,0-1.2,0.2-1.6,0.5L54.5,23.6l3.4-8.2l8.2,3.4   L71.2,31.1z M58.4,14.3l2.4-5.7c0.2,0,0.4,0.1,0.6,0.1s0.4,0,0.6-0.1l3.6,8.7L58.4,14.3z M53.7,22.6L38.3,7.4l0,0L56.8,15   L53.7,22.6z M38.3,65.7l15.4-15.4l3.1,7.7L38.3,65.7L38.3,65.7z M61.4,64.3c-0.2,0-0.4,0-0.6,0.1l-2.4-5.7l7.1-3L62,64.4   C61.8,64.3,61.6,64.3,61.4,64.3z M57.9,57.5l-3.4-8.1l10.4-10.4c0.5,0.3,1.1,0.5,1.7,0.5c0.6,0,1.3-0.2,1.7-0.5l2.9,2.9l-5,12.2   L57.9,57.5z M72.2,42.9l4.7,4.7c-0.3,0.5-0.5,1.1-0.5,1.7c0,0.2,0,0.4,0.1,0.6l-8.7,3.6L72.2,42.9z M78.8,46.3l-4.1-9.8l4.1-9.8   l0,0V46.3L78.8,46.3z M76.9,22l-9.8-4.1L63,8.1l0,0L76.9,22L76.9,22z M59.6,8.1l-2.4,5.7L38.8,6.2l0,0h19.6C58.5,7,59,7.7,59.6,8.1   z M35.8,8.7c0.2,0,0.4,0,0.6-0.1l10.5,25.3c-0.3,0.2-0.6,0.5-0.8,0.8L20.7,24.3c0-0.2,0.1-0.4,0.1-0.6c0-0.6-0.2-1.3-0.5-1.7   L34.1,8.1C34.5,8.5,35.2,8.7,35.8,8.7z M20.3,25.4l25.3,10.5c0,0.2-0.1,0.4-0.1,0.6s0,0.4,0.1,0.6L20.3,47.6   c-0.5-0.7-1.2-1.2-2-1.3V26.6C19.1,26.6,19.8,26.1,20.3,25.4z M20.7,48.7l25.3-10.4c0.2,0.3,0.5,0.6,0.8,0.8L36.4,64.4   c-0.2,0-0.4-0.1-0.6-0.1c-0.6,0-1.3,0.2-1.7,0.5L20.3,51c0.3-0.5,0.5-1.1,0.5-1.7C20.7,49.1,20.7,48.8,20.7,48.7z M38.8,66.8   l18.5-7.7l2.4,5.7c-0.7,0.5-1.2,1.2-1.3,2H38.8L38.8,66.8z M63.1,64.8l4.1-9.8l9.7-4.1l0,0L63.1,64.8L63.1,64.8z"/>
	<g>
		<g>
			
				<linearGradient id="SVGID_2_" gradientUnits="userSpaceOnUse" x1="113.2324" y1="100.5485" x2="113.2324" y2="54.736" gradientTransform="matrix(1 0 0 -1 0 115)">
				<stop offset="0" style="stop-color:#BABABA"/>
				<stop offset="1" style="stop-color:#8D8D8D"/>
			</linearGradient>
			<path class="st1" d="M95.9,60.3V14.5h17.2c3.5,0,6.3,0.5,8.4,1.4c2.1,0.9,3.8,2.4,5,4.3s1.8,3.9,1.8,6c0,2-0.5,3.8-1.6,5.5     c-1.1,1.7-2.7,3.1-4.8,4.2c2.8,0.8,4.9,2.2,6.4,4.2c1.5,2,2.2,4.3,2.2,6.9c0,2.1-0.5,4.1-1.4,6s-2,3.3-3.4,4.3     c-1.3,1-3,1.8-5,2.3s-4.5,0.8-7.4,0.8L95.9,60.3L95.9,60.3z M102,33.8h9.9c2.7,0,4.6-0.2,5.8-0.5c1.5-0.5,2.7-1.2,3.5-2.3     c0.8-1.1,1.2-2.4,1.2-4c0-1.5-0.4-2.9-1.1-4c-0.7-1.2-1.8-1.9-3.1-2.4c-1.4-0.4-3.7-0.6-7-0.6H102V33.8z M102,54.9h11.4     c2,0,3.3-0.1,4.1-0.2c1.4-0.3,2.6-0.7,3.5-1.3s1.7-1.4,2.3-2.5s0.9-2.4,0.9-3.9c0-1.7-0.4-3.2-1.3-4.5c-0.9-1.3-2.1-2.1-3.6-2.7     c-1.6-0.5-3.8-0.8-6.7-0.8H102V54.9z"/>
			
				<linearGradient id="SVGID_3_" gradientUnits="userSpaceOnUse" x1="153.5824" y1="100.5485" x2="153.5824" y2="54.7485" gradientTransform="matrix(1 0 0 -1 0 115)">
				<stop offset="0" style="stop-color:#BABABA"/>
				<stop offset="1" style="stop-color:#8D8D8D"/>
			</linearGradient>
			<path class="st2" d="M150.5,60.3V19.9h-15.1v-5.4h36.3v5.4h-15.2v40.4H150.5z"/>
			
				<linearGradient id="SVGID_4_" gradientUnits="userSpaceOnUse" x1="182.0824" y1="100.5485" x2="182.0824" y2="54.7485" gradientTransform="matrix(1 0 0 -1 0 115)">
				<stop offset="0" style="stop-color:#BABABA"/>
				<stop offset="1" style="stop-color:#8D8D8D"/>
			</linearGradient>
			<path class="st3" d="M179,60.3V14.5h6.1v45.8C185.1,60.3,179,60.3,179,60.3z"/>
		</g>
		<g class="st4">
			<path class="st5" d="M107.9,70.8l5.7-16.4h2.9L109,74.3h-2.3l-7.4-19.9h2.9L107.9,70.8z"/>
			<path class="st5" d="M124.2,74.5c-2,0-3.6-0.7-4.9-2s-1.9-3.1-1.9-5.3v-0.5c0-1.5,0.3-2.8,0.8-3.9c0.6-1.2,1.3-2.1,2.4-2.7     c1-0.7,2.1-1,3.3-1c1.9,0,3.4,0.6,4.5,1.9s1.6,3.1,1.6,5.4v1.1h-10c0,1.5,0.5,2.6,1.3,3.5c0.8,0.9,1.9,1.3,3.1,1.3     c0.9,0,1.6-0.2,2.3-0.5c0.6-0.4,1.2-0.8,1.6-1.4l1.5,1.2C128.6,73.6,126.7,74.5,124.2,74.5z M123.9,61.3c-1,0-1.9,0.4-2.6,1.1     c-0.7,0.7-1.1,1.8-1.3,3.1h7.4v-0.2c-0.1-1.3-0.4-2.3-1-3C125.8,61.6,125,61.3,123.9,61.3z"/>
			<path class="st5" d="M140.1,61.7c-0.4-0.1-0.8-0.1-1.2-0.1c-1.7,0-2.8,0.7-3.4,2.1v10.5h-2.5V59.5h2.5l0,1.7c0.8-1.3,2-2,3.5-2     c0.5,0,0.9,0.1,1.1,0.2V61.7z"/>
			<path class="st5" d="M142.4,55.5c0-0.4,0.1-0.8,0.4-1c0.3-0.3,0.6-0.4,1.1-0.4s0.9,0.1,1.1,0.4c0.3,0.3,0.4,0.6,0.4,1     s-0.1,0.8-0.4,1c-0.3,0.3-0.6,0.4-1.1,0.4s-0.9-0.1-1.1-0.4C142.5,56.3,142.4,55.9,142.4,55.5z M145.1,74.3h-2.5V59.5h2.5V74.3z"/>
			<path class="st5" d="M150.4,74.3V61.4h-2.3v-2h2.3v-1.5c0-1.6,0.4-2.8,1.3-3.7s2-1.3,3.6-1.3c0.6,0,1.2,0.1,1.7,0.2l-0.1,2     c-0.4-0.1-0.9-0.1-1.4-0.1c-0.8,0-1.5,0.2-1.9,0.7c-0.4,0.5-0.7,1.2-0.7,2.1v1.6h3.2v2H153v12.8H150.4z"/>
			<path class="st5" d="M158.9,55.5c0-0.4,0.1-0.8,0.4-1c0.3-0.3,0.6-0.4,1.1-0.4s0.9,0.1,1.1,0.4c0.3,0.3,0.4,0.6,0.4,1     s-0.1,0.8-0.4,1c-0.3,0.3-0.6,0.4-1.1,0.4s-0.9-0.1-1.1-0.4C159,56.3,158.9,55.9,158.9,55.5z M161.6,74.3h-2.5V59.5h2.5V74.3z"/>
			<path class="st5" d="M171.8,74.5c-2,0-3.6-0.7-4.9-2s-1.9-3.1-1.9-5.3v-0.5c0-1.5,0.3-2.8,0.8-3.9c0.6-1.2,1.3-2.1,2.4-2.7     c1-0.7,2.1-1,3.3-1c1.9,0,3.4,0.6,4.5,1.9s1.6,3.1,1.6,5.4v1.1h-10c0,1.5,0.5,2.6,1.3,3.5c0.8,0.9,1.9,1.3,3.1,1.3     c0.9,0,1.6-0.2,2.3-0.5c0.6-0.4,1.2-0.8,1.6-1.4l1.5,1.2C176.2,73.6,174.3,74.5,171.8,74.5z M171.5,61.3c-1,0-1.9,0.4-2.6,1.1     c-0.7,0.7-1.1,1.8-1.3,3.1h7.4v-0.2c-0.1-1.3-0.4-2.3-1-3C173.4,61.6,172.6,61.3,171.5,61.3z"/>
			<path class="st5" d="M179.9,66.7c0-2.3,0.5-4.1,1.6-5.5c1.1-1.4,2.5-2.1,4.2-2.1c1.7,0,3.1,0.6,4.1,1.8v-7.7h2.5v21h-2.3     l-0.1-1.6c-1,1.2-2.4,1.9-4.2,1.9c-1.7,0-3.1-0.7-4.2-2.1s-1.6-3.2-1.6-5.5V66.7z M182.4,67c0,1.7,0.3,3,1,3.9     c0.7,0.9,1.6,1.4,2.9,1.4c1.6,0,2.8-0.7,3.5-2.2v-6.8c-0.8-1.4-1.9-2.1-3.5-2.1c-1.2,0-2.2,0.5-2.9,1.4     C182.8,63.7,182.4,65.1,182.4,67z"/>
		</g>
	</g>
	<g>
		<path class="st6" d="M59.5,92.6l-13.6,21.3H42l-5-21.3H41l3.8,16.4l10.5-16.4H59.5z"/>
		<path class="st6" d="M72.7,106.9H59.8c0.1,2.7,1.6,4,4.7,4c0.9,0,1.8-0.1,2.6-0.4c0.8-0.3,1.5-0.7,2.1-1.2l1.6,2.7    c-0.8,0.8-1.8,1.3-3,1.7c-1.2,0.4-2.4,0.6-3.7,0.6c-1.6,0-3-0.3-4.3-0.9c-1.2-0.6-2.1-1.4-2.8-2.5c-0.7-1.1-1-2.3-1-3.8    c0-1.8,0.4-3.4,1.2-4.9c0.8-1.5,1.9-2.6,3.4-3.4s3-1.2,4.8-1.2c2.3,0,4.1,0.6,5.5,1.9c1.4,1.3,2,3,2,5.2    C72.9,105.4,72.9,106.2,72.7,106.9z M62,101.5c-0.9,0.7-1.5,1.6-1.9,2.8h9.3c0-1.2-0.4-2.2-1.1-2.9c-0.8-0.7-1.8-1-3.1-1    C64,100.5,62.9,100.8,62,101.5z"/>
		<path class="st6" d="M83.8,98c1-0.3,2.3-0.5,3.7-0.5l-0.7,3.6c-0.3-0.1-0.7-0.1-0.9-0.1c-3.1,0-5,1.6-5.6,4.9l-1.6,8h-3.8L78,97.6    h3.6l-0.4,2.1C81.9,98.9,82.8,98.3,83.8,98z"/>
		<path class="st6" d="M90.7,97.6h3.8l-3.2,16.3h-3.8L90.7,97.6z M91.8,94.3c-0.4-0.4-0.6-0.9-0.6-1.5c0-0.7,0.2-1.3,0.7-1.7    c0.5-0.5,1.1-0.7,1.9-0.7c0.7,0,1.2,0.2,1.6,0.6c0.4,0.4,0.6,0.9,0.6,1.4c0,0.8-0.2,1.4-0.7,1.8c-0.5,0.5-1.1,0.7-1.9,0.7    C92.8,94.9,92.2,94.7,91.8,94.3z"/>
		<path class="st6" d="M104.9,94.8c-0.5,0.4-0.8,1.1-1,2l-0.2,0.9h4.5l-0.6,3h-4.4l-2.6,13.1h-3.8l2.6-13.1h-2.7l0.6-3h2.7l0.2-1.2    c0.4-1.7,1.1-3.1,2.2-4.1c1.1-1,2.6-1.4,4.3-1.4c0.7,0,1.4,0.1,2,0.2c0.6,0.2,1.1,0.4,1.6,0.7l-1.6,2.8c-0.5-0.4-1.2-0.7-2-0.7    S105.3,94.4,104.9,94.8z M113.2,97.6h3.8l-3.2,16.3h-3.8L113.2,97.6z M114.3,94.3c-0.4-0.4-0.6-0.9-0.6-1.5c0-0.7,0.2-1.3,0.7-1.7    c0.5-0.5,1.1-0.7,1.9-0.7c0.7,0,1.2,0.2,1.6,0.6c0.4,0.4,0.6,0.9,0.6,1.4c0,0.8-0.2,1.4-0.7,1.8c-0.5,0.5-1.1,0.7-1.9,0.7    C115.3,94.9,114.7,94.7,114.3,94.3z"/>
		<path class="st6" d="M135.5,106.9h-12.9c0.1,2.7,1.6,4,4.7,4c0.9,0,1.8-0.1,2.6-0.4c0.8-0.3,1.5-0.7,2.1-1.2l1.6,2.7    c-0.8,0.8-1.8,1.3-3,1.7c-1.2,0.4-2.4,0.6-3.7,0.6c-1.6,0-3-0.3-4.3-0.9s-2.1-1.4-2.8-2.5c-0.7-1.1-1-2.3-1-3.8    c0-1.8,0.4-3.4,1.2-4.9c0.8-1.5,1.9-2.6,3.4-3.4s3-1.2,4.8-1.2c2.3,0,4.1,0.6,5.5,1.9s2,3,2,5.2    C135.8,105.4,135.7,106.2,135.5,106.9z M124.8,101.5c-0.9,0.7-1.5,1.6-1.9,2.8h9.3c0-1.2-0.4-2.2-1.1-2.9c-0.8-0.7-1.8-1-3.1-1    S125.7,100.8,124.8,101.5z"/>
		<path class="st6" d="M158.1,91.3l-4.5,22.6h-3.6l0.3-1.7c-1.5,1.3-3.2,1.9-5.3,1.9c-1.3,0-2.6-0.3-3.6-0.9    c-1.1-0.6-1.9-1.4-2.6-2.5c-0.6-1.1-0.9-2.4-0.9-3.8c0-1.8,0.4-3.5,1.2-4.9s1.9-2.6,3.3-3.4c1.4-0.8,3-1.2,4.7-1.2    c1.3,0,2.4,0.2,3.3,0.6c0.9,0.4,1.7,1.1,2.2,1.9l1.7-8.7H158.1z M148.8,110.1c0.9-0.5,1.5-1.2,2-2.2c0.5-0.9,0.7-2,0.7-3.2    c0-1.3-0.4-2.3-1.1-3s-1.8-1.1-3.2-1.1c-1.1,0-2,0.3-2.9,0.8c-0.9,0.5-1.5,1.2-2,2.2c-0.5,0.9-0.7,2-0.7,3.2c0,1.3,0.4,2.3,1.1,3    s1.8,1.1,3.2,1.1C147,110.9,148,110.6,148.8,110.1z"/>
	</g>
</g>
</svg>