<svg xmlns="http://www.w3.org/2000/svg" viewBox="0 0 43.66 50"><defs><style>.cls-1{fill:#4f90ff;fill-rule:evenodd;}</style></defs><g id="Capa_2" data-name="Capa 2"><g id="Capa_2-2" data-name="Capa 2"><g id="Mailing"><g id="Mail-Light"><g id="mail"><g id="Logotipo"><g id="Branding_Logo-Dark" data-name="Branding/Logo-Dark"><g id="Logo"><path id="Fill-1" class="cls-1" d="M30,33.37,21.67,38a.66.66,0,0,1-.61,0L10.8,32.34a1.22,1.22,0,0,1-.64-1.09V20.55a1.22,1.22,0,0,1,.66-1.09L16,16.69a1.57,1.57,0,0,1,2.3,1.37v6.79L30,31.19a1.24,1.24,0,0,1,0,2.18m12.41-7.76L28,17.72a.05.05,0,0,1,0,0V1.25A1.25,1.25,0,0,0,26.18.13L1.38,12.55A2.48,2.48,0,0,0,0,14.77V37.26a1.25,1.25,0,0,0,.63,1.08L20.68,49.67a2.52,2.52,0,0,0,2.44,0L42.35,39.27a2.48,2.48,0,0,0,1.31-2.18v-9.3a2.48,2.48,0,0,0-1.29-2.18"/></g></g></g></g></g></g></g></g></svg>