<svg viewBox="0 0 40 40" width="40" height="40" fill="none" xmlns="http://www.w3.org/2000/svg">
<path d="M20 22.39h15.044l2.39-2.39-2.39-2.39H20c-1.321 0-2.39 1.069-2.39 2.39 0 1.32 1.069 2.39 2.39 2.39z" fill="#0CC"></path>
<path d="M20 8.805C13.824 8.805 8.805 13.824 8.805 20S13.824 31.195 20 31.195h6.24l4.779-4.78H20c-3.534 0-6.415-2.88-6.415-6.415 0-3.534 2.88-6.415 6.415-6.415H31.02l-4.78-4.78H20zM40 31.195v-4.78h-3.598l-4.78 4.78H40z" fill="#0CC"></path>
<path d="M5.862 5.862C2.075 9.635 0 14.654 0 20s2.075 10.365 5.862 14.138A19.89 19.89 0 0020 40h20v-4.78H20a15.17 15.17 0 01-10.767-4.453A15.17 15.17 0 014.78 20 15.17 15.17 0 019.233 9.233 15.17 15.17 0 0120 4.78h20V0H20C14.654 0 9.635 2.075 5.862 5.862z" fill="#0CC"></path>
<path d="M36.402 13.585H40v-4.78h-8.377l4.78 4.78z" fill="#0CC"></path>
</svg>