<?xml version="1.0" encoding="UTF-8"?>
<!-- Generator: Adobe Illustrator 23.0.0, SVG Export Plug-In . SVG Version: 6.00 Build 0)  -->
<svg version="1.1" id="Layer_1" xmlns="http://www.w3.org/2000/svg" xmlns:xlink="http://www.w3.org/1999/xlink" x="0px" y="0px" viewBox="0 0 42.9 42.9" style="enable-background:new 0 0 42.9 42.9;" xml:space="preserve">
<style type="text/css">
	.st0{fill-rule:evenodd;clip-rule:evenodd;fill:#10D078;}
</style>
<path id="Fill-24" class="st0" d="M20.3,34.9c-0.3,0.3-0.7,0.6-1,0.9c-0.7,0.5-1.5,1-2.2,1.4c-0.8,0.4-1.6,0.7-2.4,1  c-0.8,0.3-1.7,0.5-2.5,0.7c-0.4,0.1-0.9,0.2-1.3,0.2l-0.6,0.1l-0.3,0l-0.3,0l-0.6,0.1l-0.7,0c-0.4,0-0.9,0-1.3,0  c-1.3,0-2.6-0.1-3.8-0.2c0.1-0.2,0.3-0.4,0.4-0.6c0.4-0.6,0.8-1.3,1.1-2c0.6-1.4,1.1-2.8,1.5-4.2c0.4-1.4,0.8-2.7,1.3-4.1  c0.5-1.3,1.1-2.7,1.8-3.9c-0.5,0.5-0.9,1.1-1.3,1.7c-0.4,0.6-0.8,1.2-1.1,1.9c-0.7,1.3-1.3,2.6-1.8,4c-0.5,1.3-1,2.7-1.7,3.9  c-0.6,1.2-1.4,2.3-2.3,3.4L0,40.5l1.5,0.2C3.3,41,5.1,41.1,7,41.1c0.5,0,0.9,0,1.4-0.1L9,40.9l0.7-0.1c0.5-0.1,0.9-0.2,1.4-0.2  c0.5-0.1,0.9-0.2,1.4-0.3c0.4-0.1,0.9-0.3,1.3-0.4c0.4-0.2,0.9-0.3,1.3-0.5c0.8-0.4,1.7-0.8,2.4-1.4c0.8-0.5,1.5-1.1,2.1-1.8  c0.6-0.7,1.2-1.4,1.6-2.2C20.9,34.3,20.6,34.6,20.3,34.9 M30.4,10.5c0.5-0.5,1.2-0.8,1.9-0.8c0.7,0,1.4,0.3,1.9,0.8  c1.1,1.1,1.1,2.8,0,3.8c-1.1,1.1-2.8,1.1-3.8,0c-0.5-0.5-0.8-1.2-0.8-1.9C29.6,11.7,29.9,11,30.4,10.5 M32.3,16.8  c1.1,0,2.2-0.4,3.1-1.3c1.7-1.7,1.7-4.5,0-6.2s-4.5-1.7-6.2,0c-0.8,0.8-1.3,1.9-1.3,3.1c0,1.2,0.5,2.3,1.3,3.1  C30.1,16.4,31.2,16.8,32.3,16.8 M33.6,23.1c-6.3,5.5-8.9,6-11.4,4.8l2.8-3.6c0.4-0.5,0.7-1.1,0.9-1.8l1.1-4.8l-4.8,1.1  c-0.6,0.2-1.3,0.5-1.8,0.9l-3.6,2.8c-1.2-2.6-0.7-5.2,4.8-11.5c5.2-5.9,16.2-7.3,19.4-7.6C40.9,6.8,39.5,17.9,33.6,23.1z M29.4,31.6  c-0.1,0.3-0.2,0.5-0.4,0.6c-0.7,0.5-1.7,1.1-2.6,1.6c0-0.1,0-0.1,0-0.2c0.4-1.7,0.4-3,0-4c1.2-0.4,2.5-1,3.9-2  C30,29.1,29.6,30.7,29.4,31.6z M19.6,28.5c-0.4,0.5-1,0.7-1.6,0.7l0,0l-1.4,0l4.9-5.9l-5.9,4.9l0-1.4l0,0c0-0.6,0.2-1.2,0.7-1.6  l5.2-4.1c0.3-0.3,0.7-0.5,1.1-0.6l2.1-0.5l-0.5,2.1c-0.1,0.4-0.3,0.8-0.6,1.1L19.6,28.5z M11.1,18.3c-0.1,0-0.1,0-0.2,0  c0.5-0.9,1.2-1.9,1.6-2.6c0.2-0.2,0.4-0.4,0.6-0.4c0.9-0.2,2.5-0.6,3.9-0.9c-1,1.5-1.7,2.7-2,3.9C14.1,17.8,12.8,17.8,11.1,18.3z   M42,1.9c-0.6,0-15,0.7-21.5,8.2c-0.7,0.8-1.3,1.5-1.8,2.2c-1,0.3-4.3,1.2-5.8,1.5c-0.7,0.1-1.3,0.5-1.7,1.1c-1,1.5-2.8,4.5-2.8,4.6  L7,21.6l2.3-1c1.5-0.7,4.1-1.3,5-0.8c0.1,0.1,0.3,0.2,0.3,0.7h0c0,1.1,0.3,2.1,0.9,3.2l-0.3,0.3c-0.9,0.7-1.4,1.8-1.3,2.9l0,4.1l4,0  c1.1,0.1,2.2-0.4,2.9-1.3l0.2-0.3c1.1,0.5,2.1,0.8,3.2,0.9l0,0c0.4,0,0.6,0.2,0.7,0.3c0.6,0.9-0.1,3.5-0.8,5l-1,2.3l2.2-1.3  c0.1-0.1,3.1-1.8,4.6-2.8c0.6-0.4,1-1,1.1-1.7c0.3-1.5,1.2-4.8,1.5-5.8c0.7-0.5,1.4-1.2,2.2-1.8c7.5-6.6,8.1-21,8.2-21.6l0-0.9  L42,1.9z"/>
</svg>