<?xml version="1.0" encoding="utf-8"?>
<!-- Generator: Adobe Illustrator 23.0.6, SVG Export Plug-In . SVG Version: 6.00 Build 0)  -->
<svg version="1.1" id="Layer_1" xmlns="http://www.w3.org/2000/svg" xmlns:xlink="http://www.w3.org/1999/xlink" x="0px" y="0px"
	 viewBox="0 0 120 120" style="enable-background:new 0 0 120 120;" xml:space="preserve">
<style type="text/css">
	.st0{fill:#1652F0;}
	.st1{fill:#FFFFFF;}
</style>
<path class="st0" d="M60,120C26.9,120,0,93.1,0,60S26.9,0,60,0s60,26.9,60,60S93.1,120,60,120z"/>
<path class="st1" d="M73.7,71.9c-3.1,3.1-7.3,4.9-11.9,4.9c-9.3,0-16.9-7.6-16.9-16.9S52.5,43,61.8,43c4.7,0,8.9,1.9,11.9,4.9
	l9.3-9.3C77.6,33.3,70.1,30,61.8,30c-16.6,0-30,13.4-30,30s13.4,30,30,30c8.3,0,15.8-3.4,21.2-8.8C83,81.2,73.7,71.9,73.7,71.9z"/>
</svg>
