<?xml version="1.0" encoding="UTF-8"?>
<!-- Generator: Adobe Illustrator 24.2.1, SVG Export Plug-In . SVG Version: 6.00 Build 0)  -->
<svg version="1.1" id="Layer_1" xmlns="http://www.w3.org/2000/svg" xmlns:xlink="http://www.w3.org/1999/xlink" x="0px" y="0px" viewBox="0 0 183 183" style="enable-background:new 0 0 183 183;" xml:space="preserve">
<style type="text/css">
	.st0{fill:#2ABCC6;}
	.st1{fill:#FFDE00;}
	.st2{fill:#FFFFFF;}
</style>
<g>
	<circle class="st0" cx="91.5" cy="91.5" r="91.5"/>
	<path class="st1" d="M91.5,33.5c32,0,58,26,58,58s-26,58-58,58s-58-26-58-58S59.5,33.5,91.5,33.5 M91.5,18.5c-40.3,0-73,32.7-73,73   s32.7,73,73,73s73-32.7,73-73S131.8,18.5,91.5,18.5L91.5,18.5z"/>
	<rect x="83.5" y="73.5" class="st2" width="16" height="16"/>
	<rect x="83.5" y="93.5" class="st2" width="16" height="16"/>
	<rect x="83.5" y="113.5" class="st2" width="16" height="16"/>
	<rect x="83.5" y="53.5" class="st2" width="16" height="16"/>
</g>
</svg>