<?xml version="1.0" encoding="utf-8"?>
<!-- Generator: Adobe Illustrator 24.0.2, SVG Export Plug-In . SVG Version: 6.00 Build 0)  -->
<svg version="1.1" id="Layer_1" xmlns="http://www.w3.org/2000/svg" xmlns:xlink="http://www.w3.org/1999/xlink" x="0px" y="0px"
	 viewBox="0 0 32.2 32.2" style="enable-background:new 0 0 32.2 32.2;" xml:space="preserve">
<style type="text/css">
	.st0{filter:url(#Adobe_OpacityMaskFilter);}
	.st1{fill-rule:evenodd;clip-rule:evenodd;fill:#FFFFFF;}
	.st2{mask:url(#mask-2_1_);fill-rule:evenodd;clip-rule:evenodd;fill:url(#Fill-2_1_);}
</style>
<title>login/logo_dark</title>
<desc>Created with Sketch.</desc>
<g id="Page-1">
	<g id="设计规范及组件-Dark" transform="translate(-117.000000, -5105.000000)">
		<g id="_x38_" transform="translate(117.000000, 5055.000000)">
			<g id="login_x2F_logo_x5F_dark" transform="translate(0.000000, 50.000000)">
				<g id="logo_login">
					<g id="Group-16">
						<g id="Group-4">
							<g id="Clip-3">
							</g>
							<defs>
								<filter id="Adobe_OpacityMaskFilter" filterUnits="userSpaceOnUse" x="0.3" y="0" width="31.5" height="32.2">
									<feColorMatrix  type="matrix" values="1 0 0 0 0  0 1 0 0 0  0 0 1 0 0  0 0 0 1 0"/>
								</filter>
							</defs>
							<mask maskUnits="userSpaceOnUse" x="0.3" y="0" width="31.5" height="32.2" id="mask-2_1_">
								<g class="st0">
									<polygon id="path-1_1_" class="st1" points="0.3,0 31.8,0 31.8,32.2 0.3,32.2 									"/>
								</g>
							</mask>
							
								<linearGradient id="Fill-2_1_" gradientUnits="userSpaceOnUse" x1="-580.6181" y1="389.4927" x2="-579.987" y2="388.8184" gradientTransform="matrix(31.5 0 0 -32.1883 18289.5078 12540.5244)">
								<stop  offset="0" style="stop-color:#4888F2"/>
								<stop  offset="1" style="stop-color:#2861F6"/>
							</linearGradient>
							<path id="Fill-2" class="st2" d="M9.7,0l6.8,0C25,0.3,31.8,7.4,31.8,16.1c0,8.7-6.8,15.8-15.3,16.1H0.3V9.6h9.4v13.1l6.6,0
								c3.4-0.1,6.2-3,6.2-6.5c0-3.5-2.8-6.4-6.2-6.5H9.7V7.5V5.6V0z M0.3,5.6V0h5.5v5.6H0.3z"/>
						</g>
					</g>
				</g>
			</g>
		</g>
	</g>
</g>
</svg>
