<?xml version="1.0" encoding="UTF-8"?>
<!-- Generator: Adobe Illustrator 23.0.0, SVG Export Plug-In . SVG Version: 6.00 Build 0)  -->
<svg version="1.1" id="Layer_1" xmlns="http://www.w3.org/2000/svg" xmlns:xlink="http://www.w3.org/1999/xlink" x="0px" y="0px" viewBox="0 0 58 58" style="enable-background:new 0 0 58 58;" xml:space="preserve">
<style type="text/css">
	.st0{fill:#6AAE22;}
</style>
<g>
	<g>
		<path class="st0" d="M57.3,22.6c-0.9-3.4-7.9-11.2-13-17.5c-0.1-0.1-0.4-0.6-1-0.6c-0.5,0-0.9,0.5-0.7,0.9    c0.2,0.4,5.1,10.6,4.2,13.9c-0.9,3.4-5.4,2.7-6.1,2.7c-0.4,0-0.1,0.3,0.3,0.7c2.5,2.2,4.1,5.3,4.1,9.3v3c0,0.1,0,0.1,0.1,0.1    C50.9,34.6,59.6,31.1,57.3,22.6"/>
	</g>
	<g>
		<path class="st0" d="M17.1,22.7c0.4-0.4,0.7-0.7,0.3-0.7c-0.7,0-5.2,0.7-6.1-2.7c-0.9-3.4,4-13.5,4.2-13.9    c0.1-0.4-0.2-0.9-0.8-0.9c-0.5,0-0.9,0.6-1,0.6c-5,6.3-12.1,14.1-13,17.5c-2.3,8.5,6.6,12,12.2,12.6c0.1,0,0.1-0.1,0.1-0.1v-3    C13.1,28,14.6,24.9,17.1,22.7"/>
	</g>
	<g>
		<path class="st0" d="M35,33.9c0,0.1,0,0.1-0.1,0.2c0,0.1-0.1,0.1-0.2,0.1H22.9v-2.1c0-2.9,3.5-4.3,6.2-4.3c2.6,0,5.9,1.4,5.9,4.3    L35,33.9z M29.1,21.3C23,21.4,16.3,24.9,16.3,32v10.8c0,7.2,6.7,10.6,12.8,10.7c4.4,0,9.3-1.8,11.7-5.7c0.1-0.1,0-0.3-0.1-0.4    c-2.1-1.2-3.3-1.9-5.4-3c-0.1,0-0.1,0-0.2,0.1c-1.1,1.9-4,2.9-6,2.9c-2.7,0-6.2-1.7-6.2-4.6v-3.2h16.9c0.9,0,1.6-0.7,1.6-1.6v-5.9    C41.4,24.9,35.1,21.4,29.1,21.3"/>
	</g>
</g>
</svg>