<?xml version="1.0" encoding="utf-8"?>
<!-- Generator: Adobe Illustrator 24.0.2, SVG Export Plug-In . SVG Version: 6.00 Build 0)  -->
<svg version="1.1"
	 id="Layer_1" inkscape:version="0.48.4 r9939" sodipodi:docname="logo.svg" xmlns:cc="http://creativecommons.org/ns#" xmlns:dc="http://purl.org/dc/elements/1.1/" xmlns:inkscape="http://www.inkscape.org/namespaces/inkscape" xmlns:rdf="http://www.w3.org/1999/02/22-rdf-syntax-ns#" xmlns:sodipodi="http://sodipodi.sourceforge.net/DTD/sodipodi-0.dtd" xmlns:svg="http://www.w3.org/2000/svg"
	 xmlns="http://www.w3.org/2000/svg" xmlns:xlink="http://www.w3.org/1999/xlink" x="0px" y="0px" viewBox="0 0 50 50"
	 style="enable-background:new 0 0 50 50;" xml:space="preserve">
<style type="text/css">
	.st0{fill:#57BAE5;}
	.st1{fill:#005472;}
	.st2{fill:#34AFE4;}
	.st3{fill:#0076A7;}
	.st4{fill:#009DE2;}
	.st5{fill:#7ACDF2;}
	.st6{fill:#00ABE7;}
	.st7{fill:#008DBE;}
	.st8{fill:#00698D;}
	.st9{fill:#09A1CB;}
	.st10{fill:#8BDAFF;}
</style>
<sodipodi:namedview  bordercolor="#666666" borderopacity="1" fit-margin-bottom="0" fit-margin-left="0" fit-margin-right="0" fit-margin-top="0" gridtolerance="10" guidetolerance="10" id="namedview63" inkscape:current-layer="g3" inkscape:cx="-3.4886651" inkscape:cy="23.126" inkscape:pageopacity="0" inkscape:pageshadow="2" inkscape:window-height="1159" inkscape:window-maximized="1" inkscape:window-width="1920" inkscape:window-x="1920" inkscape:window-y="17" inkscape:zoom="3.7641036" objecttolerance="10" pagecolor="#ffffff" showgrid="false">
	</sodipodi:namedview>
<g id="g3" transform="translate(-57.552,0)">
	<polygon id="polygon5" class="st0" points="75.7,11.5 73.4,20.6 57.8,22.7 	"/>
	<polygon id="polygon7" class="st1" points="83.8,31.7 78.8,29.5 79.9,48.2 	"/>
	<polygon id="polygon9" class="st2" points="73.4,20.6 69.3,29.2 57.8,22.7 	"/>
	<polygon id="polygon11" class="st3" points="78.8,29.5 69.3,29.2 79.9,48.2 	"/>
	<polygon id="polygon13" class="st4" points="73.4,20.6 78.8,29.5 69.3,29.2 	"/>
	<polygon id="polygon15" class="st5" points="75.7,11.5 88.6,13.1 73.4,20.6 	"/>
	<polygon id="polygon17" class="st5" points="102.8,7.4 94.7,17 95.2,8.1 	"/>
	<polygon id="polygon19" class="st5" points="102.8,7.4 107.3,1.8 106.3,7.8 	"/>
	<polygon id="polygon21" class="st6" points="98.4,12.4 106.3,7.8 102.8,7.4 	"/>
	<polygon id="polygon23" class="st3" points="83.8,31.7 84.2,20.6 78.8,29.5 	"/>
	<polygon id="polygon25" class="st7" points="84.2,20.6 78.8,29.5 73.4,20.6 	"/>
	<polygon id="polygon27" class="st0" points="88.6,13.1 84.2,20.6 73.4,20.6 	"/>
	<polyline id="polyline29" class="st8" points="84.2,20.6 83.8,31.7 93.7,42.1 84.2,20.6 	"/>
	<polygon id="polygon31" class="st9" points="98.9,36.3 93.7,22.9 93.7,42.1 	"/>
	<polygon id="polygon33" class="st9" points="94.7,17 93.7,22.9 84.2,20.6 	"/>
	<polygon id="polygon35" class="st10" points="99.5,25 93.7,22.9 94.7,17 	"/>
	<polygon id="polygon37" class="st5" points="101.5,35.9 95.2,25.6 98.8,25.6 	"/>
	<polygon id="polygon39" class="st0" points="89.8,11 94.7,17 95.2,8.1 	"/>
	<polygon id="polygon41" class="st7" points="93.7,22.9 84.2,20.6 93.7,42.1 	"/>
	<polygon id="polygon57" class="st3" points="98.9,36.3 101,37.5 93.8,42.1 	"/>
	<polygon id="polygon59" class="st0" points="101.5,35.8 93.7,22.9 98.9,36.3 	"/>
	<polygon id="polygon61" class="st5" points="89.8,11 84.2,20.6 94.7,17 	"/>
</g>
</svg>
