<?xml version="1.0" encoding="UTF-8"?>
<!-- Generator: Adobe Illustrator 23.0.0, SVG Export Plug-In . SVG Version: 6.00 Build 0)  -->
<svg version="1.1" id="Layer_1" xmlns="http://www.w3.org/2000/svg" xmlns:xlink="http://www.w3.org/1999/xlink" x="0px" y="0px" viewBox="0 0 710 710" style="enable-background:new 0 0 710 710;" xml:space="preserve">
<style type="text/css">
	.st0{fill:#1B2143;}
	.st1{fill:#2CA6E0;}
</style>
<path class="st0" d="M434.5,218.7c0-101.6-49.5-189.1-87.2-217.5c0,0-2.9-1.6-2.6,2.5C341.6,200,241.3,253.2,186.2,324.8  C59,490.2,177.2,671.5,297.8,705c67.2,18.8-15.6-33.2-26.3-142.9C258.4,429.7,434.5,328.5,434.5,218.7L434.5,218.7z"/>
<path class="st1" d="M492.3,285.6c-0.8-0.5-1.9-0.9-2.6,0.4c-2.1,24.7-27.3,77.5-59.3,126.1c-108.5,164.6-46.7,244-11.9,286.7  c20.2,24.7,0,0,50.4-25.3c62.3-37.8,102.7-103.2,108.7-175.8C587.5,380.7,517.3,307,492.3,285.6L492.3,285.6z"/>
</svg>