<?xml version="1.0" encoding="UTF-8"?>
<!-- Generator: Adobe Illustrator 24.2.1, SVG Export Plug-In . SVG Version: 6.00 Build 0)  -->
<svg version="1.1" id="Layer_1" xmlns="http://www.w3.org/2000/svg" xmlns:xlink="http://www.w3.org/1999/xlink" x="0px" y="0px" viewBox="0 0 186.7 186.7" style="enable-background:new 0 0 186.7 186.7;" xml:space="preserve">
<style type="text/css">
	.st0{fill-rule:evenodd;clip-rule:evenodd;fill:#02CB67;}
</style>
<g id="Camada_x0020_1">
	<g id="_1526952927920">
		<g>
			<path class="st0" d="M93.7,174.4c-45.2,0-81.4-36.3-81.4-81c0-54.3,52-90.9,99.4-78.8c20.2,5.1,36.1,15.6,48.1,32.6     c1.4,2,2.6,3.9,3.9,6.2c1.2,2.3,2.4,4.1,3.4,6.6c2.1,5,3.7,9.3,5.1,15.1c8.8,36.9-8.9,70.7-38.5,88.6     C123.3,169.8,107.9,174.4,93.7,174.4L93.7,174.4z M97.7,186.7h-8.5c-6.4-0.3-12.8-1.3-19.4-2.9c-16.7-4.2-30.5-12.6-42.4-24.4     c-12-12-20.3-25.9-24.5-42.7C0.3,106.4,0,102.4,0,94.1v-4.8c0-11.3,4.2-26.4,8.8-36c4-8.3,7.5-13.3,13.2-20.4     c4.3-5.3,11.5-11.7,17.3-15.9c9-6.5,19.7-11.4,30.6-14.2C75.6,1.5,82.6,0,89.2,0c20.1,0,26.6,1.6,43.9,8.7c1.5,0.6,2.6,1.2,4,2     c6.9,4.2,13.6,7.9,19.6,14c1,1,1.8,1.8,2.8,2.8c8.5,8.5,15.8,19.1,20.3,30.4c1.8,4.4,3,8,4.1,12.7c3.7,14.9,3.7,30.8-0.1,45.7     c-2,7.9-3.1,9.8-5.9,16.5c-0.8,1.8-1,2.4-2,4c-2.6,4.4-2.6,5.1-6.4,10.4c-10.2,14.7-27.4,28.2-44.7,34.1     C115.7,184.5,106.7,186.3,97.7,186.7L97.7,186.7z"/>
			<path class="st0" d="M120.6,110.2c-2.3,0-10.4-9.1-12.4-11.1c-2.1-2.1-3.9-3.9-6-6c-6.9-6.9-5.9-7.4-12.9-0.4     c-7.5,7.5-7.5,5.4,3,15.9l22.6,22.6c5.5,5.5,5,5.3,9.9,0.4c1.6-1.6,11.4-12,12.6-12c2,0,1.3,0.2,2.6,1.1     c0,18.1-2.1,15.7,14.2,15.7c2,0,3.4-1.8,3.4-3.7V97.1c0-1.4-2.7-3.3-4.2-4.8c-8.5-8.5-6.4-8.4-14.6-0.2     C137,93.9,121,110.2,120.6,110.2z"/>
			<path class="st0" d="M29.9,52.7v81c0,3.7,11.5,2.6,15.3,2.6c1.8,0,3.4-1.1,3.4-3v-81c0-1.2-1.4-1.9-2.6-1.9H32.9     C31.5,50.4,29.9,51.5,29.9,52.7L29.9,52.7z"/>
			<path class="st0" d="M51.5,99.7c0,1.9,16,16.9,17.5,18.4c3.1,3.1,5.8,6,9,9l4.7,4.3c6,6,4.9,5.7,11.6-0.9c7.5-7.5,7.7-4.8-6-18.5     c-2.5-2.5-11.7-10.7-11.7-12.2c0-2.1,4.5-5.8,6.6-7.9c8.9-8.9,8.9-7.3,1.7-14.6c-5.2-5.2-5.5-7.1-10.1-2.4     c-1.2,1.3-1.8,2.2-3.2,3.6L57.8,92.1C56.3,93.6,51.5,97.6,51.5,99.7L51.5,99.7z"/>
		</g>
	</g>
</g>
</svg>