<?xml version="1.0" encoding="utf-8"?>
<!-- Generator: Adobe Illustrator 23.0.0, SVG Export Plug-In . SVG Version: 6.00 Build 0)  -->
<svg version="1.1" id="Layer_1" xmlns="http://www.w3.org/2000/svg" xmlns:xlink="http://www.w3.org/1999/xlink" x="0px" y="0px"
	 viewBox="0 0 42 42" style="enable-background:new 0 0 42 42;" xml:space="preserve">
<style type="text/css">
	.st0{fill-rule:evenodd;clip-rule:evenodd;fill:#5848D5;}
</style>
<title>Fill 1</title>
<desc>Created with Sketch.</desc>
<g id="Illustration">
	<g id="Homepage" transform="translate(-65.000000, -24.000000)">
		<g id="Group-3" transform="translate(65.000000, 24.000000)">
			<path id="Fill-1" class="st0" d="M21,5C9.4,5,0,14.1,0,25.4v8.7C0,35.7,1.3,37,3,37s3-1.3,3-2.9v-8.7c0-1.6,1.3-2.9,3-2.9
				s3,1.3,3,2.9v8.7c0,1.6,1.3,2.9,3,2.9s3-1.3,3-2.9v-8.7c0-1.6,1.3-2.9,3-2.9s3,1.3,3,2.9v8.7c0,1.6,1.3,2.9,3,2.9s3-1.3,3-2.9
				v-8.7c0-1.6,1.3-2.9,3-2.9s3,1.3,3,2.9v8.7c0,1.6,1.3,2.9,3,2.9s3-1.3,3-2.9v-8.7C42,14.1,32.6,5,21,5"/>
		</g>
	</g>
</g>
</svg>
