<?xml version="1.0" encoding="utf-8"?>
<!-- Generator: Adobe Illustrator 23.0.6, SVG Export Plug-In . SVG Version: 6.00 Build 0)  -->
<svg version="1.1" id="Layer_1" xmlns="http://www.w3.org/2000/svg" xmlns:xlink="http://www.w3.org/1999/xlink" x="0px" y="0px"
	 viewBox="0 0 28 28" style="enable-background:new 0 0 28 28;" xml:space="preserve">
<style type="text/css">
	.st0{fill-rule:evenodd;clip-rule:evenodd;fill:#23AF91;}
</style>
<g id="页面-1">
	<g id="导航栏下拉最小宽度备份-4" transform="translate(-46.000000, -26.000000)">
		<g id="编组-27备份-2">
			<g id="kucoin-logo" transform="translate(32.000000, 12.000000)">
				<g id="KUCOIN-logo-3.0" transform="translate(14.000000, 14.000000)">
					<path class="st0" d="M9.3,14l8.3,8.3l5.2-5.2c0.9-0.8,2.4-0.8,3.3,0.1c0.9,0.9,0.9,2.3,0.1,3.3l-6.9,6.9
						c-0.9,0.9-2.4,0.9-3.3,0l-10-10v5.9c0,1.3-1.1,2.4-2.4,2.4s-2.4-1.1-2.4-2.4V4.7c0-1.3,1.1-2.4,2.4-2.4s2.4,1.1,2.4,2.4v5.9
						l10-10c0.9-0.9,2.4-0.9,3.3,0l6.9,6.9c0.8,0.9,0.8,2.4-0.1,3.3c-0.9,0.9-2.3,0.9-3.3,0.1l-5.2-5.2L9.3,14z M17.6,11.6
						L17.6,11.6c-1,0-1.8,0.6-2.2,1.5s-0.2,1.9,0.5,2.6s1.7,0.9,2.6,0.5c0.9-0.4,1.5-1.2,1.5-2.2c0-0.6-0.2-1.2-0.7-1.7
						C18.8,11.9,18.2,11.6,17.6,11.6L17.6,11.6z"/>
				</g>
			</g>
		</g>
	</g>
</g>
</svg>
