<?xml version="1.0" encoding="UTF-8"?>
<!-- Generator: Adobe Illustrator 23.0.6, SVG Export Plug-In . SVG Version: 6.00 Build 0)  -->
<svg version="1.1" id="Capa_1" xmlns="http://www.w3.org/2000/svg" xmlns:xlink="http://www.w3.org/1999/xlink" x="0px" y="0px" viewBox="0 0 120 120" style="enable-background:new 0 0 120 120;" xml:space="preserve">
<style type="text/css">
	.st0{clip-path:url(#SVGID_2_);}
	.st1{clip-path:url(#SVGID_4_);}
	.st2{fill:url(#SVGID_5_);}
	.st3{clip-path:url(#SVGID_7_);}
	.st4{fill:#FFFFFF;}
</style>
<title>LogoMesa de trabajo 1vector</title>
<g>
	<defs>
		<rect id="SVGID_1_" width="120" height="120"/>
	</defs>
	<clipPath id="SVGID_2_">
		<use xlink:href="#SVGID_1_" style="overflow:visible;"/>
	</clipPath>
	<g class="st0">
		<g>
			<defs>
				<circle id="SVGID_3_" cx="60" cy="60" r="60"/>
			</defs>
			<clipPath id="SVGID_4_">
				<use xlink:href="#SVGID_3_" style="overflow:visible;"/>
			</clipPath>
			<g class="st1">
				
					<linearGradient id="SVGID_5_" gradientUnits="userSpaceOnUse" x1="-494.6555" y1="635.9476" x2="-494.3456" y2="635.9476" gradientTransform="matrix(0 -382 382 0 -242872 -188839)">
					<stop offset="0" style="stop-color:#0069FF"/>
					<stop offset="1" style="stop-color:#3387FF"/>
				</linearGradient>
				<rect class="st2" width="120" height="120"/>
			</g>
		</g>
		<g>
			<defs>
				<rect id="SVGID_6_" width="120" height="120"/>
			</defs>
			<clipPath id="SVGID_7_">
				<use xlink:href="#SVGID_6_" style="overflow:visible;"/>
			</clipPath>
			<g class="st3">
				<path class="st4" d="M94.4,32c1.1-2.4,0-5.3-2.4-6.4c-1.3-0.6-2.7-0.6-4,0l-20.8,9.6c-4.6,2.1-9.8,2.1-14.3,0L32,25.6      c-2.4-1.1-5.3,0-6.4,2.4c-0.6,1.3-0.6,2.7,0,4l9.6,20.8c2.1,4.6,2.1,9.8,0,14.3L25.6,88c-1.1,2.4,0,5.3,2.4,6.4      c1.3,0.6,2.7,0.6,4,0l20.8-9.6c4.6-2.1,9.8-2.1,14.3,0L88,94.4c2.4,1.1,5.3,0,6.4-2.4c0.6-1.3,0.6-2.7,0-4l-9.6-20.8      c-2.1-4.6-2.1-9.8,0-14.3L94.4,32z"/>
			</g>
		</g>
	</g>
</g>
</svg>