<?xml version="1.0" encoding="utf-8"?>
<!-- Generator: Adobe Illustrator 24.0.2, SVG Export Plug-In . SVG Version: 6.00 Build 0)  -->
<svg version="1.1" xmlns="http://www.w3.org/2000/svg" xmlns:xlink="http://www.w3.org/1999/xlink" x="0px" y="0px"
	 viewBox="0 0 90.4 90.4" style="enable-background:new 0 0 90.4 90.4;" xml:space="preserve">
<style type="text/css">
	.st0{fill:#49CC68;}
</style>
<g id="Logo">
	<path class="st0" d="M53.7,83.6c-2.8,0.8-5.6,1.3-8.3,1.3H45c-2.7,0-5.6-0.4-8.4-1.3c-1.3-0.4-2.7,0.4-3.1,1.7
		c-0.4,1.3,0.4,2.7,1.7,3.1c3.3,1,6.6,1.5,9.8,1.5h0.4c3.2,0,6.5-0.5,9.7-1.5c1.3-0.4,2.1-1.8,1.7-3.1C56.5,84,55.1,83.2,53.7,83.6z
		 M75.6,22.1C75.6,22.1,75.6,22.1,75.6,22.1C75.6,22.1,75.6,22.1,75.6,22.1C75.6,22.1,75.6,22,75.6,22.1c0-0.1,0-0.1,0-0.1
		C71.3,8.8,59.1,0,45.2,0C31.3,0,19,8.9,14.8,22.1c0,0,0,0,0,0.1C12,30.4,13,41.5,17.5,51.9C23.8,66,35,75.9,45,75.9
		c0,0,0.1,0,0.1,0c0,0,0.1,0,0.1,0c10,0,21.3-9.8,27.5-24C77.4,41.5,78.4,30.4,75.6,22.1z M60.9,10c-5.1-0.2-10.6,2-15.7,6.3
		C40,12,34.5,9.8,29.5,10c4.5-3.2,9.9-5,15.7-5C51,5,56.4,6.8,60.9,10z M49.3,69.9c-1.3,0.6-2.7,0.9-4.1,0.9c-1.5,0-2.9-0.3-4.1-0.9
		c-8.5-3.9-10.3-19.7-3.8-34.5c2.1-4.7,4.8-8.9,7.9-12.3c3.1,3.4,5.8,7.6,7.9,12.3C59.6,50.2,57.8,66,49.3,69.9z M22.1,49.9
		c-4.1-9.3-5-19.1-2.6-26.2c1.3-3.8,3.5-6.5,6.3-7.8c4.4-2,10.2-0.6,15.7,3.9c-3.5,3.8-6.5,8.5-8.8,13.7c-4.4,9.9-5.3,20.2-3.3,28.1
		C26.6,58.3,24.1,54.3,22.1,49.9z M68.3,49.9c-2,4.4-4.5,8.4-7.3,11.7c2-7.9,1-18.2-3.3-28.1c-2.3-5.2-5.3-9.9-8.8-13.7
		c5.5-4.4,11.2-5.9,15.7-3.9c2.8,1.3,5,4,6.3,7.8C73.3,30.8,72.3,40.6,68.3,49.9z"/>
</g>
<g id="Margins">
</g>
</svg>
