<?xml version="1.0" encoding="utf-8"?>
<!-- Generator: Adobe Illustrator 23.0.6, SVG Export Plug-In . SVG Version: 6.00 Build 0)  -->
<svg version="1.1" id="Layer_1" xmlns="http://www.w3.org/2000/svg" xmlns:xlink="http://www.w3.org/1999/xlink" x="0px" y="0px"
	 viewBox="0 0 512 512" style="enable-background:new 0 0 512 512;" xml:space="preserve">
<style type="text/css">
	.st0{display:none;}
	.st1{display:inline;fill:#C5B358;}
	.st2{fill:#F44336;}
	.st3{fill:#FFFFFF;}
</style>
<rect id="bg" width="512" height="512"/>
<g class="st0">
	<path id="B" class="st1" d="M364.4,230l-3.7,7.1c-0.5,0.9-0.8,1.5-0.9,2s-0.2,0.9-0.2,1.4c0,1.2,0.5,2.3,1.3,3.2
		c0.9,0.9,2,1.4,3.4,1.4c1.3,0,2.4-0.5,3.3-1.4s1.4-2,1.4-3.3s-0.4-2.5-1.3-3.4c-0.7-0.7-1.5-1.1-2.4-1.3l2.2-4.3L364.4,230z
		 M365.5,240.5c0,0.4-0.1,0.7-0.3,0.9c-0.5,0.5-1.1,0.5-1.6,0c-0.2-0.2-0.3-0.5-0.3-0.9s0.1-0.7,0.3-0.9c0.2-0.2,0.5-0.3,0.8-0.3
		s0.6,0.1,0.8,0.3C365.4,239.8,365.5,240.1,365.5,240.5z M381.8,174.8l-5.9,8.8l-0.1,0.1v3h5.8v2.7h3.6v-2.7h1.2v-3.4h-1.2v-8.5
		L381.8,174.8L381.8,174.8z M380.1,183.4l1.5-2.1v2.1H380.1z M304.5,299.3l4.8-9.9h-5.2v-3.5h9.8l-0.1,2.1l-6.2,12.8L304.5,299.3z
		 M365.3,333.7c0.3-0.3,0.4-0.7,0.4-1.2s-0.1-0.9-0.4-1.1c-0.4-0.4-0.9-0.6-1.5-0.3c-0.2,0.1-0.4,0.3-0.6,0.5l-0.2,0.2l-2.9-0.6
		l1.8-8.3h7.2v3.4h-4.4l-0.3,1.2c0.1,0,0.1,0,0.1,0c1.4,0,2.5,0.5,3.4,1.4s1.3,2.1,1.3,3.5s-0.5,2.7-1.5,3.6c-1,1-2.2,1.5-3.6,1.5
		c-1.2,0-2.3-0.4-3.3-1.1c-0.9-0.7-1.5-1.7-1.8-3l-0.1-0.7h3.7l0.2,0.3c0.2,0.3,0.4,0.6,0.6,0.7C364,334.2,364.8,334.2,365.3,333.7z
		 M363.6,262.3c0.9-0.9,1.4-2,1.4-3.3s-0.4-2.5-1.3-3.4c-0.7-0.7-1.5-1.1-2.4-1.3l2.2-4.3l-3.1-1.6l-3.7,7.1c-0.5,0.9-0.8,1.5-0.9,2
		s-0.2,0.9-0.2,1.4c0,1.2,0.5,2.3,1.3,3.2c0.9,0.9,2,1.4,3.4,1.4C361.6,263.7,362.7,263.2,363.6,262.3z M359.2,259
		c0-0.4,0.1-0.7,0.3-0.9c0.2-0.2,0.5-0.3,0.8-0.3s0.6,0.1,0.8,0.3c0.2,0.2,0.3,0.5,0.3,0.9s-0.1,0.7-0.3,0.9c-0.5,0.5-1.1,0.5-1.6,0
		C359.3,259.6,359.2,259.3,359.2,259z M436.8,300.3v-2.7h1.2v-3.4h-1.2v-8.5h-3.4l-5.9,8.8l-0.1,0.1v3h5.8v2.7H436.8z M431.7,294.1
		l1.5-2.1v2.1H431.7z M352.8,263.1c0.7-0.4,1.3-0.9,1.8-1.7c0.4-0.7,0.6-1.5,0.6-2.4c0-0.8-0.2-1.5-0.6-2.2
		c-0.3-0.5-0.6-0.9-1.1-1.3c0.3-0.4,0.5-0.7,0.7-1.1c0.2-0.5,0.3-1,0.3-1.5c0-0.8-0.2-1.5-0.6-2.2s-0.9-1.2-1.6-1.6
		c-1.3-0.7-3.3-0.7-4.6,0c-0.7,0.4-1.2,0.9-1.6,1.5c-0.4,0.7-0.6,1.4-0.6,2.2c0,0.6,0.1,1.1,0.3,1.7c0.2,0.3,0.4,0.7,0.6,1
		c-0.5,0.4-0.8,0.9-1.1,1.4c-0.3,0.7-0.5,1.4-0.5,2.2c0,0.9,0.2,1.7,0.6,2.4c0.4,0.7,1,1.3,1.7,1.6c0.7,0.3,1.6,0.5,2.8,0.5
		C351.2,263.7,352.1,263.5,352.8,263.1z M350.7,253.8c-0.3,0.4-1,0.4-1.3,0c-0.2-0.2-0.3-0.4-0.3-0.7s0.1-0.5,0.3-0.7
		c0.2-0.2,0.4-0.2,0.6-0.2c0.3,0,0.5,0.1,0.7,0.3s0.2,0.4,0.2,0.6C351,253.4,350.9,253.6,350.7,253.8z M348.9,257.9
		c0.3-0.3,0.7-0.4,1.2-0.4s0.8,0.1,1.1,0.4c0.3,0.3,0.4,0.6,0.4,1s-0.1,0.7-0.4,0.9c-0.5,0.5-1.8,0.5-2.3,0c-0.3-0.3-0.4-0.6-0.4-1
		C348.5,258.5,348.6,258.2,348.9,257.9z M383.8,337.2v-10.9h-3.2l2.1-3.5h4.6v14.3h-3.5V337.2z M339.6,327.2
		c-0.8,0.8-1.1,1.7-1.1,2.8c0,0.8,0.2,1.5,0.5,2.1s0.8,1.1,1.4,1.4c1.1,0.6,2.7,0.7,3.9,0.2c0.5-0.2,1.2-0.7,1.8-1.4l0.4-0.4
		l2.5,2.6l-0.4,0.4c-1,1-2,1.7-2.9,2.1s-2,0.6-3.2,0.6c-2.2,0-4-0.7-5.4-2.1s-2.1-3.2-2.1-5.4c0-1.4,0.3-2.7,1-3.8
		c0.6-1.1,1.6-2,2.8-2.7c2.2-1.2,4.9-1.3,7.2-0.3c1.1,0.5,2,1.2,2.8,2.1l0.3,0.4l-2.5,2.4l-0.4-0.4c-1.1-1.2-2.3-1.7-3.7-1.7
		C341.3,326,340.4,326.4,339.6,327.2z M354.1,337.5c1.3,0,2.4-0.5,3.3-1.4s1.4-2,1.4-3.3s-0.4-2.5-1.3-3.4c-0.7-0.7-1.5-1.1-2.4-1.3
		l2.2-4.3l-3.1-1.6l-3.7,7.1c-0.5,0.9-0.8,1.5-0.9,2s-0.2,0.9-0.2,1.4c0,1.2,0.5,2.3,1.3,3.2C351.6,337,352.7,337.5,354.1,337.5z
		 M352.9,332.8c0-0.4,0.1-0.7,0.3-0.9c0.2-0.2,0.5-0.3,0.8-0.3s0.6,0.1,0.8,0.3c0.2,0.2,0.3,0.5,0.3,0.9s-0.1,0.7-0.3,0.9
		c-0.5,0.5-1.1,0.5-1.6,0C353,333.5,352.9,333.2,352.9,332.8z M391.3,336.2l4.8-9.9h-5.2v-3.5h9.8l-0.1,2.1l-6.2,12.8L391.3,336.2z
		 M374.5,256.7c0.5-0.9,0.8-1.5,0.9-2c0.1-0.4,0.2-0.9,0.2-1.4c0-1.2-0.5-2.3-1.3-3.2c-0.9-0.9-2-1.4-3.4-1.4
		c-1.3,0-2.4,0.5-3.3,1.4s-1.4,2-1.4,3.3s0.4,2.5,1.3,3.4c0.7,0.7,1.5,1.1,2.4,1.3l-2.2,4.3l3.1,1.6L374.5,256.7z M372,253.4
		c0,0.4-0.1,0.7-0.3,0.9c-0.5,0.5-1.2,0.4-1.6,0c-0.2-0.2-0.3-0.5-0.3-0.9s0.1-0.7,0.3-0.9c0.2-0.2,0.5-0.4,0.8-0.4s0.5,0.1,0.8,0.4
		C371.9,252.7,372,253,372,253.4z M355,241.4c0.3-0.3,0.4-0.7,0.4-1.2s-0.1-0.9-0.4-1.1c-0.4-0.4-0.9-0.6-1.5-0.3
		c-0.2,0.1-0.4,0.3-0.6,0.5l-0.2,0.2l-2.9-0.6l1.8-8.3h7.2v3.4h-4.4l-0.3,1.2c0.1,0,0.1,0,0.1,0c1.4,0,2.5,0.5,3.4,1.4
		s1.3,2.1,1.3,3.5s-0.5,2.7-1.5,3.6c-1,1-2.2,1.5-3.6,1.5c-1.2,0-2.3-0.4-3.3-1.1c-0.9-0.7-1.5-1.7-1.8-3l-0.1-0.7h3.7l0.2,0.3
		c0.2,0.3,0.4,0.6,0.6,0.7C353.7,241.9,354.5,241.9,355,241.4z M432.7,274.8c0,1.8,0.2,3.2,0.6,4.2s1,1.8,1.8,2.4
		c0.8,0.5,1.7,0.8,2.8,0.8c1.1,0,2.1-0.3,2.8-0.8c0.7-0.5,1.3-1.3,1.8-2.4c0.4-1.1,0.6-2.5,0.6-4.3s-0.2-3.2-0.6-4.3
		c-0.4-1.1-1-1.9-1.8-2.4s-1.7-0.8-2.8-0.8c-1.7,0-3,0.7-3.9,2C433.1,270.4,432.7,272.2,432.7,274.8z M436.3,274.8
		c0-1.2,0.1-2.2,0.2-2.8c0.1-0.6,0.3-0.9,0.6-1.1c0.2-0.2,0.5-0.3,0.8-0.3s0.7,0.1,1.1,0.7c0.2,0.4,0.5,1.3,0.5,3.3
		c0,1.6-0.2,2.8-0.6,3.4c-0.3,0.6-0.7,0.6-1,0.6s-0.7-0.1-1.1-0.7C436.6,277.6,436.3,276.8,436.3,274.8z M308.7,193.1l-3.7,7.1
		c-0.5,0.9-0.8,1.5-0.9,2s-0.2,0.9-0.2,1.4c0,1.2,0.5,2.3,1.3,3.2c0.9,0.9,2,1.4,3.4,1.4c1.3,0,2.4-0.5,3.3-1.4s1.4-2,1.4-3.3
		s-0.4-2.5-1.3-3.4c-0.7-0.7-1.5-1.1-2.4-1.3l2.2-4.3L308.7,193.1z M309.8,203.6c0,0.4-0.1,0.7-0.3,0.9c-0.5,0.5-1.1,0.5-1.6,0
		c-0.2-0.2-0.3-0.5-0.3-0.9s0.1-0.7,0.3-0.9c0.2-0.2,0.5-0.3,0.8-0.3s0.6,0.1,0.8,0.3C309.7,202.9,309.8,203.2,309.8,203.6z
		 M309.8,241.4c0.3-0.3,0.4-0.6,0.4-1s-0.2-0.8-0.6-1.1s-1.1-0.5-1.9-0.5h-0.5v-3.2h0.5c0.7-0.1,1-0.2,1.2-0.2
		c0.2-0.1,0.4-0.2,0.5-0.4s0.2-0.3,0.2-0.5s-0.1-0.4-0.2-0.5s-0.3-0.2-0.6-0.2c-0.2,0-0.5,0.1-0.7,0.2c-0.2,0.1-0.3,0.3-0.4,0.6
		l-0.1,0.4H304l0.1-0.6c0.1-1.1,0.6-2,1.2-2.7c0.9-0.9,2.1-1.4,3.4-1.4c1.2,0,2.3,0.4,3.1,1.2c0.8,0.8,1.3,1.8,1.3,2.9
		c0,0.7-0.2,1.3-0.6,1.9c-0.2,0.3-0.4,0.5-0.7,0.8c0.5,0.3,0.9,0.6,1.2,1c0.5,0.7,0.8,1.5,0.8,2.4c0,1.3-0.5,2.5-1.5,3.4
		s-2.2,1.4-3.7,1.4c-1.4,0-2.6-0.4-3.5-1.3c-0.9-0.9-1.4-2.1-1.5-3.5v-0.6h3.5l0.1,0.5c0.1,0.6,0.3,1,0.5,1.2
		C308.2,242,309.2,241.9,309.8,241.4z M340.6,180.9c0.3-0.5,0.4-1,0.4-1.4s-0.1-0.7-0.3-0.9c-0.5-0.5-1.4-0.5-1.9,0.1
		c-0.3,0.3-0.4,0.7-0.4,1.3v0.5h-3.6v-0.6c0.1-1.6,0.6-2.8,1.5-3.7s2.1-1.4,3.6-1.4c0.9,0,1.7,0.2,2.4,0.6c0.7,0.4,1.3,0.9,1.7,1.7
		c0.4,0.7,0.6,1.5,0.6,2.2c0,0.9-0.2,1.8-0.7,2.8s-1.3,2.1-2.6,3.4l-0.6,0.7h4v3.4h-10.3v-2l4.3-4.3
		C339.6,182.2,340.3,181.4,340.6,180.9z M343.7,230l-3.7,7.1c-0.5,0.9-0.8,1.5-0.9,2s-0.2,0.9-0.2,1.4c0,1.2,0.5,2.3,1.3,3.2
		c0.9,0.9,2,1.4,3.4,1.4c1.3,0,2.4-0.5,3.3-1.4s1.4-2,1.4-3.3s-0.4-2.5-1.3-3.4c-0.7-0.7-1.5-1.1-2.4-1.3l2.2-4.3L343.7,230z
		 M344.8,240.5c0,0.4-0.1,0.7-0.3,0.9c-0.5,0.5-1.1,0.5-1.6,0c-0.2-0.2-0.3-0.5-0.3-0.9s0.1-0.7,0.3-0.9c0.2-0.2,0.5-0.3,0.8-0.3
		s0.6,0.1,0.8,0.3C344.7,239.8,344.8,240.1,344.8,240.5z M339.7,303.9L336,311c-0.5,0.9-0.8,1.5-0.9,2s-0.2,0.9-0.2,1.4
		c0,1.2,0.5,2.3,1.3,3.2c0.9,0.9,2,1.4,3.4,1.4c1.3,0,2.4-0.5,3.3-1.4s1.4-2,1.4-3.3s-0.4-2.5-1.3-3.4c-0.7-0.7-1.5-1.1-2.4-1.3
		l2.2-4.3L339.7,303.9z M340.8,314.4c0,0.4-0.1,0.7-0.3,0.9c-0.5,0.5-1.1,0.5-1.6,0c-0.2-0.2-0.3-0.5-0.3-0.9s0.1-0.7,0.3-0.9
		c0.2-0.2,0.5-0.3,0.8-0.3s0.6,0.1,0.8,0.3C340.7,313.7,340.8,314,340.8,314.4z M304.1,279c0.4,1,1,1.8,1.8,2.4
		c0.8,0.5,1.7,0.8,2.8,0.8c1.1,0,2.1-0.3,2.8-0.8c0.7-0.5,1.3-1.3,1.8-2.4c0.2-0.5,0.3-1,0.4-1.6v1.7h5.8v2.7h3.6v-2.7h1.2v-3.4
		h-1.2v-8.5h-3.4l-5.8,8.7c0-0.4,0-0.7,0-1.2c0-1.8-0.2-3.2-0.6-4.3c-0.4-1.1-1-1.9-1.8-2.4s-1.7-0.8-2.8-0.8c-1.7,0-3,0.7-3.9,2
		c-0.8,1.2-1.2,3-1.2,5.6C303.5,276.6,303.7,278,304.1,279z M318.1,275.7l1.5-2.1v2.1H318.1z M307.1,274.8c0-1.2,0.1-2.2,0.2-2.8
		c0.1-0.6,0.3-0.9,0.6-1.1c0.2-0.2,0.5-0.3,0.8-0.3s0.7,0.1,1.1,0.7c0.2,0.4,0.5,1.3,0.5,3.3c0,1.6-0.2,2.8-0.6,3.4
		c-0.3,0.6-0.7,0.6-1,0.6s-0.7-0.1-1.1-0.7C307.4,277.6,307.1,276.8,307.1,274.8z M339.7,248.5l-3.7,7.1c-0.5,0.9-0.8,1.5-0.9,2
		s-0.2,0.9-0.2,1.4c0,1.2,0.5,2.3,1.3,3.2c0.9,0.9,2,1.4,3.4,1.4c1.3,0,2.4-0.5,3.3-1.4s1.4-2,1.4-3.3s-0.4-2.5-1.3-3.4
		c-0.7-0.7-1.5-1.1-2.4-1.3l2.2-4.3L339.7,248.5z M340.8,259c0,0.4-0.1,0.7-0.3,0.9c-0.5,0.5-1.1,0.5-1.6,0
		c-0.2-0.2-0.3-0.5-0.3-0.9s0.1-0.7,0.3-0.9c0.2-0.2,0.5-0.3,0.8-0.3s0.6,0.1,0.8,0.3C340.7,258.3,340.8,258.6,340.8,259z
		 M329.5,226.9l3.7-7.2c0.5-0.9,0.8-1.5,0.9-2c0.1-0.4,0.2-0.9,0.2-1.4c0-1.2-0.5-2.3-1.3-3.2c-0.9-0.9-2-1.4-3.4-1.4
		c-1.3,0-2.4,0.5-3.3,1.4s-1.4,2-1.4,3.3s0.4,2.5,1.3,3.4c0.7,0.7,1.5,1.1,2.4,1.3l-2.2,4.3L329.5,226.9z M328.4,216.5
		c0-0.4,0.1-0.7,0.3-0.9c0.2-0.2,0.5-0.4,0.8-0.4s0.5,0.1,0.8,0.4c0.2,0.2,0.3,0.5,0.3,0.9s-0.1,0.7-0.3,0.9c-0.5,0.5-1.2,0.4-1.6,0
		C328.5,217.1,328.4,216.8,328.4,216.5z M392.5,222.9c0.3-0.3,0.4-0.6,0.4-1s-0.2-0.8-0.6-1.1s-1.1-0.5-1.9-0.5h-0.5v-3.2h0.5
		c0.7-0.1,1-0.2,1.2-0.2c0.2-0.1,0.4-0.2,0.5-0.4s0.2-0.3,0.2-0.5s-0.1-0.4-0.2-0.5s-0.3-0.2-0.6-0.2c-0.2,0-0.5,0.1-0.7,0.2
		c-0.2,0.1-0.3,0.3-0.4,0.6l-0.1,0.4h-3.4l0.1-0.6c0.1-1.1,0.6-2,1.2-2.7c0.9-0.9,2.1-1.4,3.4-1.4c1.2,0,2.3,0.4,3.1,1.2
		c0.8,0.8,1.3,1.8,1.3,2.9c0,0.7-0.2,1.3-0.6,1.9c-0.2,0.3-0.4,0.5-0.7,0.8c0.5,0.3,0.9,0.6,1.2,1c0.5,0.7,0.8,1.5,0.8,2.4
		c0,1.3-0.5,2.5-1.5,3.4s-2.2,1.4-3.7,1.4c-1.4,0-2.6-0.4-3.5-1.3c-0.9-0.9-1.4-2.1-1.5-3.5v-0.6h3.5l0.1,0.5c0.1,0.6,0.3,1,0.5,1.2
		C390.9,223.5,391.9,223.5,392.5,222.9z M313.9,203.7c0,0.9,0.2,1.7,0.6,2.4s1,1.3,1.7,1.6s1.6,0.5,2.8,0.5c1.1,0,2-0.2,2.7-0.6
		c0.7-0.4,1.3-0.9,1.8-1.7c0.4-0.7,0.6-1.5,0.6-2.4c0-0.8-0.2-1.5-0.6-2.2c-0.3-0.5-0.6-0.9-1.1-1.3c0.3-0.4,0.5-0.7,0.7-1.1
		c0.2-0.5,0.3-1,0.3-1.5c0-0.8-0.2-1.5-0.6-2.2s-0.9-1.2-1.6-1.6c-1.3-0.7-3.3-0.7-4.6,0c-0.7,0.4-1.2,0.9-1.6,1.5
		c-0.4,0.7-0.6,1.4-0.6,2.2c0,0.6,0.1,1.1,0.3,1.7c0.2,0.3,0.4,0.7,0.6,1c-0.5,0.4-0.8,0.9-1.1,1.4
		C314.1,202.2,313.9,202.9,313.9,203.7z M319.7,198.4c-0.3,0.4-1,0.4-1.3,0c-0.2-0.2-0.3-0.4-0.3-0.7s0.1-0.5,0.3-0.7
		c0.2-0.2,0.4-0.2,0.6-0.2c0.3,0,0.5,0.1,0.7,0.3s0.2,0.4,0.2,0.6C319.9,198,319.9,198.2,319.7,198.4z M319.1,202.1
		c0.5,0,0.8,0.1,1.1,0.4c0.3,0.3,0.4,0.6,0.4,1s-0.1,0.7-0.4,0.9c-0.5,0.5-1.8,0.5-2.3,0c-0.3-0.3-0.4-0.6-0.4-1s0.1-0.6,0.4-0.9
		C318.2,202.3,318.6,202.1,319.1,202.1z M319,211.6l-3.7,7.1c-0.5,0.9-0.8,1.5-0.9,2s-0.2,0.9-0.2,1.4c0,1.2,0.5,2.3,1.3,3.2
		c0.9,0.9,2,1.4,3.4,1.4c1.3,0,2.4-0.5,3.3-1.4s1.4-2,1.4-3.3s-0.4-2.5-1.3-3.4c-0.7-0.7-1.5-1.1-2.4-1.3l2.2-4.3L319,211.6z
		 M320.1,222c0,0.4-0.1,0.7-0.3,0.9c-0.5,0.5-1.1,0.5-1.6,0c-0.2-0.2-0.3-0.5-0.3-0.9s0.1-0.7,0.3-0.9c0.2-0.2,0.5-0.3,0.8-0.3
		s0.6,0.1,0.8,0.3C320,221.4,320.1,221.7,320.1,222z M330.2,273.2c0.3-0.5,0.4-1,0.4-1.4s-0.1-0.7-0.3-0.9c-0.5-0.5-1.4-0.5-1.9,0.1
		c-0.3,0.3-0.4,0.7-0.4,1.3v0.5h-3.6v-0.6c0.1-1.6,0.6-2.8,1.5-3.7c0.9-0.9,2.1-1.4,3.6-1.4c0.9,0,1.7,0.2,2.4,0.6
		c0.7,0.4,1.3,0.9,1.7,1.7c0.4,0.7,0.6,1.5,0.6,2.2c0,0.9-0.2,1.8-0.7,2.8s-1.3,2.1-2.6,3.4l-0.6,0.7h4v3.4H324v-2l4.3-4.3
		C329.3,274.5,329.9,273.8,330.2,273.2z M329.3,193.1l-3.7,7.1c-0.5,0.9-0.8,1.5-0.9,2s-0.2,0.9-0.2,1.4c0,1.2,0.5,2.3,1.3,3.2
		c0.9,0.9,2,1.4,3.4,1.4c1.3,0,2.4-0.5,3.3-1.4s1.4-2,1.4-3.3s-0.4-2.5-1.3-3.4c-0.7-0.7-1.5-1.1-2.4-1.3l2.2-4.3L329.3,193.1z
		 M330.5,203.6c0,0.4-0.1,0.7-0.3,0.9c-0.5,0.5-1.1,0.5-1.6,0c-0.2-0.2-0.3-0.5-0.3-0.9s0.1-0.7,0.3-0.9c0.2-0.2,0.5-0.3,0.8-0.3
		s0.6,0.1,0.8,0.3C330.3,202.9,330.5,203.2,330.5,203.6z M314.9,262.4l4.8-9.9h-5.2V249h9.8l-0.1,2.1l-6.2,12.8L314.9,262.4z
		 M324.5,237.7c0-1.4,0.3-2.7,1-3.8c0.6-1.1,1.6-2,2.8-2.7c2.2-1.2,4.9-1.3,7.2-0.3c1.1,0.5,2,1.2,2.8,2.1l0.3,0.4l-2.5,2.4
		l-0.4-0.4c-1.1-1.2-2.3-1.7-3.7-1.7c-1.1,0-2,0.4-2.8,1.1c-0.8,0.8-1.1,1.7-1.1,2.8c0,0.8,0.2,1.5,0.5,2.1s0.8,1.1,1.4,1.4
		c1.1,0.6,2.7,0.7,3.9,0.2c0.5-0.2,1.2-0.7,1.8-1.4l0.4-0.4l2.5,2.6l-0.4,0.4c-1,1-2,1.7-2.9,2.1c-0.9,0.4-2,0.6-3.2,0.6
		c-2.2,0-4-0.7-5.4-2.1C325.3,241.7,324.5,239.9,324.5,237.7z M340.2,281.8h3.6v-2.7h1.2v-3.4h-1.2v-8.5h-3.4l-5.9,8.8l-0.1,0.1v3
		h5.8V281.8z M338.7,275.7l1.5-2.1v2.1H338.7z M315.6,243.8c0.9,0.9,2,1.4,3.4,1.4c1.3,0,2.4-0.5,3.3-1.4s1.4-2,1.4-3.3
		s-0.4-2.5-1.3-3.4c-0.7-0.7-1.5-1.1-2.4-1.3l2.2-4.3L319,230l-3.7,7.1c-0.5,0.9-0.8,1.5-0.9,2s-0.2,0.9-0.2,1.4
		C314.3,241.8,314.7,242.9,315.6,243.8z M317.8,240.5c0-0.4,0.1-0.7,0.3-0.9c0.2-0.2,0.5-0.3,0.8-0.3s0.6,0.1,0.8,0.3
		c0.2,0.2,0.3,0.5,0.3,0.9s-0.1,0.7-0.3,0.9c-0.5,0.5-1.1,0.5-1.6,0C317.9,241.2,317.8,240.9,317.8,240.5z M337,300.1
		c0.7,0.3,1.6,0.5,2.8,0.5c1.1,0,2-0.2,2.7-0.6s1.3-0.9,1.8-1.7c0.4-0.7,0.6-1.5,0.6-2.4c0-0.8-0.2-1.5-0.6-2.2
		c-0.3-0.5-0.6-0.9-1.1-1.3c0.3-0.4,0.5-0.7,0.7-1.1c0.2-0.5,0.3-1,0.3-1.5c0-0.8-0.2-1.5-0.6-2.2s-0.9-1.2-1.6-1.6
		c-1.3-0.7-3.3-0.7-4.6,0c-0.7,0.4-1.2,0.9-1.6,1.5c-0.4,0.7-0.6,1.4-0.6,2.2c0,0.6,0.1,1.1,0.3,1.7c0.2,0.3,0.4,0.7,0.6,1
		c-0.5,0.4-0.8,0.9-1.1,1.4c-0.3,0.7-0.5,1.4-0.5,2.2c0,0.9,0.2,1.7,0.6,2.4C335.7,299.2,336.3,299.7,337,300.1z M340.4,290.7
		c-0.3,0.4-1,0.4-1.3,0c-0.2-0.2-0.3-0.4-0.3-0.7c0-0.3,0.1-0.5,0.3-0.7c0.2-0.2,0.4-0.2,0.6-0.2c0.3,0,0.5,0.1,0.7,0.3
		c0.2,0.2,0.2,0.4,0.2,0.6C340.6,290.3,340.5,290.5,340.4,290.7z M339.8,294.4c0.5,0,0.8,0.1,1.1,0.4c0.3,0.3,0.4,0.6,0.4,1
		s-0.1,0.7-0.4,0.9c-0.5,0.5-1.8,0.5-2.3,0c-0.3-0.3-0.4-0.6-0.4-1s0.1-0.6,0.4-0.9C338.9,294.6,339.3,294.4,339.8,294.4z
		 M326.6,318.3c0.8,0.5,1.7,0.8,2.8,0.8c1.1,0,2.1-0.3,2.8-0.8c0.7-0.5,1.3-1.3,1.8-2.4c0.4-1.1,0.6-2.5,0.6-4.3s-0.2-3.2-0.6-4.3
		c-0.4-1.1-1-1.9-1.8-2.4s-1.7-0.8-2.8-0.8c-1.7,0-3,0.7-3.9,2c-0.8,1.2-1.2,3-1.2,5.6c0,1.8,0.2,3.2,0.6,4.2
		C325.2,317,325.8,317.8,326.6,318.3z M327.8,311.7c0-1.2,0.1-2.2,0.2-2.8c0.1-0.6,0.3-0.9,0.6-1.1c0.2-0.2,0.5-0.3,0.8-0.3
		s0.7,0.1,1.1,0.7c0.2,0.4,0.5,1.3,0.5,3.3c0,1.6-0.2,2.8-0.6,3.4c-0.3,0.6-0.7,0.6-1,0.6s-0.7-0.1-1.1-0.7
		C328.1,314.6,327.8,313.7,327.8,311.7z M304.1,223.6c0.4,1,1,1.8,1.8,2.4c0.8,0.5,1.7,0.8,2.8,0.8c1.1,0,2.1-0.3,2.8-0.8
		c0.7-0.5,1.3-1.3,1.8-2.4c0.4-1.1,0.6-2.5,0.6-4.3s-0.2-3.2-0.6-4.3s-1-1.9-1.8-2.4s-1.7-0.8-2.8-0.8c-1.7,0-3,0.7-3.9,2
		c-0.8,1.2-1.2,3-1.2,5.6C303.5,221.2,303.7,222.6,304.1,223.6z M307.1,219.4c0-1.2,0.1-2.2,0.2-2.8s0.3-0.9,0.6-1.1
		c0.2-0.2,0.5-0.3,0.8-0.3s0.7,0.1,1.1,0.7c0.2,0.4,0.5,1.3,0.5,3.3c0,1.6-0.2,2.8-0.6,3.4c-0.3,0.6-0.7,0.6-1,0.6s-0.7-0.1-1.1-0.7
		C307.4,222.3,307.1,221.4,307.1,219.4z M304.1,260.5c0.4,1,1,1.8,1.8,2.4c0.8,0.5,1.7,0.8,2.8,0.8c1.1,0,2.1-0.3,2.8-0.8
		c0.7-0.5,1.3-1.3,1.8-2.4c0.4-1.1,0.6-2.5,0.6-4.3c0-1.8-0.2-3.2-0.6-4.3s-1-1.9-1.8-2.4s-1.7-0.8-2.8-0.8c-1.7,0-3,0.7-3.9,2
		c-0.8,1.2-1.2,3-1.2,5.6C303.5,258.1,303.7,259.5,304.1,260.5z M307.1,256.4c0-1.2,0.1-2.2,0.2-2.8s0.3-0.9,0.6-1.1
		c0.2-0.2,0.5-0.3,0.8-0.3s0.7,0.1,1.1,0.7c0.2,0.4,0.5,1.3,0.5,3.3c0,1.6-0.2,2.8-0.6,3.4c-0.3,0.6-0.7,0.6-1,0.6s-0.7-0.1-1.1-0.7
		C307.4,259.2,307.1,258.3,307.1,256.4z M339.8,208.5l3.7-7.2c0.5-0.9,0.8-1.5,0.9-2c0.1-0.4,0.2-0.9,0.2-1.4c0-1.2-0.5-2.3-1.3-3.2
		c-0.9-0.9-2-1.4-3.4-1.4c-1.3,0-2.4,0.5-3.3,1.4s-1.4,2-1.4,3.3s0.4,2.5,1.3,3.4c0.7,0.7,1.5,1.1,2.4,1.3l-2.2,4.3L339.8,208.5z
		 M338.7,198c0-0.4,0.1-0.7,0.3-0.9c0.2-0.2,0.5-0.4,0.8-0.4s0.5,0.1,0.8,0.4c0.2,0.2,0.3,0.5,0.3,0.9s-0.1,0.7-0.3,0.9
		c-0.5,0.5-1.2,0.4-1.6,0C338.8,198.7,338.7,198.4,338.7,198z M325.2,262.4l4.8-9.9h-5.2V249h9.8l-0.1,2.1l-6.2,12.8L325.2,262.4z
		 M335.1,212.1h9.8l-0.1,2.1l-6.2,12.8l-3.1-1.5l4.8-9.9h-5.2L335.1,212.1L335.1,212.1z M324,318.7h-10.3v-2l4.3-4.3
		c1-1,1.6-1.7,1.9-2.3c0.3-0.5,0.4-1,0.4-1.4s-0.1-0.7-0.3-0.9c-0.5-0.5-1.4-0.5-1.9,0.1c-0.3,0.3-0.4,0.7-0.4,1.3v0.5h-3.6v-0.6
		c0.1-1.6,0.6-2.8,1.5-3.7c0.9-0.9,2.1-1.4,3.6-1.4c0.9,0,1.7,0.2,2.4,0.6c0.7,0.4,1.3,0.9,1.7,1.7c0.4,0.7,0.6,1.5,0.6,2.2
		c0,0.9-0.2,1.8-0.7,2.8s-1.3,2.1-2.6,3.4l-0.6,0.7h4V318.7z M324.2,288l-6.2,12.8l-3.1-1.5l4.8-9.9h-5.2v-3.5h9.8L324.2,288z
		 M329.3,285.4l-3.7,7.1c-0.5,0.9-0.8,1.5-0.9,2s-0.2,0.9-0.2,1.4c0,1.2,0.5,2.3,1.3,3.2c0.9,0.9,2,1.4,3.4,1.4
		c1.3,0,2.4-0.5,3.3-1.4s1.4-2,1.4-3.3s-0.4-2.5-1.3-3.4c-0.7-0.7-1.5-1.1-2.4-1.3l2.2-4.3L329.3,285.4z M330.5,295.9
		c0,0.4-0.1,0.7-0.3,0.9c-0.5,0.5-1.1,0.5-1.6,0c-0.2-0.2-0.3-0.5-0.3-0.9s0.1-0.7,0.3-0.9c0.2-0.2,0.5-0.3,0.8-0.3s0.6,0.1,0.8,0.3
		C330.3,295.2,330.5,295.5,330.5,295.9z M313.7,189.5h-10.3v-2l4.3-4.3c1-1,1.6-1.7,1.9-2.3c0.3-0.5,0.4-1,0.4-1.4s-0.1-0.7-0.3-0.9
		c-0.5-0.5-1.4-0.5-1.9,0.1c-0.3,0.3-0.4,0.7-0.4,1.3v0.5h-3.6v-0.6c0.1-1.6,0.6-2.8,1.5-3.7s2.1-1.4,3.6-1.4c0.9,0,1.7,0.2,2.4,0.6
		c0.7,0.4,1.3,0.9,1.7,1.7c0.4,0.7,0.6,1.5,0.6,2.2c0,0.9-0.2,1.8-0.7,2.8s-1.3,2.1-2.6,3.4l-0.6,0.7h4V189.5z M319.7,160.1h-5.2
		v-3.5h9.8l-0.1,2.1l-6.2,12.8l-3.1-1.5L319.7,160.1z M309.4,160.1h-5.2v-3.5h9.8l-0.1,2.1l-6.2,12.8l-3.1-1.5L309.4,160.1z
		 M315.4,336.2c-0.9-0.9-1.4-2.1-1.5-3.5v-0.6h3.5l0.1,0.5c0.1,0.6,0.3,1,0.5,1.2c0.5,0.5,1.6,0.5,2.1-0.1c0.3-0.3,0.4-0.6,0.4-1
		s-0.2-0.8-0.6-1.1c-0.4-0.3-1.1-0.5-1.9-0.5h-0.5v-3.2h0.5c0.7-0.1,1-0.2,1.2-0.2c0.2-0.1,0.4-0.2,0.5-0.4c0.1-0.2,0.2-0.3,0.2-0.5
		s-0.1-0.4-0.2-0.5s-0.3-0.2-0.6-0.2c-0.2,0-0.5,0.1-0.7,0.2s-0.3,0.3-0.4,0.6l-0.1,0.4h-3.4l0.1-0.6c0.1-1.1,0.6-2,1.2-2.7
		c0.9-0.9,2.1-1.4,3.4-1.4c1.2,0,2.3,0.4,3.1,1.2c0.8,0.8,1.3,1.8,1.3,2.9c0,0.7-0.2,1.3-0.6,1.9c-0.2,0.3-0.4,0.5-0.7,0.8
		c0.5,0.3,0.9,0.6,1.2,1c0.5,0.7,0.8,1.5,0.8,2.4c0,1.3-0.5,2.5-1.5,3.4s-2.2,1.4-3.7,1.4C317.5,337.5,316.3,337.1,315.4,336.2z
		 M308.6,337.5c1.3,0,2.4-0.5,3.3-1.4s1.4-2,1.4-3.3s-0.4-2.5-1.3-3.4c-0.7-0.7-1.5-1.1-2.4-1.3l2.2-4.3l-3.1-1.6l-3.7,7.1
		c-0.5,0.9-0.8,1.5-0.9,2s-0.2,0.9-0.2,1.4c0,1.2,0.5,2.3,1.3,3.2C306.2,337,307.3,337.5,308.6,337.5z M307.5,332.8
		c0-0.4,0.1-0.7,0.3-0.9c0.2-0.2,0.5-0.3,0.8-0.3s0.6,0.1,0.8,0.3c0.2,0.2,0.3,0.5,0.3,0.9s-0.1,0.7-0.3,0.9c-0.5,0.5-1.1,0.5-1.6,0
		C307.6,333.5,307.5,333.2,307.5,332.8z M304.1,341.3h9.8l-0.1,2.1l-6.2,12.8l-3.1-1.5l4.8-9.9h-5.2L304.1,341.3L304.1,341.3z
		 M329.3,171.4c1.3,0,2.4-0.5,3.3-1.4s1.4-2,1.4-3.3s-0.4-2.5-1.3-3.4c-0.7-0.7-1.5-1.1-2.4-1.3l2.2-4.3l-3.1-1.6l-3.7,7.1
		c-0.5,0.9-0.8,1.5-0.9,2s-0.2,0.9-0.2,1.4c0,1.2,0.5,2.3,1.3,3.2C326.8,170.9,328,171.4,329.3,171.4z M328.2,166.7
		c0-0.4,0.1-0.7,0.3-0.9c0.2-0.2,0.5-0.3,0.8-0.3s0.6,0.1,0.8,0.3c0.2,0.2,0.3,0.5,0.3,0.9s-0.1,0.7-0.3,0.9c-0.5,0.5-1.1,0.5-1.6,0
		C328.3,167.3,328.2,167,328.2,166.7z M305.2,318c-0.9-0.7-1.5-1.7-1.8-3l-0.1-0.7h3.7l0.2,0.3c0.2,0.3,0.4,0.6,0.6,0.7
		c0.6,0.4,1.4,0.3,1.8-0.2c0.3-0.3,0.4-0.7,0.4-1.2s-0.1-0.9-0.4-1.1c-0.4-0.4-0.9-0.6-1.5-0.3c-0.2,0.1-0.4,0.3-0.6,0.5l-0.2,0.2
		l-2.9-0.6l1.8-8.3h7.2v3.4H309l-0.3,1.2c0.1,0,0.1,0,0.1,0c1.4,0,2.5,0.5,3.4,1.4s1.3,2.1,1.3,3.5s-0.5,2.7-1.5,3.6
		c-1,1-2.2,1.5-3.6,1.5C307.2,319.1,306.2,318.7,305.2,318z M323.6,178.1c-0.4-1.1-1-1.9-1.8-2.4s-1.7-0.8-2.8-0.8
		c-1.7,0-3,0.7-3.9,2c-0.8,1.2-1.2,3-1.2,5.6c0,1.8,0.2,3.2,0.6,4.2s1,1.8,1.8,2.4c0.8,0.5,1.7,0.8,2.8,0.8c1.1,0,2.1-0.3,2.8-0.8
		c0.7-0.5,1.3-1.3,1.8-2.4c0.2-0.5,0.3-1,0.4-1.6v1.7h5.8v2.7h3.6v-2.7h1.2v-3.4h-1.2v-8.5h-3.4l-5.8,8.7c0-0.4,0-0.7,0-1.2
		C324.3,180.5,324.1,179.1,323.6,178.1z M320.7,182.4c0,1.6-0.2,2.8-0.6,3.4c-0.3,0.6-0.7,0.6-1,0.6s-0.7-0.1-1.1-0.7
		c-0.2-0.4-0.5-1.2-0.5-3.2c0-1.2,0.1-2.2,0.2-2.8s0.3-0.9,0.6-1.1c0.2-0.2,0.5-0.3,0.8-0.3s0.7,0.1,1.1,0.7
		C320.4,179.4,320.7,180.3,320.7,182.4z M328.4,183.4l1.5-2.1v2.1H328.4z M365.5,185.8l-0.1-0.7h3.7l0.2,0.3
		c0.2,0.3,0.4,0.6,0.6,0.7c0.6,0.4,1.4,0.3,1.8-0.2c0.3-0.3,0.4-0.7,0.4-1.2s-0.1-0.9-0.4-1.1c-0.4-0.4-0.9-0.6-1.5-0.3
		c-0.2,0.1-0.4,0.3-0.6,0.5l-0.2,0.2l-2.9-0.6l1.8-8.3h7.2v3.4H371l-0.3,1.2c0.1,0,0.1,0,0.1,0c1.4,0,2.5,0.5,3.4,1.4
		s1.3,2.1,1.3,3.5s-0.5,2.7-1.5,3.6c-1,1-2.2,1.5-3.6,1.5c-1.2,0-2.3-0.4-3.3-1.1C366.4,188,365.8,187,365.5,185.8z M371.4,160.1
		h-5.2v-3.5h9.8l-0.1,2.1l-6.2,12.8l-3.1-1.5L371.4,160.1z M359.6,165.7l-2.2,4.3l3.1,1.6l3.7-7.2c0.5-0.9,0.8-1.5,0.9-2
		c0.1-0.4,0.2-0.9,0.2-1.4c0-1.2-0.5-2.3-1.3-3.2c-0.9-0.9-2-1.4-3.4-1.4c-1.3,0-2.4,0.5-3.3,1.4s-1.4,2-1.4,3.3s0.4,2.5,1.3,3.4
		C357.8,165.1,358.6,165.6,359.6,165.7z M359.4,161.1c0-0.4,0.1-0.7,0.3-0.9c0.2-0.2,0.5-0.4,0.8-0.4s0.5,0.1,0.8,0.4
		c0.2,0.2,0.3,0.5,0.3,0.9s-0.1,0.7-0.3,0.9c-0.5,0.5-1.2,0.4-1.6,0C359.5,161.7,359.4,161.4,359.4,161.1z M375.8,165.3v3h5.8v2.7
		h3.6v-2.7h1.2v-3.4h-1.2v-8.5h-3.4l-5.9,8.8L375.8,165.3z M380.1,164.9l1.5-2.1v2.1H380.1z M350,171.4c1.3,0,2.4-0.5,3.3-1.4
		s1.4-2,1.4-3.3s-0.4-2.5-1.3-3.4c-0.7-0.7-1.5-1.1-2.4-1.3l2.2-4.3l-3.1-1.6l-3.7,7.1c-0.5,0.9-0.8,1.5-0.9,2s-0.2,0.9-0.2,1.4
		c0,1.2,0.5,2.3,1.3,3.2C347.5,170.9,348.7,171.4,350,171.4z M348.8,166.7c0-0.4,0.1-0.7,0.3-0.9c0.2-0.2,0.5-0.3,0.8-0.3
		s0.6,0.1,0.8,0.3c0.2,0.2,0.3,0.5,0.3,0.9s-0.1,0.7-0.3,0.9c-0.5,0.5-1.1,0.5-1.6,0C349,167.3,348.8,167,348.8,166.7z M337,170.8
		c0.7,0.3,1.6,0.5,2.8,0.5c1.1,0,2-0.2,2.7-0.6c0.7-0.4,1.3-0.9,1.8-1.7c0.4-0.7,0.6-1.5,0.6-2.4c0-0.8-0.2-1.5-0.6-2.2
		c-0.3-0.5-0.6-0.9-1.1-1.3c0.3-0.4,0.5-0.7,0.7-1.1c0.2-0.5,0.3-1,0.3-1.5c0-0.8-0.2-1.5-0.6-2.2s-0.9-1.2-1.6-1.6
		c-1.3-0.7-3.3-0.7-4.6,0c-0.7,0.4-1.2,0.9-1.6,1.5c-0.4,0.7-0.6,1.4-0.6,2.2c0,0.6,0.1,1.1,0.3,1.7c0.2,0.3,0.4,0.7,0.6,1
		c-0.5,0.4-0.8,0.9-1.1,1.4c-0.3,0.7-0.5,1.4-0.5,2.2c0,0.9,0.2,1.7,0.6,2.4C335.7,169.9,336.3,170.5,337,170.8z M340.4,161.5
		c-0.3,0.4-1,0.4-1.3,0c-0.2-0.2-0.3-0.4-0.3-0.7s0.1-0.5,0.3-0.7c0.2-0.2,0.4-0.2,0.6-0.2c0.3,0,0.5,0.1,0.7,0.3s0.2,0.4,0.2,0.6
		C340.6,161.1,340.5,161.3,340.4,161.5z M339.8,165.2c0.5,0,0.8,0.1,1.1,0.4c0.3,0.3,0.4,0.6,0.4,1s-0.1,0.7-0.4,0.9
		c-0.5,0.5-1.8,0.5-2.3,0c-0.3-0.3-0.4-0.6-0.4-1s0.1-0.6,0.4-0.9S339.3,165.2,339.8,165.2z M354.1,174.8h-3.4l-5.9,8.8l-0.1,0.1v3
		h5.8v2.7h3.6v-2.7h1.2v-3.4h-1.2V174.8z M349.1,183.4l1.5-2.1v2.1H349.1z M359.6,184.2l-2.2,4.3l3.1,1.6l3.7-7.2
		c0.5-0.9,0.8-1.5,0.9-2c0.1-0.4,0.2-0.9,0.2-1.4c0-1.2-0.5-2.3-1.3-3.2c-0.9-0.9-2-1.4-3.4-1.4c-1.3,0-2.4,0.5-3.3,1.4
		s-1.4,2-1.4,3.3s0.4,2.5,1.3,3.4C357.8,183.6,358.6,184,359.6,184.2z M359.4,179.5c0-0.4,0.1-0.7,0.3-0.9c0.2-0.2,0.5-0.4,0.8-0.4
		s0.5,0.1,0.8,0.4c0.2,0.2,0.3,0.5,0.3,0.9s-0.1,0.7-0.3,0.9c-0.5,0.5-1.2,0.4-1.6,0C359.5,180.2,359.4,179.9,359.4,179.5z
		 M429.3,323.3c-0.8-0.5-1.7-0.8-2.8-0.8c-1.7,0-3,0.7-3.9,2c-0.8,1.2-1.2,3-1.2,5.6c0,1.8,0.2,3.2,0.6,4.2s1,1.8,1.8,2.4
		c0.8,0.5,1.7,0.8,2.8,0.8c1.1,0,2.1-0.3,2.8-0.8s1.3-1.3,1.8-2.4c0.4-1.1,0.6-2.5,0.6-4.3s-0.2-3.2-0.6-4.3
		C430.7,324.7,430.1,323.9,429.3,323.3z M428.1,330.1c0,1.6-0.2,2.8-0.6,3.4c-0.3,0.6-0.7,0.6-1,0.6s-0.7-0.1-1.1-0.7
		c-0.2-0.4-0.5-1.2-0.5-3.2c0-1.2,0.1-2.2,0.2-2.8c0.1-0.6,0.3-0.9,0.6-1.1c0.2-0.2,0.5-0.3,0.8-0.3s0.7,0.1,1.1,0.7
		C427.8,327.1,428.1,328,428.1,330.1z M413.1,352.2h4v3.4h-10.3v-2l4.3-4.3c1-1,1.6-1.7,1.9-2.3c0.3-0.5,0.4-1,0.4-1.4
		s-0.1-0.7-0.3-0.9c-0.5-0.5-1.4-0.5-1.9,0.1c-0.3,0.3-0.4,0.7-0.4,1.3v0.5h-3.6V346c0.1-1.6,0.6-2.8,1.5-3.7
		c0.9-0.9,2.1-1.4,3.6-1.4c0.9,0,1.7,0.2,2.4,0.6c0.7,0.4,1.3,0.9,1.7,1.7c0.4,0.7,0.6,1.5,0.6,2.2c0,0.9-0.2,1.8-0.7,2.8
		s-1.3,2.1-2.6,3.4L413.1,352.2z M417.1,333.8h4v3.4h-10.3v-2l4.3-4.3c1-1,1.6-1.7,1.9-2.3c0.3-0.5,0.4-1,0.4-1.4s-0.1-0.7-0.3-0.9
		c-0.5-0.5-1.4-0.5-1.9,0.1c-0.3,0.3-0.4,0.7-0.4,1.3v0.5h-3.6v-0.6c0.1-1.6,0.6-2.8,1.5-3.7c0.9-0.9,2.1-1.4,3.6-1.4
		c0.9,0,1.7,0.2,2.4,0.6c0.7,0.4,1.3,0.9,1.7,1.7c0.4,0.7,0.6,1.5,0.6,2.2c0,0.9-0.2,1.8-0.7,2.8s-1.3,2.1-2.6,3.4L417.1,333.8z
		 M392.3,346.6l2.2-4.3l-3.1-1.6l-3.7,7.1c-0.5,0.9-0.8,1.5-0.9,2s-0.2,0.9-0.2,1.4c0,1.2,0.5,2.3,1.3,3.2c0.9,0.9,2,1.4,3.4,1.4
		c1.3,0,2.4-0.5,3.3-1.4s1.4-2,1.4-3.3s-0.4-2.5-1.3-3.4C394,347.2,393.2,346.8,392.3,346.6z M392.5,351.3c0,0.4-0.1,0.7-0.3,0.9
		c-0.5,0.5-1.1,0.5-1.6,0c-0.2-0.2-0.3-0.5-0.3-0.9s0.1-0.7,0.3-0.9c0.2-0.2,0.5-0.3,0.8-0.3s0.6,0.1,0.8,0.3
		C392.4,350.6,392.5,350.9,392.5,351.3z M314.5,341.3h9.8l-0.1,2.1l-6.2,12.8l-3.1-1.5l4.8-9.9h-5.2L314.5,341.3L314.5,341.3z
		 M390,180.5h-3.6v-0.6c0.1-1.6,0.6-2.8,1.5-3.7s2.1-1.4,3.6-1.4c0.9,0,1.7,0.2,2.4,0.6c0.7,0.4,1.3,0.9,1.7,1.7
		c0.4,0.7,0.6,1.5,0.6,2.2c0,0.9-0.2,1.8-0.7,2.8s-1.3,2.1-2.6,3.4l-0.6,0.7h4v3.4H386v-2l4.3-4.3c1-1,1.6-1.7,1.9-2.3
		c0.3-0.5,0.4-1,0.4-1.4s-0.1-0.7-0.3-0.9c-0.5-0.5-1.4-0.5-1.9,0.1c-0.3,0.3-0.4,0.7-0.4,1.3V180.5z M446.4,292.5
		c-0.7-0.7-1.5-1.1-2.4-1.3l2.2-4.3l-3.1-1.6l-3.7,7.1c-0.5,0.9-0.8,1.5-0.9,2s-0.2,0.9-0.2,1.4c0,1.2,0.5,2.3,1.3,3.2
		c0.9,0.9,2,1.4,3.4,1.4c1.3,0,2.4-0.5,3.3-1.4s1.4-2,1.4-3.3C447.7,294.6,447.2,293.4,446.4,292.5z M444.1,295.9
		c0,0.4-0.1,0.7-0.3,0.9c-0.5,0.5-1.1,0.5-1.6,0c-0.2-0.2-0.3-0.5-0.3-0.9s0.1-0.7,0.3-0.9c0.2-0.2,0.5-0.3,0.8-0.3s0.6,0.1,0.8,0.3
		C444,295.2,444.1,295.5,444.1,295.9z M428.5,315.3h4v3.4h-10.3v-2l4.3-4.3c1-1,1.6-1.7,1.9-2.3c0.3-0.5,0.4-1,0.4-1.4
		s-0.1-0.7-0.3-0.9c-0.5-0.5-1.4-0.5-1.9,0.1c-0.3,0.3-0.4,0.7-0.4,1.3v0.5h-3.6v-0.6c0.1-1.6,0.6-2.8,1.5-3.7
		c0.9-0.9,2.1-1.4,3.6-1.4c0.9,0,1.7,0.2,2.4,0.6c0.7,0.4,1.3,0.9,1.7,1.7c0.4,0.7,0.6,1.5,0.6,2.2c0,0.9-0.2,1.8-0.7,2.8
		s-1.3,2.1-2.6,3.4L428.5,315.3z M440.7,304.9c-0.8-0.5-1.7-0.8-2.8-0.8c-1.7,0-3,0.7-3.9,2c-0.8,1.2-1.2,3-1.2,5.6
		c0,1.8,0.2,3.2,0.6,4.2s1,1.8,1.8,2.4c0.8,0.5,1.7,0.8,2.8,0.8c1.1,0,2.1-0.3,2.8-0.8c0.7-0.5,1.3-1.3,1.8-2.4
		c0.4-1.1,0.6-2.5,0.6-4.3s-0.2-3.2-0.6-4.3C442.1,306.2,441.5,305.4,440.7,304.9z M439.5,311.6c0,1.6-0.2,2.8-0.6,3.4
		c-0.3,0.6-0.7,0.6-1,0.6s-0.7-0.1-1.1-0.7c-0.2-0.4-0.5-1.2-0.5-3.2c0-1.2,0.1-2.2,0.2-2.8c0.1-0.6,0.3-0.9,0.6-1.1
		c0.2-0.2,0.5-0.3,0.8-0.3s0.7,0.1,1.1,0.7C439.2,308.7,439.5,309.6,439.5,311.6z M405.3,347.3c0.9,0.9,1.3,2.1,1.3,3.5
		s-0.5,2.7-1.5,3.6c-1,1-2.2,1.5-3.6,1.5c-1.2,0-2.3-0.4-3.3-1.1c-0.9-0.7-1.5-1.7-1.8-3l-0.1-0.7h3.7l0.2,0.3
		c0.2,0.3,0.4,0.6,0.6,0.7c0.6,0.4,1.4,0.3,1.8-0.2c0.3-0.3,0.4-0.7,0.4-1.2s-0.1-0.9-0.4-1.1c-0.4-0.4-0.9-0.6-1.5-0.3
		c-0.2,0.1-0.4,0.3-0.6,0.5l-0.2,0.2l-2.9-0.6l1.8-8.3h7.2v3.4H402l-0.3,1.2c0.1,0,0.1,0,0.1,0C403.2,345.9,404.4,346.4,405.3,347.3
		z M330.3,328.2l2.2-4.3l-3.1-1.6l-3.7,7.1c-0.5,0.9-0.8,1.5-0.9,2s-0.2,0.9-0.2,1.4c0,1.2,0.5,2.3,1.3,3.2c0.9,0.9,2,1.4,3.4,1.4
		c1.3,0,2.4-0.5,3.3-1.4s1.4-2,1.4-3.3s-0.4-2.5-1.3-3.4C332,328.8,331.2,328.3,330.3,328.2z M330.5,332.8c0,0.4-0.1,0.7-0.3,0.9
		c-0.5,0.5-1.1,0.5-1.6,0c-0.2-0.2-0.3-0.5-0.3-0.9s0.1-0.7,0.3-0.9c0.2-0.2,0.5-0.3,0.8-0.3s0.6,0.1,0.8,0.3
		C330.3,332.1,330.5,332.4,330.5,332.8z M343.3,347.8c0.3-0.4,0.5-0.7,0.7-1.1c0.2-0.5,0.3-1,0.3-1.5c0-0.8-0.2-1.5-0.6-2.2
		s-0.9-1.2-1.6-1.6c-1.3-0.7-3.3-0.7-4.6,0c-0.7,0.4-1.2,0.9-1.6,1.5c-0.4,0.7-0.6,1.4-0.6,2.2c0,0.6,0.1,1.1,0.3,1.7
		c0.2,0.3,0.4,0.7,0.6,1c-0.5,0.4-0.8,0.9-1.1,1.4c-0.3,0.7-0.5,1.4-0.5,2.2c0,0.9,0.2,1.7,0.6,2.4c0.4,0.7,1,1.3,1.7,1.6
		c0.7,0.3,1.6,0.5,2.8,0.5c1.1,0,2-0.2,2.7-0.6s1.3-0.9,1.8-1.7c0.4-0.7,0.6-1.5,0.6-2.4c0-0.8-0.2-1.5-0.6-2.2
		C344.1,348.6,343.7,348.2,343.3,347.8z M340.4,346.1c-0.3,0.4-1,0.4-1.3,0c-0.2-0.2-0.3-0.4-0.3-0.7c0-0.3,0.1-0.5,0.3-0.7
		c0.2-0.2,0.4-0.2,0.6-0.2c0.3,0,0.5,0.1,0.7,0.3c0.2,0.2,0.2,0.4,0.2,0.6C340.6,345.7,340.5,345.9,340.4,346.1z M338.6,350.2
		c0.3-0.3,0.7-0.4,1.2-0.4s0.8,0.1,1.1,0.4c0.3,0.3,0.4,0.6,0.4,1s-0.1,0.7-0.4,0.9c-0.5,0.5-1.8,0.5-2.3,0c-0.3-0.3-0.4-0.6-0.4-1
		C338.2,350.8,338.3,350.5,338.6,350.2z M330.3,346.6l2.2-4.3l-3.1-1.6l-3.7,7.1c-0.5,0.9-0.8,1.5-0.9,2s-0.2,0.9-0.2,1.4
		c0,1.2,0.5,2.3,1.3,3.2c0.9,0.9,2,1.4,3.4,1.4c1.3,0,2.4-0.5,3.3-1.4s1.4-2,1.4-3.3s-0.4-2.5-1.3-3.4
		C332,347.2,331.2,346.8,330.3,346.6z M330.5,351.3c0,0.4-0.1,0.7-0.3,0.9c-0.5,0.5-1.1,0.5-1.6,0c-0.2-0.2-0.3-0.5-0.3-0.9
		s0.1-0.7,0.3-0.9c0.2-0.2,0.5-0.3,0.8-0.3s0.6,0.1,0.8,0.3C330.3,350.6,330.5,350.9,330.5,351.3z M351,346.6l2.2-4.3l-3.1-1.6
		l-3.7,7.1c-0.5,0.9-0.8,1.5-0.9,2s-0.2,0.9-0.2,1.4c0,1.2,0.5,2.3,1.3,3.2c0.9,0.9,2,1.4,3.4,1.4c1.3,0,2.4-0.5,3.3-1.4
		s1.4-2,1.4-3.3s-0.4-2.5-1.3-3.4C352.7,347.2,351.9,346.8,351,346.6z M351.1,351.3c0,0.4-0.1,0.7-0.3,0.9c-0.5,0.5-1.1,0.5-1.6,0
		c-0.2-0.2-0.3-0.5-0.3-0.9s0.1-0.7,0.3-0.9c0.2-0.2,0.5-0.3,0.8-0.3s0.6,0.1,0.8,0.3C351,350.6,351.1,350.9,351.1,351.3z
		 M375.9,343.4l-6.2,12.8l-3.1-1.5l4.8-9.9h-5.2v-3.5h9.8L375.9,343.4z M385.1,341h-3.4l-5.9,8.8l-0.1,0.1v3h5.8v2.7h3.6v-2.7h1.2
		v-3.4h-1.2V341z M380.1,349.5l1.5-2.1v2.1H380.1z M360.5,341c-1.3,0-2.4,0.5-3.3,1.4s-1.4,2-1.4,3.3s0.4,2.5,1.3,3.4
		c0.7,0.7,1.5,1.1,2.4,1.3l-2.2,4.3l3.1,1.6l3.7-7.2c0.5-0.9,0.8-1.5,0.9-2c0.1-0.4,0.2-0.9,0.2-1.4c0-1.2-0.5-2.3-1.3-3.2
		C363,341.5,361.8,341,360.5,341z M361.7,345.7c0,0.4-0.1,0.7-0.3,0.9c-0.5,0.5-1.2,0.4-1.6,0c-0.2-0.2-0.3-0.5-0.3-0.9
		s0.1-0.7,0.3-0.9c0.2-0.2,0.5-0.4,0.8-0.4s0.5,0.1,0.8,0.4C361.6,345,361.7,345.3,361.7,345.7z M424,259.3l-0.6,0.7h4v3.4h-10.3v-2
		l4.3-4.3c1-1,1.6-1.7,1.9-2.3c0.3-0.5,0.4-1,0.4-1.4s-0.1-0.7-0.3-0.9c-0.5-0.5-1.4-0.5-1.9,0.1c-0.3,0.3-0.4,0.7-0.4,1.3v0.5h-3.6
		v-0.6c0.1-1.6,0.6-2.8,1.5-3.7s2.1-1.4,3.6-1.4c0.9,0,1.7,0.2,2.4,0.6c0.7,0.4,1.3,0.9,1.7,1.7c0.4,0.7,0.6,1.5,0.6,2.2
		c0,0.9-0.2,1.8-0.7,2.8C426.1,256.9,425.3,258,424,259.3z M412.2,232.2c-0.8,1.2-1.2,3-1.2,5.6c0,1.8,0.2,3.2,0.6,4.2
		s1,1.8,1.8,2.4c0.8,0.5,1.7,0.8,2.8,0.8c1.1,0,2.1-0.3,2.8-0.8c0.7-0.5,1.3-1.3,1.8-2.4c0.4-1.1,0.6-2.5,0.6-4.3s-0.2-3.2-0.6-4.3
		s-1-1.9-1.8-2.4s-1.7-0.8-2.8-0.8C414.5,230.2,413.1,230.9,412.2,232.2z M417.3,234.4c0.2,0.4,0.5,1.3,0.5,3.3
		c0,1.6-0.2,2.8-0.6,3.4c-0.3,0.6-0.7,0.6-1,0.6s-0.7-0.1-1.1-0.7c-0.2-0.4-0.5-1.2-0.5-3.2c0-1.2,0.1-2.2,0.2-2.8s0.3-0.9,0.6-1.1
		c0.2-0.2,0.5-0.3,0.8-0.3C416.5,233.7,416.9,233.8,417.3,234.4z M391.4,171.4c1.3,0,2.4-0.5,3.3-1.4s1.4-2,1.4-3.3
		s-0.4-2.5-1.3-3.4c-0.7-0.7-1.5-1.1-2.4-1.3l2.2-4.3l-3.1-1.6l-3.7,7.1c-0.5,0.9-0.8,1.5-0.9,2s-0.2,0.9-0.2,1.4
		c0,1.2,0.5,2.3,1.3,3.2C388.9,170.9,390,171.4,391.4,171.4z M390.2,166.7c0-0.4,0.1-0.7,0.3-0.9c0.2-0.2,0.5-0.3,0.8-0.3
		s0.6,0.1,0.8,0.3c0.2,0.2,0.3,0.5,0.3,0.9s-0.1,0.7-0.3,0.9c-0.5,0.5-1.1,0.5-1.6,0C390.3,167.3,390.2,167,390.2,166.7z
		 M401.7,248.5l-3.7,7.1c-0.5,0.9-0.8,1.5-0.9,2s-0.2,0.9-0.2,1.4c0,1.2,0.5,2.3,1.3,3.2c0.9,0.9,2,1.4,3.4,1.4
		c1.3,0,2.4-0.5,3.3-1.4s1.4-2,1.4-3.3s-0.4-2.5-1.3-3.4c-0.7-0.7-1.5-1.1-2.4-1.3l2.2-4.3L401.7,248.5z M402.8,259
		c0,0.4-0.1,0.7-0.3,0.9c-0.5,0.5-1.1,0.5-1.6,0c-0.2-0.2-0.3-0.5-0.3-0.9s0.1-0.7,0.3-0.9c0.2-0.2,0.5-0.3,0.8-0.3s0.6,0.1,0.8,0.3
		C402.7,258.3,402.8,258.6,402.8,259z M422.4,211.6l-3.7,7.1c-0.5,0.9-0.8,1.5-0.9,2s-0.2,0.9-0.2,1.4c0,1.2,0.5,2.3,1.3,3.2
		c0.9,0.9,2,1.4,3.4,1.4c1.3,0,2.4-0.5,3.3-1.4s1.4-2,1.4-3.3s-0.4-2.5-1.3-3.4c-0.7-0.7-1.5-1.1-2.4-1.3l2.2-4.3L422.4,211.6z
		 M423.5,222c0,0.4-0.1,0.7-0.3,0.9c-0.5,0.5-1.1,0.5-1.6,0c-0.2-0.2-0.3-0.5-0.3-0.9s0.1-0.7,0.3-0.9c0.2-0.2,0.5-0.3,0.8-0.3
		s0.6,0.1,0.8,0.3C423.4,221.4,423.5,221.7,423.5,222z M407.4,240.8l-0.6,0.7h4v3.4h-10.3v-2l4.3-4.3c1-1,1.6-1.7,1.9-2.3
		c0.3-0.5,0.4-1,0.4-1.4s-0.1-0.7-0.3-0.9c-0.5-0.5-1.4-0.5-1.9,0.1c-0.3,0.3-0.4,0.7-0.4,1.3v0.5h-3.6v-0.6
		c0.1-1.6,0.6-2.8,1.5-3.7s2.1-1.4,3.6-1.4c0.9,0,1.7,0.2,2.4,0.6c0.7,0.4,1.3,0.9,1.7,1.7c0.4,0.7,0.6,1.5,0.6,2.2
		c0,0.9-0.2,1.8-0.7,2.8C409.5,238.4,408.6,239.5,407.4,240.8z M392,271.8c0,1.3,0.4,2.5,1.3,3.4c0.7,0.7,1.5,1.1,2.4,1.3l-2.2,4.3
		l3.1,1.6l3.7-7.2c0.5-0.9,0.8-1.5,0.9-2c0.1-0.4,0.2-0.9,0.2-1.4c0-1.2-0.5-2.3-1.3-3.2c-0.9-0.9-2-1.4-3.4-1.4
		c-1.3,0-2.4,0.5-3.3,1.4C392.4,269.4,392,270.5,392,271.8z M395.5,271.8c0-0.4,0.1-0.7,0.3-0.9c0.2-0.2,0.5-0.4,0.8-0.4
		s0.5,0.1,0.8,0.4c0.2,0.2,0.3,0.5,0.3,0.9s-0.1,0.7-0.3,0.9c-0.5,0.5-1.2,0.4-1.6,0C395.6,272.5,395.5,272.2,395.5,271.8z
		 M406.7,282.1c-1.2,0-2.3-0.4-3.3-1.1c-0.9-0.7-1.5-1.7-1.8-3l-0.1-0.7h3.7l0.2,0.3c0.2,0.3,0.4,0.6,0.6,0.7
		c0.6,0.4,1.3,0.3,1.8-0.2c0.3-0.3,0.4-0.7,0.4-1.2s-0.1-0.9-0.4-1.1c-0.4-0.4-0.9-0.6-1.5-0.3c-0.2,0.1-0.4,0.3-0.6,0.5l-0.2,0.2
		l-2.9-0.6l1.8-8.3h7.2v3.4h-4.4l-0.3,1.2c0.1,0,0.1,0,0.1,0c1.4,0,2.5,0.5,3.4,1.4s1.3,2.1,1.3,3.5s-0.5,2.7-1.5,3.6
		C409.3,281.6,408.1,282.1,406.7,282.1z M414.8,212.6c-0.8-0.5-1.7-0.8-2.8-0.8c-1.7,0-3,0.7-3.9,2c-0.8,1.2-1.2,3-1.2,5.6
		c0,1.8,0.2,3.2,0.6,4.2s1,1.8,1.8,2.4c0.8,0.5,1.7,0.8,2.8,0.8c1.1,0,2.1-0.3,2.8-0.8c0.7-0.5,1.3-1.3,1.8-2.4
		c0.4-1.1,0.6-2.5,0.6-4.3s-0.2-3.2-0.6-4.3C416.2,213.9,415.6,213.1,414.8,212.6z M413.7,219.3c0,1.6-0.2,2.8-0.6,3.4
		c-0.3,0.6-0.7,0.6-1,0.6s-0.7-0.1-1.1-0.7c-0.2-0.4-0.5-1.2-0.5-3.2c0-1.2,0.1-2.2,0.2-2.8s0.3-0.9,0.6-1.1
		c0.2-0.2,0.5-0.3,0.8-0.3s0.7,0.1,1.1,0.7C413.4,216.4,413.7,217.2,413.7,219.3z M405,299.2c0.9-0.9,1.4-2,1.4-3.3
		s-0.4-2.5-1.3-3.4c-0.7-0.7-1.5-1.1-2.4-1.3l2.2-4.3l-3.1-1.6l-3.7,7.1c-0.5,0.9-0.8,1.5-0.9,2s-0.2,0.9-0.2,1.4
		c0,1.2,0.5,2.3,1.3,3.2c0.9,0.9,2,1.4,3.4,1.4C402.9,300.6,404.1,300.1,405,299.2z M400.5,295.9c0-0.4,0.1-0.7,0.3-0.9
		c0.2-0.2,0.5-0.3,0.8-0.3s0.6,0.1,0.8,0.3c0.2,0.2,0.3,0.5,0.3,0.9s-0.1,0.7-0.3,0.9c-0.5,0.5-1.1,0.5-1.6,0
		C400.6,296.6,400.5,296.3,400.5,295.9z M429.2,277.7l-0.6,0.7h4v3.4h-10.3v-2l4.3-4.3c1-1,1.6-1.7,1.9-2.3c0.3-0.5,0.4-1,0.4-1.4
		s-0.1-0.7-0.3-0.9c-0.5-0.5-1.4-0.5-1.9,0.1c-0.3,0.3-0.4,0.7-0.4,1.3v0.5h-3.6v-0.6c0.1-1.6,0.6-2.8,1.5-3.7
		c0.9-0.9,2.1-1.4,3.6-1.4c0.9,0,1.7,0.2,2.4,0.6c0.7,0.4,1.3,0.9,1.7,1.7c0.4,0.7,0.6,1.5,0.6,2.2c0,0.9-0.2,1.8-0.7,2.8
		C431.2,275.3,430.4,276.4,429.2,277.7z M402.4,193.3l-5.9,8.8l-0.1,0.1v3h5.8v2.7h3.6v-2.7h1.2v-3.4h-1.2v-8.5L402.4,193.3
		L402.4,193.3z M400.7,201.8l1.5-2.1v2.1H400.7z M423.3,204.4c0.3-0.3,0.4-0.7,0.4-1.2s-0.1-0.9-0.4-1.1c-0.4-0.4-0.9-0.6-1.5-0.3
		c-0.2,0.1-0.4,0.3-0.6,0.5l-0.2,0.2l-2.9-0.6l1.8-8.3h7.2v3.4h-4.4l-0.3,1.2c0.1,0,0.1,0,0.1,0c1.4,0,2.5,0.5,3.4,1.4
		s1.3,2.1,1.3,3.5s-0.5,2.7-1.5,3.6c-1,1-2.2,1.5-3.6,1.5c-1.2,0-2.3-0.4-3.3-1.1c-0.9-0.7-1.5-1.7-1.8-3l-0.1-0.7h3.7l0.2,0.3
		c0.2,0.3,0.4,0.6,0.6,0.7C422,205,422.8,204.9,423.3,204.4z M421.3,281.8v-2.7h1.2v-3.4h-1.2v-8.5h-3.4L412,276l-0.1,0.1v3h5.8v2.7
		H421.3z M416.2,275.7l1.5-2.1v2.1H416.2z M412.1,300.8l3.7-7.2c0.5-0.9,0.8-1.5,0.9-2c0.1-0.4,0.2-0.9,0.2-1.4
		c0-1.2-0.5-2.3-1.3-3.2c-0.9-0.9-2-1.4-3.4-1.4c-1.3,0-2.4,0.5-3.3,1.4s-1.4,2-1.4,3.3s0.4,2.5,1.3,3.4c0.7,0.7,1.5,1.1,2.4,1.3
		l-2.2,4.3L412.1,300.8z M411,290.3c0-0.4,0.1-0.7,0.3-0.9c0.2-0.2,0.5-0.4,0.8-0.4s0.5,0.1,0.8,0.4c0.2,0.2,0.3,0.5,0.3,0.9
		s-0.1,0.7-0.3,0.9c-0.5,0.5-1.2,0.4-1.6,0C411.1,291,411,290.7,411,290.3z M396.3,236.3c0.3-0.5,0.4-1,0.4-1.4s-0.1-0.7-0.3-0.9
		c-0.5-0.5-1.4-0.5-1.9,0.1c-0.3,0.3-0.4,0.7-0.4,1.3v0.5h-3.6v-0.6c0.1-1.6,0.6-2.8,1.5-3.7s2.1-1.4,3.6-1.4c0.9,0,1.7,0.2,2.4,0.6
		c0.7,0.4,1.3,0.9,1.7,1.7c0.4,0.7,0.6,1.5,0.6,2.2c0,0.9-0.2,1.8-0.7,2.8s-1.3,2.1-2.6,3.4l-0.6,0.7h4v3.4h-10.3v-2l4.3-4.3
		C395.4,237.6,396,236.8,396.3,236.3z M402.6,217.8c0.3-0.5,0.4-1,0.4-1.4s-0.1-0.7-0.3-0.9c-0.5-0.5-1.4-0.5-1.9,0.1
		c-0.3,0.3-0.4,0.7-0.4,1.3v0.5h-3.6v-0.6c0.1-1.6,0.6-2.8,1.5-3.7s2.1-1.4,3.6-1.4c0.9,0,1.7,0.2,2.4,0.6c0.7,0.4,1.3,0.9,1.7,1.7
		c0.4,0.7,0.6,1.5,0.6,2.2c0,0.9-0.2,1.8-0.7,2.8s-1.3,2.1-2.6,3.4l-0.6,0.7h4v3.4h-10.3v-2l4.3-4.3
		C401.6,219.1,402.3,218.4,402.6,217.8z M396.6,319.3l3.7-7.2c0.5-0.9,0.8-1.5,0.9-2c0.1-0.4,0.2-0.9,0.2-1.4c0-1.2-0.5-2.3-1.3-3.2
		c-0.9-0.9-2-1.4-3.4-1.4c-1.3,0-2.4,0.5-3.3,1.4s-1.4,2-1.4,3.3s0.4,2.5,1.3,3.4c0.7,0.7,1.5,1.1,2.4,1.3l-2.2,4.3L396.6,319.3z
		 M395.5,308.8c0-0.4,0.1-0.7,0.3-0.9c0.2-0.2,0.5-0.4,0.8-0.4s0.5,0.1,0.8,0.4c0.2,0.2,0.3,0.5,0.3,0.9s-0.1,0.7-0.3,0.9
		c-0.5,0.5-1.2,0.4-1.6,0C395.6,309.4,395.5,309.1,395.5,308.8z M409.6,249h7.2v3.4h-4.4l-0.3,1.2c0.1,0,0.1,0,0.1,0
		c1.4,0,2.5,0.5,3.4,1.4s1.3,2.1,1.3,3.5c0,1.4-0.5,2.7-1.5,3.6c-1,1-2.2,1.5-3.6,1.5c-1.2,0-2.3-0.4-3.3-1.1
		c-0.9-0.7-1.5-1.7-1.8-3l-0.1-0.7h3.7l0.2,0.3c0.2,0.3,0.4,0.6,0.6,0.7c0.6,0.4,1.3,0.3,1.8-0.2c0.3-0.3,0.4-0.7,0.4-1.2
		s-0.1-0.9-0.4-1.1c-0.4-0.4-0.9-0.6-1.5-0.3c-0.2,0.1-0.4,0.3-0.6,0.5l-0.2,0.2l-2.9-0.6L409.6,249z M423.1,178.6h-5.2v-3.5h9.8
		l-0.1,2.1l-6.2,12.8l-3.1-1.5L423.1,178.6z M412.1,314.2v-0.6h3.5l0.1,0.5c0.1,0.6,0.3,1,0.5,1.2c0.5,0.5,1.5,0.5,2.1-0.1
		c0.3-0.3,0.4-0.6,0.4-1s-0.2-0.8-0.6-1.1c-0.4-0.3-1.1-0.5-1.9-0.5h-0.5v-3.2h0.5c0.7-0.1,1-0.2,1.2-0.2c0.2-0.1,0.4-0.2,0.5-0.4
		c0.1-0.2,0.2-0.3,0.2-0.5s-0.1-0.4-0.2-0.5s-0.3-0.2-0.6-0.2c-0.2,0-0.5,0.1-0.7,0.2s-0.3,0.3-0.4,0.6l-0.1,0.4h-3.4l0.1-0.6
		c0.1-1.1,0.6-2,1.2-2.7c0.9-0.9,2.1-1.4,3.4-1.4c1.2,0,2.3,0.4,3.1,1.2c0.8,0.8,1.3,1.8,1.3,2.9c0,0.7-0.2,1.3-0.6,1.9
		c-0.2,0.3-0.4,0.5-0.7,0.8c0.5,0.3,0.9,0.6,1.2,1c0.5,0.7,0.8,1.5,0.8,2.4c0,1.3-0.5,2.5-1.5,3.4s-2.2,1.4-3.7,1.4
		c-1.4,0-2.6-0.4-3.5-1.3C412.7,316.9,412.2,315.7,412.1,314.2z M427.5,288l-6.2,12.8l-3.1-1.5l4.8-9.9h-5.2v-3.5h9.8L427.5,288z
		 M412.7,178.6h-5.2v-3.5h9.8l-0.1,2.1L411,190l-3.1-1.5L412.7,178.6z M431.3,199h-3.6v-0.6c0.1-1.6,0.6-2.8,1.5-3.7
		s2.1-1.4,3.6-1.4c0.9,0,1.7,0.2,2.4,0.6c0.7,0.4,1.3,0.9,1.7,1.7c0.4,0.7,0.6,1.5,0.6,2.2c0,0.9-0.2,1.8-0.7,2.8s-1.3,2.1-2.6,3.4
		l-0.6,0.7h4v3.4h-10.3v-2l4.3-4.3c1-1,1.6-1.7,1.9-2.3c0.3-0.5,0.4-1,0.4-1.4s-0.1-0.7-0.3-0.9c-0.5-0.5-1.4-0.5-1.9,0.1
		c-0.3,0.3-0.4,0.7-0.4,1.3V199z M402.6,167.5c0.3-0.3,0.4-0.7,0.4-1.2s-0.1-0.9-0.4-1.1c-0.4-0.4-0.9-0.6-1.5-0.3
		c-0.2,0.1-0.4,0.3-0.6,0.5l-0.2,0.2l-2.9-0.6l1.8-8.3h7.2v3.4H402l-0.3,1.2c0.1,0,0.1,0,0.1,0c1.4,0,2.5,0.5,3.4,1.4
		s1.3,2.1,1.3,3.5s-0.5,2.7-1.5,3.6c-1,1-2.2,1.5-3.6,1.5c-1.2,0-2.3-0.4-3.3-1.1c-0.9-0.7-1.5-1.7-1.8-3l-0.1-0.7h3.7l0.2,0.3
		c0.2,0.3,0.4,0.6,0.6,0.7C401.3,168.1,402.1,168,402.6,167.5z M404.5,175.6c-0.8-0.5-1.7-0.8-2.8-0.8c-1.7,0-3,0.7-3.9,2
		c-0.8,1.2-1.2,3-1.2,5.6c0,1.8,0.2,3.2,0.6,4.2s1,1.8,1.8,2.4c0.8,0.5,1.7,0.8,2.8,0.8c1.1,0,2.1-0.3,2.8-0.8
		c0.7-0.5,1.3-1.3,1.8-2.4c0.4-1.1,0.6-2.5,0.6-4.3s-0.2-3.2-0.6-4.3C405.9,177,405.3,176.2,404.5,175.6z M403.4,182.4
		c0,1.6-0.2,2.8-0.6,3.4c-0.3,0.6-0.7,0.6-1,0.6s-0.7-0.1-1.1-0.7c-0.2-0.4-0.5-1.2-0.5-3.2c0-1.2,0.1-2.2,0.2-2.8s0.3-0.9,0.6-1.1
		c0.2-0.2,0.5-0.3,0.8-0.3s0.7,0.1,1.1,0.7C403.1,179.4,403.4,180.3,403.4,182.4z M412,208.3c1.3,0,2.4-0.5,3.3-1.4s1.4-2,1.4-3.3
		s-0.4-2.5-1.3-3.4c-0.7-0.7-1.5-1.1-2.4-1.3l2.2-4.3l-3.1-1.6l-3.7,7.1c-0.5,0.9-0.8,1.5-0.9,2s-0.2,0.9-0.2,1.4
		c0,1.2,0.5,2.3,1.3,3.2C409.5,207.8,410.7,208.3,412,208.3z M410.8,203.6c0-0.4,0.1-0.7,0.3-0.9c0.2-0.2,0.5-0.3,0.8-0.3
		s0.6,0.1,0.8,0.3c0.2,0.2,0.3,0.5,0.3,0.9s-0.1,0.7-0.3,0.9c-0.5,0.5-1.1,0.5-1.6,0C411,204.3,410.8,204,410.8,203.6z M374.7,337.5
		c1.3,0,2.4-0.5,3.3-1.4s1.4-2,1.4-3.3s-0.4-2.5-1.3-3.4c-0.7-0.7-1.5-1.1-2.4-1.3l2.2-4.3l-3.1-1.6l-3.7,7.1
		c-0.5,0.9-0.8,1.5-0.9,2s-0.2,0.9-0.2,1.4c0,1.2,0.5,2.3,1.3,3.2C372.3,337,373.4,337.5,374.7,337.5z M373.6,332.8
		c0-0.4,0.1-0.7,0.3-0.9c0.2-0.2,0.5-0.3,0.8-0.3s0.6,0.1,0.8,0.3c0.2,0.2,0.3,0.5,0.3,0.9s-0.1,0.7-0.3,0.9c-0.5,0.5-1.1,0.5-1.6,0
		C373.7,333.5,373.6,333.2,373.6,332.8z M372.4,230.5h4.6v14.3h-3.6V234h-3.2L372.4,230.5z M386.8,193.6h9.8l-0.1,2.1l-6.2,12.8
		l-3.1-1.5l4.8-9.9h-5.2L386.8,193.6L386.8,193.6z M412,306.5l-6.2,12.8l-3.1-1.5l4.8-9.9h-5.2v-3.5h9.8L412,306.5z M380.6,230.5
		h9.8l-0.1,2.1l-6.2,12.8l-3.1-1.5l4.8-9.9h-5.2L380.6,230.5L380.6,230.5z M410.8,337.2h-10.3v-2l4.3-4.3c1-1,1.6-1.7,1.9-2.3
		c0.3-0.5,0.4-1,0.4-1.4s-0.1-0.7-0.3-0.9c-0.5-0.5-1.4-0.5-1.9,0.1c-0.3,0.3-0.4,0.7-0.4,1.3v0.5h-3.6v-0.6
		c0.1-1.6,0.6-2.8,1.5-3.7c0.9-0.9,2.1-1.4,3.6-1.4c0.9,0,1.7,0.2,2.4,0.6c0.7,0.4,1.3,0.9,1.7,1.7c0.4,0.7,0.6,1.5,0.6,2.2
		c0,0.9-0.2,1.8-0.7,2.8s-1.3,2.1-2.6,3.4l-0.6,0.7h4V337.2z M380,263.9l-3.1-1.5l4.8-9.9h-5.2V249h9.8l-0.1,2.1L380,263.9z
		 M391.9,263.3h3.6v-2.7h1.2v-3.4h-1.2v-8.5h-3.4l-5.9,8.8l-0.1,0.1v3h5.8V263.3z M390.4,257.2l1.5-2.1v2.1H390.4z"/>
	<polygon class="st1" points="64.3,155.8 104.3,355.8 155.3,355.8 183.3,219.8 210.3,355.8 260.3,355.8 302.3,155.8 258.3,155.8 
		235.3,288.8 208.3,155.8 160.3,155.8 133.3,288.8 110.3,155.8 	"/>
</g>
<circle class="st2" cx="452" cy="60" r="60"/>
<path id="B_2_" class="st3" d="M392,229.8l-3.7,7.1c-0.5,0.9-0.8,1.5-0.9,2s-0.2,0.9-0.2,1.4c0,1.2,0.5,2.3,1.3,3.2
	c0.9,0.9,2,1.4,3.4,1.4c1.3,0,2.4-0.5,3.3-1.4s1.4-2,1.4-3.3s-0.4-2.5-1.3-3.4c-0.7-0.7-1.5-1.1-2.4-1.3l2.2-4.3L392,229.8z
	 M393.1,240.3c0,0.4-0.1,0.7-0.3,0.9c-0.5,0.5-1.1,0.5-1.6,0c-0.2-0.2-0.3-0.5-0.3-0.9s0.1-0.7,0.3-0.9c0.2-0.2,0.5-0.3,0.8-0.3
	s0.6,0.1,0.8,0.3C393,239.7,393.1,240,393.1,240.3z M409.3,174.6l-5.9,8.8l-0.1,0.1v3h5.8v2.7h3.6v-2.7h1.2v-3.4h-1.2v-8.5
	L409.3,174.6L409.3,174.6z M407.7,183.2l1.5-2.1v2.1H407.7z M332.1,299.1l4.8-9.9h-5.2v-3.5h9.8l-0.1,2.1l-6.2,12.8L332.1,299.1z
	 M392.9,333.5c0.3-0.3,0.4-0.7,0.4-1.2s-0.1-0.9-0.4-1.1c-0.4-0.4-0.9-0.6-1.5-0.3c-0.2,0.1-0.4,0.3-0.6,0.5l-0.2,0.2l-2.9-0.6
	l1.8-8.3h7.2v3.4h-4.4l-0.3,1.2c0.1,0,0.1,0,0.1,0c1.4,0,2.5,0.5,3.4,1.4s1.3,2.1,1.3,3.5s-0.5,2.7-1.5,3.6c-1,1-2.2,1.5-3.6,1.5
	c-1.2,0-2.3-0.4-3.3-1.1c-0.9-0.7-1.5-1.7-1.8-3l-0.1-0.7h3.7l0.2,0.3c0.2,0.3,0.4,0.6,0.6,0.7C391.6,334.1,392.4,334,392.9,333.5z
	 M391.2,262.1c0.9-0.9,1.4-2,1.4-3.3s-0.4-2.5-1.3-3.4c-0.7-0.7-1.5-1.1-2.4-1.3l2.2-4.3l-3.1-1.6l-3.7,7.1c-0.5,0.9-0.8,1.5-0.9,2
	s-0.2,0.9-0.2,1.4c0,1.2,0.5,2.3,1.3,3.2c0.9,0.9,2,1.4,3.4,1.4C389.2,263.5,390.3,263,391.2,262.1z M386.8,258.8
	c0-0.4,0.1-0.7,0.3-0.9c0.2-0.2,0.5-0.3,0.8-0.3s0.6,0.1,0.8,0.3c0.2,0.2,0.3,0.5,0.3,0.9s-0.1,0.7-0.3,0.9c-0.5,0.5-1.1,0.5-1.6,0
	C386.9,259.5,386.8,259.2,386.8,258.8z M464.3,300.1v-2.7h1.2V294h-1.2v-8.5H461l-5.9,8.8l-0.1,0.1v3h5.8v2.7H464.3z M459.3,294
	l1.5-2.1v2.1H459.3z M380.4,263c0.7-0.4,1.3-0.9,1.8-1.7c0.4-0.7,0.6-1.5,0.6-2.4c0-0.8-0.2-1.5-0.6-2.2c-0.3-0.5-0.6-0.9-1.1-1.3
	c0.3-0.4,0.5-0.7,0.7-1.1c0.2-0.5,0.3-1,0.3-1.5c0-0.8-0.2-1.5-0.6-2.2s-0.9-1.2-1.6-1.6c-1.3-0.7-3.3-0.7-4.6,0
	c-0.7,0.4-1.2,0.9-1.6,1.5c-0.4,0.7-0.6,1.4-0.6,2.2c0,0.6,0.1,1.1,0.3,1.7c0.2,0.3,0.4,0.7,0.6,1c-0.5,0.4-0.8,0.9-1.1,1.4
	c-0.3,0.7-0.5,1.4-0.5,2.2c0,0.9,0.2,1.7,0.6,2.4c0.4,0.7,1,1.3,1.7,1.6c0.7,0.3,1.6,0.5,2.8,0.5C378.8,263.5,379.7,263.3,380.4,263
	z M378.3,253.6c-0.3,0.4-1,0.4-1.3,0c-0.2-0.2-0.3-0.4-0.3-0.7s0.1-0.5,0.3-0.7c0.2-0.2,0.4-0.2,0.6-0.2c0.3,0,0.5,0.1,0.7,0.3
	s0.2,0.4,0.2,0.6C378.5,253.2,378.5,253.4,378.3,253.6z M376.5,257.7c0.3-0.3,0.7-0.4,1.2-0.4s0.8,0.1,1.1,0.4
	c0.3,0.3,0.4,0.6,0.4,1s-0.1,0.7-0.4,0.9c-0.5,0.5-1.8,0.5-2.3,0c-0.3-0.3-0.4-0.6-0.4-1C376.1,258.3,376.2,258,376.5,257.7z
	 M411.3,337v-10.9h-3.2l2.1-3.5h4.6V337H411.3z M367.2,327c-0.8,0.8-1.1,1.7-1.1,2.8c0,0.8,0.2,1.5,0.5,2.1s0.8,1.1,1.4,1.4
	c1.1,0.6,2.7,0.7,3.9,0.2c0.5-0.2,1.2-0.7,1.8-1.4l0.4-0.4l2.5,2.6l-0.4,0.4c-1,1-2,1.7-2.9,2.1s-2,0.6-3.2,0.6
	c-2.2,0-4-0.7-5.4-2.1s-2.1-3.2-2.1-5.4c0-1.4,0.3-2.7,1-3.8c0.6-1.1,1.6-2,2.8-2.7c2.2-1.2,4.9-1.3,7.2-0.3c1.1,0.5,2,1.2,2.8,2.1
	l0.3,0.4l-2.5,2.4l-0.4-0.4c-1.1-1.2-2.3-1.7-3.7-1.7C368.9,325.9,368,326.2,367.2,327z M381.6,337.4c1.3,0,2.4-0.5,3.3-1.4
	s1.4-2,1.4-3.3s-0.4-2.5-1.3-3.4c-0.7-0.7-1.5-1.1-2.4-1.3l2.2-4.3l-3.1-1.6l-3.7,7.1c-0.5,0.9-0.8,1.5-0.9,2s-0.2,0.9-0.2,1.4
	c0,1.2,0.5,2.3,1.3,3.2C379.2,336.9,380.3,337.4,381.6,337.4z M380.5,332.6c0-0.4,0.1-0.7,0.3-0.9c0.2-0.2,0.5-0.3,0.8-0.3
	s0.6,0.1,0.8,0.3c0.2,0.2,0.3,0.5,0.3,0.9s-0.1,0.7-0.3,0.9c-0.5,0.5-1.1,0.5-1.6,0C380.6,333.3,380.5,333,380.5,332.6z M418.9,336
	l4.8-9.9h-5.2v-3.5h9.8l-0.1,2.1l-6.2,12.8L418.9,336z M402,256.5c0.5-0.9,0.8-1.5,0.9-2c0.1-0.4,0.2-0.9,0.2-1.4
	c0-1.2-0.5-2.3-1.3-3.2c-0.9-0.9-2-1.4-3.4-1.4c-1.3,0-2.4,0.5-3.3,1.4s-1.4,2-1.4,3.3s0.4,2.5,1.3,3.4c0.7,0.7,1.5,1.1,2.4,1.3
	l-2.2,4.3l3.1,1.6L402,256.5z M399.6,253.2c0,0.4-0.1,0.7-0.3,0.9c-0.5,0.5-1.2,0.4-1.6,0c-0.2-0.2-0.3-0.5-0.3-0.9s0.1-0.7,0.3-0.9
	c0.2-0.2,0.5-0.4,0.8-0.4s0.5,0.1,0.8,0.4C399.5,252.5,399.6,252.8,399.6,253.2z M382.6,241.2c0.3-0.3,0.4-0.7,0.4-1.2
	s-0.1-0.9-0.4-1.1c-0.4-0.4-0.9-0.6-1.5-0.3c-0.2,0.1-0.4,0.3-0.6,0.5l-0.2,0.2l-2.9-0.6l1.8-8.3h7.2v3.4H382l-0.3,1.2
	c0.1,0,0.1,0,0.1,0c1.4,0,2.5,0.5,3.4,1.4s1.3,2.1,1.3,3.5s-0.5,2.7-1.5,3.6c-1,1-2.2,1.5-3.6,1.5c-1.2,0-2.3-0.4-3.3-1.1
	c-0.9-0.7-1.5-1.7-1.8-3l-0.1-0.7h3.7l0.2,0.3c0.2,0.3,0.4,0.6,0.6,0.7C381.3,241.7,382.1,241.7,382.6,241.2z M460.3,274.6
	c0,1.8,0.2,3.2,0.6,4.2s1,1.8,1.8,2.4c0.8,0.5,1.7,0.8,2.8,0.8c1.1,0,2.1-0.3,2.8-0.8c0.7-0.5,1.3-1.3,1.8-2.4
	c0.4-1.1,0.6-2.5,0.6-4.3s-0.2-3.2-0.6-4.3c-0.4-1.1-1-1.9-1.8-2.4s-1.7-0.8-2.8-0.8c-1.7,0-3,0.7-3.9,2
	C460.7,270.2,460.3,272,460.3,274.6z M463.9,274.6c0-1.2,0.1-2.2,0.2-2.8c0.1-0.6,0.3-0.9,0.6-1.1c0.2-0.2,0.5-0.3,0.8-0.3
	s0.7,0.1,1.1,0.7c0.2,0.4,0.5,1.3,0.5,3.3c0,1.6-0.2,2.8-0.6,3.4c-0.3,0.6-0.7,0.6-1,0.6s-0.7-0.1-1.1-0.7
	C464.2,277.5,463.9,276.6,463.9,274.6z M336.2,192.9l-3.7,7.1c-0.5,0.9-0.8,1.5-0.9,2s-0.2,0.9-0.2,1.4c0,1.2,0.5,2.3,1.3,3.2
	c0.9,0.9,2,1.4,3.4,1.4c1.3,0,2.4-0.5,3.3-1.4s1.4-2,1.4-3.3s-0.4-2.5-1.3-3.4c-0.7-0.7-1.5-1.1-2.4-1.3l2.2-4.3L336.2,192.9z
	 M337.4,203.4c0,0.4-0.1,0.7-0.3,0.9c-0.5,0.5-1.1,0.5-1.6,0c-0.2-0.2-0.3-0.5-0.3-0.9s0.1-0.7,0.3-0.9c0.2-0.2,0.5-0.3,0.8-0.3
	s0.6,0.1,0.8,0.3C337.2,202.7,337.4,203,337.4,203.4z M337.4,241.2c0.3-0.3,0.4-0.6,0.4-1s-0.2-0.8-0.6-1.1s-1.1-0.5-1.9-0.5h-0.5
	v-3.2h0.5c0.7-0.1,1-0.2,1.2-0.2c0.2-0.1,0.4-0.2,0.5-0.4s0.2-0.3,0.2-0.5s-0.1-0.4-0.2-0.5s-0.3-0.2-0.6-0.2
	c-0.2,0-0.5,0.1-0.7,0.2c-0.2,0.1-0.3,0.3-0.4,0.6l-0.1,0.4h-3.4l0.1-0.6c0.1-1.1,0.6-2,1.2-2.7c0.9-0.9,2.1-1.4,3.4-1.4
	c1.2,0,2.3,0.4,3.1,1.2c0.8,0.8,1.3,1.8,1.3,2.9c0,0.7-0.2,1.3-0.6,1.9c-0.2,0.3-0.4,0.5-0.7,0.8c0.5,0.3,0.9,0.6,1.2,1
	c0.5,0.7,0.8,1.5,0.8,2.4c0,1.3-0.5,2.5-1.5,3.4s-2.2,1.4-3.7,1.4c-1.4,0-2.6-0.4-3.5-1.3c-0.9-0.9-1.4-2.1-1.5-3.5v-0.6h3.5
	l0.1,0.5c0.1,0.6,0.3,1,0.5,1.2C335.8,241.8,336.8,241.8,337.4,241.2z M368.1,180.7c0.3-0.5,0.4-1,0.4-1.4s-0.1-0.7-0.3-0.9
	c-0.5-0.5-1.4-0.5-1.9,0.1c-0.3,0.3-0.4,0.7-0.4,1.3v0.5h-3.6v-0.6c0.1-1.6,0.6-2.8,1.5-3.7s2.1-1.4,3.6-1.4c0.9,0,1.7,0.2,2.4,0.6
	c0.7,0.4,1.3,0.9,1.7,1.7c0.4,0.7,0.6,1.5,0.6,2.2c0,0.9-0.2,1.8-0.7,2.8s-1.3,2.1-2.6,3.4l-0.6,0.7h4v3.4H362v-2l4.3-4.3
	C367.2,182,367.9,181.3,368.1,180.7z M371.3,229.8l-3.7,7.1c-0.5,0.9-0.8,1.5-0.9,2s-0.2,0.9-0.2,1.4c0,1.2,0.5,2.3,1.3,3.2
	c0.9,0.9,2,1.4,3.4,1.4c1.3,0,2.4-0.5,3.3-1.4s1.4-2,1.4-3.3s-0.4-2.5-1.3-3.4c-0.7-0.7-1.5-1.1-2.4-1.3l2.2-4.3L371.3,229.8z
	 M372.4,240.3c0,0.4-0.1,0.7-0.3,0.9c-0.5,0.5-1.1,0.5-1.6,0c-0.2-0.2-0.3-0.5-0.3-0.9s0.1-0.7,0.3-0.9c0.2-0.2,0.5-0.3,0.8-0.3
	s0.6,0.1,0.8,0.3C372.3,239.7,372.4,240,372.4,240.3z M367.3,303.7l-3.7,7.1c-0.5,0.9-0.8,1.5-0.9,2s-0.2,0.9-0.2,1.4
	c0,1.2,0.5,2.3,1.3,3.2c0.9,0.9,2,1.4,3.4,1.4c1.3,0,2.4-0.5,3.3-1.4s1.4-2,1.4-3.3s-0.4-2.5-1.3-3.4c-0.7-0.7-1.5-1.1-2.4-1.3
	l2.2-4.3L367.3,303.7z M368.4,314.2c0,0.4-0.1,0.7-0.3,0.9c-0.5,0.5-1.1,0.5-1.6,0c-0.2-0.2-0.3-0.5-0.3-0.9s0.1-0.7,0.3-0.9
	c0.2-0.2,0.5-0.3,0.8-0.3s0.6,0.1,0.8,0.3C368.3,313.5,368.4,313.8,368.4,314.2z M331.7,278.8c0.4,1,1,1.8,1.8,2.4
	c0.8,0.5,1.7,0.8,2.8,0.8c1.1,0,2.1-0.3,2.8-0.8c0.7-0.5,1.3-1.3,1.8-2.4c0.2-0.5,0.3-1,0.4-1.6v1.7h5.8v2.7h3.6v-2.7h1.2v-3.4h-1.2
	V267h-3.4l-5.8,8.7c0-0.4,0-0.7,0-1.2c0-1.8-0.2-3.2-0.6-4.3c-0.4-1.1-1-1.9-1.8-2.4s-1.7-0.8-2.8-0.8c-1.7,0-3,0.7-3.9,2
	c-0.8,1.2-1.2,3-1.2,5.6C331.1,276.4,331.3,277.8,331.7,278.8z M345.6,275.5l1.5-2.1v2.1H345.6z M334.7,274.6c0-1.2,0.1-2.2,0.2-2.8
	c0.1-0.6,0.3-0.9,0.6-1.1c0.2-0.2,0.5-0.3,0.8-0.3s0.7,0.1,1.1,0.7c0.2,0.4,0.5,1.3,0.5,3.3c0,1.6-0.2,2.8-0.6,3.4
	c-0.3,0.6-0.7,0.6-1,0.6s-0.7-0.1-1.1-0.7C335,277.5,334.7,276.6,334.7,274.6z M367.3,248.3l-3.7,7.1c-0.5,0.9-0.8,1.5-0.9,2
	s-0.2,0.9-0.2,1.4c0,1.2,0.5,2.3,1.3,3.2c0.9,0.9,2,1.4,3.4,1.4c1.3,0,2.4-0.5,3.3-1.4s1.4-2,1.4-3.3s-0.4-2.5-1.3-3.4
	c-0.7-0.7-1.5-1.1-2.4-1.3l2.2-4.3L367.3,248.3z M368.4,258.8c0,0.4-0.1,0.7-0.3,0.9c-0.5,0.5-1.1,0.5-1.6,0
	c-0.2-0.2-0.3-0.5-0.3-0.9s0.1-0.7,0.3-0.9c0.2-0.2,0.5-0.3,0.8-0.3s0.6,0.1,0.8,0.3C368.3,258.1,368.4,258.4,368.4,258.8z
	 M357,226.8l3.7-7.2c0.5-0.9,0.8-1.5,0.9-2c0.1-0.4,0.2-0.9,0.2-1.4c0-1.2-0.5-2.3-1.3-3.2c-0.9-0.9-2-1.4-3.4-1.4
	c-1.3,0-2.4,0.5-3.3,1.4s-1.4,2-1.4,3.3s0.4,2.5,1.3,3.4c0.7,0.7,1.5,1.1,2.4,1.3l-2.2,4.3L357,226.8z M355.9,216.3
	c0-0.4,0.1-0.7,0.3-0.9c0.2-0.2,0.5-0.4,0.8-0.4s0.5,0.1,0.8,0.4c0.2,0.2,0.3,0.5,0.3,0.9s-0.1,0.7-0.3,0.9c-0.5,0.5-1.2,0.4-1.6,0
	C356,216.9,355.9,216.7,355.9,216.3z M420.1,222.8c0.3-0.3,0.4-0.6,0.4-1s-0.2-0.8-0.6-1.1s-1.1-0.5-1.9-0.5h-0.5V217h0.5
	c0.7-0.1,1-0.2,1.2-0.2c0.2-0.1,0.4-0.2,0.5-0.4s0.2-0.3,0.2-0.5s-0.1-0.4-0.2-0.5s-0.3-0.2-0.6-0.2c-0.2,0-0.5,0.1-0.7,0.2
	c-0.2,0.1-0.3,0.3-0.4,0.6l-0.1,0.4h-3.4l0.1-0.6c0.1-1.1,0.6-2,1.2-2.7c0.9-0.9,2.1-1.4,3.4-1.4c1.2,0,2.3,0.4,3.1,1.2
	c0.8,0.8,1.3,1.8,1.3,2.9c0,0.7-0.2,1.3-0.6,1.9c-0.2,0.3-0.4,0.5-0.7,0.8c0.5,0.3,0.9,0.6,1.2,1c0.5,0.7,0.8,1.5,0.8,2.4
	c0,1.3-0.5,2.5-1.5,3.4s-2.2,1.4-3.7,1.4c-1.4,0-2.6-0.4-3.5-1.3c-0.9-0.9-1.4-2.1-1.5-3.5v-0.6h3.5l0.1,0.5c0.1,0.6,0.3,1,0.5,1.2
	C418.5,223.3,419.5,223.3,420.1,222.8z M341.5,203.5c0,0.9,0.2,1.7,0.6,2.4s1,1.3,1.7,1.6s1.6,0.5,2.8,0.5c1.1,0,2-0.2,2.7-0.6
	c0.7-0.4,1.3-0.9,1.8-1.7c0.4-0.7,0.6-1.5,0.6-2.4c0-0.8-0.2-1.5-0.6-2.2c-0.3-0.5-0.6-0.9-1.1-1.3c0.3-0.4,0.5-0.7,0.7-1.1
	c0.2-0.5,0.3-1,0.3-1.5c0-0.8-0.2-1.5-0.6-2.2s-0.9-1.2-1.6-1.6c-1.3-0.7-3.3-0.7-4.6,0c-0.7,0.4-1.2,0.9-1.6,1.5
	c-0.4,0.7-0.6,1.4-0.6,2.2c0,0.6,0.1,1.1,0.3,1.7c0.2,0.3,0.4,0.7,0.6,1c-0.5,0.4-0.8,0.9-1.1,1.4
	C341.7,202,341.5,202.7,341.5,203.5z M347.3,198.2c-0.3,0.4-1,0.4-1.3,0c-0.2-0.2-0.3-0.4-0.3-0.7s0.1-0.5,0.3-0.7
	c0.2-0.2,0.4-0.2,0.6-0.2c0.3,0,0.5,0.1,0.7,0.3s0.2,0.4,0.2,0.6C347.5,197.8,347.4,198.1,347.3,198.2z M346.7,201.9
	c0.5,0,0.8,0.1,1.1,0.4c0.3,0.3,0.4,0.6,0.4,1s-0.1,0.7-0.4,0.9c-0.5,0.5-1.8,0.5-2.3,0c-0.3-0.3-0.4-0.6-0.4-1s0.1-0.6,0.4-0.9
	C345.8,202.1,346.2,201.9,346.7,201.9z M346.6,211.4l-3.7,7.1c-0.5,0.9-0.8,1.5-0.9,2s-0.2,0.9-0.2,1.4c0,1.2,0.5,2.3,1.3,3.2
	c0.9,0.9,2,1.4,3.4,1.4c1.3,0,2.4-0.5,3.3-1.4s1.4-2,1.4-3.3s-0.4-2.5-1.3-3.4c-0.7-0.7-1.5-1.1-2.4-1.3l2.2-4.3L346.6,211.4z
	 M347.7,221.9c0,0.4-0.1,0.7-0.3,0.9c-0.5,0.5-1.1,0.5-1.6,0c-0.2-0.2-0.3-0.5-0.3-0.9s0.1-0.7,0.3-0.9c0.2-0.2,0.5-0.3,0.8-0.3
	s0.6,0.1,0.8,0.3C347.6,221.2,347.7,221.5,347.7,221.9z M357.8,273c0.3-0.5,0.4-1,0.4-1.4s-0.1-0.7-0.3-0.9
	c-0.5-0.5-1.4-0.5-1.9,0.1c-0.3,0.3-0.4,0.7-0.4,1.3v0.5H352V272c0.1-1.6,0.6-2.8,1.5-3.7c0.9-0.9,2.1-1.4,3.6-1.4
	c0.9,0,1.7,0.2,2.4,0.6c0.7,0.4,1.3,0.9,1.7,1.7c0.4,0.7,0.6,1.5,0.6,2.2c0,0.9-0.2,1.8-0.7,2.8s-1.3,2.1-2.6,3.4l-0.6,0.7h4v3.4
	h-10.3v-2l4.3-4.3C356.9,274.4,357.5,273.6,357.8,273z M356.9,192.9l-3.7,7.1c-0.5,0.9-0.8,1.5-0.9,2s-0.2,0.9-0.2,1.4
	c0,1.2,0.5,2.3,1.3,3.2c0.9,0.9,2,1.4,3.4,1.4c1.3,0,2.4-0.5,3.3-1.4s1.4-2,1.4-3.3s-0.4-2.5-1.3-3.4c-0.7-0.7-1.5-1.1-2.4-1.3
	l2.2-4.3L356.9,192.9z M358,203.4c0,0.4-0.1,0.7-0.3,0.9c-0.5,0.5-1.1,0.5-1.6,0c-0.2-0.2-0.3-0.5-0.3-0.9s0.1-0.7,0.3-0.9
	c0.2-0.2,0.5-0.3,0.8-0.3s0.6,0.1,0.8,0.3C357.9,202.7,358,203,358,203.4z M342.4,262.2l4.8-9.9H342v-3.5h9.8l-0.1,2.1l-6.2,12.8
	L342.4,262.2z M352.1,237.5c0-1.4,0.3-2.7,1-3.8c0.6-1.1,1.6-2,2.8-2.7c2.2-1.2,4.9-1.3,7.2-0.3c1.1,0.5,2,1.2,2.8,2.1l0.3,0.4
	l-2.5,2.4l-0.4-0.4c-1.1-1.2-2.3-1.7-3.7-1.7c-1.1,0-2,0.4-2.8,1.1c-0.8,0.8-1.1,1.7-1.1,2.8c0,0.8,0.2,1.5,0.5,2.1s0.8,1.1,1.4,1.4
	c1.1,0.6,2.7,0.7,3.9,0.2c0.5-0.2,1.2-0.7,1.8-1.4l0.4-0.4l2.5,2.6l-0.4,0.4c-1,1-2,1.7-2.9,2.1c-0.9,0.4-2,0.6-3.2,0.6
	c-2.2,0-4-0.7-5.4-2.1C352.8,241.5,352.1,239.7,352.1,237.5z M367.8,281.6h3.6v-2.7h1.2v-3.4h-1.2V267H368l-5.9,8.8l-0.1,0.1v3h5.8
	V281.6z M366.3,275.5l1.5-2.1v2.1H366.3z M343.2,243.6c0.9,0.9,2,1.4,3.4,1.4c1.3,0,2.4-0.5,3.3-1.4s1.4-2,1.4-3.3s-0.4-2.5-1.3-3.4
	c-0.7-0.7-1.5-1.1-2.4-1.3l2.2-4.3l-3.1-1.6l-3.7,7.1c-0.5,0.9-0.8,1.5-0.9,2s-0.2,0.9-0.2,1.4C341.8,241.6,342.3,242.7,343.2,243.6
	z M345.4,240.3c0-0.4,0.1-0.7,0.3-0.9c0.2-0.2,0.5-0.3,0.8-0.3s0.6,0.1,0.8,0.3c0.2,0.2,0.3,0.5,0.3,0.9s-0.1,0.7-0.3,0.9
	c-0.5,0.5-1.1,0.5-1.6,0C345.5,241,345.4,240.7,345.4,240.3z M364.6,299.9c0.7,0.3,1.6,0.5,2.8,0.5c1.1,0,2-0.2,2.7-0.6
	s1.3-0.9,1.8-1.7c0.4-0.7,0.6-1.5,0.6-2.4c0-0.8-0.2-1.5-0.6-2.2c-0.3-0.5-0.6-0.9-1.1-1.3c0.3-0.4,0.5-0.7,0.7-1.1
	c0.2-0.5,0.3-1,0.3-1.5c0-0.8-0.2-1.5-0.6-2.2s-0.9-1.2-1.6-1.6c-1.3-0.7-3.3-0.7-4.6,0c-0.7,0.4-1.2,0.9-1.6,1.5
	c-0.4,0.7-0.6,1.4-0.6,2.2c0,0.6,0.1,1.1,0.3,1.7c0.2,0.3,0.4,0.7,0.6,1c-0.5,0.4-0.8,0.9-1.1,1.4c-0.3,0.7-0.5,1.4-0.5,2.2
	c0,0.9,0.2,1.7,0.6,2.4C363.3,299,363.8,299.5,364.6,299.9z M368,290.5c-0.3,0.4-1,0.4-1.3,0c-0.2-0.2-0.3-0.4-0.3-0.7
	c0-0.3,0.1-0.5,0.3-0.7c0.2-0.2,0.4-0.2,0.6-0.2c0.3,0,0.5,0.1,0.7,0.3c0.2,0.2,0.2,0.4,0.2,0.6C368.2,290.1,368.1,290.4,368,290.5z
	 M367.3,294.3c0.5,0,0.8,0.1,1.1,0.4c0.3,0.3,0.4,0.6,0.4,1s-0.1,0.7-0.4,0.9c-0.5,0.5-1.8,0.5-2.3,0c-0.3-0.3-0.4-0.6-0.4-1
	s0.1-0.6,0.4-0.9C366.5,294.4,366.9,294.3,367.3,294.3z M354.2,318.1c0.8,0.5,1.7,0.8,2.8,0.8c1.1,0,2.1-0.3,2.8-0.8
	c0.7-0.5,1.3-1.3,1.8-2.4c0.4-1.1,0.6-2.5,0.6-4.3s-0.2-3.2-0.6-4.3c-0.4-1.1-1-1.9-1.8-2.4s-1.7-0.8-2.8-0.8c-1.7,0-3,0.7-3.9,2
	c-0.8,1.2-1.2,3-1.2,5.6c0,1.8,0.2,3.2,0.6,4.2C352.8,316.8,353.4,317.6,354.2,318.1z M355.4,311.6c0-1.2,0.1-2.2,0.2-2.8
	c0.1-0.6,0.3-0.9,0.6-1.1c0.2-0.2,0.5-0.3,0.8-0.3s0.7,0.1,1.1,0.7c0.2,0.4,0.5,1.3,0.5,3.3c0,1.6-0.2,2.8-0.6,3.4
	c-0.3,0.6-0.7,0.6-1,0.6s-0.7-0.1-1.1-0.7C355.7,314.4,355.4,313.5,355.4,311.6z M331.7,223.4c0.4,1,1,1.8,1.8,2.4
	c0.8,0.5,1.7,0.8,2.8,0.8c1.1,0,2.1-0.3,2.8-0.8c0.7-0.5,1.3-1.3,1.8-2.4c0.4-1.1,0.6-2.5,0.6-4.3s-0.2-3.2-0.6-4.3s-1-1.9-1.8-2.4
	s-1.7-0.8-2.8-0.8c-1.7,0-3,0.7-3.9,2c-0.8,1.2-1.2,3-1.2,5.6C331.1,221,331.3,222.4,331.7,223.4z M334.7,219.3
	c0-1.2,0.1-2.2,0.2-2.8s0.3-0.9,0.6-1.1c0.2-0.2,0.5-0.3,0.8-0.3s0.7,0.1,1.1,0.7c0.2,0.4,0.5,1.3,0.5,3.3c0,1.6-0.2,2.8-0.6,3.4
	c-0.3,0.6-0.7,0.6-1,0.6s-0.7-0.1-1.1-0.7C335,222.1,334.7,221.2,334.7,219.3z M331.7,260.4c0.4,1,1,1.8,1.8,2.4
	c0.8,0.5,1.7,0.8,2.8,0.8c1.1,0,2.1-0.3,2.8-0.8c0.7-0.5,1.3-1.3,1.8-2.4c0.4-1.1,0.6-2.5,0.6-4.3c0-1.8-0.2-3.2-0.6-4.3
	s-1-1.9-1.8-2.4s-1.7-0.8-2.8-0.8c-1.7,0-3,0.7-3.9,2c-0.8,1.2-1.2,3-1.2,5.6C331.1,258,331.3,259.3,331.7,260.4z M334.7,256.2
	c0-1.2,0.1-2.2,0.2-2.8s0.3-0.9,0.6-1.1c0.2-0.2,0.5-0.3,0.8-0.3s0.7,0.1,1.1,0.7c0.2,0.4,0.5,1.3,0.5,3.3c0,1.6-0.2,2.8-0.6,3.4
	c-0.3,0.6-0.7,0.6-1,0.6s-0.7-0.1-1.1-0.7C335,259,334.7,258.1,334.7,256.2z M367.4,208.3l3.7-7.2c0.5-0.9,0.8-1.5,0.9-2
	c0.1-0.4,0.2-0.9,0.2-1.4c0-1.2-0.5-2.3-1.3-3.2c-0.9-0.9-2-1.4-3.4-1.4c-1.3,0-2.4,0.5-3.3,1.4s-1.4,2-1.4,3.3s0.4,2.5,1.3,3.4
	c0.7,0.7,1.5,1.1,2.4,1.3l-2.2,4.3L367.4,208.3z M366.3,197.8c0-0.4,0.1-0.7,0.3-0.9c0.2-0.2,0.5-0.4,0.8-0.4s0.5,0.1,0.8,0.4
	c0.2,0.2,0.3,0.5,0.3,0.9s-0.1,0.7-0.3,0.9c-0.5,0.5-1.2,0.4-1.6,0C366.4,198.5,366.3,198.2,366.3,197.8z M352.8,262.2l4.8-9.9h-5.2
	v-3.5h9.8l-0.1,2.1l-6.2,12.8L352.8,262.2z M362.7,211.9h9.8l-0.1,2.1l-6.2,12.8l-3.1-1.5l4.8-9.9h-5.2L362.7,211.9L362.7,211.9z
	 M351.6,318.6h-10.3v-2l4.3-4.3c1-1,1.6-1.7,1.9-2.3c0.3-0.5,0.4-1,0.4-1.4s-0.1-0.7-0.3-0.9c-0.5-0.5-1.4-0.5-1.9,0.1
	c-0.3,0.3-0.4,0.7-0.4,1.3v0.5h-3.6V309c0.1-1.6,0.6-2.8,1.5-3.7c0.9-0.9,2.1-1.4,3.6-1.4c0.9,0,1.7,0.2,2.4,0.6
	c0.7,0.4,1.3,0.9,1.7,1.7c0.4,0.7,0.6,1.5,0.6,2.2c0,0.9-0.2,1.8-0.7,2.8s-1.3,2.1-2.6,3.4l-0.6,0.7h4V318.6z M351.8,287.9
	l-6.2,12.8l-3.1-1.5l4.8-9.9H342v-3.5h9.8V287.9z M356.9,285.2l-3.7,7.1c-0.5,0.9-0.8,1.5-0.9,2s-0.2,0.9-0.2,1.4
	c0,1.2,0.5,2.3,1.3,3.2c0.9,0.9,2,1.4,3.4,1.4c1.3,0,2.4-0.5,3.3-1.4s1.4-2,1.4-3.3s-0.4-2.5-1.3-3.4c-0.7-0.7-1.5-1.1-2.4-1.3
	l2.2-4.3L356.9,285.2z M358,295.7c0,0.4-0.1,0.7-0.3,0.9c-0.5,0.5-1.1,0.5-1.6,0c-0.2-0.2-0.3-0.5-0.3-0.9s0.1-0.7,0.3-0.9
	c0.2-0.2,0.5-0.3,0.8-0.3s0.6,0.1,0.8,0.3C357.9,295.1,358,295.3,358,295.7z M341.3,189.3H331v-2l4.3-4.3c1-1,1.6-1.7,1.9-2.3
	c0.3-0.5,0.4-1,0.4-1.4s-0.1-0.7-0.3-0.9c-0.5-0.5-1.4-0.5-1.9,0.1c-0.3,0.3-0.4,0.7-0.4,1.3v0.5h-3.6v-0.6c0.1-1.6,0.6-2.8,1.5-3.7
	s2.1-1.4,3.6-1.4c0.9,0,1.7,0.2,2.4,0.6c0.7,0.4,1.3,0.9,1.7,1.7c0.4,0.7,0.6,1.5,0.6,2.2c0,0.9-0.2,1.8-0.7,2.8s-1.3,2.1-2.6,3.4
	l-0.6,0.7h4V189.3z M347.3,160H342v-3.5h9.8l-0.1,2.1l-6.2,12.8l-3.1-1.5L347.3,160z M336.9,160h-5.2v-3.5h9.8l-0.1,2.1l-6.2,12.8
	l-3.1-1.5L336.9,160z M343,336c-0.9-0.9-1.4-2.1-1.5-3.5v-0.6h3.5l0.1,0.5c0.1,0.6,0.3,1,0.5,1.2c0.5,0.5,1.6,0.5,2.1-0.1
	c0.3-0.3,0.4-0.6,0.4-1s-0.2-0.8-0.6-1.1c-0.4-0.3-1.1-0.5-1.9-0.5h-0.5v-3.2h0.5c0.7-0.1,1-0.2,1.2-0.2c0.2-0.1,0.4-0.2,0.5-0.4
	c0.1-0.2,0.2-0.3,0.2-0.5s-0.1-0.4-0.2-0.5s-0.3-0.2-0.6-0.2c-0.2,0-0.5,0.1-0.7,0.2s-0.3,0.3-0.4,0.6l-0.1,0.4h-3.4l0.1-0.6
	c0.1-1.1,0.6-2,1.2-2.7c0.9-0.9,2.1-1.4,3.4-1.4c1.2,0,2.3,0.4,3.1,1.2c0.8,0.8,1.3,1.8,1.3,2.9c0,0.7-0.2,1.3-0.6,1.9
	c-0.2,0.3-0.4,0.5-0.7,0.8c0.5,0.3,0.9,0.6,1.2,1c0.5,0.7,0.8,1.5,0.8,2.4c0,1.3-0.5,2.5-1.5,3.4s-2.2,1.4-3.7,1.4
	C345.1,337.4,343.9,336.9,343,336z M336.2,337.4c1.3,0,2.4-0.5,3.3-1.4s1.4-2,1.4-3.3s-0.4-2.5-1.3-3.4c-0.7-0.7-1.5-1.1-2.4-1.3
	l2.2-4.3l-3.1-1.6l-3.7,7.1c-0.5,0.9-0.8,1.5-0.9,2s-0.2,0.9-0.2,1.4c0,1.2,0.5,2.3,1.3,3.2C333.7,336.9,334.9,337.4,336.2,337.4z
	 M335.1,332.6c0-0.4,0.1-0.7,0.3-0.9c0.2-0.2,0.5-0.3,0.8-0.3s0.6,0.1,0.8,0.3c0.2,0.2,0.3,0.5,0.3,0.9s-0.1,0.7-0.3,0.9
	c-0.5,0.5-1.1,0.5-1.6,0C335.2,333.3,335.1,333,335.1,332.6z M331.7,341.1h9.8l-0.1,2.1l-6.2,12.8l-3.1-1.5l4.8-9.9h-5.2
	L331.7,341.1L331.7,341.1z M356.9,171.2c1.3,0,2.4-0.5,3.3-1.4s1.4-2,1.4-3.3s-0.4-2.5-1.3-3.4c-0.7-0.7-1.5-1.1-2.4-1.3l2.2-4.3
	l-3.1-1.6l-3.7,7.1c-0.5,0.9-0.8,1.5-0.9,2s-0.2,0.9-0.2,1.4c0,1.2,0.5,2.3,1.3,3.2C354.4,170.7,355.6,171.2,356.9,171.2z
	 M355.7,166.5c0-0.4,0.1-0.7,0.3-0.9c0.2-0.2,0.5-0.3,0.8-0.3s0.6,0.1,0.8,0.3c0.2,0.2,0.3,0.5,0.3,0.9s-0.1,0.7-0.3,0.9
	c-0.5,0.5-1.1,0.5-1.6,0C355.9,167.2,355.7,166.9,355.7,166.5z M332.8,317.8c-0.9-0.7-1.5-1.7-1.8-3l-0.1-0.7h3.7l0.2,0.3
	c0.2,0.3,0.4,0.6,0.6,0.7c0.6,0.4,1.4,0.3,1.8-0.2c0.3-0.3,0.4-0.7,0.4-1.2s-0.1-0.9-0.4-1.1c-0.4-0.4-0.9-0.6-1.5-0.3
	c-0.2,0.1-0.4,0.3-0.6,0.5l-0.2,0.2l-2.9-0.6l1.8-8.3h7.2v3.4h-4.4l-0.3,1.2c0.1,0,0.1,0,0.1,0c1.4,0,2.5,0.5,3.4,1.4
	s1.3,2.1,1.3,3.5s-0.5,2.7-1.5,3.6c-1,1-2.2,1.5-3.6,1.5C334.8,318.9,333.7,318.5,332.8,317.8z M351.2,177.9c-0.4-1.1-1-1.9-1.8-2.4
	s-1.7-0.8-2.8-0.8c-1.7,0-3,0.7-3.9,2c-0.8,1.2-1.2,3-1.2,5.6c0,1.8,0.2,3.2,0.6,4.2s1,1.8,1.8,2.4c0.8,0.5,1.7,0.8,2.8,0.8
	c1.1,0,2.1-0.3,2.8-0.8c0.7-0.5,1.3-1.3,1.8-2.4c0.2-0.5,0.3-1,0.4-1.6v1.7h5.8v2.7h3.6v-2.7h1.2v-3.4H361v-8.5h-3.4l-5.8,8.7
	c0-0.4,0-0.7,0-1.2C351.8,180.4,351.6,178.9,351.2,177.9z M348.2,182.2c0,1.6-0.2,2.8-0.6,3.4c-0.3,0.6-0.7,0.6-1,0.6
	s-0.7-0.1-1.1-0.7c-0.2-0.4-0.5-1.2-0.5-3.2c0-1.2,0.1-2.2,0.2-2.8s0.3-0.9,0.6-1.1c0.2-0.2,0.5-0.3,0.8-0.3s0.7,0.1,1.1,0.7
	C348,179.3,348.2,180.1,348.2,182.2z M356,183.2l1.5-2.1v2.1H356z M393.1,185.6l-0.1-0.7h3.7l0.2,0.3c0.2,0.3,0.4,0.6,0.6,0.7
	c0.6,0.4,1.4,0.3,1.8-0.2c0.3-0.3,0.4-0.7,0.4-1.2s-0.1-0.9-0.4-1.1c-0.4-0.4-0.9-0.6-1.5-0.3c-0.2,0.1-0.4,0.3-0.6,0.5l-0.2,0.2
	l-2.9-0.6l1.8-8.3h7.2v3.4h-4.4l-0.3,1.2c0.1,0,0.1,0,0.1,0c1.4,0,2.5,0.5,3.4,1.4s1.3,2.1,1.3,3.5s-0.5,2.7-1.5,3.6
	c-1,1-2.2,1.5-3.6,1.5c-1.2,0-2.3-0.4-3.3-1.1C393.9,187.9,393.3,186.9,393.1,185.6z M399,160h-5.2v-3.5h9.8l-0.1,2.1l-6.2,12.8
	l-3.1-1.5L399,160z M387.1,165.6l-2.2,4.3l3.1,1.6l3.7-7.2c0.5-0.9,0.8-1.5,0.9-2c0.1-0.4,0.2-0.9,0.2-1.4c0-1.2-0.5-2.3-1.3-3.2
	c-0.9-0.9-2-1.4-3.4-1.4c-1.3,0-2.4,0.5-3.3,1.4s-1.4,2-1.4,3.3s0.4,2.5,1.3,3.4C385.4,165,386.2,165.4,387.1,165.6z M386.9,160.9
	c0-0.4,0.1-0.7,0.3-0.9c0.2-0.2,0.5-0.4,0.8-0.4s0.5,0.1,0.8,0.4c0.2,0.2,0.3,0.5,0.3,0.9s-0.1,0.7-0.3,0.9c-0.5,0.5-1.2,0.4-1.6,0
	C387.1,161.6,386.9,161.3,386.9,160.9z M403.3,165.1v3h5.8v2.7h3.6v-2.7h1.2v-3.4h-1.2v-8.5h-3.4l-5.9,8.8L403.3,165.1z
	 M407.7,164.7l1.5-2.1v2.1H407.7z M377.6,171.2c1.3,0,2.4-0.5,3.3-1.4s1.4-2,1.4-3.3s-0.4-2.5-1.3-3.4c-0.7-0.7-1.5-1.1-2.4-1.3
	l2.2-4.3l-3.1-1.6L374,163c-0.5,0.9-0.8,1.5-0.9,2s-0.2,0.9-0.2,1.4c0,1.2,0.5,2.3,1.3,3.2C375.1,170.7,376.2,171.2,377.6,171.2z
	 M376.4,166.5c0-0.4,0.1-0.7,0.3-0.9c0.2-0.2,0.5-0.3,0.8-0.3s0.6,0.1,0.8,0.3c0.2,0.2,0.3,0.5,0.3,0.9s-0.1,0.7-0.3,0.9
	c-0.5,0.5-1.1,0.5-1.6,0C376.5,167.2,376.4,166.9,376.4,166.5z M364.6,170.7c0.7,0.3,1.6,0.5,2.8,0.5c1.1,0,2-0.2,2.7-0.6
	c0.7-0.4,1.3-0.9,1.8-1.7c0.4-0.7,0.6-1.5,0.6-2.4c0-0.8-0.2-1.5-0.6-2.2c-0.3-0.5-0.6-0.9-1.1-1.3c0.3-0.4,0.5-0.7,0.7-1.1
	c0.2-0.5,0.3-1,0.3-1.5c0-0.8-0.2-1.5-0.6-2.2s-0.9-1.2-1.6-1.6c-1.3-0.7-3.3-0.7-4.6,0c-0.7,0.4-1.2,0.9-1.6,1.5
	c-0.4,0.7-0.6,1.4-0.6,2.2c0,0.6,0.1,1.1,0.3,1.7c0.2,0.3,0.4,0.7,0.6,1c-0.5,0.4-0.8,0.9-1.1,1.4c-0.3,0.7-0.5,1.4-0.5,2.2
	c0,0.9,0.2,1.7,0.6,2.4C363.3,169.8,363.8,170.3,364.6,170.7z M368,161.3c-0.3,0.4-1,0.4-1.3,0c-0.2-0.2-0.3-0.4-0.3-0.7
	s0.1-0.5,0.3-0.7c0.2-0.2,0.4-0.2,0.6-0.2c0.3,0,0.5,0.1,0.7,0.3s0.2,0.4,0.2,0.6C368.2,160.9,368.1,161.1,368,161.3z M367.3,165
	c0.5,0,0.8,0.1,1.1,0.4c0.3,0.3,0.4,0.6,0.4,1s-0.1,0.7-0.4,0.9c-0.5,0.5-1.8,0.5-2.3,0c-0.3-0.3-0.4-0.6-0.4-1s0.1-0.6,0.4-0.9
	C366.5,165.2,366.9,165,367.3,165z M381.7,174.6h-3.4l-5.9,8.8l-0.1,0.1v3h5.8v2.7h3.6v-2.7h1.2v-3.4h-1.2V174.6z M376.7,183.2
	l1.5-2.1v2.1H376.7z M387.1,184l-2.2,4.3l3.1,1.6l3.7-7.2c0.5-0.9,0.8-1.5,0.9-2c0.1-0.4,0.2-0.9,0.2-1.4c0-1.2-0.5-2.3-1.3-3.2
	c-0.9-0.9-2-1.4-3.4-1.4c-1.3,0-2.4,0.5-3.3,1.4s-1.4,2-1.4,3.3s0.4,2.5,1.3,3.4C385.4,183.4,386.2,183.8,387.1,184z M386.9,179.4
	c0-0.4,0.1-0.7,0.3-0.9c0.2-0.2,0.5-0.4,0.8-0.4s0.5,0.1,0.8,0.4c0.2,0.2,0.3,0.5,0.3,0.9s-0.1,0.7-0.3,0.9c-0.5,0.5-1.2,0.4-1.6,0
	C387.1,180,386.9,179.7,386.9,179.4z M456.9,323.1c-0.8-0.5-1.7-0.8-2.8-0.8c-1.7,0-3,0.7-3.9,2c-0.8,1.2-1.2,3-1.2,5.6
	c0,1.8,0.2,3.2,0.6,4.2s1,1.8,1.8,2.4c0.8,0.5,1.7,0.8,2.8,0.8c1.1,0,2.1-0.3,2.8-0.8s1.3-1.3,1.8-2.4c0.4-1.1,0.6-2.5,0.6-4.3
	s-0.2-3.2-0.6-4.3C458.3,324.5,457.6,323.7,456.9,323.1z M455.7,329.9c0,1.6-0.2,2.8-0.6,3.4c-0.3,0.6-0.7,0.6-1,0.6
	s-0.7-0.1-1.1-0.7c-0.2-0.4-0.5-1.2-0.5-3.2c0-1.2,0.1-2.2,0.2-2.8c0.1-0.6,0.3-0.9,0.6-1.1c0.2-0.2,0.5-0.3,0.8-0.3
	s0.7,0.1,1.1,0.7C455.4,326.9,455.7,327.8,455.7,329.9z M440.6,352.1h4v3.4h-10.3v-2l4.3-4.3c1-1,1.6-1.7,1.9-2.3
	c0.3-0.5,0.4-1,0.4-1.4s-0.1-0.7-0.3-0.9c-0.5-0.5-1.4-0.5-1.9,0.1c-0.3,0.3-0.4,0.7-0.4,1.3v0.5h-3.6v-0.6c0.1-1.6,0.6-2.8,1.5-3.7
	c0.9-0.9,2.1-1.4,3.6-1.4c0.9,0,1.7,0.2,2.4,0.6c0.7,0.4,1.3,0.9,1.7,1.7c0.4,0.7,0.6,1.5,0.6,2.2c0,0.9-0.2,1.8-0.7,2.8
	s-1.3,2.1-2.6,3.4L440.6,352.1z M444.7,333.6h4v3.4h-10.3v-2l4.3-4.3c1-1,1.6-1.7,1.9-2.3c0.3-0.5,0.4-1,0.4-1.4s-0.1-0.7-0.3-0.9
	c-0.5-0.5-1.4-0.5-1.9,0.1c-0.3,0.3-0.4,0.7-0.4,1.3v0.5h-3.6v-0.6c0.1-1.6,0.6-2.8,1.5-3.7c0.9-0.9,2.1-1.4,3.6-1.4
	c0.9,0,1.7,0.2,2.4,0.6c0.7,0.4,1.3,0.9,1.7,1.7c0.4,0.7,0.6,1.5,0.6,2.2c0,0.9-0.2,1.8-0.7,2.8s-1.3,2.1-2.6,3.4L444.7,333.6z
	 M419.9,346.5l2.2-4.3l-3.1-1.6l-3.7,7.1c-0.5,0.9-0.8,1.5-0.9,2s-0.2,0.9-0.2,1.4c0,1.2,0.5,2.3,1.3,3.2c0.9,0.9,2,1.4,3.4,1.4
	c1.3,0,2.4-0.5,3.3-1.4s1.4-2,1.4-3.3s-0.4-2.5-1.3-3.4C421.6,347.1,420.8,346.6,419.9,346.5z M420.1,351.1c0,0.4-0.1,0.7-0.3,0.9
	c-0.5,0.5-1.1,0.5-1.6,0c-0.2-0.2-0.3-0.5-0.3-0.9s0.1-0.7,0.3-0.9c0.2-0.2,0.5-0.3,0.8-0.3s0.6,0.1,0.8,0.3
	C420,350.4,420.1,350.7,420.1,351.1z M342,341.1h9.8l-0.1,2.1l-6.2,12.8l-3.1-1.5l4.8-9.9H342V341.1z M417.6,180.3H414v-0.6
	c0.1-1.6,0.6-2.8,1.5-3.7s2.1-1.4,3.6-1.4c0.9,0,1.7,0.2,2.4,0.6c0.7,0.4,1.3,0.9,1.7,1.7c0.4,0.7,0.6,1.5,0.6,2.2
	c0,0.9-0.2,1.8-0.7,2.8s-1.3,2.1-2.6,3.4l-0.6,0.7h4v3.4h-10.3v-2l4.3-4.3c1-1,1.6-1.7,1.9-2.3c0.3-0.5,0.4-1,0.4-1.4
	s-0.1-0.7-0.3-0.9c-0.5-0.5-1.4-0.5-1.9,0.1c-0.3,0.3-0.4,0.7-0.4,1.3V180.3z M473.9,292.4c-0.7-0.7-1.5-1.1-2.4-1.3l2.2-4.3
	l-3.1-1.6l-3.7,7.1c-0.5,0.9-0.8,1.5-0.9,2s-0.2,0.9-0.2,1.4c0,1.2,0.5,2.3,1.3,3.2c0.9,0.9,2,1.4,3.4,1.4c1.3,0,2.4-0.5,3.3-1.4
	s1.4-2,1.4-3.3C475.3,294.4,474.8,293.3,473.9,292.4z M471.7,295.7c0,0.4-0.1,0.7-0.3,0.9c-0.5,0.5-1.1,0.5-1.6,0
	c-0.2-0.2-0.3-0.5-0.3-0.9s0.1-0.7,0.3-0.9c0.2-0.2,0.5-0.3,0.8-0.3s0.6,0.1,0.8,0.3C471.6,295.1,471.7,295.3,471.7,295.7z
	 M456.1,315.1h4v3.4h-10.3v-2l4.3-4.3c1-1,1.6-1.7,1.9-2.3c0.3-0.5,0.4-1,0.4-1.4s-0.1-0.7-0.3-0.9c-0.5-0.5-1.4-0.5-1.9,0.1
	c-0.3,0.3-0.4,0.7-0.4,1.3v0.5h-3.6v-0.6c0.1-1.6,0.6-2.8,1.5-3.7c0.9-0.9,2.1-1.4,3.6-1.4c0.9,0,1.7,0.2,2.4,0.6
	c0.7,0.4,1.3,0.9,1.7,1.7c0.4,0.7,0.6,1.5,0.6,2.2c0,0.9-0.2,1.8-0.7,2.8s-1.3,2.1-2.6,3.4L456.1,315.1z M468.3,304.7
	c-0.8-0.5-1.7-0.8-2.8-0.8c-1.7,0-3,0.7-3.9,2c-0.8,1.2-1.2,3-1.2,5.6c0,1.8,0.2,3.2,0.6,4.2s1,1.8,1.8,2.4c0.8,0.5,1.7,0.8,2.8,0.8
	c1.1,0,2.1-0.3,2.8-0.8c0.7-0.5,1.3-1.3,1.8-2.4c0.4-1.1,0.6-2.5,0.6-4.3s-0.2-3.2-0.6-4.3C469.7,306,469.1,305.2,468.3,304.7z
	 M467.1,311.4c0,1.6-0.2,2.8-0.6,3.4c-0.3,0.6-0.7,0.6-1,0.6s-0.7-0.1-1.1-0.7c-0.2-0.4-0.5-1.2-0.5-3.2c0-1.2,0.1-2.2,0.2-2.8
	c0.1-0.6,0.3-0.9,0.6-1.1c0.2-0.2,0.5-0.3,0.8-0.3s0.7,0.1,1.1,0.7C466.8,308.5,467.1,309.4,467.1,311.4z M432.9,347.1
	c0.9,0.9,1.3,2.1,1.3,3.5s-0.5,2.7-1.5,3.6c-1,1-2.2,1.5-3.6,1.5c-1.2,0-2.3-0.4-3.3-1.1c-0.9-0.7-1.5-1.7-1.8-3l-0.1-0.7h3.7
	l0.2,0.3c0.2,0.3,0.4,0.6,0.6,0.7c0.6,0.4,1.4,0.3,1.8-0.2c0.3-0.3,0.4-0.7,0.4-1.2s-0.1-0.9-0.4-1.1c-0.4-0.4-0.9-0.6-1.5-0.3
	c-0.2,0.1-0.4,0.3-0.6,0.5l-0.2,0.2l-2.9-0.6l1.8-8.3h7.2v3.4h-4.4l-0.3,1.2c0.1,0,0.1,0,0.1,0C430.8,345.8,432,346.2,432.9,347.1z
	 M357.9,328l2.2-4.3l-3.1-1.6l-3.7,7.1c-0.5,0.9-0.8,1.5-0.9,2s-0.2,0.9-0.2,1.4c0,1.2,0.5,2.3,1.3,3.2c0.9,0.9,2,1.4,3.4,1.4
	c1.3,0,2.4-0.5,3.3-1.4s1.4-2,1.4-3.3s-0.4-2.5-1.3-3.4C359.6,328.6,358.8,328.2,357.9,328z M358,332.6c0,0.4-0.1,0.7-0.3,0.9
	c-0.5,0.5-1.1,0.5-1.6,0c-0.2-0.2-0.3-0.5-0.3-0.9s0.1-0.7,0.3-0.9c0.2-0.2,0.5-0.3,0.8-0.3s0.6,0.1,0.8,0.3
	C357.9,332,358,332.3,358,332.6z M370.8,347.7c0.3-0.4,0.5-0.7,0.7-1.1c0.2-0.5,0.3-1,0.3-1.5c0-0.8-0.2-1.5-0.6-2.2
	s-0.9-1.2-1.6-1.6c-1.3-0.7-3.3-0.7-4.6,0c-0.7,0.4-1.2,0.9-1.6,1.5c-0.4,0.7-0.6,1.4-0.6,2.2c0,0.6,0.1,1.1,0.3,1.7
	c0.2,0.3,0.4,0.7,0.6,1c-0.5,0.4-0.8,0.9-1.1,1.4c-0.3,0.7-0.5,1.4-0.5,2.2c0,0.9,0.2,1.7,0.6,2.4c0.4,0.7,1,1.3,1.7,1.6
	c0.7,0.3,1.6,0.5,2.8,0.5c1.1,0,2-0.2,2.7-0.6s1.3-0.9,1.8-1.7c0.4-0.7,0.6-1.5,0.6-2.4c0-0.8-0.2-1.5-0.6-2.2
	C371.6,348.5,371.3,348,370.8,347.7z M368,345.9c-0.3,0.4-1,0.4-1.3,0c-0.2-0.2-0.3-0.4-0.3-0.7c0-0.3,0.1-0.5,0.3-0.7
	c0.2-0.2,0.4-0.2,0.6-0.2c0.3,0,0.5,0.1,0.7,0.3c0.2,0.2,0.2,0.4,0.2,0.6C368.2,345.5,368.1,345.8,368,345.9z M366.2,350.1
	c0.3-0.3,0.7-0.4,1.2-0.4s0.8,0.1,1.1,0.4c0.3,0.3,0.4,0.6,0.4,1s-0.1,0.7-0.4,0.9c-0.5,0.5-1.8,0.5-2.3,0c-0.3-0.3-0.4-0.6-0.4-1
	C365.7,350.6,365.9,350.3,366.2,350.1z M357.9,346.5l2.2-4.3l-3.1-1.6l-3.7,7.1c-0.5,0.9-0.8,1.5-0.9,2s-0.2,0.9-0.2,1.4
	c0,1.2,0.5,2.3,1.3,3.2c0.9,0.9,2,1.4,3.4,1.4c1.3,0,2.4-0.5,3.3-1.4s1.4-2,1.4-3.3s-0.4-2.5-1.3-3.4
	C359.6,347.1,358.8,346.6,357.9,346.5z M358,351.1c0,0.4-0.1,0.7-0.3,0.9c-0.5,0.5-1.1,0.5-1.6,0c-0.2-0.2-0.3-0.5-0.3-0.9
	s0.1-0.7,0.3-0.9c0.2-0.2,0.5-0.3,0.8-0.3s0.6,0.1,0.8,0.3C357.9,350.4,358,350.7,358,351.1z M378.5,346.5l2.2-4.3l-3.1-1.6
	l-3.7,7.1c-0.5,0.9-0.8,1.5-0.9,2s-0.2,0.9-0.2,1.4c0,1.2,0.5,2.3,1.3,3.2c0.9,0.9,2,1.4,3.4,1.4c1.3,0,2.4-0.5,3.3-1.4
	s1.4-2,1.4-3.3s-0.4-2.5-1.3-3.4C380.2,347.1,379.4,346.6,378.5,346.5z M378.7,351.1c0,0.4-0.1,0.7-0.3,0.9c-0.5,0.5-1.1,0.5-1.6,0
	c-0.2-0.2-0.3-0.5-0.3-0.9s0.1-0.7,0.3-0.9c0.2-0.2,0.5-0.3,0.8-0.3s0.6,0.1,0.8,0.3C378.6,350.4,378.7,350.7,378.7,351.1z
	 M403.5,343.2l-6.2,12.8l-3.1-1.5l4.8-9.9h-5.2v-3.5h9.8L403.5,343.2z M412.7,340.8h-3.4l-5.9,8.8l-0.1,0.1v3h5.8v2.7h3.6v-2.7h1.2
	v-3.4h-1.2V340.8z M407.7,349.3l1.5-2.1v2.1H407.7z M388.1,340.8c-1.3,0-2.4,0.5-3.3,1.4s-1.4,2-1.4,3.3s0.4,2.5,1.3,3.4
	c0.7,0.7,1.5,1.1,2.4,1.3l-2.2,4.3l3.1,1.6l3.7-7.2c0.5-0.9,0.8-1.5,0.9-2c0.1-0.4,0.2-0.9,0.2-1.4c0-1.2-0.5-2.3-1.3-3.2
	C390.6,341.3,389.4,340.8,388.1,340.8z M389.2,345.5c0,0.4-0.1,0.7-0.3,0.9c-0.5,0.5-1.2,0.4-1.6,0c-0.2-0.2-0.3-0.5-0.3-0.9
	s0.1-0.7,0.3-0.9c0.2-0.2,0.5-0.4,0.8-0.4s0.5,0.1,0.8,0.4C389.1,344.9,389.2,345.1,389.2,345.5z M451.6,259.1l-0.6,0.7h4v3.4h-10.3
	v-2l4.3-4.3c1-1,1.6-1.7,1.9-2.3c0.3-0.5,0.4-1,0.4-1.4s-0.1-0.7-0.3-0.9c-0.5-0.5-1.4-0.5-1.9,0.1c-0.3,0.3-0.4,0.7-0.4,1.3v0.5
	h-3.6v-0.6c0.1-1.6,0.6-2.8,1.5-3.7s2.1-1.4,3.6-1.4c0.9,0,1.7,0.2,2.4,0.6c0.7,0.4,1.3,0.9,1.7,1.7c0.4,0.7,0.6,1.5,0.6,2.2
	c0,0.9-0.2,1.8-0.7,2.8C453.7,256.7,452.9,257.8,451.6,259.1z M439.8,232.1c-0.8,1.2-1.2,3-1.2,5.6c0,1.8,0.2,3.2,0.6,4.2
	s1,1.8,1.8,2.4c0.8,0.5,1.7,0.8,2.8,0.8c1.1,0,2.1-0.3,2.8-0.8c0.7-0.5,1.3-1.3,1.8-2.4c0.4-1.1,0.6-2.5,0.6-4.3s-0.2-3.2-0.6-4.3
	s-1-1.9-1.8-2.4s-1.7-0.8-2.8-0.8C442,230,440.7,230.7,439.8,232.1z M444.8,234.2c0.2,0.4,0.5,1.3,0.5,3.3c0,1.6-0.2,2.8-0.6,3.4
	c-0.3,0.6-0.7,0.6-1,0.6s-0.7-0.1-1.1-0.7c-0.2-0.4-0.5-1.2-0.5-3.2c0-1.2,0.1-2.2,0.2-2.8s0.3-0.9,0.6-1.1c0.2-0.2,0.5-0.3,0.8-0.3
	C444,233.5,444.4,233.6,444.8,234.2z M418.9,171.2c1.3,0,2.4-0.5,3.3-1.4s1.4-2,1.4-3.3s-0.4-2.5-1.3-3.4c-0.7-0.7-1.5-1.1-2.4-1.3
	l2.2-4.3L419,156l-3.7,7.1c-0.5,0.9-0.8,1.5-0.9,2s-0.2,0.9-0.2,1.4c0,1.2,0.5,2.3,1.3,3.2C416.5,170.7,417.6,171.2,418.9,171.2z
	 M417.8,166.5c0-0.4,0.1-0.7,0.3-0.9c0.2-0.2,0.5-0.3,0.8-0.3s0.6,0.1,0.8,0.3c0.2,0.2,0.3,0.5,0.3,0.9s-0.1,0.7-0.3,0.9
	c-0.5,0.5-1.1,0.5-1.6,0C417.9,167.2,417.8,166.9,417.8,166.5z M429.3,248.3l-3.7,7.1c-0.5,0.9-0.8,1.5-0.9,2s-0.2,0.9-0.2,1.4
	c0,1.2,0.5,2.3,1.3,3.2c0.9,0.9,2,1.4,3.4,1.4c1.3,0,2.4-0.5,3.3-1.4s1.4-2,1.4-3.3s-0.4-2.5-1.3-3.4c-0.7-0.7-1.5-1.1-2.4-1.3
	l2.2-4.3L429.3,248.3z M430.4,258.8c0,0.4-0.1,0.7-0.3,0.9c-0.5,0.5-1.1,0.5-1.6,0c-0.2-0.2-0.3-0.5-0.3-0.9s0.1-0.7,0.3-0.9
	c0.2-0.2,0.5-0.3,0.8-0.3s0.6,0.1,0.8,0.3C430.3,258.1,430.4,258.4,430.4,258.8z M449.9,211.4l-3.7,7.1c-0.5,0.9-0.8,1.5-0.9,2
	s-0.2,0.9-0.2,1.4c0,1.2,0.5,2.3,1.3,3.2c0.9,0.9,2,1.4,3.4,1.4c1.3,0,2.4-0.5,3.3-1.4s1.4-2,1.4-3.3s-0.4-2.5-1.3-3.4
	c-0.7-0.7-1.5-1.1-2.4-1.3l2.2-4.3L449.9,211.4z M451.1,221.9c0,0.4-0.1,0.7-0.3,0.9c-0.5,0.5-1.1,0.5-1.6,0
	c-0.2-0.2-0.3-0.5-0.3-0.9s0.1-0.7,0.3-0.9c0.2-0.2,0.5-0.3,0.8-0.3s0.6,0.1,0.8,0.3C450.9,221.2,451.1,221.5,451.1,221.9z
	 M435,240.6l-0.6,0.7h4v3.4h-10.3v-2l4.3-4.3c1-1,1.6-1.7,1.9-2.3c0.3-0.5,0.4-1,0.4-1.4s-0.1-0.7-0.3-0.9c-0.5-0.5-1.4-0.5-1.9,0.1
	c-0.3,0.3-0.4,0.7-0.4,1.3v0.5h-3.6v-0.6c0.1-1.6,0.6-2.8,1.5-3.7s2.1-1.4,3.6-1.4c0.9,0,1.7,0.2,2.4,0.6c0.7,0.4,1.3,0.9,1.7,1.7
	c0.4,0.7,0.6,1.5,0.6,2.2c0,0.9-0.2,1.8-0.7,2.8C437.1,238.2,436.2,239.3,435,240.6z M419.5,271.6c0,1.3,0.4,2.5,1.3,3.4
	c0.7,0.7,1.5,1.1,2.4,1.3l-2.2,4.3l3.1,1.6l3.7-7.2c0.5-0.9,0.8-1.5,0.9-2c0.1-0.4,0.2-0.9,0.2-1.4c0-1.2-0.5-2.3-1.3-3.2
	c-0.9-0.9-2-1.4-3.4-1.4c-1.3,0-2.4,0.5-3.3,1.4C420,269.2,419.5,270.3,419.5,271.6z M423.1,271.7c0-0.4,0.1-0.7,0.3-0.9
	c0.2-0.2,0.5-0.4,0.8-0.4s0.5,0.1,0.8,0.4c0.2,0.2,0.3,0.5,0.3,0.9s-0.1,0.7-0.3,0.9c-0.5,0.5-1.2,0.4-1.6,0
	C423.2,272.3,423.1,272,423.1,271.7z M434.3,282c-1.2,0-2.3-0.4-3.3-1.1c-0.9-0.7-1.5-1.7-1.8-3l-0.1-0.7h3.7l0.2,0.3
	c0.2,0.3,0.4,0.6,0.6,0.7c0.6,0.4,1.3,0.3,1.8-0.2c0.3-0.3,0.4-0.7,0.4-1.2s-0.1-0.9-0.4-1.1c-0.4-0.4-0.9-0.6-1.5-0.3
	c-0.2,0.1-0.4,0.3-0.6,0.5l-0.2,0.2l-2.9-0.6l1.8-8.3h7.2v3.4h-4.4l-0.3,1.2c0.1,0,0.1,0,0.1,0c1.4,0,2.5,0.5,3.4,1.4
	s1.3,2.1,1.3,3.5s-0.5,2.7-1.5,3.6C436.9,281.5,435.7,282,434.3,282z M442.4,212.4c-0.8-0.5-1.7-0.8-2.8-0.8c-1.7,0-3,0.7-3.9,2
	c-0.8,1.2-1.2,3-1.2,5.6c0,1.8,0.2,3.2,0.6,4.2s1,1.8,1.8,2.4c0.8,0.5,1.7,0.8,2.8,0.8c1.1,0,2.1-0.3,2.8-0.8
	c0.7-0.5,1.3-1.3,1.8-2.4c0.4-1.1,0.6-2.5,0.6-4.3s-0.2-3.2-0.6-4.3C443.8,213.7,443.2,212.9,442.4,212.4z M441.3,219.1
	c0,1.6-0.2,2.8-0.6,3.4c-0.3,0.6-0.7,0.6-1,0.6s-0.7-0.1-1.1-0.7c-0.2-0.4-0.5-1.2-0.5-3.2c0-1.2,0.1-2.2,0.2-2.8s0.3-0.9,0.6-1.1
	c0.2-0.2,0.5-0.3,0.8-0.3s0.7,0.1,1.1,0.7C441,216.2,441.3,217.1,441.3,219.1z M432.5,299.1c0.9-0.9,1.4-2,1.4-3.3s-0.4-2.5-1.3-3.4
	c-0.7-0.7-1.5-1.1-2.4-1.3l2.2-4.3l-3.1-1.6l-3.7,7.1c-0.5,0.9-0.8,1.5-0.9,2s-0.2,0.9-0.2,1.4c0,1.2,0.5,2.3,1.3,3.2
	c0.9,0.9,2,1.4,3.4,1.4C430.5,300.4,431.6,300,432.5,299.1z M428.1,295.7c0-0.4,0.1-0.7,0.3-0.9c0.2-0.2,0.5-0.3,0.8-0.3
	s0.6,0.1,0.8,0.3c0.2,0.2,0.3,0.5,0.3,0.9s-0.1,0.7-0.3,0.9c-0.5,0.5-1.1,0.5-1.6,0C428.2,296.4,428.1,296.1,428.1,295.7z
	 M456.7,277.6l-0.6,0.7h4v3.4h-10.3v-2l4.3-4.3c1-1,1.6-1.7,1.9-2.3c0.3-0.5,0.4-1,0.4-1.4s-0.1-0.7-0.3-0.9
	c-0.5-0.5-1.4-0.5-1.9,0.1c-0.3,0.3-0.4,0.7-0.4,1.3v0.5h-3.6v-0.6c0.1-1.6,0.6-2.8,1.5-3.7c0.9-0.9,2.1-1.4,3.6-1.4
	c0.9,0,1.7,0.2,2.4,0.6c0.7,0.4,1.3,0.9,1.7,1.7c0.4,0.7,0.6,1.5,0.6,2.2c0,0.9-0.2,1.8-0.7,2.8C458.8,275.2,458,276.3,456.7,277.6z
	 M430,193.1l-5.9,8.8L424,202v3h5.8v2.7h3.6V205h1.2v-3.4h-1.2v-8.5H430z M428.3,201.6l1.5-2.1v2.1H428.3z M450.9,204.3
	c0.3-0.3,0.4-0.7,0.4-1.2s-0.1-0.9-0.4-1.1c-0.4-0.4-0.9-0.6-1.5-0.3c-0.2,0.1-0.4,0.3-0.6,0.5l-0.2,0.2l-2.9-0.6l1.8-8.3h7.2v3.4
	h-4.4l-0.3,1.2c0.1,0,0.1,0,0.1,0c1.4,0,2.5,0.5,3.4,1.4s1.3,2.1,1.3,3.5s-0.5,2.7-1.5,3.6c-1,1-2.2,1.5-3.6,1.5
	c-1.2,0-2.3-0.4-3.3-1.1c-0.9-0.7-1.5-1.7-1.8-3l-0.1-0.7h3.7l0.2,0.3c0.2,0.3,0.4,0.6,0.6,0.7C449.6,204.8,450.4,204.8,450.9,204.3
	z M448.8,281.6v-2.7h1.2v-3.4h-1.2V267h-3.4l-5.9,8.8l-0.1,0.1v3h5.8v2.7H448.8z M443.8,275.5l1.5-2.1v2.1H443.8z M439.7,300.6
	l3.7-7.2c0.5-0.9,0.8-1.5,0.9-2c0.1-0.4,0.2-0.9,0.2-1.4c0-1.2-0.5-2.3-1.3-3.2c-0.9-0.9-2-1.4-3.4-1.4c-1.3,0-2.4,0.5-3.3,1.4
	s-1.4,2-1.4,3.3s0.4,2.5,1.3,3.4c0.7,0.7,1.5,1.1,2.4,1.3l-2.2,4.3L439.7,300.6z M438.6,290.1c0-0.4,0.1-0.7,0.3-0.9
	c0.2-0.2,0.5-0.4,0.8-0.4s0.5,0.1,0.8,0.4c0.2,0.2,0.3,0.5,0.3,0.9s-0.1,0.7-0.3,0.9c-0.5,0.5-1.2,0.4-1.6,0
	C438.7,290.8,438.6,290.5,438.6,290.1z M423.9,236.1c0.3-0.5,0.4-1,0.4-1.4s-0.1-0.7-0.3-0.9c-0.5-0.5-1.4-0.5-1.9,0.1
	c-0.3,0.3-0.4,0.7-0.4,1.3v0.5h-3.6v-0.6c0.1-1.6,0.6-2.8,1.5-3.7s2.1-1.4,3.6-1.4c0.9,0,1.7,0.2,2.4,0.6c0.7,0.4,1.3,0.9,1.7,1.7
	c0.4,0.7,0.6,1.5,0.6,2.2c0,0.9-0.2,1.8-0.7,2.8s-1.3,2.1-2.6,3.4l-0.6,0.7h4v3.4h-10.3v-2l4.3-4.3
	C423,237.4,423.6,236.7,423.9,236.1z M430.1,217.6c0.3-0.5,0.4-1,0.4-1.4s-0.1-0.7-0.3-0.9c-0.5-0.5-1.4-0.5-1.9,0.1
	c-0.3,0.3-0.4,0.7-0.4,1.3v0.5h-3.6v-0.6c0.1-1.6,0.6-2.8,1.5-3.7s2.1-1.4,3.6-1.4c0.9,0,1.7,0.2,2.4,0.6c0.7,0.4,1.3,0.9,1.7,1.7
	c0.4,0.7,0.6,1.5,0.6,2.2c0,0.9-0.2,1.8-0.7,2.8s-1.3,2.1-2.6,3.4l-0.6,0.7h4v3.4H424v-2l4.3-4.3C429.2,219,429.9,218.2,430.1,217.6
	z M424.2,319.1l3.7-7.2c0.5-0.9,0.8-1.5,0.9-2c0.1-0.4,0.2-0.9,0.2-1.4c0-1.2-0.5-2.3-1.3-3.2c-0.9-0.9-2-1.4-3.4-1.4
	c-1.3,0-2.4,0.5-3.3,1.4s-1.4,2-1.4,3.3s0.4,2.5,1.3,3.4c0.7,0.7,1.5,1.1,2.4,1.3l-2.2,4.3L424.2,319.1z M423.1,308.6
	c0-0.4,0.1-0.7,0.3-0.9c0.2-0.2,0.5-0.4,0.8-0.4s0.5,0.1,0.8,0.4c0.2,0.2,0.3,0.5,0.3,0.9s-0.1,0.7-0.3,0.9c-0.5,0.5-1.2,0.4-1.6,0
	C423.2,309.3,423.1,309,423.1,308.6z M437.2,248.8h7.2v3.4H440l-0.3,1.2c0.1,0,0.1,0,0.1,0c1.4,0,2.5,0.5,3.4,1.4s1.3,2.1,1.3,3.5
	s-0.5,2.7-1.5,3.6c-1,1-2.2,1.5-3.6,1.5c-1.2,0-2.3-0.4-3.3-1.1c-0.9-0.7-1.5-1.7-1.8-3l-0.1-0.7h3.7l0.2,0.3
	c0.2,0.3,0.4,0.6,0.6,0.7c0.6,0.4,1.3,0.3,1.8-0.2c0.3-0.3,0.4-0.7,0.4-1.2s-0.1-0.9-0.4-1.1c-0.4-0.4-0.9-0.6-1.5-0.3
	c-0.2,0.1-0.4,0.3-0.6,0.5l-0.2,0.2l-2.9-0.6L437.2,248.8z M450.7,178.4h-5.2V175h9.8l-0.1,2.1l-6.2,12.8l-3.1-1.5L450.7,178.4z
	 M439.7,314v-0.6h3.5l0.1,0.5c0.1,0.6,0.3,1,0.5,1.2c0.5,0.5,1.5,0.5,2.1-0.1c0.3-0.3,0.4-0.6,0.4-1s-0.2-0.8-0.6-1.1
	c-0.4-0.3-1.1-0.5-1.9-0.5h-0.5v-3.2h0.5c0.7-0.1,1-0.2,1.2-0.2c0.2-0.1,0.4-0.2,0.5-0.4c0.1-0.2,0.2-0.3,0.2-0.5s-0.1-0.4-0.2-0.5
	s-0.3-0.2-0.6-0.2c-0.2,0-0.5,0.1-0.7,0.2s-0.3,0.3-0.4,0.6l-0.1,0.4h-3.4l0.1-0.6c0.1-1.1,0.6-2,1.2-2.7c0.9-0.9,2.1-1.4,3.4-1.4
	c1.2,0,2.3,0.4,3.1,1.2c0.8,0.8,1.3,1.8,1.3,2.9c0,0.7-0.2,1.3-0.6,1.9c-0.2,0.3-0.4,0.5-0.7,0.8c0.5,0.3,0.9,0.6,1.2,1
	c0.5,0.7,0.8,1.5,0.8,2.4c0,1.3-0.5,2.5-1.5,3.4s-2.2,1.4-3.7,1.4c-1.4,0-2.6-0.4-3.5-1.3C440.2,316.7,439.7,315.5,439.7,314z
	 M455.1,287.9l-6.2,12.8l-3.1-1.5l4.8-9.9h-5.2v-3.5h9.8L455.1,287.9z M440.3,178.4h-5.2V175h9.8l-0.1,2.1l-6.2,12.8l-3.1-1.5
	L440.3,178.4z M458.9,198.8h-3.6v-0.6c0.1-1.6,0.6-2.8,1.5-3.7s2.1-1.4,3.6-1.4c0.9,0,1.7,0.2,2.4,0.6c0.7,0.4,1.3,0.9,1.7,1.7
	c0.4,0.7,0.6,1.5,0.6,2.2c0,0.9-0.2,1.8-0.7,2.8s-1.3,2.1-2.6,3.4l-0.6,0.7h4v3.4H455v-2l4.3-4.3c1-1,1.6-1.7,1.9-2.3
	c0.3-0.5,0.4-1,0.4-1.4s-0.1-0.7-0.3-0.9c-0.5-0.5-1.4-0.5-1.9,0.1c-0.3,0.3-0.4,0.7-0.4,1.3L458.9,198.8z M430.2,167.3
	c0.3-0.3,0.4-0.7,0.4-1.2s-0.1-0.9-0.4-1.1c-0.4-0.4-0.9-0.6-1.5-0.3c-0.2,0.1-0.4,0.3-0.6,0.5l-0.2,0.2l-2.9-0.6l1.8-8.3h7.2v3.4
	h-4.4l-0.3,1.2c0.1,0,0.1,0,0.1,0c1.4,0,2.5,0.5,3.4,1.4s1.3,2.1,1.3,3.5s-0.5,2.7-1.5,3.6c-1,1-2.2,1.5-3.6,1.5
	c-1.2,0-2.3-0.4-3.3-1.1c-0.9-0.7-1.5-1.7-1.8-3l-0.1-0.7h3.7l0.2,0.3c0.2,0.3,0.4,0.6,0.6,0.7C428.9,167.9,429.7,167.8,430.2,167.3
	z M432.1,175.5c-0.8-0.5-1.7-0.8-2.8-0.8c-1.7,0-3,0.7-3.9,2c-0.8,1.2-1.2,3-1.2,5.6c0,1.8,0.2,3.2,0.6,4.2s1,1.8,1.8,2.4
	c0.8,0.5,1.7,0.8,2.8,0.8c1.1,0,2.1-0.3,2.8-0.8c0.7-0.5,1.3-1.3,1.8-2.4c0.4-1.1,0.6-2.5,0.6-4.3s-0.2-3.2-0.6-4.3
	C433.5,176.8,432.9,176,432.1,175.5z M430.9,182.2c0,1.6-0.2,2.8-0.6,3.4c-0.3,0.6-0.7,0.6-1,0.6s-0.7-0.1-1.1-0.7
	c-0.2-0.4-0.5-1.2-0.5-3.2c0-1.2,0.1-2.2,0.2-2.8s0.3-0.9,0.6-1.1c0.2-0.2,0.5-0.3,0.8-0.3s0.7,0.1,1.1,0.7
	C430.7,179.3,430.9,180.1,430.9,182.2z M439.6,208.1c1.3,0,2.4-0.5,3.3-1.4s1.4-2,1.4-3.3s-0.4-2.5-1.3-3.4
	c-0.7-0.7-1.5-1.1-2.4-1.3l2.2-4.3l-3.1-1.6l-3.7,7.1c-0.5,0.9-0.8,1.5-0.9,2s-0.2,0.9-0.2,1.4c0,1.2,0.5,2.3,1.3,3.2
	C437.1,207.6,438.2,208.1,439.6,208.1z M438.4,203.4c0-0.4,0.1-0.7,0.3-0.9c0.2-0.2,0.5-0.3,0.8-0.3s0.6,0.1,0.8,0.3
	c0.2,0.2,0.3,0.5,0.3,0.9s-0.1,0.7-0.3,0.9c-0.5,0.5-1.1,0.5-1.6,0C438.5,204.1,438.4,203.8,438.4,203.4z M402.3,337.4
	c1.3,0,2.4-0.5,3.3-1.4s1.4-2,1.4-3.3s-0.4-2.5-1.3-3.4c-0.7-0.7-1.5-1.1-2.4-1.3l2.2-4.3l-3.1-1.6l-3.7,7.1c-0.5,0.9-0.8,1.5-0.9,2
	s-0.2,0.9-0.2,1.4c0,1.2,0.5,2.3,1.3,3.2C399.8,336.9,401,337.4,402.3,337.4z M401.1,332.6c0-0.4,0.1-0.7,0.3-0.9
	c0.2-0.2,0.5-0.3,0.8-0.3s0.6,0.1,0.8,0.3c0.2,0.2,0.3,0.5,0.3,0.9s-0.1,0.7-0.3,0.9c-0.5,0.5-1.1,0.5-1.6,0
	C401.3,333.3,401.1,333,401.1,332.6z M400,230.4h4.6v14.3H401v-10.9h-3.2L400,230.4z M414.4,193.4h9.8l-0.1,2.1l-6.2,12.8l-3.1-1.5
	l4.8-9.9h-5.2L414.4,193.4L414.4,193.4z M439.6,306.3l-6.2,12.8l-3.1-1.5l4.8-9.9h-5.2v-3.5h9.8L439.6,306.3z M408.1,230.4h9.8
	l-0.1,2.1l-6.2,12.8l-3.1-1.5l4.8-9.9h-5.2L408.1,230.4L408.1,230.4z M438.4,337h-10.3v-2l4.3-4.3c1-1,1.6-1.7,1.9-2.3
	c0.3-0.5,0.4-1,0.4-1.4s-0.1-0.7-0.3-0.9c-0.5-0.5-1.4-0.5-1.9,0.1c-0.3,0.3-0.4,0.7-0.4,1.3v0.5h-3.6v-0.6c0.1-1.6,0.6-2.8,1.5-3.7
	c0.9-0.9,2.1-1.4,3.6-1.4c0.9,0,1.7,0.2,2.4,0.6c0.7,0.4,1.3,0.9,1.7,1.7c0.4,0.7,0.6,1.5,0.6,2.2c0,0.9-0.2,1.8-0.7,2.8
	s-1.3,2.1-2.6,3.4l-0.6,0.7h4V337z M407.6,263.7l-3.1-1.5l4.8-9.9h-5.2v-3.5h9.8l-0.1,2.1L407.6,263.7z M419.5,263.2h3.6v-2.7h1.2
	V257H423v-8.5h-3.4l-5.9,8.8l-0.1,0.1v3h5.8v2.8H419.5z M418,257l1.5-2.1v2.1H418z"/>
<polygon class="st3" points="36.7,156 85.6,156 126.2,269.5 169.1,156 199.1,156 241.2,268 281.1,156 330.7,156 257.8,356 
	226.2,356 183.3,242.5 139.7,356 108.9,356 "/>
</svg>
