<svg xmlns="http://www.w3.org/2000/svg" width="35.336" height="24.192" viewBox="0 0 35.336 24.192">
  <defs>
    <style>
      .cls-1 {
        fill: #fff;
      }
    </style>
  </defs>
  <g id="Grupo_893" data-name="Grupo 893" transform="translate(0)">
    <path id="Trazado_1492" data-name="Trazado 1492" class="cls-1" d="M1127.372,406.15a14.8,14.8,0,0,0-8.335-3.019l-.446.439a19.793,19.793,0,0,1,7.484,3.681,27.2,27.2,0,0,0-24.249-.156s2.437-2.4,7.811-3.684l-.328-.324a14.787,14.787,0,0,0-8.462,3.043,37.076,37.076,0,0,0-4.392,16.82s2.433,4.169,9.109,4.327c0,0,.975-1.277,1.961-2.4a9.633,9.633,0,0,1-5.207-3.362,7.828,7.828,0,0,1,.812.476h.144a.189.189,0,0,1,.147.074v.013a.183.183,0,0,0,.146.072c7.972,3.234,14.633,3.982,22.235-.8a9.705,9.705,0,0,1-5.365,3.363c.806,1.117,1.936,2.4,1.936,2.4a12.769,12.769,0,0,0,9.419-4.136A36.98,36.98,0,0,0,1127.372,406.15ZM1108.5,420.074a3.2,3.2,0,0,1,0-6.4l.011-.008a3.207,3.207,0,0,1-.011,6.409Zm11.065,0a3.2,3.2,0,0,1,0-6.4v-.008a3.207,3.207,0,0,1,0,6.409Z" transform="translate(-1096.455 -403.086)"/>
  </g>
</svg>
