<svg id="Grupo_890" data-name="Grupo 890" xmlns="http://www.w3.org/2000/svg" width="31.466" height="31.464" viewBox="0 0 31.466 31.464">
  <defs>
    <style>
      .cls-1 {
        fill: #fff;
      }
    </style>
  </defs>
  <path id="Trazado_1487" data-name="Trazado 1487" class="cls-1" d="M1240.54,400.453h-11.8a9.834,9.834,0,0,0-9.833,9.832v11.8a9.834,9.834,0,0,0,9.833,9.832h11.8a9.833,9.833,0,0,0,9.833-9.832v-11.8A9.833,9.833,0,0,0,1240.54,400.453Zm6.883,21.632a6.891,6.891,0,0,1-6.883,6.883h-11.8a6.891,6.891,0,0,1-6.883-6.883v-11.8a6.891,6.891,0,0,1,6.883-6.882h11.8a6.89,6.89,0,0,1,6.883,6.882Z" transform="translate(-1218.907 -400.453)"/>
  <path id="Trazado_1488" data-name="Trazado 1488" class="cls-1" d="M1237.262,410.94a7.866,7.866,0,1,0,7.867,7.866A7.867,7.867,0,0,0,1237.262,410.94Zm0,12.783a4.917,4.917,0,1,1,4.916-4.916A4.924,4.924,0,0,1,1237.262,423.723Z" transform="translate(-1221.528 -403.074)"/>
  <ellipse id="Elipse_56" data-name="Elipse 56" class="cls-1" cx="1.048" cy="1.048" rx="1.048" ry="1.048" transform="translate(23.141 6.228)"/>
</svg>
