<svg xmlns="http://www.w3.org/2000/svg" width="33.702" height="27.382" viewBox="0 0 33.702 27.382">
  <defs>
    <style>
      .cls-1 {
        fill: #fff;
      }
    </style>
  </defs>
  <path id="Trazado_1491" data-name="Trazado 1491" class="cls-1" d="M957.8,401.254a14.411,14.411,0,0,1-3.981,1.091,6.874,6.874,0,0,0,3.04-3.819,13.8,13.8,0,0,1-4.382,1.672,6.909,6.909,0,0,0-11.951,4.725,7.1,7.1,0,0,0,.16,1.576,19.56,19.56,0,0,1-14.241-7.227,6.911,6.911,0,0,0,2.123,9.234,6.825,6.825,0,0,1-3.121-.852v.076a6.94,6.94,0,0,0,5.536,6.788,6.889,6.889,0,0,1-1.812.228,6.111,6.111,0,0,1-1.308-.118,6.975,6.975,0,0,0,6.456,4.813,13.884,13.884,0,0,1-8.567,2.947,12.944,12.944,0,0,1-1.653-.094,19.452,19.452,0,0,0,10.6,3.1c12.715,0,19.666-10.532,19.666-19.66,0-.305-.011-.6-.026-.893A13.8,13.8,0,0,0,957.8,401.254Z" transform="translate(-924.101 -398.013)"/>
</svg>
