<svg xmlns="http://www.w3.org/2000/svg" width="37.291" height="26.11" viewBox="0 0 37.291 26.11">
  <defs>
    <style>
      .cls-1 {
        fill: #fff;
      }
    </style>
  </defs>
  <g id="Grupo_892" data-name="Grupo 892" transform="translate(0)">
    <path id="Trazado_1490" data-name="Trazado 1490" class="cls-1" d="M1025.255,407.172a4.67,4.67,0,0,0-3.286-3.287c-2.919-.8-14.592-.8-14.592-.8s-11.673,0-14.591.768a4.766,4.766,0,0,0-3.287,3.317c-.768,2.918-.768,8.969-.768,8.969s0,6.082.768,8.97a4.67,4.67,0,0,0,3.287,3.287c2.949.8,14.591.8,14.591.8s11.673,0,14.592-.768a4.673,4.673,0,0,0,3.287-3.287c.767-2.919.767-8.97.767-8.97S1026.054,410.09,1025.255,407.172Zm-21.594,14.56V410.551l9.707,5.59Z" transform="translate(-988.732 -403.087)"/>
  </g>
</svg>
