<svg id="Grupo_1179" data-name="Grupo 1179" xmlns="http://www.w3.org/2000/svg" xmlns:xlink="http://www.w3.org/1999/xlink" width="32.681" height="32.682" viewBox="0 0 32.681 32.682">
  <defs>
    <clipPath id="clip-path">
      <ellipse id="Elipse_59" data-name="Elipse 59" cx="16.341" cy="16.341" rx="16.341" ry="16.341" fill="none"/>
    </clipPath>
    <clipPath id="clip-path-2">
      <rect id="Rectángulo_109" data-name="Rectángulo 109" width="56.024" height="32.679" fill="none"/>
    </clipPath>
  </defs>
  <g id="Grupo_1178" data-name="Grupo 1178" transform="translate(0 0)" clip-path="url(#clip-path)">
    <g id="ARGENTINA" transform="translate(-11.672 0.001)">
      <g id="Grupo_1177" data-name="Grupo 1177">
        <g id="Grupo_1176" data-name="Grupo 1176">
          <g id="Grupo_1175" data-name="Grupo 1175" clip-path="url(#clip-path-2)">
            <rect id="Rectángulo_105" data-name="Rectángulo 105" width="56.024" height="10.895" transform="translate(0 10.893)" fill="#fff"/>
            <rect id="Rectángulo_106" data-name="Rectángulo 106" width="56.024" height="10.893" fill="#80a7d8"/>
            <rect id="Rectángulo_107" data-name="Rectángulo 107" width="56.024" height="10.891" transform="translate(0 21.788)" fill="#80a7d8"/>
            <g id="Grupo_1174" data-name="Grupo 1174">
              <g id="Grupo_1173" data-name="Grupo 1173" clip-path="url(#clip-path-2)">
                <path id="Trazado_2373" data-name="Trazado 2373" d="M-3505.733,752.745l.17,4.46s0,.083.055.083.052-.083.052-.083l.17-4.46Z" transform="translate(3533.522 -736.41)" fill="#f1bd51"/>
                <g id="Grupo_1140" data-name="Grupo 1140" transform="translate(27.776 16.335)">
                  <path id="Trazado_2374" data-name="Trazado 2374" d="M-3505.644,757.3c-.056,0-.069-.065-.069-.1l-.169-4.456.03,0,.163,4.46s0,.068.046.068.039-.068.039-.068l.17-4.46-.137,4.46c0,.031-.02.1-.071.1Z" transform="translate(3505.882 -752.745)" fill="#7a361d"/>
                </g>
                <path id="Trazado_2375" data-name="Trazado 2375" d="M-3504.424,752.745l.111,3.063.107-3.063Z" transform="translate(3532.327 -736.41)" fill="#7a361d"/>
                <path id="Trazado_2376" data-name="Trazado 2376" d="M-3513.909,769.28c-.254.561-.042,1.019-.29,1.508a1.886,1.886,0,0,0-.114,1.118c-.02.225-.2.288-.156.341s.241-.051.313-.352-.1-.469.2-1.069.068-.872.378-1.409Z" transform="translate(3541.502 -751.502)" fill="#f1bd51"/>
                <g id="Grupo_1141" data-name="Grupo 1141" transform="translate(27.01 17.773)">
                  <path id="Trazado_2377" data-name="Trazado 2377" d="M-3514.585,772.22l-.062-.016c-.023-.033,0-.065.035-.1a.377.377,0,0,0,.115-.251,1.028,1.028,0,0,0-.01-.217,1.421,1.421,0,0,1,.131-.9,1.628,1.628,0,0,0,.14-.722,1.835,1.835,0,0,1,.153-.786l.023.01a1.884,1.884,0,0,0-.146.778,1.713,1.713,0,0,1-.143.73,1.427,1.427,0,0,0-.127.893c.006.085.013.157.013.22a.452.452,0,0,1-.127.266c-.033.037-.042.05-.033.065.111-.015.238-.122.293-.346a.892.892,0,0,0,.017-.277,1.336,1.336,0,0,1,.186-.8,1.609,1.609,0,0,0,.182-.719,1.4,1.4,0,0,1,.189-.691,1.724,1.724,0,0,0-.163.691,1.69,1.69,0,0,1-.183.73,1.423,1.423,0,0,0-.189.781.96.96,0,0,1-.016.29.488.488,0,0,1-.267.368l-.01,0Z" transform="translate(3514.656 -769.224)" fill="#7a361d"/>
                </g>
                <path id="Trazado_2378" data-name="Trazado 2378" d="M-3509.844,770.906c-.2.559.007.928-.261,1.4.3-.341.1-.778.355-1.356Z" transform="translate(3537.512 -752.987)" fill="#7a361d"/>
                <path id="Trazado_2379" data-name="Trazado 2379" d="M-3505.286,705.318l-.17-4.452s0-.081-.052-.081-.055.081-.055.081l-.17,4.452Z" transform="translate(3533.522 -688.984)" fill="#f1bd51"/>
                <g id="Grupo_1142" data-name="Grupo 1142" transform="translate(27.805 11.783)">
                  <path id="Trazado_2380" data-name="Trazado 2380" d="M-3505.129,705.134l-.169-4.455s0-.072-.039-.072-.045.07-.045.07l-.163,4.457.14-4.457c0-.036.013-.1.068-.1s.072.064.072.1l.17,4.452-.033,0Z" transform="translate(3505.546 -700.578)" fill="#7a361d"/>
                </g>
                <path id="Trazado_2381" data-name="Trazado 2381" d="M-3504.206,720.8l-.107-3.053-.111,3.053Z" transform="translate(3532.327 -704.468)" fill="#7a361d"/>
                <path id="Trazado_2382" data-name="Trazado 2382" d="M-3501.745,705.134c.255-.557.036-1.016.29-1.506a1.876,1.876,0,0,0,.111-1.117c.02-.223.206-.287.157-.341s-.235.054-.313.349.107.471-.2,1.073-.059.869-.368,1.407Z" transform="translate(3530.179 -690.237)" fill="#f1bd51"/>
                <g id="Grupo_1143" data-name="Grupo 1143" transform="translate(28.121 11.909)">
                  <path id="Trazado_2383" data-name="Trazado 2383" d="M-3501.6,705.012l-.022-.01a2.03,2.03,0,0,0,.143-.775,1.6,1.6,0,0,1,.146-.735,1.421,1.421,0,0,0,.12-.888c0-.086-.013-.163-.006-.222a.423.423,0,0,1,.121-.267c.036-.039.042-.054.036-.064-.108.008-.235.117-.29.342a.757.757,0,0,0-.017.279,1.373,1.373,0,0,1-.189.8,1.665,1.665,0,0,0-.183.722,1.4,1.4,0,0,1-.186.685,1.751,1.751,0,0,0,.156-.69,1.674,1.674,0,0,1,.186-.73,1.284,1.284,0,0,0,.183-.782,1.068,1.068,0,0,1,.019-.282c.059-.241.192-.355.271-.372l.006,0,.062.018c.029.029,0,.062-.032.1a.391.391,0,0,0-.117.25,1.047,1.047,0,0,0,.01.218,1.463,1.463,0,0,1-.127.9,1.575,1.575,0,0,0-.144.722,1.9,1.9,0,0,1-.147.784Z" transform="translate(3501.922 -702.017)" fill="#7a361d"/>
                </g>
                <path id="Trazado_2384" data-name="Trazado 2384" d="M-3500.214,719.989c.206-.556-.013-.928.261-1.4-.3.339-.108.776-.362,1.352Z" transform="translate(3528.576 -705.234)" fill="#7a361d"/>
                <path id="Trazado_2385" data-name="Trazado 2385" d="M-3550.666,750.222l-4.457.165s-.084,0-.084.055.084.06.084.06l4.457.166Z" transform="translate(3578.68 -734.107)" fill="#f1bd51"/>
                <g id="Grupo_1144" data-name="Grupo 1144" transform="translate(23.462 16.102)">
                  <path id="Trazado_2386" data-name="Trazado 2386" d="M-3550.766,750.519l-4.46-.142c-.029,0-.094-.013-.094-.072s.065-.065.094-.065l4.457-.168,0,.028-4.46.166s-.072,0-.072.039.072.046.072.046l4.46.168Z" transform="translate(3555.321 -750.072)" fill="#7a361d"/>
                </g>
                <path id="Trazado_2387" data-name="Trazado 2387" d="M-3535.148,751.494l-3.058.109,3.058.114Z" transform="translate(3563.162 -735.268)" fill="#7a361d"/>
                <path id="Trazado_2388" data-name="Trazado 2388" d="M-3550.832,742.026c-.558-.258-1.017-.039-1.5-.294a1.993,1.993,0,0,0-1.125-.111c-.221-.019-.284-.2-.339-.155s.055.236.352.311.469-.1,1.07.2.874.065,1.412.373Z" transform="translate(3577.405 -726.108)" fill="#f1bd51"/>
                <g id="Grupo_1145" data-name="Grupo 1145" transform="translate(23.583 15.334)">
                  <path id="Trazado_2389" data-name="Trazado 2389" d="M-3551.075,742.174a1.9,1.9,0,0,0-.691-.16,1.677,1.677,0,0,1-.733-.186,1.339,1.339,0,0,0-.779-.186.845.845,0,0,1-.284-.018c-.225-.055-.352-.178-.372-.267l0-.01.016-.059c.04-.031.068,0,.1.033a.368.368,0,0,0,.248.119,1.154,1.154,0,0,0,.212-.015,1.5,1.5,0,0,1,.913.127,1.537,1.537,0,0,0,.721.145,1.883,1.883,0,0,1,.782.147l-.006.028a1.93,1.93,0,0,0-.776-.147,1.574,1.574,0,0,1-.737-.147,1.426,1.426,0,0,0-.89-.124,1.216,1.216,0,0,1-.225.011.4.4,0,0,1-.261-.126c-.036-.029-.052-.041-.065-.029.013.109.114.23.346.287a.987.987,0,0,0,.277.018,1.348,1.348,0,0,1,.792.188,1.669,1.669,0,0,0,.721.184,1.461,1.461,0,0,1,.691.186Z" transform="translate(3553.938 -741.276)" fill="#7a361d"/>
                </g>
                <path id="Trazado_2390" data-name="Trazado 2390" d="M-3535.979,746.087c-.558-.2-.926.013-1.405-.254.339.3.782.1,1.356.36Z" transform="translate(3562.411 -730.101)" fill="#7a361d"/>
                <path id="Trazado_2391" data-name="Trazado 2391" d="M-3503.154,750.669l4.457-.166s.082,0,.082-.06-.082-.055-.082-.055l-4.457-.165Z" transform="translate(3531.167 -734.107)" fill="#f1bd51"/>
                <g id="Grupo_1146" data-name="Grupo 1146" transform="translate(28.014 16.129)">
                  <path id="Trazado_2392" data-name="Trazado 2392" d="M-3503.151,750.838l0-.029,4.457-.168s.068,0,.068-.046-.068-.039-.068-.039l-4.457-.166,4.457.14c.029,0,.091.015.091.065s-.062.072-.091.072l-4.454.171Z" transform="translate(3503.154 -750.39)" fill="#7a361d"/>
                </g>
                <path id="Trazado_2393" data-name="Trazado 2393" d="M-3503.154,751.717l3.058-.114-3.058-.109Z" transform="translate(3531.167 -735.268)" fill="#7a361d"/>
                <path id="Trazado_2394" data-name="Trazado 2394" d="M-3486.675,754.175c.564.256,1.024.036,1.513.294a1.962,1.962,0,0,0,1.115.114c.222.016.283.2.339.152s-.056-.238-.352-.313-.472.106-1.066-.2-.877-.062-1.409-.372Z" transform="translate(3516.127 -737.416)" fill="#f1bd51"/>
                <g id="Grupo_1147" data-name="Grupo 1147" transform="translate(29.445 16.442)">
                  <path id="Trazado_2395" data-name="Trazado 2395" d="M-3483.8,754.875a.12.12,0,0,1-.072-.042.386.386,0,0,0-.248-.117.963.963,0,0,0-.219.013,1.459,1.459,0,0,1-.9-.13,1.6,1.6,0,0,0-.727-.145,1.871,1.871,0,0,1-.786-.148l.013-.024a1.9,1.9,0,0,0,.773.147,1.671,1.671,0,0,1,.74.147,1.41,1.41,0,0,0,.884.126,1.266,1.266,0,0,1,.225-.011.425.425,0,0,1,.264.122c.042.036.056.039.062.034-.006-.108-.114-.232-.339-.287a.9.9,0,0,0-.277-.021,1.314,1.314,0,0,1-.8-.186,1.663,1.663,0,0,0-.717-.183,1.442,1.442,0,0,1-.691-.191,1.758,1.758,0,0,0,.691.161,1.735,1.735,0,0,1,.73.189,1.309,1.309,0,0,0,.783.181.9.9,0,0,1,.283.02.491.491,0,0,1,.369.269v.008l-.02.059c0,.01-.01.011-.023.011Z" transform="translate(3486.75 -753.977)" fill="#7a361d"/>
                </g>
                <path id="Trazado_2396" data-name="Trazado 2396" d="M-3485.068,755.724c.561.2.933-.006,1.408.258-.339-.295-.779-.1-1.356-.359Z" transform="translate(3514.66 -739.037)" fill="#7a361d"/>
                <path id="Trazado_2397" data-name="Trazado 2397" d="M-3537.024,750.97l-3.032,3.27s-.055.059-.016.1.094-.023.094-.023l3.271-3.032Z" transform="translate(3564.877 -734.79)" fill="#f1bd51"/>
                <g id="Grupo_1148" data-name="Grupo 1148" transform="translate(24.787 16.172)">
                  <path id="Trazado_2398" data-name="Trazado 2398" d="M-3540.094,754.282a.086.086,0,0,1-.023-.139l3.032-3.267.023.018-3.032,3.268c-.006,0-.049.05-.023.078s.085-.019.085-.019l3.267-3.029-3.251,3.05a.134.134,0,0,1-.078.039Z" transform="translate(3540.142 -750.876)" fill="#7a361d"/>
                </g>
                <path id="Trazado_2399" data-name="Trazado 2399" d="M-3525.851,751.867l-2.08,2.242,2.243-2.083Z" transform="translate(3553.783 -735.609)" fill="#7a361d"/>
                <path id="Trazado_2400" data-name="Trazado 2400" d="M-3544.31,761.041c-.58.214-.75.7-1.268.859a1.936,1.936,0,0,0-.871.711c-.169.147-.346.06-.352.132s.206.129.473-.029.251-.406.893-.611.662-.571,1.262-.729Z" transform="translate(3571.007 -743.982)" fill="#f1bd51"/>
                <g id="Grupo_1149" data-name="Grupo 1149" transform="translate(24.193 17.049)">
                  <path id="Trazado_2401" data-name="Trazado 2401" d="M-3546.788,762.725a.272.272,0,0,1-.127-.028l-.036-.057c0-.046.042-.047.091-.049a.434.434,0,0,0,.261-.094.716.716,0,0,0,.137-.16,1.482,1.482,0,0,1,.74-.554,1.528,1.528,0,0,0,.61-.406,1.9,1.9,0,0,1,.662-.448l.01.024a1.959,1.959,0,0,0-.652.443,1.534,1.534,0,0,1-.623.413,1.428,1.428,0,0,0-.72.544,1.347,1.347,0,0,1-.144.163.452.452,0,0,1-.28.1c-.042,0-.065,0-.065.019a.4.4,0,0,0,.447-.039.948.948,0,0,0,.212-.186,1.354,1.354,0,0,1,.695-.429,1.7,1.7,0,0,0,.635-.377,1.4,1.4,0,0,1,.626-.355,1.764,1.764,0,0,0-.606.375,1.622,1.622,0,0,1-.649.383,1.344,1.344,0,0,0-.681.422.9.9,0,0,1-.215.187.634.634,0,0,1-.326.1Z" transform="translate(3546.951 -760.928)" fill="#7a361d"/>
                </g>
                <path id="Trazado_2402" data-name="Trazado 2402" d="M-3531.061,762.778c-.535.253-.648.662-1.167.81.447-.033.616-.479,1.209-.7Z" transform="translate(3557.705 -745.568)" fill="#7a361d"/>
                <path id="Trazado_2403" data-name="Trazado 2403" d="M-3504.669,719.216l3.032-3.265s.059-.06.023-.1-.1.018-.1.018l-3.27,3.034Z" transform="translate(3532.839 -702.721)" fill="#f1bd51"/>
                <g id="Grupo_1150" data-name="Grupo 1150" transform="translate(27.861 13.102)">
                  <path id="Trazado_2404" data-name="Trazado 2404" d="M-3504.59,719.092l-.016-.013,3.032-3.272s.042-.051.017-.082-.078.018-.078.018l-3.274,3.034,3.257-3.054c.017-.021.078-.055.114-.018s0,.095-.019.117l-3.032,3.269Z" transform="translate(3504.91 -715.689)" fill="#7a361d"/>
                </g>
                <path id="Trazado_2405" data-name="Trazado 2405" d="M-3503.927,730.247l2.083-2.24-2.247,2.082Z" transform="translate(3532.022 -713.83)" fill="#7a361d"/>
                <path id="Trazado_2406" data-name="Trazado 2406" d="M-3489.457,725.98c.573-.215.743-.694,1.271-.859a1.963,1.963,0,0,0,.87-.711c.17-.145.346-.059.346-.13s-.2-.132-.466.028-.261.4-.9.613-.662.572-1.255.734Z" transform="translate(3518.788 -710.362)" fill="#f1bd51"/>
                <g id="Grupo_1151" data-name="Grupo 1151" transform="translate(29.197 13.832)">
                  <path id="Trazado_2407" data-name="Trazado 2407" d="M-3489.457,725.861l-.007-.024a1.939,1.939,0,0,0,.649-.445,1.532,1.532,0,0,1,.629-.416,1.4,1.4,0,0,0,.714-.541,1.387,1.387,0,0,1,.15-.168.428.428,0,0,1,.274-.1c.049,0,.065-.006.065-.021a.4.4,0,0,0-.447.039.9.9,0,0,0-.205.183,1.428,1.428,0,0,1-.7.435,1.632,1.632,0,0,0-.642.373,1.4,1.4,0,0,1-.616.355,1.646,1.646,0,0,0,.6-.377,1.659,1.659,0,0,1,.656-.38,1.342,1.342,0,0,0,.675-.424,1.132,1.132,0,0,1,.219-.191.493.493,0,0,1,.45-.072l.039.06c-.007.039-.045.042-.094.047a.374.374,0,0,0-.255.09,1.236,1.236,0,0,0-.147.163,1.419,1.419,0,0,1-.73.549,1.591,1.591,0,0,0-.62.411,1.9,1.9,0,0,1-.658.45Z" transform="translate(3489.591 -724.063)" fill="#7a361d"/>
                </g>
                <path id="Trazado_2408" data-name="Trazado 2408" d="M-3487.873,734.345c.538-.254.652-.664,1.174-.807-.447.029-.623.476-1.209.7Z" transform="translate(3517.253 -718.879)" fill="#7a361d"/>
                <path id="Trazado_2409" data-name="Trazado 2409" d="M-3536.707,718.9l-3.271-3.034s-.059-.057-.094-.018.016.1.016.1l3.032,3.265Z" transform="translate(3564.877 -702.721)" fill="#f1bd51"/>
                <g id="Grupo_1152" data-name="Grupo 1152" transform="translate(24.779 13.102)">
                  <path id="Trazado_2410" data-name="Trazado 2410" d="M-3537.139,719.084l-3.055-3.256c-.02-.023-.056-.077-.013-.116s.091,0,.114.016l3.267,3.034-.016.02-3.267-3.032s-.056-.046-.085-.02.016.08.023.08l3.032,3.273Z" transform="translate(3540.227 -715.695)" fill="#7a361d"/>
                </g>
                <path id="Trazado_2411" data-name="Trazado 2411" d="M-3525.687,730.089l-2.243-2.082,2.08,2.24Z" transform="translate(3553.783 -713.83)" fill="#7a361d"/>
                <path id="Trazado_2412" data-name="Trazado 2412" d="M-3529.964,711.629c-.208-.579-.688-.746-.857-1.273a1.923,1.923,0,0,0-.708-.872c-.147-.17-.062-.344-.134-.349s-.127.207.023.469.411.258.619.9.567.662.73,1.26Z" transform="translate(3557.254 -696.605)" fill="#f1bd51"/>
                <g id="Grupo_1153" data-name="Grupo 1153" transform="translate(25.507 12.514)">
                  <path id="Trazado_2413" data-name="Trazado 2413" d="M-3530.417,711.59a1.824,1.824,0,0,0-.375-.6,1.658,1.658,0,0,1-.382-.646,1.376,1.376,0,0,0-.424-.685.81.81,0,0,1-.192-.214.487.487,0,0,1-.068-.45l.062-.042c.036,0,.042.047.042.1a.441.441,0,0,0,.092.259,1.247,1.247,0,0,0,.169.147,1.428,1.428,0,0,1,.545.73,1.608,1.608,0,0,0,.411.613,2.076,2.076,0,0,1,.453.659l-.03.01a1.837,1.837,0,0,0-.447-.651,1.609,1.609,0,0,1-.414-.626,1.456,1.456,0,0,0-.538-.714,2.209,2.209,0,0,1-.169-.148.466.466,0,0,1-.1-.277c-.007-.047-.007-.067-.023-.068a.409.409,0,0,0,.036.45,1,1,0,0,0,.189.207,1.435,1.435,0,0,1,.43.694,1.661,1.661,0,0,0,.372.641,1.42,1.42,0,0,1,.359.619Z" transform="translate(3531.887 -708.949)" fill="#7a361d"/>
                </g>
                <path id="Trazado_2414" data-name="Trazado 2414" d="M-3521.656,724.862c-.261-.536-.671-.649-.818-1.172.033.447.486.621.7,1.211Z" transform="translate(3548.802 -709.89)" fill="#7a361d"/>
                <path id="Trazado_2415" data-name="Trazado 2415" d="M-3504.985,751.285l3.27,3.032s.059.059.1.023-.023-.1-.023-.1l-3.032-3.27Z" transform="translate(3532.839 -734.79)" fill="#f1bd51"/>
                <g id="Grupo_1154" data-name="Grupo 1154" transform="translate(27.844 16.19)">
                  <path id="Trazado_2416" data-name="Trazado 2416" d="M-3501.753,754.453a.1.1,0,0,1-.072-.023l-3.273-3.029.016-.019,3.273,3.029s.049.054.078.02-.016-.078-.016-.078l-3.032-3.269,3.049,3.249c.026.028.055.081.02.117a.17.17,0,0,1-.042,0Z" transform="translate(3505.098 -751.083)" fill="#7a361d"/>
                </g>
                <path id="Trazado_2417" data-name="Trazado 2417" d="M-3504.09,752.025l2.247,2.083-2.083-2.242Z" transform="translate(3532.022 -735.609)" fill="#7a361d"/>
                <path id="Trazado_2418" data-name="Trazado 2418" d="M-3494.935,766.464c.219.575.7.742.861,1.272a1.92,1.92,0,0,0,.707.867c.153.173.062.347.134.352s.134-.2-.026-.47-.4-.261-.61-.9-.577-.665-.733-1.26Z" transform="translate(3523.666 -748.807)" fill="#f1bd51"/>
                <g id="Grupo_1155" data-name="Grupo 1155" transform="translate(28.718 17.523)">
                  <path id="Trazado_2419" data-name="Trazado 2419" d="M-3493.369,769c-.042,0-.042-.046-.049-.094a.447.447,0,0,0-.091-.259,1.263,1.263,0,0,0-.163-.142,1.42,1.42,0,0,1-.551-.733,1.55,1.55,0,0,0-.411-.615,2.046,2.046,0,0,1-.45-.655l.026-.011a1.922,1.922,0,0,0,.447.649,1.563,1.563,0,0,1,.414.626,1.483,1.483,0,0,0,.541.721.8.8,0,0,1,.166.147.389.389,0,0,1,.095.272c.007.054.013.069.026.069a.384.384,0,0,0-.036-.445,1.013,1.013,0,0,0-.183-.212,1.351,1.351,0,0,1-.43-.691,1.633,1.633,0,0,0-.382-.642,1.4,1.4,0,0,1-.349-.618,1.586,1.586,0,0,0,.375.6,1.75,1.75,0,0,1,.382.649,1.349,1.349,0,0,0,.421.68.931.931,0,0,1,.189.215.48.48,0,0,1,.072.452l-.059.038Z" transform="translate(3495.084 -766.366)" fill="#7a361d"/>
                </g>
                <path id="Trazado_2420" data-name="Trazado 2420" d="M-3493.178,768.064c.251.536.665.647.812,1.172-.033-.45-.479-.621-.7-1.208Z" transform="translate(3522.062 -750.36)" fill="#7a361d"/>
                <path id="Trazado_2421" data-name="Trazado 2421" d="M-3521.84,751.792l-1.549,4.183s-.03.077.02.1.085-.054.085-.054l1.855-4.053Z" transform="translate(3549.645 -735.54)" fill="#f1bd51"/>
                <g id="Grupo_1156" data-name="Grupo 1156" transform="translate(26.237 16.247)">
                  <path id="Trazado_2422" data-name="Trazado 2422" d="M-3523.439,756.034c-.091-.023-.078-.085-.065-.117l1.546-4.181.026.011-1.549,4.18s-.023.067.01.081l.069-.051,1.859-4.051-1.836,4.066a.112.112,0,0,1-.059.062Z" transform="translate(3523.514 -751.735)" fill="#7a361d"/>
                </g>
                <path id="Trazado_2423" data-name="Trazado 2423" d="M-3515.5,752.3l-1.073,2.869,1.271-2.785Z" transform="translate(3543.413 -736)" fill="#7a361d"/>
                <path id="Trazado_2424" data-name="Trazado 2424" d="M-3531.229,766.2c-.45.419-.424.924-.848,1.28a2,2,0,0,0-.535.99c-.1.2-.293.189-.271.254s.241.042.424-.2.085-.476.6-.913.388-.778.877-1.156Z" transform="translate(3558.304 -748.688)" fill="#f1bd51"/>
                <g id="Grupo_1157" data-name="Grupo 1157" transform="translate(25.405 17.497)">
                  <path id="Trazado_2425" data-name="Trazado 2425" d="M-3532.965,768.646a.092.092,0,0,1-.023,0l-.062-.037c-.016-.039.026-.059.068-.078a.437.437,0,0,0,.206-.186,1.144,1.144,0,0,0,.072-.21,1.433,1.433,0,0,1,.466-.783,1.71,1.71,0,0,0,.411-.615,1.879,1.879,0,0,1,.43-.668l.02.021a1.976,1.976,0,0,0-.43.655,1.559,1.559,0,0,1-.418.623,1.483,1.483,0,0,0-.457.774,1.262,1.262,0,0,1-.072.214.4.4,0,0,1-.218.2c-.042.023-.059.033-.052.047.108.032.258-.021.4-.207a.841.841,0,0,0,.121-.249,1.424,1.424,0,0,1,.479-.664,1.7,1.7,0,0,0,.447-.595,1.442,1.442,0,0,1,.437-.563,1.766,1.766,0,0,0-.411.572,1.715,1.715,0,0,1-.456.606,1.39,1.39,0,0,0-.469.65.972.972,0,0,1-.124.258.529.529,0,0,1-.362.24Z" transform="translate(3533.054 -766.067)" fill="#7a361d"/>
                </g>
                <path id="Trazado_2426" data-name="Trazado 2426" d="M-3521.886,768.028c-.4.437-.346.859-.776,1.2.4-.2.392-.681.848-1.11Z" transform="translate(3548.974 -750.36)" fill="#7a361d"/>
                <path id="Trazado_2427" data-name="Trazado 2427" d="M-3505.135,708.978l1.558-4.182s.03-.075-.026-.1-.078.054-.078.054l-1.865,4.051Z" transform="translate(3533.351 -692.553)" fill="#f1bd51"/>
                <g id="Grupo_1158" data-name="Grupo 1158" transform="translate(27.818 12.134)">
                  <path id="Trazado_2428" data-name="Trazado 2428" d="M-3504.979,708.888l-.03-.008,1.549-4.182s.029-.062-.007-.078l-.065.047-1.865,4.053,1.833-4.062a.157.157,0,0,1,.062-.062l.078.031a.14.14,0,0,1-.007.083l-1.548,4.178Z" transform="translate(3505.396 -704.596)" fill="#7a361d"/>
                </g>
                <path id="Trazado_2429" data-name="Trazado 2429" d="M-3504.076,723.271-3503,720.4l-1.272,2.783Z" transform="translate(3532.191 -706.89)" fill="#7a361d"/>
                <path id="Trazado_2430" data-name="Trazado 2430" d="M-3495.015,712.647c.446-.421.424-.927.848-1.28a1.906,1.906,0,0,0,.525-.991c.111-.2.3-.186.28-.253s-.241-.044-.424.2-.085.476-.6.913-.4.781-.884,1.158Z" transform="translate(3523.971 -697.478)" fill="#f1bd51"/>
                <g id="Grupo_1159" data-name="Grupo 1159" transform="translate(28.715 12.599)">
                  <path id="Trazado_2431" data-name="Trazado 2431" d="M-3494.872,712.511l-.019-.02a1.864,1.864,0,0,0,.43-.662,1.518,1.518,0,0,1,.417-.621,1.423,1.423,0,0,0,.46-.773,1.317,1.317,0,0,1,.072-.21.44.44,0,0,1,.215-.2c.039-.023.065-.033.059-.047a.388.388,0,0,0-.4.207.985.985,0,0,0-.131.249,1.332,1.332,0,0,1-.476.667,1.662,1.662,0,0,0-.443.592,1.388,1.388,0,0,1-.434.562,1.884,1.884,0,0,0,.411-.575,1.628,1.628,0,0,1,.447-.6,1.376,1.376,0,0,0,.473-.652,1.189,1.189,0,0,1,.127-.259c.134-.181.29-.256.388-.238l.059.041c.013.037-.023.057-.065.078a.364.364,0,0,0-.205.184.835.835,0,0,0-.072.207,1.432,1.432,0,0,1-.466.787,1.659,1.659,0,0,0-.414.611,1.87,1.87,0,0,1-.434.67Z" transform="translate(3495.12 -709.929)" fill="#7a361d"/>
                </g>
                <path id="Trazado_2432" data-name="Trazado 2432" d="M-3493.324,725.056c.4-.437.346-.861.776-1.2-.407.2-.395.678-.854,1.112Z" transform="translate(3522.267 -710.044)" fill="#7a361d"/>
                <path id="Trazado_2433" data-name="Trazado 2433" d="M-3546.994,734.1l-4.18-1.55s-.075-.033-.1.018.062.085.062.085l4.049,1.859Z" transform="translate(3575.089 -717.969)" fill="#f1bd51"/>
                <g id="Grupo_1160" data-name="Grupo 1160" transform="translate(23.801 14.558)">
                  <path id="Trazado_2434" data-name="Trazado 2434" d="M-3547.3,734.355l-4.059-1.836c-.033-.016-.085-.052-.069-.1a.09.09,0,0,1,.117-.024l4.18,1.549-.007.026-4.18-1.55c-.006,0-.068-.026-.085.011s.049.069.049.069l4.052,1.86Z" transform="translate(3551.433 -732.379)" fill="#7a361d"/>
                </g>
                <path id="Trazado_2435" data-name="Trazado 2435" d="M-3532.722,740.4l-2.869-1.073,2.785,1.278Z" transform="translate(3560.775 -724.165)" fill="#7a361d"/>
                <path id="Trazado_2436" data-name="Trazado 2436" d="M-3543.309,724.71c-.417-.453-.926-.424-1.281-.849a1.917,1.917,0,0,0-.988-.53c-.2-.1-.186-.3-.254-.274s-.049.24.206.424.473.085.909.6.78.393,1.161.88Z" transform="translate(3570.153 -709.311)" fill="#f1bd51"/>
                <g id="Grupo_1161" data-name="Grupo 1161" transform="translate(24.269 13.732)">
                  <path id="Trazado_2437" data-name="Trazado 2437" d="M-3543.737,724.824a1.7,1.7,0,0,0-.577-.411,1.692,1.692,0,0,1-.6-.453,1.36,1.36,0,0,0-.649-.47.952.952,0,0,1-.261-.125.5.5,0,0,1-.241-.39l.042-.055c.036-.016.062.02.082.065a.4.4,0,0,0,.186.205,1.031,1.031,0,0,0,.2.067,1.434,1.434,0,0,1,.792.469,1.607,1.607,0,0,0,.613.409,1.867,1.867,0,0,1,.671.437l-.023.02a1.953,1.953,0,0,0-.655-.434,1.614,1.614,0,0,1-.629-.414,1.4,1.4,0,0,0-.776-.458,1.7,1.7,0,0,1-.206-.07.444.444,0,0,1-.2-.217c-.02-.044-.029-.065-.049-.057-.029.106.023.261.212.4a1.025,1.025,0,0,0,.248.122,1.357,1.357,0,0,1,.665.478,1.613,1.613,0,0,0,.594.445,1.4,1.4,0,0,1,.564.437Z" transform="translate(3546.07 -722.916)" fill="#7a361d"/>
                </g>
                <path id="Trazado_2438" data-name="Trazado 2438" d="M-3530.915,734.066c-.44-.394-.864-.347-1.2-.771.2.4.678.388,1.115.849Z" transform="translate(3557.602 -718.657)" fill="#7a361d"/>
                <path id="Trazado_2439" data-name="Trazado 2439" d="M-3504.126,750.839l4.18,1.55s.072.034.1-.02-.056-.082-.056-.082l-4.056-1.86Z" transform="translate(3532.055 -734.295)" fill="#f1bd51"/>
                <g id="Grupo_1162" data-name="Grupo 1162" transform="translate(27.923 16.144)">
                  <path id="Trazado_2440" data-name="Trazado 2440" d="M-3499.965,752.532a.2.2,0,0,1-.055-.011l-4.18-1.549.01-.025,4.183,1.549s.058.024.078-.013-.049-.065-.049-.065l-4.053-1.86,4.066,1.836c.029.015.085.052.062.1a.065.065,0,0,1-.062.039Z" transform="translate(3504.201 -750.558)" fill="#7a361d"/>
                </g>
                <path id="Trazado_2441" data-name="Trazado 2441" d="M-3503.678,751.829l2.869,1.066-2.784-1.271Z" transform="translate(3531.646 -735.387)" fill="#7a361d"/>
                <path id="Trazado_2442" data-name="Trazado 2442" d="M-3489.776,760.936c.424.451.932.424,1.281.848a1.918,1.918,0,0,0,.988.53c.205.1.186.3.261.274.059-.023.039-.241-.209-.426s-.469-.08-.906-.593-.786-.393-1.161-.884Z" transform="translate(3518.957 -743.657)" fill="#f1bd51"/>
                <g id="Grupo_1163" data-name="Grupo 1163" transform="translate(29.175 17.036)">
                  <path id="Trazado_2443" data-name="Trazado 2443" d="M-3487.328,762.689c-.032,0-.049-.036-.068-.073a.415.415,0,0,0-.179-.2,1.341,1.341,0,0,0-.212-.072,1.409,1.409,0,0,1-.783-.463,1.58,1.58,0,0,0-.616-.409,1.923,1.923,0,0,1-.665-.435l.016-.02a1.9,1.9,0,0,0,.662.43,1.611,1.611,0,0,1,.623.414,1.415,1.415,0,0,0,.773.458,1.265,1.265,0,0,1,.209.072.431.431,0,0,1,.2.215c.023.05.029.06.049.055.029-.1-.02-.259-.209-.4a.9.9,0,0,0-.254-.119,1.411,1.411,0,0,1-.665-.478,1.567,1.567,0,0,0-.594-.445,1.408,1.408,0,0,1-.554-.439,1.705,1.705,0,0,0,.574.414,1.63,1.63,0,0,1,.6.452,1.346,1.346,0,0,0,.652.469.773.773,0,0,1,.254.125.472.472,0,0,1,.241.39l-.036.057a.042.042,0,0,1-.017,0Z" transform="translate(3489.851 -760.779)" fill="#7a361d"/>
                </g>
                <path id="Trazado_2444" data-name="Trazado 2444" d="M-3487.909,762.649c.434.4.858.344,1.193.776-.2-.4-.678-.394-1.109-.851Z" transform="translate(3517.253 -745.382)" fill="#7a361d"/>
                <path id="Trazado_2445" data-name="Trazado 2445" d="M-3547.16,750.428l-4.049,1.86s-.078.029-.062.082.1.02.1.02l4.18-1.55Z" transform="translate(3575.089 -734.295)" fill="#f1bd51"/>
                <g id="Grupo_1164" data-name="Grupo 1164" transform="translate(23.801 16.12)">
                  <path id="Trazado_2446" data-name="Trazado 2446" d="M-3551.361,752.278a.071.071,0,0,1-.069-.039c-.016-.047.036-.087.069-.1l4.049-1.86.01.024-4.052,1.86s-.062.029-.049.065.078.013.085.013l4.18-1.549-4.174,1.573a.153.153,0,0,1-.049.011Z" transform="translate(3551.433 -750.279)" fill="#7a361d"/>
                </g>
                <path id="Trazado_2447" data-name="Trazado 2447" d="M-3532.807,751.624l-2.785,1.271,2.869-1.066Z" transform="translate(3560.775 -735.387)" fill="#7a361d"/>
                <path id="Trazado_2448" data-name="Trazado 2448" d="M-3551.183,754.641c-.616-.023-.956.355-1.51.307a1.928,1.928,0,0,0-1.07.323c-.218.072-.346-.078-.375-.011s.14.2.44.153.4-.275,1.066-.223.832-.275,1.448-.192Z" transform="translate(3577.707 -738.139)" fill="#f1bd51"/>
                <g id="Grupo_1165" data-name="Grupo 1165" transform="translate(23.553 16.487)">
                  <path id="Trazado_2449" data-name="Trazado 2449" d="M-3553.932,755.3a.411.411,0,0,1-.326-.116l-.016-.069c.023-.037.059-.023.107-.007a.4.4,0,0,0,.271.015,1.1,1.1,0,0,0,.2-.1,1.462,1.462,0,0,1,.881-.23,1.54,1.54,0,0,0,.727-.143,1.9,1.9,0,0,1,.782-.161v.028a2,2,0,0,0-.776.158,1.611,1.611,0,0,1-.733.147,1.408,1.408,0,0,0-.871.228,1.771,1.771,0,0,1-.2.095.436.436,0,0,1-.29-.013c-.055-.02-.068-.02-.072-.01.055.1.192.173.427.137a.924.924,0,0,0,.261-.088,1.36,1.36,0,0,1,.8-.134,1.663,1.663,0,0,0,.74-.1,1.425,1.425,0,0,1,.708-.09,1.68,1.68,0,0,0-.7.116,1.7,1.7,0,0,1-.747.106,1.345,1.345,0,0,0-.792.13,1.012,1.012,0,0,1-.267.095c-.042,0-.085.007-.121.007Z" transform="translate(3554.275 -754.487)" fill="#7a361d"/>
                </g>
                <path id="Trazado_2450" data-name="Trazado 2450" d="M-3536.06,756c-.593.031-.851.367-1.4.3.43.145.756-.2,1.392-.182Z" transform="translate(3562.48 -739.377)" fill="#7a361d"/>
                <path id="Trazado_2451" data-name="Trazado 2451" d="M-3503.96,734.512l4.056-1.859s.078-.031.056-.085-.1-.018-.1-.018l-4.18,1.55Z" transform="translate(3532.055 -717.969)" fill="#f1bd51"/>
                <g id="Grupo_1166" data-name="Grupo 1166" transform="translate(27.932 14.558)">
                  <path id="Trazado_2452" data-name="Trazado 2452" d="M-3503.92,734.379l-.01-.024,4.053-1.86s.068-.028.049-.069-.078-.011-.078-.011l-4.183,1.55,4.17-1.575c.032-.015.1-.023.117.024s-.032.088-.062.1l-4.056,1.86Z" transform="translate(3504.09 -732.379)" fill="#7a361d"/>
                </g>
                <path id="Trazado_2453" data-name="Trazado 2453" d="M-3503.593,740.607l2.784-1.278-2.869,1.073Z" transform="translate(3531.646 -724.165)" fill="#7a361d"/>
                <path id="Trazado_2454" data-name="Trazado 2454" d="M-3486.04,742.742c.61.024.955-.357,1.506-.3a1.92,1.92,0,0,0,1.07-.325c.218-.067.345.077.378.013s-.14-.2-.45-.156-.391.277-1.063.223-.831.274-1.441.192Z" transform="translate(3515.547 -726.567)" fill="#f1bd51"/>
                <g id="Grupo_1167" data-name="Grupo 1167" transform="translate(29.507 15.379)">
                  <path id="Trazado_2455" data-name="Trazado 2455" d="M-3485.988,742.6h-.052v-.028a1.909,1.909,0,0,0,.769-.161,1.611,1.611,0,0,1,.737-.144,1.421,1.421,0,0,0,.871-.228,1.187,1.187,0,0,1,.2-.1.426.426,0,0,1,.293.015c.045.018.065.021.065.007-.049-.1-.192-.17-.424-.139a.81.81,0,0,0-.261.091,1.377,1.377,0,0,1-.809.132,1.614,1.614,0,0,0-.734.107,1.47,1.47,0,0,1-.708.088,1.683,1.683,0,0,0,.694-.117,1.767,1.767,0,0,1,.747-.106,1.351,1.351,0,0,0,.792-.127.832.832,0,0,1,.271-.094.474.474,0,0,1,.45.109l.01.068c-.016.036-.059.023-.108.006a.4.4,0,0,0-.274-.015,1.306,1.306,0,0,0-.192.095,1.436,1.436,0,0,1-.89.23,1.546,1.546,0,0,0-.721.145,2,2,0,0,1-.727.161Z" transform="translate(3486.04 -741.794)" fill="#7a361d"/>
                </g>
                <path id="Trazado_2456" data-name="Trazado 2456" d="M-3484.844,746.042c.59-.026.851-.362,1.389-.3-.424-.145-.756.207-1.386.187Z" transform="translate(3514.455 -729.988)" fill="#7a361d"/>
                <path id="Trazado_2457" data-name="Trazado 2457" d="M-3521.429,708.805l-1.855-4.051s-.033-.077-.085-.054-.02.1-.02.1l1.549,4.182Z" transform="translate(3549.645 -692.553)" fill="#f1bd51"/>
                <g id="Grupo_1168" data-name="Grupo 1168" transform="translate(26.236 12.134)">
                  <path id="Trazado_2458" data-name="Trazado 2458" d="M-3521.952,708.88l-1.572-4.17a.136.136,0,0,1-.007-.082l.072-.033a.109.109,0,0,1,.059.062l1.858,4.051-.023.011-1.894-4.111-.032.011-.01.078,1.549,4.182Z" transform="translate(3523.535 -704.596)" fill="#7a361d"/>
                </g>
                <path id="Trazado_2459" data-name="Trazado 2459" d="M-3515.3,723.186l-1.271-2.783,1.073,2.867Z" transform="translate(3543.413 -706.89)" fill="#7a361d"/>
                <path id="Trazado_2460" data-name="Trazado 2460" d="M-3513.177,704.768c.022-.618-.355-.957-.31-1.506a1.943,1.943,0,0,0-.326-1.076c-.065-.215.078-.339.02-.372s-.205.138-.156.442.277.394.222,1.068.274.828.2,1.443Z" transform="translate(3541.031 -689.92)" fill="#f1bd51"/>
                <g id="Grupo_1169" data-name="Grupo 1169" transform="translate(27.058 11.881)">
                  <path id="Trazado_2461" data-name="Trazado 2461" d="M-3513.3,704.666h-.029a1.99,1.99,0,0,0-.16-.771,1.63,1.63,0,0,1-.15-.737,1.412,1.412,0,0,0-.225-.869,1.641,1.641,0,0,1-.1-.2.464.464,0,0,1,.019-.3c.013-.047.02-.065.007-.072-.1.052-.17.2-.141.426a1.237,1.237,0,0,0,.092.266,1.361,1.361,0,0,1,.134.805,1.729,1.729,0,0,0,.1.735,1.422,1.422,0,0,1,.088.707,1.787,1.787,0,0,0-.114-.7,1.713,1.713,0,0,1-.108-.745,1.328,1.328,0,0,0-.127-.792.871.871,0,0,1-.091-.269.486.486,0,0,1,.1-.445l.075-.015c.036.018.023.059.006.108a.386.386,0,0,0-.019.274,1.636,1.636,0,0,0,.1.2,1.473,1.473,0,0,1,.228.885,1.55,1.55,0,0,0,.147.725,1.956,1.956,0,0,1,.163.779Z" transform="translate(3514.107 -701.699)" fill="#7a361d"/>
                </g>
                <path id="Trazado_2462" data-name="Trazado 2462" d="M-3509.9,719.928c-.03-.593-.362-.854-.3-1.394-.143.425.206.758.189,1.389Z" transform="translate(3537.637 -705.184)" fill="#7a361d"/>
                <path id="Trazado_2463" data-name="Trazado 2463" d="M-3505.546,751.965l1.865,4.053s.029.077.078.054.026-.1.026-.1l-1.558-4.183Z" transform="translate(3533.351 -735.54)" fill="#f1bd51"/>
                <g id="Grupo_1170" data-name="Grupo 1170" transform="translate(27.792 16.258)">
                  <path id="Trazado_2464" data-name="Trazado 2464" d="M-3503.734,756.154a.156.156,0,0,1-.1-.062l-1.858-4.054.026-.011,1.865,4.051s.03.069.065.051.007-.08.007-.081l-1.549-4.18,1.578,4.17c.013.033.026.095-.03.117Z" transform="translate(3505.697 -751.867)" fill="#7a361d"/>
                </g>
                <path id="Trazado_2465" data-name="Trazado 2465" d="M-3504.275,752.38l1.272,2.785-1.073-2.869Z" transform="translate(3532.191 -736)" fill="#7a361d"/>
                <path id="Trazado_2466" data-name="Trazado 2466" d="M-3501.3,769.859c-.026.616.355.957.307,1.508a2.051,2.051,0,0,0,.319,1.078c.075.214-.078.339-.01.37s.2-.142.156-.445-.277-.393-.225-1.066-.271-.828-.192-1.439Z" transform="translate(3529.477 -752.031)" fill="#f1bd51"/>
                <g id="Grupo_1171" data-name="Grupo 1171" transform="translate(28.156 17.828)">
                  <path id="Trazado_2467" data-name="Trazado 2467" d="M-3500.894,772.829c-.042-.02-.022-.064-.006-.106a.4.4,0,0,0,.013-.277,1.309,1.309,0,0,0-.1-.2,1.516,1.516,0,0,1-.232-.884,1.57,1.57,0,0,0-.136-.722,1.927,1.927,0,0,1-.17-.783l.03,0a1.927,1.927,0,0,0,.163.771,1.568,1.568,0,0,1,.147.735,1.453,1.453,0,0,0,.222.871.822.822,0,0,1,.1.2.411.411,0,0,1-.013.294c-.017.046-.017.062,0,.072a.4.4,0,0,0,.133-.432.8.8,0,0,0-.091-.262,1.424,1.424,0,0,1-.127-.805,1.669,1.669,0,0,0-.111-.735,1.46,1.46,0,0,1-.088-.708,1.767,1.767,0,0,0,.118.7,1.678,1.678,0,0,1,.1.745,1.39,1.39,0,0,0,.127.794.963.963,0,0,1,.1.271.51.51,0,0,1-.107.445l-.069.015Z" transform="translate(3501.525 -769.859)" fill="#7a361d"/>
                </g>
                <path id="Trazado_2468" data-name="Trazado 2468" d="M-3499.942,771.074c.033.592.365.854.3,1.394.144-.429-.2-.758-.183-1.386Z" transform="translate(3528.236 -753.14)" fill="#7a361d"/>
                <path id="Trazado_2469" data-name="Trazado 2469" d="M-3522.187,731.986a1.81,1.81,0,0,1,1.813,1.811,1.812,1.812,0,0,1-1.813,1.818,1.816,1.816,0,0,1-1.819-1.818,1.813,1.813,0,0,1,1.819-1.811Z" transform="translate(3550.201 -717.462)" fill="#f1bd51"/>
                <g id="Grupo_1172" data-name="Grupo 1172" transform="translate(26.185 14.509)">
                  <path id="Trazado_2470" data-name="Trazado 2470" d="M-3522.289,735.476a1.83,1.83,0,0,1-1.829-1.832,1.83,1.83,0,0,1,1.829-1.826,1.835,1.835,0,0,1,1.833,1.826,1.835,1.835,0,0,1-1.833,1.832Zm0-3.631a1.807,1.807,0,0,0-1.806,1.8,1.809,1.809,0,0,0,1.806,1.806,1.8,1.8,0,0,0,1.8-1.806,1.8,1.8,0,0,0-1.8-1.8Z" transform="translate(3524.118 -731.818)" fill="#7a361d"/>
                </g>
                <path id="Trazado_2471" data-name="Trazado 2471" d="M-3501.452,744.934a.729.729,0,0,0-.956-.108.584.584,0,0,0,.049.739.147.147,0,0,0-.062.023.964.964,0,0,1-.072-.792.677.677,0,0,1,1.04.138Z" transform="translate(3530.614 -728.987)" fill="#7a361d"/>
                <path id="Trazado_2472" data-name="Trazado 2472" d="M-3500.549,747.327a.372.372,0,0,0-.31.112c-.085.072-.127.056-.143.072s0,.055.029.041a.818.818,0,0,0,.17-.112.353.353,0,0,1,.254-.069c.248,0,.388.209.417.2s-.144-.239-.417-.239Z" transform="translate(3529.209 -731.465)" fill="#7a361d"/>
                <path id="Trazado_2473" data-name="Trazado 2473" d="M-3498.989,748.5a.417.417,0,0,0-.652.013h.056c.14-.223.479-.129.5-.028v.028Z" transform="translate(3527.962 -732.396)" fill="#7a361d"/>
                <path id="Trazado_2474" data-name="Trazado 2474" d="M-3497.423,748.448a.132.132,0,0,1,.127.127.13.13,0,0,1-.127.126.128.128,0,0,1-.127-.126.129.129,0,0,1,.127-.127Z" transform="translate(3526.053 -732.488)" fill="#7a361d"/>
                <path id="Trazado_2475" data-name="Trazado 2475" d="M-3499.641,749.932a.563.563,0,0,0,.652-.013l-.095-.015a.37.37,0,0,1-.5.028V749.9Z" transform="translate(3527.962 -733.817)" fill="#7a361d"/>
                <path id="Trazado_2476" data-name="Trazado 2476" d="M-3499.712,750.584a.555.555,0,0,1-.616.085c-.14-.085-.14-.111-.111-.111s.055.026.169.082a.707.707,0,0,0,.558-.056Z" transform="translate(3528.704 -734.414)" fill="#7a361d"/>
                <path id="Trazado_2477" data-name="Trazado 2477" d="M-3503.135,755.7a.077.077,0,0,1,.049.1.078.078,0,0,1-.1.051.083.083,0,0,1-.062-.073.209.209,0,0,1-.179.111h-.026l.026.042a.289.289,0,0,0,.166-.042.129.129,0,0,0,.176.034.127.127,0,0,0,.03-.179.1.1,0,0,0-.078-.047Z" transform="translate(3531.442 -739.105)" fill="#7a361d"/>
                <path id="Trazado_2478" data-name="Trazado 2478" d="M-3502.972,760.184c-.121-.083-.179-.209-.32-.209a.323.323,0,0,0-.137.044h-.026l.026.039c.052,0,.137-.068.241-.013s.15.111.215.139Z" transform="translate(3531.442 -743.009)" fill="#7a361d"/>
                <path id="Trazado_2479" data-name="Trazado 2479" d="M-3503.007,761.888a.752.752,0,0,0-.421-.028h-.026l.026.059c.107,0,.166-.085.421-.031Z" transform="translate(3531.442 -744.713)" fill="#7a361d"/>
                <path id="Trazado_2480" data-name="Trazado 2480" d="M-3502.972,762.337c-.3-.028-.206.155-.456.155h-.026l.026.042c.306,0,.166-.166.456-.2Z" transform="translate(3531.442 -745.163)" fill="#7a361d"/>
                <path id="Trazado_2481" data-name="Trazado 2481" d="M-3505.565,764.878a.252.252,0,0,0-.251-.249.255.255,0,0,0-.255.249.256.256,0,0,1,.313-.187.248.248,0,0,1,.192.188Z" transform="translate(3533.83 -747.257)" fill="#7a361d"/>
                <path id="Trazado_2482" data-name="Trazado 2482" d="M-3516.308,744.934a.725.725,0,0,1,.952-.108.591.591,0,0,1-.042.739.159.159,0,0,1,.055.023.951.951,0,0,0,.072-.792.673.673,0,0,0-1.037.138Z" transform="translate(3543.174 -728.987)" fill="#7a361d"/>
                <path id="Trazado_2483" data-name="Trazado 2483" d="M-3514.951,747.327a.377.377,0,0,1,.306.112c.081.072.121.056.14.072s0,.055-.029.041a.917.917,0,0,1-.169-.112.346.346,0,0,0-.248-.069c-.251,0-.388.209-.421.2s.14-.239.421-.239Z" transform="translate(3542.323 -731.465)" fill="#7a361d"/>
                <path id="Trazado_2484" data-name="Trazado 2484" d="M-3514.217,748.5a.423.423,0,0,1,.659.013h-.059c-.14-.223-.473-.129-.5-.028v.028Z" transform="translate(3541.266 -732.396)" fill="#7a361d"/>
                <path id="Trazado_2485" data-name="Trazado 2485" d="M-3511.51,748.448a.127.127,0,0,0-.127.127.126.126,0,0,0,.127.126.124.124,0,0,0,.12-.126.126.126,0,0,0-.12-.127Z" transform="translate(3538.911 -732.488)" fill="#7a361d"/>
                <path id="Trazado_2486" data-name="Trazado 2486" d="M-3513.558,749.932a.573.573,0,0,1-.659-.013l.1-.015a.362.362,0,0,0,.5.028V749.9Z" transform="translate(3541.266 -733.817)" fill="#7a361d"/>
                <path id="Trazado_2487" data-name="Trazado 2487" d="M-3514.4,750.584a.555.555,0,0,0,.616.085c.141-.085.141-.111.111-.111s-.052.026-.167.082a.714.714,0,0,1-.561-.056Z" transform="translate(3541.435 -734.414)" fill="#7a361d"/>
                <path id="Trazado_2488" data-name="Trazado 2488" d="M-3507.611,755.7a.076.076,0,0,0-.046.1.074.074,0,0,0,.1.051.081.081,0,0,0,.055-.073.211.211,0,0,0,.183.111h.029l-.029.042a.3.3,0,0,1-.17-.042.122.122,0,0,1-.169.034.132.132,0,0,1-.039-.179.141.141,0,0,1,.085-.047Z" transform="translate(3535.332 -739.105)" fill="#7a361d"/>
                <path id="Trazado_2489" data-name="Trazado 2489" d="M-3508.461,760.184c.127-.083.183-.209.323-.209a.351.351,0,0,1,.14.044h.029l-.029.039c-.056,0-.14-.068-.238-.013s-.156.111-.225.139Z" transform="translate(3536.012 -743.009)" fill="#7a361d"/>
                <path id="Trazado_2490" data-name="Trazado 2490" d="M-3507.975,761.888a.754.754,0,0,1,.421-.028h.029l-.029.059c-.111,0-.169-.085-.421-.031Z" transform="translate(3535.568 -744.713)" fill="#7a361d"/>
                <path id="Trazado_2491" data-name="Trazado 2491" d="M-3508.461,762.337c.31-.028.208.155.463.155h.029l-.029.042c-.307,0-.17-.166-.463-.2Z" transform="translate(3536.012 -745.163)" fill="#7a361d"/>
                <path id="Trazado_2492" data-name="Trazado 2492" d="M-3506.07,764.878a.255.255,0,0,1,.255-.249.252.252,0,0,1,.251.249.253.253,0,0,0-.313-.187.259.259,0,0,0-.192.188Z" transform="translate(3533.83 -747.257)" fill="#7a361d"/>
              </g>
            </g>
          </g>
        </g>
      </g>
    </g>
  </g>
</svg>
