<svg xmlns="http://www.w3.org/2000/svg" xmlns:xlink="http://www.w3.org/1999/xlink" viewBox="0 0 345.62 253.99"><defs><style>.cls-1{isolation:isolate;}.cls-2{fill:#75c9df;}.cls-3{fill:#fff;}.cls-4{fill:#eee94d;}.cls-5{fill:#513b2f;}.cls-6{fill:#84533a;}.cls-7{mix-blend-mode:multiply;}.cls-7,.cls-8{fill:url(#linear-gradient);}.cls-8{opacity:0.25;mix-blend-mode:overlay;}</style><linearGradient id="linear-gradient" y1="126.99" x2="345.03" y2="126.99" gradientUnits="userSpaceOnUse"><stop offset="0" stop-color="#fff"/><stop offset="0.13" stop-color="#f7f7f7"/><stop offset="0.34" stop-color="#e0e0e0"/><stop offset="0.54" stop-color="#c4c5c5"/><stop offset="0.57" stop-color="#c1c2c3"/><stop offset="0.69" stop-color="#bebfc0"/><stop offset="0.91" stop-color="#fff"/></linearGradient></defs><g class="cls-1"><g id="Capa_2" data-name="Capa 2"><g id="Capa_1-2" data-name="Capa 1"><path class="cls-2" d="M345.52,18.62V235.15c-115-64.67-230,65-344.93.1V18.72C115.5,83.71,230.51-46,345.52,18.62Z"/><path class="cls-3" d="M345.62,89.93v72.86a.1.1,0,0,1-.1-.1c-115-64.77-229.92,65.08-344.93.1V89.93c115,65,229.92-64.87,344.93-.1A.1.1,0,0,0,345.62,89.93Z"/><path class="cls-4" d="M185.57,126.15a4.51,4.51,0,0,1-.21.78q9.58,1.75,19.14,3.75c-6.53-.69-13.07-1.27-19.6-1.79l-.16,0c-.11.24-.19.48-.27.67,5.62,2.49,11.25,5,16.89,7.58-6-2-11.92-3.88-17.86-5.74a5,5,0,0,0-.43.71c4.69,3.81,9.37,7.62,14.05,11.48q-7.69-4.95-15.36-9.79c-.09.15-.23.27-.31.42q5.51,7.29,11,14.61c-4.18-4.38-8.33-8.73-12.51-13.07-.22.18-.43.37-.63.55q3.58,8.75,7.16,17.52-4.41-8.16-8.82-16.29c-.16.09-.35.22-.55.33v0q1.68,9.93,3.39,19.84-2.58-9.37-5.17-18.75c0-.06,0-.12,0-.18a3.87,3.87,0,0,1-.73.31q-.47,10.66-.93,21.32c-.31-6.85-.61-13.68-.94-20.54v-.2a1,1,0,0,1-.42.12q-2.4,10.92-4.79,21.85,1.47-10.73,2.92-21.45c0-.05,0-.09,0-.13-.24,0-.5,0-.77,0q-4.41,10.75-8.86,21.53c2.35-7.19,4.73-14.38,7.08-21.58a.88.88,0,0,1,.06-.1l-.51-.12q-6.13,10.26-12.28,20.48,5.31-10.44,10.62-20.9s0-.06,0-.08c-.22-.09-.38-.21-.59-.28-5.15,6.15-10.3,12.3-15.45,18.38q7-9.55,14.05-19.22s0,0,0,0-.22-.19-.3-.29q-8.88,8-17.78,15.91c5.53-5.64,11.09-11.35,16.62-17.08l-.36-.53c-6.55,4.2-13.08,8.36-19.6,12.4q9.42-6.84,18.83-13.93a.29.29,0,0,1-.12-.26c-6.87,3-13.73,6-20.58,8.9q10-5.11,20.07-10.49a6.07,6.07,0,0,1-.08-.78c-6.93,1.61-13.87,3.17-20.8,4.6,6.89-2,13.76-4.22,20.66-6.44a2.69,2.69,0,0,1,0-.56c-6.75.32-13.48.59-20.23.74,6.81-.78,13.64-1.68,20.45-2.63a6.84,6.84,0,0,1,.24-.82c-6.26-1.18-12.54-2.38-18.83-3.69q9.71,1,19.44,1.77a1.94,1.94,0,0,1,.21-.47q-8.52-3.75-17-7.63c6,2,11.94,3.89,17.9,5.76.18-.26.3-.51.5-.78q-7.05-5.75-14.13-11.58c5.13,3.32,10.24,6.58,15.37,9.84a5.67,5.67,0,0,1,.39-.5c-3.69-4.87-7.36-9.73-11.05-14.64q6.26,6.6,12.53,13.13a9,9,0,0,1,.71-.63l-7.16-17.6q4.41,8.17,8.82,16.33a7.17,7.17,0,0,0,.69-.4c-1.14-6.51-2.25-13-3.37-19.5q2.58,9.27,5.13,18.57c.27-.1.57-.25.81-.31q.49-10.52.93-21c.33,6.82.63,13.64.94,20.45a2.75,2.75,0,0,1,.57-.12c1.54-7.17,3.1-14.37,4.66-21.55q-1.47,10.65-2.88,21.3a4.17,4.17,0,0,1,.79,0q4.38-10.65,8.74-21.29-3.5,10.71-7,21.45a2.17,2.17,0,0,1,.43.14q6.13-10.27,12.26-20.51-5.31,10.41-10.6,20.88l-.1.12a4.55,4.55,0,0,0,.65.28q7.75-9.27,15.53-18.47c-4.71,6.38-9.39,12.82-14.09,19.26,0,0-.08.11-.12.16a1.37,1.37,0,0,1,.32.25c6-5.37,11.94-10.72,17.9-16-5.53,5.62-11.09,11.31-16.62,17-.06,0-.1.12-.16.18.12.17.24.34.38.52h0c6.59-4.26,13.2-8.48,19.81-12.59q-9.44,6.85-18.88,13.93c-.08.05-.14.1-.22.14s.14.27.18.43c6.9-3,13.81-6,20.7-8.92-6.73,3.42-13.46,7-20.19,10.56,0,0-.06,0-.08,0a4.53,4.53,0,0,1,.08.75c7-1.64,14-3.22,21-4.66-6.93,2-13.86,4.23-20.8,6.47l-.16,0a1.77,1.77,0,0,1,0,.46c6.85-.31,13.69-.57,20.54-.71-6.9.77-13.79,1.67-20.66,2.62Z"/><path class="cls-5" d="M185.24,119.51v.1l.1-.1Zm-.1-.31v-.11H185C185,119.2,185,119.2,185.14,119.2Zm-13,20.65h.1v-.1h-.1ZM155.26,160.3c.2-.31.3-.72.51-1-.21.32-.41.73-.61,1Zm-14.74-17c.3-.21.71-.32,1-.52-.32.1-.73.31-1,.42Zm66.21-26-1.13.31c-2.19.73-4.36,1.34-6.55,2.07-2.7.83-5.39,1.66-8.09,2.59,5.29-1.66,10.48-3.32,15.77-4.87-.3.11-.63.11-.93.21Zm-21.39,2.28q9.82-4.35,19.63-8.41c.32-.21.73-.31,1-.51C199.05,113.39,192.32,116.4,185.34,119.51ZM205,111.1c-6.43,3.22-12.77,6.65-19.2,10.07,6.75-3.53,13.5-7,20.23-10.48C205.7,110.79,205.29,111,205,111.1Zm-19.63,15.78V127c6,1,12,2.27,18.07,3.53.42,0,.73.1,1.15.1Zm19.12,3.84c-.32-.1-.73-.1-1.05-.2-2.9-.32-5.8-.53-8.72-.73C197.91,130,201.24,130.42,204.46,130.72Zm-.22-25.64a14.6,14.6,0,0,1-1.77,1,13.46,13.46,0,0,0,1.67-1.15c-3.23,2.09-6.53,4.16-9.86,6.34-3.22,2-6.54,4-9.87,6.23l-.4-.42c2.79-2.9,5.59-5.7,8.41-8.62s5.59-5.7,8.39-8.5a17.62,17.62,0,0,0-1.44,1.34,19.49,19.49,0,0,1,1.34-1.45q-8.88,7.78-17.74,15.89h-.1c-.12,0-.12-.1-.22-.21,4.68-6.54,9.44-12.87,14.13-19.31-.43.52-.83.93-1.26,1.46.43-.53.73-1,1.16-1.57-5.19,6.13-10.28,12.15-15.47,18.37a.84.84,0,0,1-.43-.2l10.58-20.86a12.74,12.74,0,0,1-1,1.66,1.59,1.59,0,0,1,.2-.63c-3.83,6.44-7.78,12.88-11.51,19.31-.1,0-.2-.11-.31-.11,2.28-7.16,4.67-14.21,7-21.37-.21.41-.33.82-.53,1.24-2.27,6.75-4.46,13.5-6.63,20.24h-.12l.12.1c.2,0,.31.11.41.11h.1l.1-.11c3.53-5.91,6.95-11.83,10.6-17.64-3,6-6.14,11.94-9.14,18l-.1.1c0,.1,0,.1-.1.1.1,0,.1,0,.1.1a1.37,1.37,0,0,0,.73.21v.12l.1-.12v-.1c4.76-5.6,9.34-11.11,14-16.61-4.36,5.82-8.52,11.74-12.88,17.55v.11l.31.3h.12l9-8.09c2.39-2.19,4.79-4.37,7.26-6.44C194.08,106.53,189,111.82,183.9,117v.11a.84.84,0,0,0,.41.42c-.1.1,0,.1,0,.1v.11a.1.1,0,0,0,.1-.11c6-3.84,11.94-7.58,18-11.31-5.69,4-11.41,8.4-17.23,12.76H185c0,.11,0,.11.1.11s.1-.11.2-.21C191.59,114.32,197.91,109.66,204.24,105.08Zm-11.31,28.24c2.59,1.13,5.08,2.29,7.68,3.52a2,2,0,0,1,.73.2C198.54,135.81,195.72,134.45,192.93,133.32Zm8.41,3.84c-.2-.12-.53-.22-.73-.32-5.7-1.86-11.31-3.73-17.13-5.49C189.4,133.21,195.42,135.18,201.34,137.16Zm-11.31.61c2.06,1.67,4.05,3.33,6.12,5.09.3.21.73.42,1,.63C194.79,141.52,192.42,139.54,190,137.77Zm-5.29-8.91a.1.1,0,0,1,.1.1h.1c3.22.2,6.42.51,9.75.83-3.2-.42-6.53-.73-9.75-.93Zm-3.33,5.39q5.15,6.69,10.28,13.7c-3.85-4.15-7.89-8.31-11.74-12.24,0,0,0-.1-.1,0a1.22,1.22,0,0,0-.51.51h-.12v.11c2.19,5.4,4.48,10.79,6.65,16.28.2.43.43.73.63,1.16-2.39-5.92-4.79-11.64-7.16-17.44l.51-.52c4,4,8.09,8.3,12.14,12.56v-.11l.53.52c-3.75-4.88-7.38-9.75-11-14.63.1-.11.2-.21.2-.31-.2.1-.2.2-.3.31Zm4.36-10.48v.51h.1c3.33-.1,6.75-.31,10.08-.41-3.33,0-6.75.2-10.08.31v-.41Zm0-2.6h-.1v.1a1.18,1.18,0,0,0,.1.63v.1c6.65-1.56,13.28-3,19.83-4.46-6.55,1.34-13.08,2.8-19.73,4.36A1.87,1.87,0,0,1,185.77,121.17Zm-8.92-7.68h-.63q1.4-10.59,2.8-21.17c-.1.41-.2.82-.31,1.24a5.51,5.51,0,0,1-.2,1.25c-.83,6.33-1.66,12.56-2.49,18.78v.1H177v-.2c2.8-6.64,5.49-13.18,8.19-19.93.1-.42.32-.83.43-1.24C182.65,99.38,179.65,106.43,176.85,113.49Zm8.39,6v.1l.1-.1c-.1-.1-.1-.2-.2-.31C185.14,119.41,185.14,119.41,185.24,119.51Zm-.61,9.65c-.1.1-.22.21-.22.31v.11c2.92,1.24,5.72,2.49,8.52,3.74-2.8-1.35-5.6-2.6-8.4-3.85A.39.39,0,0,0,184.63,129.16Zm-2.92,4.57v.11c5.09,3.2,10.28,6.43,15.37,9.75-.3-.2-.63-.52-.93-.73-4.89-3.11-9.55-6.12-14.33-9.13Zm-6.42,5-.1.11c1.66,6,3.32,12,5,18,0-.3-.1-.73-.1-1-1.66-5.72-3.2-11.32-4.66-17Zm-1.14-24.91a.39.39,0,0,0-.32.1c-.31-6.43-.63-12.86-.93-19.2h-.11a4.4,4.4,0,0,1-.1-1.14q-.48,10.43-.93,20.86v.1a1.57,1.57,0,0,0-.63.21c-1.66-6.23-3.42-12.35-5.09-18.47.1.31.1.73.21,1a5.57,5.57,0,0,0,.22,1.25c1.44,5.39,3,10.89,4.46,16.4a.1.1,0,0,1,.1.1V115l.1-.1a1.18,1.18,0,0,0,.63-.22h.2v-.11c.31-6.22.53-12.45.83-18.67.31,6.12.53,12,.84,18.16v.11h.1a.86.86,0,0,1,.52-.11h.11v-.21c1.33-6.43,2.79-12.66,4.15-19,0-.42.1-.84.1-1.25C177.05,100.31,175.59,107.06,174.15,113.8Zm3.53,23.67s0-.1-.12,0a1.31,1.31,0,0,1-.41.3.78.78,0,0,0,.41-.2c2.92,5.39,5.92,10.8,8.84,16.3-.23-.42-.33-.83-.53-1.26-2.7-5.07-5.39-10.05-8.19-15Zm-.63.41c1,6,2,11.94,3,17.86.1.3.1.63.23.93s.2.73.3,1c-1.14-6.64-2.29-13.28-3.43-19.82v-.11h-.1ZM174.46,139v.1c-.31,6.33-.53,12.66-.83,19-.31-6.23-.53-12.36-.84-18.49v-.1h-.1a.82.82,0,0,1-.42.1v.11h-.1v.1c-1.44,6.75-3,13.71-4.46,20.45.93-6.74,1.86-13.38,2.79-20.13V140h-.93v.11c-2.7,6.75-5.59,13.59-8.29,20.33-.1.43-.32.83-.43,1.26,3-7.17,5.92-14.24,8.82-21.49h.63c-.93,7.15-2,14.32-2.9,21.49.1-.43.2-.83.31-1.26-.11.43-.11.83-.21,1.26,1.67-7.27,3.23-14.54,4.87-21.81a.38.38,0,0,1,.22-.1c.31,6.54.61,13.08.93,19.51h.11a4.44,4.44,0,0,1,.1,1.14c.3-7.16.63-14.11.93-21.27V139Zm-8.62-42.67c1.14,6.44,2.17,12.87,3.33,19.42a2.77,2.77,0,0,1-.53.3c-2.8-5.29-5.7-10.48-8.62-15.87,0,.2.1.3.1.51-.1-.31-.3-.51-.4-.83,2.39,5.91,4.76,11.63,7.15,17.55l-.3.31c-.1,0-.2.1-.32.31-4.14-4.37-8.3-8.73-12.45-13.19a4.08,4.08,0,0,0,.73.93c.2.32.51.73.73,1q5.44,5.61,10.88,11.21v.21l.11-.11a3,3,0,0,0,.62-.62H167a.1.1,0,0,0,.1-.1c-2.17-5.51-4.56-10.91-6.73-16.4,2.69,5.08,5.39,10.17,8.19,15.25h.1a2.3,2.3,0,0,0,.53-.41h.2v-.1c-1-5.82-2-11.43-2.9-17.23a8.62,8.62,0,0,0-.33-1C166,97.09,165.94,96.78,165.84,96.36ZM168,140v-.11h-.1a4.59,4.59,0,0,0-.51-.1v.1c-3.75,6.14-7.38,12.16-11,18.28,3.73-6,7.38-12.14,11.11-18.28a.37.37,0,0,0,.31.11v.11c-2.39,7.15-4.77,14.32-7.06,21.59.21-.43.31-.83.53-1.26,2.27-6.84,4.46-13.58,6.63-20.33Zm-2.17-.62v-.11a1.5,1.5,0,0,0-.63-.2h-.1c-2.59,3.1-5.19,6.12-7.68,9.23-2.39,2.7-4.67,5.51-6.85,8.21,5-5.82,9.87-11.53,14.63-17.34.21.1.33.1.53.21v.1c-3.33,6.65-6.65,13.17-10.08,19.72a5.3,5.3,0,0,0,.73-1c3.13-6.23,6.33-12.47,9.45-18.69ZM153.6,105.08c3.73,4.88,7.36,9.65,11.11,14.53v.1a.1.1,0,0,0,.1-.1v-.1c-3.13-4.26-6.35-8.41-9.55-12.66a8.74,8.74,0,0,0-.83-.94C154.1,105.6,153.9,105.4,153.6,105.08Zm10.27,33c-.1-.1-.22-.21-.32-.21.1.11.1.21.22.32-4.68,6.43-9.34,12.86-14,19.2a7.93,7.93,0,0,1,.84-.93c4.35-6,8.81-12.15,13.29-18.27ZM146.54,153c6.12-5.29,11.62-10.18,17-15.16v-.11C158,143,152.24,148,146.54,153Zm15.87-16.4a2.07,2.07,0,0,1-.3-.53H162c-6.33,4.06-12.55,8.11-18.87,12,6.22-3.93,12.54-7.88,18.87-11.93Zm-.73-12,.11-.1v-.11c-5.3-2.29-10.59-4.68-15.88-7.06,5.6,1.87,11.11,3.64,16.71,5.4l.1-.1c.1-.21.32-.53.42-.73a.1.1,0,0,0,.11-.1H163c-4.15-3.43-8.21-6.85-12.46-10.38,4.58,3,9.14,5.81,13.7,8.82h.1v-.1s.1,0,0-.1h-.1c-5.09-3.23-10.08-6.55-15.27-9.88.23.22.43.33.63.53l.33.3c-.33-.2-.73-.4-1.06-.61,4.79,3.84,9.45,7.68,14.13,11.52-.1.2-.32.41-.42.62-5.92-1.87-11.94-3.74-17.84-5.71.3.2.71.31,1,.52a4.85,4.85,0,0,0-1.15-.42C150.37,119.51,156,122.1,161.68,124.6Zm-.1.41v-.11h-.1c-6.55-.51-12.87-1.13-19.42-1.76.32.11.73.11,1.06.21,6.12.72,12.24,1.15,18.36,1.66Zm-.3,9.55c-6.35,4.78-12.47,9.45-18.79,14,.2-.11.4-.32.63-.43,6-4.45,12.14-8.92,18.16-13.49Zm-20.76,8.72c6.95-2.81,13.81-5.81,20.66-8.83v-.1h-.12c-3.43,1.56-6.86,3-10.26,4.47-3,1.35-6.14,2.59-9.15,3.84a.1.1,0,0,1-.1.1C141.23,143,140.82,143.07,140.52,143.28Zm20.23-15.46v-.11c.1-.32.1-.52.21-.83v-.1c-6-1-11.82-2.28-17.84-3.43-.33,0-.74-.1-1.06-.1,6.25,1.35,12.57,2.48,18.79,3.74a1.42,1.42,0,0,0-.2.62c-3.43.52-6.75.93-10.18,1.45,3.43-.31,6.75-.83,10.18-1.24Zm-.1,5v-.11a1.35,1.35,0,0,0-.1-.62v.73Zm-.1,0c-6.35,3.31-12.57,6.64-18.9,9.86C149.44,138.71,154.83,135.91,160.55,132.8ZM141,136.22l-1.24.32a4.57,4.57,0,0,1,1.14-.21c6.44-1.35,13.07-2.81,19.62-4.26V132C154,133.42,147.47,134.88,141,136.22Zm19.32-6h.1v-.11a1.15,1.15,0,0,1,.1-.51h-.1c-3.33.11-6.75.31-10.08.41,3.33,0,6.75-.2,10.08-.3a.6.6,0,0,0-.1.4c-3,1-6.11,2-9.15,3-3.36,1.06-6.77,2.19-10.17,3.17l9-2.8C153.5,132.38,156.92,131.35,160.35,130.2Zm-14.64,23.57h.1l.73-.73c2.47-2.59,5.07-5.19,7.56-7.78C151.3,148.05,148.51,151,145.71,153.77Zm4.76-24.71L140.2,130.3h1c-.3,0-.71.12-1,.12,3.42-.12,6.75-.22,10.17-.43l-9,.31Z"/><path class="cls-6" d="M175.21,122.51c1.72-2.29,5.07-3.22,6.71-1.74a0,0,0,0,0,0,0,6.11,6.11,0,0,0-3.33-.37,8,8,0,0,0-3.34,2.1Z"/><path class="cls-6" d="M180.68,121.17v.2l.1-.1v-.1ZM179,122.31a1.92,1.92,0,0,1-.83.42h-.1a3.89,3.89,0,0,1-1.87-.1c1.14.83,3.22.2,4.46-1.26l-.1-.1A4.15,4.15,0,0,1,179,122.31Zm-1.24-.84a2,2,0,0,1,1.24-.4,1.67,1.67,0,0,1,1.56.2l.1-.1a2.41,2.41,0,0,0-2.07-.3.53.53,0,0,0-.42.2,3.51,3.51,0,0,0-2,1.56,7.61,7.61,0,0,1,1.46-1.16Z"/><path class="cls-6" d="M179.3,121.56a1.31,1.31,0,0,1-.93,1.17.66.66,0,0,1-.89-.67,1.29,1.29,0,0,1,.89-1.16A.68.68,0,0,1,179.3,121.56Z"/><path class="cls-6" d="M175.63,123.32a3,3,0,0,0,2.68,0A4.29,4.29,0,0,0,181,121.9c-.55,1-1.75,1.36-2.68,1.72A2.88,2.88,0,0,1,175.63,123.32Z"/><path class="cls-6" d="M171.74,123.5a5,5,0,0,0-3.36-.21,10.16,10.16,0,0,0-3.31,2.24l0,0c1.64-2.39,5-3.35,6.71-2Z"/><path class="cls-6" d="M169,125.23a1.57,1.57,0,0,1-1,.1c-.1.1-.1,0-.1,0a1.78,1.78,0,0,1-1.44-.1c-.1,0-.1.1-.22.2a2.44,2.44,0,0,0,2.08.1h.31a3.79,3.79,0,0,0,2.19-1.35A4.45,4.45,0,0,1,169,125.23Zm-1-1.16c0-.1,0-.1.12-.1a4.4,4.4,0,0,1,1.14-.2,3.45,3.45,0,0,1,1.56.41,2.41,2.41,0,0,0-2.09-.51h-.3a5.89,5.89,0,0,0-2.19,1.56c.12,0,.12.1.22,0A3.15,3.15,0,0,1,168,124.07Zm-1.87,1.26v.1h.11v-.2Z"/><path class="cls-6" d="M167.67,124.84a.66.66,0,0,0,.91.65,1.31,1.31,0,0,0,.91-1.18.66.66,0,0,0-.91-.64A1.28,1.28,0,0,0,167.67,124.84Z"/><path class="cls-6" d="M171.32,124.55a4.9,4.9,0,0,1-2.68,1.81c-.91.14-2.13.49-2.68-.22.61.61,1.79.15,2.68-.08A4.49,4.49,0,0,0,171.32,124.55Z"/><path class="cls-6" d="M182,119.57c-1.44-1.52-4.5-1.2-6.53.61a4.88,4.88,0,0,0-1.4,3.52c.08,1.12.16,2.52,1.24,2.87v0c-1.16-.27-1.5-1.62-1.52-2.82a5,5,0,0,1,1.58-3.72c2.11-1.73,5.37-2.46,6.67-.51C182.06,119.55,182.06,119.57,182,119.57Z"/><path class="cls-6" d="M170.52,128.45c-.36.85.21,1.32.92.88.67-.68,1.39,0,2.06-.39a6.26,6.26,0,0,0,1-.65c.48-.25.79.05,1.09-.08.55.06,1.3-1,.73-1.4v0c.75.23.08,1.72-.79,1.73-.79-.24-1.13.22-2,.61s-1.31-.37-2,.42c-.86.66-1.54-.34-1-1.09Z"/><path class="cls-6" d="M176.63,130.78a2.29,2.29,0,0,0-3.06.13,3.33,3.33,0,0,0-3.13,1.58,3.79,3.79,0,0,1,1.38-1.43,5.15,5.15,0,0,1,1.7-.44c.49-.23,1.18-.67,1.75-.54A3,3,0,0,1,176.63,130.78Z"/><path class="cls-6" d="M171.21,132.48a7.81,7.81,0,0,1,2.29-.48,5.14,5.14,0,0,1,2.19-.75,7.59,7.59,0,0,0-1.13.4c-.41.16-.59.37-1.16.66A6.43,6.43,0,0,0,171.21,132.48Z"/><path class="cls-6" d="M176.4,131.22a9.58,9.58,0,0,0-1.48,1.2,2.54,2.54,0,0,1-1.5,1.21c-1.36.52-1.84-.87-3-.72,1.18-.22,1.77,1,3,.42a2.22,2.22,0,0,0,1.42-1A8.63,8.63,0,0,1,176.4,131.22Z"/><path class="cls-6" d="M171.44,135.81a3.4,3.4,0,0,1,2.06-2,1.55,1.55,0,0,1,1.89,1.07C174.72,133.32,172.29,134,171.44,135.81Z"/><path class="cls-6" d="M171.52,127.72a11.16,11.16,0,0,0,1.21-3.82c.17-1.23-.1-2.63-1.31-2.79-2.25-.45-5,.92-6.73,3.26l0,0c1.48-2.49,4.61-4.13,6.84-3.42,1.19.3,1.52,1.68,1.46,2.92a9.25,9.25,0,0,1-1.42,3.88Z"/><path class="cls-7" d="M345,89.93v72.86a.1.1,0,0,1-.1-.1v72.46c-115-64.67-230,65-344.93.1V18.72c114.91,65,229.92-64.76,344.93-.1V89.83A.1.1,0,0,0,345,89.93Z"/><path class="cls-8" d="M345,89.93v72.86a.1.1,0,0,1-.1-.1v72.46c-115-64.67-230,65-344.93.1V18.72c114.91,65,229.92-64.76,344.93-.1V89.83A.1.1,0,0,0,345,89.93Z"/></g></g></g></svg>