<svg xmlns="http://www.w3.org/2000/svg" xmlns:xlink="http://www.w3.org/1999/xlink" viewBox="0 0 346.93 255.06"><defs><style>.cls-1{isolation:isolate;}.cls-2{fill:#41a84d;}.cls-3{fill:#f9f51d;}.cls-4{fill:#35a8bf;}.cls-5{fill:#fff;}.cls-6{mix-blend-mode:multiply;}.cls-6,.cls-7{fill:url(#linear-gradient);}.cls-7{opacity:0.25;mix-blend-mode:overlay;}</style><linearGradient id="linear-gradient" y1="126.99" x2="345.03" y2="126.99" gradientUnits="userSpaceOnUse"><stop offset="0" stop-color="#fff"/><stop offset="0.13" stop-color="#f7f7f7"/><stop offset="0.34" stop-color="#e0e0e0"/><stop offset="0.54" stop-color="#c4c5c5"/><stop offset="0.57" stop-color="#c1c2c3"/><stop offset="0.69" stop-color="#bebfc0"/><stop offset="0.91" stop-color="#fff"/></linearGradient></defs><g class="cls-1"><g id="Capa_2" data-name="Capa 2"><g id="Capa_1-2" data-name="Capa 1"><path class="cls-2" d="M346.93,236.31c-115.1-64.95-230.2,64.94-345.31,0V19.82c115.11,64.95,230.21-64.94,345.31,0Z"/><path class="cls-3" d="M39.86,143.79C84.41,125.9,129,85.29,173.52,44.56c45.14,15,90.28,29.79,135.42,68-44.55,17.68-89.1,58.13-133.66,98.75C130.14,196.46,85,181.79,39.86,143.79Z"/><path class="cls-4" d="M231.5,113.16a59.34,59.34,0,0,1-1.22,12,66.83,66.83,0,0,1-4.19,13.53c-9.23,21.46-29.2,40.12-52.41,46.82-31.91,9.43-57.8-11.26-57.8-43.38a61.67,61.67,0,0,1,2.33-16.64,72,72,0,0,1,5.13-13.33c10-19.51,28.77-36.07,50.34-42.27C205.63,60.44,231.5,81,231.5,113.16Z"/><path class="cls-5" d="M230.28,125.15a66.83,66.83,0,0,1-4.19,13.53c-.08,0-.12-.11-.23-.17-12.22-12.41-30.83-19.38-52.69-20.46-20.17-.76-50.5,6.85-55,7.43a72,72,0,0,1,5.13-13.33c0,.06,19.46-6.13,52.65-7.12C208.79,104.1,227.06,121.6,230.28,125.15Z"/><path class="cls-2" d="M127.68,114.4a4.62,4.62,0,0,0-3.43,4.8c0,2.34,1.53,3.51,3.51,3a4.68,4.68,0,0,0,3.45-4.89C131.11,115.11,129.71,113.9,127.68,114.4Zm.12,7c-1.56.39-2.45-.87-2.49-2.47a3.46,3.46,0,0,1,2.33-3.73c1.66-.42,2.46,1,2.49,2.45C130.17,119.4,129.34,121,127.8,121.41Z"/><path class="cls-2" d="M136.88,117.86c-.16-.77-.5-1.19-1.09-1.27v0a2.68,2.68,0,0,0,1.44-2.3,1.44,1.44,0,0,0-.61-1.29,2.64,2.64,0,0,0-2.15-.12,16.25,16.25,0,0,0-1.9.57q-.06,3.78-.1,7.54l1-.23c0-1.09,0-2.19,0-3.28l.93-.22c.89-.17,1.28.11,1.52,1.13a6.61,6.61,0,0,0,.47,1.7l1-.2A8.08,8.08,0,0,1,136.88,117.86Zm-2.37-1.38-1,.2c0-.92,0-1.85,0-2.77a4.83,4.83,0,0,1,1-.32c1-.25,1.73,0,1.73,1A2,2,0,0,1,134.51,116.48Z"/><path class="cls-2" d="M144,111.76a3.82,3.82,0,0,0-3-.34,19.57,19.57,0,0,0-2.11.57q-.19,3.81-.38,7.61a15,15,0,0,0,1.76-.27,6.05,6.05,0,0,0,3.45-1.8,5.19,5.19,0,0,0,1.23-3.21A2.83,2.83,0,0,0,144,111.76Zm-3.49,6.74c-.38.06-.77.11-1,.12.09-2,.19-4,.28-6.05a7,7,0,0,1,1.2-.34c2.09-.44,3,.52,2.94,2.31A4,4,0,0,1,140.49,118.5Z"/><path class="cls-2" d="M150.65,110.54c0-.28,0-.56.08-.84l-4.12.7q-.33,3.87-.68,7.74c1.41-.22,2.82-.46,4.23-.69l.08-.87-3.3.57.26-2.79,3-.51c0-.28,0-.55,0-.82l-2.92.5.21-2.46Z"/><path class="cls-2" d="M158.23,108.64l-1.86,4c-.47,1.07-.85,1.94-1.16,2.74h0c-.08-.79-.2-1.61-.38-2.53l-.75-3.62-1.28.18-1.56,7.84.91-.07c.22-1.13.43-2.26.65-3.4s.46-2.49.63-3.47a29.43,29.43,0,0,0,.46,2.91c.25,1.2.49,2.4.73,3.6l.71-.11,1.89-4c.5-1.11,1-2.13,1.36-3.08l0,0c-.18,1-.27,2.29-.39,3.38s-.17,2.29-.26,3.43l.93-.13c.2-2.59.39-5.17.59-7.76Z"/><path class="cls-2" d="M171.47,111.27l-.85,0a8.18,8.18,0,0,1-1.28,2.31c-.32-.55-.85-1.38-1.28-2.1v-.05c1.32-.66,1.93-1.35,2.13-2.16a1.21,1.21,0,0,0-1.25-1.65,2.58,2.58,0,0,0-2.31,2,2.18,2.18,0,0,0,.22,1.64v0a3.8,3.8,0,0,0-2,2.38,1.65,1.65,0,0,0,1.79,2.14,4.1,4.1,0,0,0,2.39-1,7.48,7.48,0,0,0,.48.76l1.16,0c-.33-.51-.63-.94-.93-1.36A8.06,8.06,0,0,0,171.47,111.27Zm-3.95-1.72a1.42,1.42,0,0,1,1.19-1.2c.59,0,.71.52.59,1s-.71,1.08-1.56,1.59A1.91,1.91,0,0,1,167.52,109.55ZM167,115a1.11,1.11,0,0,1-1.16-1.5,2.64,2.64,0,0,1,1.32-1.63c.61,1,1.2,1.91,1.54,2.37A2.34,2.34,0,0,1,167,115Z"/><path class="cls-2" d="M182,108.62a2.34,2.34,0,0,0-1.82-.77,11.05,11.05,0,0,0-1.83.06l-2.39,7.79,1,.08c.31-1,.62-2.1.94-3.15a2.7,2.7,0,0,0,.75.09A3.79,3.79,0,0,0,181,112a3.35,3.35,0,0,0,1-1.65A1.84,1.84,0,0,0,182,108.62Zm-.81,1.71a2.18,2.18,0,0,1-2.33,1.59,6.13,6.13,0,0,1-.77-.13c.32-1,.65-2,1-3.07a3.68,3.68,0,0,1,.89,0C180.94,108.73,181.45,109.27,181.14,110.33Z"/><path class="cls-2" d="M187.83,109.14a2.19,2.19,0,0,0-1.8-.86,13.92,13.92,0,0,0-1.83,0l-2.67,7.79.93.09,1.15-3.43.88.09c.81.12,1.07.56.89,1.67a10.87,10.87,0,0,0-.16,1.91l1,.11a16.16,16.16,0,0,1,.18-2.21c.1-.83,0-1.44-.53-1.67l0-.06a2.78,2.78,0,0,0,2-1.86A1.77,1.77,0,0,0,187.83,109.14Zm-.87,1.6a2,2,0,0,1-2.13,1.32l-.93-.09c.32-1,.65-1.93,1-2.9a5.61,5.61,0,0,1,.93,0C186.78,109.18,187.3,109.71,187,110.74Z"/><path class="cls-2" d="M193.1,109.18c-1.86-.3-3.85,1-4.86,3.54s-.27,4.18,1.56,4.49,3.77-.86,4.82-3.53C195.57,111.36,195,109.51,193.1,109.18Zm.61,4.37c-.73,1.77-2.13,3.09-3.53,2.83s-1.66-1.83-1-3.5,2.05-3.15,3.55-2.88S194.3,112,193.71,113.55Z"/><path class="cls-2" d="M201,111.1c-2.23-.64-4.4.61-5.5,2.9a4.11,4.11,0,0,0-.42,3.09,2.67,2.67,0,0,0,2,1.76,6.36,6.36,0,0,0,2.26.13c.58-1.22,1.17-2.44,1.76-3.66l-2.19-.65-.39.82,1.36.36c-.36.77-.73,1.53-1.09,2.29a2.68,2.68,0,0,1-1.24-.09c-1.58-.48-2-1.89-1.09-3.83s2.53-2.8,4.15-2.33a2.78,2.78,0,0,1,1.3.76l.61-.75A3.18,3.18,0,0,0,201,111.1Z"/><path class="cls-2" d="M207.29,115.84a2.16,2.16,0,0,0,.33-1.6,2.26,2.26,0,0,0-1.52-1.36,8.87,8.87,0,0,0-1.67-.47l-4.11,7.35.81.3,1.82-3.19.75.31c.73.33.86.85.47,2a11.73,11.73,0,0,0-.57,1.93l.83.33a17.27,17.27,0,0,1,.69-2.26c.25-.81.29-1.47-.1-1.84v0A2.59,2.59,0,0,0,207.29,115.84Zm-3.12.63-.83-.34,1.52-2.71a3.1,3.1,0,0,1,.89.24,1.26,1.26,0,0,1,.67,2A1.75,1.75,0,0,1,204.17,116.47Z"/><path class="cls-2" d="M212.58,117.09l.51-.81-3.26-1.66q-2.29,3.59-4.58,7.17l3.38,1.75.47-.76-2.58-1.35,1.64-2.62,2.34,1.25.5-.8-2.37-1.2,1.5-2.28Z"/><path class="cls-2" d="M216.27,118a2.37,2.37,0,0,0-3.22.76,2.33,2.33,0,0,0,.12,2.89c.55.85.61,1.43.12,2.1a1.51,1.51,0,0,1-2.06.45,2.73,2.73,0,0,1-1-1.29l-.73.66a2.9,2.9,0,0,0,1.2,1.32,2.43,2.43,0,0,0,3.45-.79,2.29,2.29,0,0,0-.07-2.91c-.5-.91-.62-1.43-.2-2.08a1.42,1.42,0,0,1,1.87-.4,2.46,2.46,0,0,1,.85,1l.71-.59A2.35,2.35,0,0,0,216.27,118Z"/><path class="cls-2" d="M220.61,120.88a2.33,2.33,0,0,0-3.24.6,2.37,2.37,0,0,0,0,2.92c.48.91.52,1.46.06,2.11a1.49,1.49,0,0,1-2.09.36,2.44,2.44,0,0,1-.93-1.36l-.77.61a2.9,2.9,0,0,0,1.11,1.44,2.4,2.4,0,0,0,3.43-.63,2.35,2.35,0,0,0,.08-3c-.49-.87-.59-1.45-.12-2.06a1.26,1.26,0,0,1,1.82-.28,2.75,2.75,0,0,1,.86,1l.73-.54A3.05,3.05,0,0,0,220.61,120.88Z"/><path class="cls-2" d="M225.36,124.4c-1.44-1.1-3.61-.56-5.32,1.53s-1.68,4.15-.24,5.22,3.53.72,5.33-1.58C226.72,127.64,226.88,125.53,225.36,124.4Zm-1,4.66c-1.23,1.49-2.84,2.27-4,1.41s-.73-2.55.43-4,2.79-2.31,4-1.4S225.4,127.74,224.38,129.06Z"/><path class="cls-5" d="M209.58,139.47a1,1,0,0,1-.69.87.54.54,0,0,1-.73-.52,1,1,0,0,1,.73-.89A.52.52,0,0,1,209.58,139.47Z"/><path class="cls-5" d="M204.45,141.1a1,1,0,0,1-.7.9.54.54,0,0,1-.71-.53,1,1,0,0,1,.71-.89A.52.52,0,0,1,204.45,141.1Z"/><path class="cls-5" d="M203.93,144.87a.87.87,0,0,1-.61.77.47.47,0,0,1-.63-.45.84.84,0,0,1,.63-.78A.46.46,0,0,1,203.93,144.87Z"/><path class="cls-5" d="M203,147.29a.8.8,0,0,1-.58.73.43.43,0,0,1-.57-.43.8.8,0,0,1,.57-.73A.43.43,0,0,1,203,147.29Z"/><path class="cls-5" d="M200.62,149.06a.8.8,0,0,1-.59.74.42.42,0,0,1-.56-.43.78.78,0,0,1,.56-.74A.44.44,0,0,1,200.62,149.06Z"/><path class="cls-5" d="M197.36,150.78a.82.82,0,0,1-.59.74.44.44,0,0,1-.59-.43.81.81,0,0,1,.59-.73A.43.43,0,0,1,197.36,150.78Z"/><path class="cls-5" d="M199.85,154.15a1,1,0,0,1-.69.89.54.54,0,0,1-.73-.52,1,1,0,0,1,.73-.9A.52.52,0,0,1,199.85,154.15Z"/><path class="cls-5" d="M200,157.46a1,1,0,0,1-.68.89.53.53,0,0,1-.73-.52,1,1,0,0,1,.73-.89A.51.51,0,0,1,200,157.46Z"/><path class="cls-5" d="M188,153.4a.65.65,0,0,1-.46.61.36.36,0,0,1-.49-.34.68.68,0,0,1,.49-.61A.34.34,0,0,1,188,153.4Z"/><path class="cls-5" d="M184.55,154.37a.66.66,0,0,1-.47.6.34.34,0,0,1-.47-.34.66.66,0,0,1,.47-.61A.35.35,0,0,1,184.55,154.37Z"/><path class="cls-5" d="M185.74,158.22a.69.69,0,0,1-.46.61.36.36,0,0,1-.49-.35.68.68,0,0,1,.49-.61A.34.34,0,0,1,185.74,158.22Z"/><path class="cls-5" d="M171.92,168.06a1,1,0,0,1-.69.9.52.52,0,0,1-.71-.51,1,1,0,0,1,.71-.91A.51.51,0,0,1,171.92,168.06Z"/><path class="cls-5" d="M171.23,151.28a1,1,0,0,1-.71.9.52.52,0,0,1-.71-.5,1,1,0,0,1,.71-.91A.53.53,0,0,1,171.23,151.28Z"/><path class="cls-5" d="M175.65,144.72a1,1,0,0,1-.71.91.51.51,0,0,1-.71-.51,1,1,0,0,1,.71-.9A.52.52,0,0,1,175.65,144.72Z"/><path class="cls-5" d="M170.33,141.27a1,1,0,0,1-.71.91.5.5,0,0,1-.68-.51,1,1,0,0,1,.68-.91A.52.52,0,0,1,170.33,141.27Z"/><path class="cls-5" d="M165.21,146.25a1,1,0,0,1-.71.91.51.51,0,0,1-.69-.52,1,1,0,0,1,.69-.89A.51.51,0,0,1,165.21,146.25Z"/><path class="cls-5" d="M167.78,148a.62.62,0,0,1-.45.56.32.32,0,0,1-.44-.31.63.63,0,0,1,.44-.57A.33.33,0,0,1,167.78,148Z"/><path class="cls-5" d="M183.94,124.37a1,1,0,0,1-.69.9.51.51,0,0,1-.71-.51,1,1,0,0,1,.71-.91A.51.51,0,0,1,183.94,124.37Z"/><path class="cls-5" d="M189.43,102.33a1,1,0,0,1-.71.9.52.52,0,0,1-.71-.51,1,1,0,0,1,.71-.91A.53.53,0,0,1,189.43,102.33Z"/><path class="cls-5" d="M153.37,137a1,1,0,0,1-.71.89.5.5,0,0,1-.69-.51,1,1,0,0,1,.69-.89A.52.52,0,0,1,153.37,137Z"/><path class="cls-5" d="M147.35,164.54a1,1,0,0,1-.69.89.53.53,0,0,1-.71-.52,1,1,0,0,1,.71-.9A.53.53,0,0,1,147.35,164.54Z"/><path class="cls-5" d="M137.45,163.16a.69.69,0,0,1-.52.66.4.4,0,0,1-.53-.41.7.7,0,0,1,.53-.65A.39.39,0,0,1,137.45,163.16Z"/><path class="cls-5" d="M137.82,158.65a.73.73,0,0,1-.53.66.41.41,0,0,1-.55-.4.73.73,0,0,1,.55-.66A.41.41,0,0,1,137.82,158.65Z"/><path class="cls-5" d="M135,155.53a.64.64,0,0,1-.49.6.37.37,0,0,1-.48-.37.66.66,0,0,1,.48-.6A.37.37,0,0,1,135,155.53Z"/><path class="cls-5" d="M129.32,157.47a.92.92,0,0,1-.71.87.56.56,0,0,1-.71-.55.94.94,0,0,1,.71-.87A.54.54,0,0,1,129.32,157.47Z"/><path class="cls-5" d="M123.81,161.23a.52.52,0,0,1-.41.48.31.31,0,0,1-.4-.31.53.53,0,0,1,.4-.49A.33.33,0,0,1,123.81,161.23Z"/><path class="cls-5" d="M124.36,132a.91.91,0,0,1-.69.85.56.56,0,0,1-.71-.56.91.91,0,0,1,.71-.85A.55.55,0,0,1,124.36,132Z"/><path class="cls-6" d="M345,89.93V162.8a.1.1,0,0,1-.1-.11v72.45c-115-64.67-230,65-344.93.1V18.73c114.91,65,229.92-64.78,344.93-.1V89.82A.1.1,0,0,0,345,89.93Z"/><path class="cls-7" d="M345,89.93V162.8a.1.1,0,0,1-.1-.11v72.45c-115-64.67-230,65-344.93.1V18.73c114.91,65,229.92-64.78,344.93-.1V89.82A.1.1,0,0,0,345,89.93Z"/><path class="cls-6" d="M345,89.93V162.8a.1.1,0,0,1-.1-.11v72.45c-115-64.67-230,65-344.93.1V18.73c114.91,65,229.92-64.78,344.93-.1V89.82A.1.1,0,0,0,345,89.93Z"/><path class="cls-7" d="M345,89.93V162.8a.1.1,0,0,1-.1-.11v72.45c-115-64.67-230,65-344.93.1V18.73c114.91,65,229.92-64.78,344.93-.1V89.82A.1.1,0,0,0,345,89.93Z"/></g></g></g></svg>