<svg id="Grupo_1186" data-name="Grupo 1186" xmlns="http://www.w3.org/2000/svg" xmlns:xlink="http://www.w3.org/1999/xlink" width="32.682" height="32.682" viewBox="0 0 32.682 32.682">
  <defs>
    <clipPath id="clip-path">
      <ellipse id="Elipse_60" data-name="Elipse 60" cx="16.341" cy="16.341" rx="16.341" ry="16.341" transform="translate(0 0)" fill="none"/>
    </clipPath>
    <clipPath id="clip-path-2">
      <rect id="Rect치ngulo_112" data-name="Rect치ngulo 112" width="56.028" height="32.682" fill="none"/>
    </clipPath>
  </defs>
  <g id="Grupo_1185" data-name="Grupo 1185" transform="translate(0 0)" clip-path="url(#clip-path)">
    <g id="BRAZIL" transform="translate(-11.673 0)">
      <g id="Grupo_1184" data-name="Grupo 1184">
        <g id="Grupo_1183" data-name="Grupo 1183">
          <g id="Grupo_1182" data-name="Grupo 1182" clip-path="url(#clip-path-2)">
            <rect id="Rect치ngulo_110" data-name="Rect치ngulo 110" width="56.028" height="32.682" fill="#3c9242"/>
            <path id="Trazado_2493" data-name="Trazado 2493" d="M-2437.6,1258.546l19.374,12.374,19.384-12.374-19.384-12.372Z" transform="translate(2446.237 -1242.206)" fill="#edc226"/>
            <g id="Grupo_1181" data-name="Grupo 1181">
              <g id="Grupo_1180" data-name="Grupo 1180" clip-path="url(#clip-path-2)">
                <path id="Trazado_2494" data-name="Trazado 2494" d="M-2292.791,1302.478a8.168,8.168,0,0,1-8.168,8.169,8.167,8.167,0,0,1-8.164-8.169,8.172,8.172,0,0,1,8.164-8.172,8.173,8.173,0,0,1,8.168,8.172" transform="translate(2328.972 -1286.137)" fill="#2d146e"/>
                <path id="Trazado_2495" data-name="Trazado 2495" d="M-2302.964,1347.817a20.455,20.455,0,0,0-2.811.2,8.545,8.545,0,0,0-.434,1.249,19.138,19.138,0,0,1,3.244-.279,18.6,18.6,0,0,1,12.465,4.775,7.516,7.516,0,0,0,.29-1.293,19.743,19.743,0,0,0-12.755-4.651" transform="translate(2326.312 -1334.98)" fill="#fff"/>
                <path id="Trazado_2496" data-name="Trazado 2496" d="M-2299.553,1352.5a.366.366,0,0,0,.3-.427.365.365,0,0,0-.391-.343.359.359,0,0,0-.3.427.364.364,0,0,0,.391.343m-.017-.142a.236.236,0,0,0,.173-.269.223.223,0,0,0-.235-.217.226.226,0,0,0-.177.267.233.233,0,0,0,.238.218" transform="translate(2320.599 -1338.551)" fill="#3c9242" fill-rule="evenodd"/>
                <path id="Trazado_2497" data-name="Trazado 2497" d="M-2288.635,1351.329l.141-.013-.02-.287.316-.021a.254.254,0,0,0,.225-.262.249.249,0,0,0-.261-.226l-.45.031Zm.111-.443.3-.019a.105.105,0,0,0,.092-.109.094.094,0,0,0-.1-.091l-.3.016Z" transform="translate(2310.316 -1337.446)" fill="#3c9242" fill-rule="evenodd"/>
                <path id="Trazado_2498" data-name="Trazado 2498" d="M-2284.805,1355.652c-.007-.111-.02-.354-.189-.346l-.212.015c.241-.015.261.231.273.339" transform="translate(2307.143 -1341.817)" fill="#3c9242"/>
                <path id="Trazado_2499" data-name="Trazado 2499" d="M-2276.936,1350.863l.362-.008a.335.335,0,0,0,.333-.34l-.007-.111a.336.336,0,0,0-.339-.328l-.362.008Zm.137-.148.211,0a.206.206,0,0,0,.206-.214v-.07a.208.208,0,0,0-.208-.2l-.215.005Z" transform="translate(2299.606 -1337.042)" fill="#3c9242" fill-rule="evenodd"/>
                <path id="Trazado_2500" data-name="Trazado 2500" d="M-2265.588,1350.821l.7.024.007-.147-.564-.02.006-.2.447.012v-.132l-.44-.016v-.153l.538.018v-.147l-.665-.023Z" transform="translate(2289.236 -1337.01)" fill="#3c9242"/>
                <path id="Trazado_2501" data-name="Trazado 2501" d="M-2254.19,1351.339l.134.011.045-.531.1.544.127.011.2-.519-.046.532.131.013.068-.777-.189-.016-.205.518-.108-.546-.2-.016Z" transform="translate(2278.833 -1337.486)" fill="#3c9242"/>
                <path id="Trazado_2502" data-name="Trazado 2502" d="M-2235.768,1354.3l.583.1.016-.131-.44-.075.03-.174.365.062.017-.134-.356-.061.017-.122.43.075.016-.132-.554-.1Z" transform="translate(2262.018 -1340.266)" fill="#3c9242"/>
                <path id="Trazado_2503" data-name="Trazado 2503" d="M-2218.8,1356.995l.137.038.078-.279.3.075a.248.248,0,0,0,.3-.175.256.256,0,0,0-.177-.3l-.43-.111Zm.254-.385.287.077a.094.094,0,0,0,.118-.072.1.1,0,0,0-.069-.122l-.29-.075Z" transform="translate(2246.533 -1342.671)" fill="#3c9242" fill-rule="evenodd"/>
                <path id="Trazado_2504" data-name="Trazado 2504" d="M-2207.853,1360.047l.14.042.088-.274.29.093a.247.247,0,0,0,.31-.158.242.242,0,0,0-.156-.306l-.43-.135Zm.271-.37.287.091a.1.1,0,0,0,.124-.067.094.094,0,0,0-.065-.124l-.284-.091Z" transform="translate(2236.539 -1345.469)" fill="#3c9242" fill-rule="evenodd"/>
                <path id="Trazado_2505" data-name="Trazado 2505" d="M-2203.233,1365.309c.036-.106.108-.338-.049-.388l-.2-.065c.228.075.156.307.121.414" transform="translate(2232.549 -1350.533)" fill="#3c9242"/>
                <path id="Trazado_2506" data-name="Trazado 2506" d="M-2195.625,1364.84a.372.372,0,0,0,.463-.241.366.366,0,0,0-.189-.488.37.37,0,0,0-.466.238.375.375,0,0,0,.192.491m.049-.137a.226.226,0,0,0,.28-.156.228.228,0,0,0-.1-.3.236.236,0,0,0-.284.158.23.23,0,0,0,.108.3" transform="translate(2225.579 -1349.833)" fill="#3c9242" fill-rule="evenodd"/>
                <path id="Trazado_2507" data-name="Trazado 2507" d="M-2184.894,1369.179a.377.377,0,0,0,.479-.217.375.375,0,0,0-.169-.5.367.367,0,0,0-.473.217.373.373,0,0,0,.163.5m.059-.134a.221.221,0,0,0,.284-.142.231.231,0,0,0-.088-.308.225.225,0,0,0-.284.143.222.222,0,0,0,.088.307" transform="translate(2215.764 -1353.802)" fill="#3c9242" fill-rule="evenodd"/>
                <path id="Trazado_2508" data-name="Trazado 2508" d="M-2180.906,1373.078l.274.119-.052.1-.264-.121Z" transform="translate(2211.982 -1358.037)" fill="#3c9242"/>
                <path id="Trazado_2509" data-name="Trazado 2509" d="M-2180.089,1373.9l.1.047-.159.355-.095-.046Z" transform="translate(2211.334 -1358.788)" fill="#3c9242"/>
                <path id="Trazado_2510" data-name="Trazado 2510" d="M-2176.091,1372.684l.127.064.127-.261.277.142a.243.243,0,0,0,.326-.109.241.241,0,0,0-.108-.328l-.395-.2Zm.319-.323.268.132a.1.1,0,0,0,.134-.044.1.1,0,0,0-.042-.134l-.274-.134Z" transform="translate(2207.548 -1357.047)" fill="#3c9242" fill-rule="evenodd"/>
                <path id="Trazado_2511" data-name="Trazado 2511" d="M-2171.274,1378.164c.049-.1.156-.318.01-.393l-.192-.1c.225.113.114.331.069.429" transform="translate(2203.319 -1362.231)" fill="#3c9242"/>
                <path id="Trazado_2512" data-name="Trazado 2512" d="M-2166.039,1377.942l.613.344.065-.126-.489-.279.094-.174.388.22.065-.121-.385-.215.078-.138.46.264.078-.126-.587-.329Z" transform="translate(2198.373 -1361.856)" fill="#3c9242"/>
                <path id="Trazado_2513" data-name="Trazado 2513" d="M-2154.941,1384.732c-.042.064,0,.139.091.2s.157.056.186.016c.084-.137-.4-.331-.255-.562.127-.2.352-.045.437.008a.256.256,0,0,1,.114.354l-.143-.093c.049-.067,0-.137-.082-.179s-.13-.073-.173,0c-.075.106.411.308.258.543-.1.171-.293.094-.417.016s-.271-.233-.169-.395Z" transform="translate(2188.413 -1368.267)" fill="#3c9242"/>
                <path id="Trazado_2514" data-name="Trazado 2514" d="M-2145.387,1391.172c-.049.062-.013.139.079.2s.159.068.189.026c.088-.127-.395-.351-.225-.574.14-.194.359-.026.437.029a.253.253,0,0,1,.091.36l-.134-.1c.042-.067,0-.135-.075-.189s-.12-.073-.169-.007c-.079.1.388.334.231.558-.121.166-.31.082-.424-.007s-.261-.244-.146-.4Z" transform="translate(2179.694 -1374.155)" fill="#3c9242"/>
                <path id="Trazado_2515" data-name="Trazado 2515" d="M-2135.7,1398.893a.369.369,0,0,0,.515-.087.371.371,0,0,0-.029-.522.367.367,0,0,0-.515.086.372.372,0,0,0,.029.522m.091-.116a.225.225,0,0,0,.316-.062.228.228,0,0,0-.013-.318.219.219,0,0,0-.31.062.217.217,0,0,0,.006.318" transform="translate(2170.79 -1380.979)" fill="#3c9242" fill-rule="evenodd"/>
                <path id="Trazado_2516" data-name="Trazado 2516" d="M-2293.133,1367.135l-.107.333.169.055Z" transform="translate(2314.476 -1352.613)" fill="#fff"/>
                <path id="Trazado_2517" data-name="Trazado 2517" d="M-2292.588,1367.135l.111.333-.166.055Z" transform="translate(2313.931 -1352.613)" fill="#fff"/>
                <path id="Trazado_2518" data-name="Trazado 2518" d="M-2291.845,1369.921h-.349v.171Z" transform="translate(2313.521 -1355.155)" fill="#fff"/>
                <path id="Trazado_2519" data-name="Trazado 2519" d="M-2292.256,1369.921l-.277.2-.111-.14Z" transform="translate(2313.931 -1355.155)" fill="#fff"/>
                <path id="Trazado_2520" data-name="Trazado 2520" d="M-2295.819,1369.921l.284.2.1-.14Z" transform="translate(2316.83 -1355.155)" fill="#fff"/>
                <path id="Trazado_2521" data-name="Trazado 2521" d="M-2295.819,1369.921h.352v.171Z" transform="translate(2316.83 -1355.155)" fill="#fff"/>
                <path id="Trazado_2522" data-name="Trazado 2522" d="M-2292.484,1370.906l-.108-.333-.163.056Z" transform="translate(2314.032 -1355.751)" fill="#fff"/>
                <path id="Trazado_2523" data-name="Trazado 2523" d="M-2292.622,1370.736l-.284-.207.1-.141Z" transform="translate(2314.17 -1355.582)" fill="#fff"/>
                <path id="Trazado_2524" data-name="Trazado 2524" d="M-2294.362,1370.736l.284-.207-.1-.141Z" transform="translate(2315.5 -1355.582)" fill="#fff"/>
                <path id="Trazado_2525" data-name="Trazado 2525" d="M-2294.362,1370.906l.111-.333.17.056Z" transform="translate(2315.5 -1355.751)" fill="#fff"/>
                <path id="Trazado_2526" data-name="Trazado 2526" d="M-2284.833,1406.5l-.111.331.17.054Z" transform="translate(2306.904 -1388.547)" fill="#fff"/>
                <path id="Trazado_2527" data-name="Trazado 2527" d="M-2284.289,1406.5l.1.331-.163.054Z" transform="translate(2306.359 -1388.547)" fill="#fff"/>
                <path id="Trazado_2528" data-name="Trazado 2528" d="M-2283.554,1409.269h-.346v.176Z" transform="translate(2305.95 -1391.07)" fill="#fff"/>
                <path id="Trazado_2529" data-name="Trazado 2529" d="M-2283.928,1409.269l-.277.207-.1-.145Z" transform="translate(2306.324 -1391.07)" fill="#fff"/>
                <path id="Trazado_2530" data-name="Trazado 2530" d="M-2287.487,1409.269l.277.207.111-.145Z" transform="translate(2309.225 -1391.07)" fill="#fff"/>
                <path id="Trazado_2531" data-name="Trazado 2531" d="M-2287.487,1409.269h.352v.176Z" transform="translate(2309.225 -1391.07)" fill="#fff"/>
                <path id="Trazado_2532" data-name="Trazado 2532" d="M-2284.219,1410.292l-.108-.333-.169.054Z" transform="translate(2306.495 -1391.701)" fill="#fff"/>
                <path id="Trazado_2533" data-name="Trazado 2533" d="M-2284.288,1410.139l-.284-.209.1-.139Z" transform="translate(2306.564 -1391.547)" fill="#fff"/>
                <path id="Trazado_2534" data-name="Trazado 2534" d="M-2286.1,1410.139l.291-.209-.108-.139Z" transform="translate(2307.962 -1391.547)" fill="#fff"/>
                <path id="Trazado_2535" data-name="Trazado 2535" d="M-2286.1,1410.292l.108-.333.169.054Z" transform="translate(2307.962 -1391.701)" fill="#fff"/>
                <path id="Trazado_2536" data-name="Trazado 2536" d="M-2295.867,1416.22l-.065.225.108.036Z" transform="translate(2316.933 -1397.415)" fill="#fff"/>
                <path id="Trazado_2537" data-name="Trazado 2537" d="M-2295.56,1416.22l.072.225-.108.036Z" transform="translate(2316.626 -1397.415)" fill="#fff"/>
                <path id="Trazado_2538" data-name="Trazado 2538" d="M-2295.1,1418.087h-.235v.117Z" transform="translate(2316.386 -1399.12)" fill="#fff"/>
                <path id="Trazado_2539" data-name="Trazado 2539" d="M-2295.3,1418.087l-.186.138-.068-.094Z" transform="translate(2316.591 -1399.12)" fill="#fff"/>
                <path id="Trazado_2540" data-name="Trazado 2540" d="M-2297.689,1418.087l.186.138.069-.094Z" transform="translate(2318.536 -1399.12)" fill="#fff"/>
                <path id="Trazado_2541" data-name="Trazado 2541" d="M-2297.689,1418.087h.232v.117Z" transform="translate(2318.536 -1399.12)" fill="#fff"/>
                <path id="Trazado_2542" data-name="Trazado 2542" d="M-2295.491,1418.759l-.072-.222-.108.037Z" transform="translate(2316.694 -1399.53)" fill="#fff"/>
                <path id="Trazado_2543" data-name="Trazado 2543" d="M-2295.559,1418.638l-.186-.137.069-.1Z" transform="translate(2316.762 -1399.409)" fill="#fff"/>
                <path id="Trazado_2544" data-name="Trazado 2544" d="M-2296.717,1418.638l.186-.137-.065-.1Z" transform="translate(2317.649 -1399.409)" fill="#fff"/>
                <path id="Trazado_2545" data-name="Trazado 2545" d="M-2296.717,1418.759l.069-.222.108.037Z" transform="translate(2317.649 -1399.53)" fill="#fff"/>
                <path id="Trazado_2546" data-name="Trazado 2546" d="M-2275.1,1402.86l-.055.157.078.029Z" transform="translate(2297.968 -1385.22)" fill="#fff"/>
                <path id="Trazado_2547" data-name="Trazado 2547" d="M-2274.826,1402.86l.049.157-.078.029Z" transform="translate(2297.695 -1385.22)" fill="#fff"/>
                <path id="Trazado_2548" data-name="Trazado 2548" d="M-2274.431,1404.2h-.163v.082Z" transform="translate(2297.456 -1386.448)" fill="#fff"/>
                <path id="Trazado_2549" data-name="Trazado 2549" d="M-2274.6,1404.2l-.134.1-.046-.068Z" transform="translate(2297.627 -1386.448)" fill="#fff"/>
                <path id="Trazado_2550" data-name="Trazado 2550" d="M-2276.388,1404.2l.14.1.045-.068Z" transform="translate(2299.094 -1386.448)" fill="#fff"/>
                <path id="Trazado_2551" data-name="Trazado 2551" d="M-2276.388,1404.2h.169v.082Z" transform="translate(2299.094 -1386.448)" fill="#fff"/>
                <path id="Trazado_2552" data-name="Trazado 2552" d="M-2274.729,1404.647l-.055-.161-.072.028Z" transform="translate(2297.695 -1386.705)" fill="#fff"/>
                <path id="Trazado_2553" data-name="Trazado 2553" d="M-2274.8,1404.579l-.134-.1.049-.068Z" transform="translate(2297.764 -1386.637)" fill="#fff"/>
                <path id="Trazado_2554" data-name="Trazado 2554" d="M-2275.64,1404.579l.134-.1-.049-.068Z" transform="translate(2298.412 -1386.637)" fill="#fff"/>
                <path id="Trazado_2555" data-name="Trazado 2555" d="M-2275.64,1404.647l.049-.161.078.028Z" transform="translate(2298.412 -1386.705)" fill="#fff"/>
                <path id="Trazado_2556" data-name="Trazado 2556" d="M-2265.124,1416.463l-.091.279.13.047Z" transform="translate(2288.896 -1397.637)" fill="#fff"/>
                <path id="Trazado_2557" data-name="Trazado 2557" d="M-2264.68,1416.463l.085.279-.134.047Z" transform="translate(2288.452 -1397.637)" fill="#fff"/>
                <path id="Trazado_2558" data-name="Trazado 2558" d="M-2264.1,1418.8h-.29v.144Z" transform="translate(2288.145 -1399.767)" fill="#fff"/>
                <path id="Trazado_2559" data-name="Trazado 2559" d="M-2264.409,1418.8l-.235.171-.085-.121Z" transform="translate(2288.452 -1399.767)" fill="#fff"/>
                <path id="Trazado_2560" data-name="Trazado 2560" d="M-2267.383,1418.8l.235.171.084-.121Z" transform="translate(2290.875 -1399.767)" fill="#fff"/>
                <path id="Trazado_2561" data-name="Trazado 2561" d="M-2267.383,1418.8h.29v.144Z" transform="translate(2290.875 -1399.767)" fill="#fff"/>
                <path id="Trazado_2562" data-name="Trazado 2562" d="M-2264.646,1419.614l-.091-.274-.14.046Z" transform="translate(2288.588 -1400.263)" fill="#fff"/>
                <path id="Trazado_2563" data-name="Trazado 2563" d="M-2264.715,1419.494l-.238-.17.085-.116Z" transform="translate(2288.657 -1400.143)" fill="#fff"/>
                <path id="Trazado_2564" data-name="Trazado 2564" d="M-2266.112,1419.494l.228-.17-.085-.116Z" transform="translate(2289.715 -1400.143)" fill="#fff"/>
                <path id="Trazado_2565" data-name="Trazado 2565" d="M-2266.112,1419.614l.085-.274.137.046Z" transform="translate(2289.715 -1400.263)" fill="#fff"/>
                <path id="Trazado_2566" data-name="Trazado 2566" d="M-2267.963,1425.767l-.091.279.137.046Z" transform="translate(2291.487 -1406.129)" fill="#fff"/>
                <path id="Trazado_2567" data-name="Trazado 2567" d="M-2267.52,1425.767l.088.279-.137.046Z" transform="translate(2291.044 -1406.129)" fill="#fff"/>
                <path id="Trazado_2568" data-name="Trazado 2568" d="M-2266.868,1428.1h-.29v.142Z" transform="translate(2290.67 -1408.261)" fill="#fff"/>
                <path id="Trazado_2569" data-name="Trazado 2569" d="M-2267.209,1428.1l-.238.171-.085-.119Z" transform="translate(2291.01 -1408.261)" fill="#fff"/>
                <path id="Trazado_2570" data-name="Trazado 2570" d="M-2270.147,1428.1l.235.171.085-.119Z" transform="translate(2293.398 -1408.261)" fill="#fff"/>
                <path id="Trazado_2571" data-name="Trazado 2571" d="M-2270.147,1428.1h.29v.142Z" transform="translate(2293.398 -1408.261)" fill="#fff"/>
                <path id="Trazado_2572" data-name="Trazado 2572" d="M-2267.417,1428.9l-.085-.279-.14.046Z" transform="translate(2291.112 -1408.738)" fill="#fff"/>
                <path id="Trazado_2573" data-name="Trazado 2573" d="M-2267.556,1428.8l-.238-.174.092-.114Z" transform="translate(2291.25 -1408.637)" fill="#fff"/>
                <path id="Trazado_2574" data-name="Trazado 2574" d="M-2268.952,1428.8l.235-.174-.085-.114Z" transform="translate(2292.307 -1408.637)" fill="#fff"/>
                <path id="Trazado_2575" data-name="Trazado 2575" d="M-2268.952,1428.9l.088-.279.14.046Z" transform="translate(2292.307 -1408.738)" fill="#fff"/>
                <path id="Trazado_2576" data-name="Trazado 2576" d="M-2187.643,1354.9l-.108.334.169.052Z" transform="translate(2218.19 -1341.443)" fill="#fff"/>
                <path id="Trazado_2577" data-name="Trazado 2577" d="M-2187.131,1354.9l.111.334-.17.052Z" transform="translate(2217.678 -1341.443)" fill="#fff"/>
                <path id="Trazado_2578" data-name="Trazado 2578" d="M-2186.354,1357.663h-.349v.178Z" transform="translate(2217.235 -1343.967)" fill="#fff"/>
                <path id="Trazado_2579" data-name="Trazado 2579" d="M-2186.73,1357.663l-.284.207-.1-.143Z" transform="translate(2217.61 -1343.967)" fill="#fff"/>
                <path id="Trazado_2580" data-name="Trazado 2580" d="M-2190.327,1357.663l.287.207.1-.143Z" transform="translate(2220.542 -1343.967)" fill="#fff"/>
                <path id="Trazado_2581" data-name="Trazado 2581" d="M-2190.327,1357.663h.352v.178Z" transform="translate(2220.542 -1343.967)" fill="#fff"/>
                <path id="Trazado_2582" data-name="Trazado 2582" d="M-2186.99,1358.689l-.111-.334-.163.055Z" transform="translate(2217.747 -1344.599)" fill="#fff"/>
                <path id="Trazado_2583" data-name="Trazado 2583" d="M-2187.126,1358.518l-.287-.207.1-.143Z" transform="translate(2217.883 -1344.428)" fill="#fff"/>
                <path id="Trazado_2584" data-name="Trazado 2584" d="M-2188.871,1358.518l.284-.207-.1-.143Z" transform="translate(2219.214 -1344.428)" fill="#fff"/>
                <path id="Trazado_2585" data-name="Trazado 2585" d="M-2188.871,1358.689l.111-.334.169.055Z" transform="translate(2219.214 -1344.599)" fill="#fff"/>
                <path id="Trazado_2586" data-name="Trazado 2586" d="M-2151.1,1416.836l-.107.333.17.056Z" transform="translate(2184.832 -1397.977)" fill="#fff"/>
                <path id="Trazado_2587" data-name="Trazado 2587" d="M-2150.516,1416.836l.111.333-.163.056Z" transform="translate(2184.252 -1397.977)" fill="#fff"/>
                <path id="Trazado_2588" data-name="Trazado 2588" d="M-2149.8,1419.6h-.352v.173Z" transform="translate(2183.877 -1400.501)" fill="#fff"/>
                <path id="Trazado_2589" data-name="Trazado 2589" d="M-2150.18,1419.6l-.281.206-.107-.144Z" transform="translate(2184.252 -1400.501)" fill="#fff"/>
                <path id="Trazado_2590" data-name="Trazado 2590" d="M-2153.782,1419.6l.287.206.1-.144Z" transform="translate(2187.186 -1400.501)" fill="#fff"/>
                <path id="Trazado_2591" data-name="Trazado 2591" d="M-2153.782,1419.6h.352v.173Z" transform="translate(2187.186 -1400.501)" fill="#fff"/>
                <path id="Trazado_2592" data-name="Trazado 2592" d="M-2150.437,1420.607l-.111-.333-.169.052Z" transform="translate(2184.388 -1401.115)" fill="#fff"/>
                <path id="Trazado_2593" data-name="Trazado 2593" d="M-2150.5,1420.436l-.287-.205.1-.144Z" transform="translate(2184.456 -1400.944)" fill="#fff"/>
                <path id="Trazado_2594" data-name="Trazado 2594" d="M-2152.286,1420.436l.284-.205-.1-.144Z" transform="translate(2185.82 -1400.944)" fill="#fff"/>
                <path id="Trazado_2595" data-name="Trazado 2595" d="M-2152.286,1420.607l.107-.333.169.052Z" transform="translate(2185.82 -1401.115)" fill="#fff"/>
                <path id="Trazado_2596" data-name="Trazado 2596" d="M-2137.709,1419.059l-.078.22.117.036Z" transform="translate(2172.586 -1400.007)" fill="#fff"/>
                <path id="Trazado_2597" data-name="Trazado 2597" d="M-2137.368,1419.059l.071.22-.117.036Z" transform="translate(2172.246 -1400.007)" fill="#fff"/>
                <path id="Trazado_2598" data-name="Trazado 2598" d="M-2136.813,1420.909h-.228v.114Z" transform="translate(2171.905 -1401.695)" fill="#fff"/>
                <path id="Trazado_2599" data-name="Trazado 2599" d="M-2137.085,1420.909l-.186.137-.068-.1Z" transform="translate(2172.178 -1401.695)" fill="#fff"/>
                <path id="Trazado_2600" data-name="Trazado 2600" d="M-2139.469,1420.909l.186.137.075-.1Z" transform="translate(2174.122 -1401.695)" fill="#fff"/>
                <path id="Trazado_2601" data-name="Trazado 2601" d="M-2139.469,1420.909h.234v.114Z" transform="translate(2174.122 -1401.695)" fill="#fff"/>
                <path id="Trazado_2602" data-name="Trazado 2602" d="M-2137.273,1421.544l-.065-.224-.114.039Z" transform="translate(2172.281 -1402.071)" fill="#fff"/>
                <path id="Trazado_2603" data-name="Trazado 2603" d="M-2137.341,1421.441l-.186-.137.072-.1Z" transform="translate(2172.349 -1401.968)" fill="#fff"/>
                <path id="Trazado_2604" data-name="Trazado 2604" d="M-2138.5,1421.441l.186-.137-.065-.1Z" transform="translate(2173.235 -1401.968)" fill="#fff"/>
                <path id="Trazado_2605" data-name="Trazado 2605" d="M-2138.5,1421.544l.072-.224.107.039Z" transform="translate(2173.235 -1402.071)" fill="#fff"/>
                <path id="Trazado_2606" data-name="Trazado 2606" d="M-2147.009,1425.767l-.085.279.134.046Z" transform="translate(2181.081 -1406.129)" fill="#fff"/>
                <path id="Trazado_2607" data-name="Trazado 2607" d="M-2146.565,1425.767l.088.279-.13.046Z" transform="translate(2180.637 -1406.129)" fill="#fff"/>
                <path id="Trazado_2608" data-name="Trazado 2608" d="M-2145.98,1428.1h-.29v.142Z" transform="translate(2180.33 -1408.261)" fill="#fff"/>
                <path id="Trazado_2609" data-name="Trazado 2609" d="M-2146.288,1428.1l-.229.171-.091-.119Z" transform="translate(2180.637 -1408.261)" fill="#fff"/>
                <path id="Trazado_2610" data-name="Trazado 2610" d="M-2149.259,1428.1l.238.171.084-.119Z" transform="translate(2183.058 -1408.261)" fill="#fff"/>
                <path id="Trazado_2611" data-name="Trazado 2611" d="M-2149.259,1428.1h.29v.142Z" transform="translate(2183.058 -1408.261)" fill="#fff"/>
                <path id="Trazado_2612" data-name="Trazado 2612" d="M-2146.528,1428.9l-.088-.279-.14.046Z" transform="translate(2180.773 -1408.738)" fill="#fff"/>
                <path id="Trazado_2613" data-name="Trazado 2613" d="M-2146.6,1428.8l-.234-.174.085-.114Z" transform="translate(2180.841 -1408.637)" fill="#fff"/>
                <path id="Trazado_2614" data-name="Trazado 2614" d="M-2148.063,1428.8l.235-.174-.085-.114Z" transform="translate(2181.966 -1408.637)" fill="#fff"/>
                <path id="Trazado_2615" data-name="Trazado 2615" d="M-2148.063,1428.9l.088-.279.14.046Z" transform="translate(2181.966 -1408.738)" fill="#fff"/>
                <path id="Trazado_2616" data-name="Trazado 2616" d="M-2169.609,1445.386l-.092.276.137.047Z" transform="translate(2201.715 -1424.036)" fill="#fff"/>
                <path id="Trazado_2617" data-name="Trazado 2617" d="M-2169.2,1445.386l.088.276-.14.047Z" transform="translate(2201.306 -1424.036)" fill="#fff"/>
                <path id="Trazado_2618" data-name="Trazado 2618" d="M-2168.513,1447.722h-.29v.147Z" transform="translate(2200.896 -1426.168)" fill="#fff"/>
                <path id="Trazado_2619" data-name="Trazado 2619" d="M-2168.855,1447.722l-.238.169-.085-.119Z" transform="translate(2201.239 -1426.168)" fill="#fff"/>
                <path id="Trazado_2620" data-name="Trazado 2620" d="M-2171.794,1447.722l.235.169.078-.119Z" transform="translate(2203.626 -1426.168)" fill="#fff"/>
                <path id="Trazado_2621" data-name="Trazado 2621" d="M-2171.794,1447.722h.29v.147Z" transform="translate(2203.626 -1426.168)" fill="#fff"/>
                <path id="Trazado_2622" data-name="Trazado 2622" d="M-2169.136,1448.541l-.081-.277-.147.044Z" transform="translate(2201.408 -1426.663)" fill="#fff"/>
                <path id="Trazado_2623" data-name="Trazado 2623" d="M-2169.2,1448.42l-.235-.173.084-.116Z" transform="translate(2201.476 -1426.542)" fill="#fff"/>
                <path id="Trazado_2624" data-name="Trazado 2624" d="M-2170.6,1448.42l.235-.173-.085-.116Z" transform="translate(2202.534 -1426.542)" fill="#fff"/>
                <path id="Trazado_2625" data-name="Trazado 2625" d="M-2170.6,1448.541l.088-.277.14.044Z" transform="translate(2202.534 -1426.663)" fill="#fff"/>
                <path id="Trazado_2626" data-name="Trazado 2626" d="M-2169.519,1455.513l-.069.219.111.037Z" transform="translate(2201.613 -1433.28)" fill="#fff"/>
                <path id="Trazado_2627" data-name="Trazado 2627" d="M-2169.213,1455.513l.072.219-.111.037Z" transform="translate(2201.306 -1433.28)" fill="#fff"/>
                <path id="Trazado_2628" data-name="Trazado 2628" d="M-2168.649,1457.363h-.228v.116Z" transform="translate(2200.964 -1434.968)" fill="#fff"/>
                <path id="Trazado_2629" data-name="Trazado 2629" d="M-2168.992,1457.363l-.193.134-.068-.093Z" transform="translate(2201.306 -1434.968)" fill="#fff"/>
                <path id="Trazado_2630" data-name="Trazado 2630" d="M-2171.308,1457.363l.186.134.069-.093Z" transform="translate(2203.182 -1434.968)" fill="#fff"/>
                <path id="Trazado_2631" data-name="Trazado 2631" d="M-2171.308,1457.363h.232v.116Z" transform="translate(2203.182 -1434.968)" fill="#fff"/>
                <path id="Trazado_2632" data-name="Trazado 2632" d="M-2169.178,1458.027l-.072-.217-.114.033Z" transform="translate(2201.408 -1435.377)" fill="#fff"/>
                <path id="Trazado_2633" data-name="Trazado 2633" d="M-2169.246,1457.909l-.192-.134.071-.094Z" transform="translate(2201.476 -1435.258)" fill="#fff"/>
                <path id="Trazado_2634" data-name="Trazado 2634" d="M-2170.336,1457.909l.186-.134-.071-.094Z" transform="translate(2202.295 -1435.258)" fill="#fff"/>
                <path id="Trazado_2635" data-name="Trazado 2635" d="M-2170.336,1458.027l.072-.217.107.033Z" transform="translate(2202.295 -1435.377)" fill="#fff"/>
                <path id="Trazado_2636" data-name="Trazado 2636" d="M-2160.131,1438.659l-.078.223.108.036Z" transform="translate(2193.052 -1417.896)" fill="#fff"/>
                <path id="Trazado_2637" data-name="Trazado 2637" d="M-2159.755,1438.659l.065.223-.107.036Z" transform="translate(2192.676 -1417.896)" fill="#fff"/>
                <path id="Trazado_2638" data-name="Trazado 2638" d="M-2159.3,1440.509h-.238v.117Z" transform="translate(2192.439 -1419.584)" fill="#fff"/>
                <path id="Trazado_2639" data-name="Trazado 2639" d="M-2159.536,1440.509l-.189.14-.072-.093Z" transform="translate(2192.676 -1419.584)" fill="#fff"/>
                <path id="Trazado_2640" data-name="Trazado 2640" d="M-2161.891,1440.509l.189.14.065-.093Z" transform="translate(2194.587 -1419.584)" fill="#fff"/>
                <path id="Trazado_2641" data-name="Trazado 2641" d="M-2161.891,1440.509h.238v.117Z" transform="translate(2194.587 -1419.584)" fill="#fff"/>
                <path id="Trazado_2642" data-name="Trazado 2642" d="M-2159.689,1441.2l-.075-.22-.107.036Z" transform="translate(2192.745 -1420.011)" fill="#fff"/>
                <path id="Trazado_2643" data-name="Trazado 2643" d="M-2159.757,1441.095l-.189-.135.075-.094Z" transform="translate(2192.813 -1419.91)" fill="#fff"/>
                <path id="Trazado_2644" data-name="Trazado 2644" d="M-2160.918,1441.095l.189-.135-.069-.094Z" transform="translate(2193.699 -1419.91)" fill="#fff"/>
                <path id="Trazado_2645" data-name="Trazado 2645" d="M-2160.918,1441.2l.075-.22.108.036Z" transform="translate(2193.699 -1420.011)" fill="#fff"/>
                <path id="Trazado_2646" data-name="Trazado 2646" d="M-2152.758,1433.3l-.088.275.133.046Z" transform="translate(2186.332 -1413.003)" fill="#fff"/>
                <path id="Trazado_2647" data-name="Trazado 2647" d="M-2152.385,1433.3l.091.275-.144.046Z" transform="translate(2185.958 -1413.003)" fill="#fff"/>
                <path id="Trazado_2648" data-name="Trazado 2648" d="M-2151.735,1435.613h-.29v.144Z" transform="translate(2185.583 -1415.116)" fill="#fff"/>
                <path id="Trazado_2649" data-name="Trazado 2649" d="M-2151.973,1435.613l-.229.171-.084-.121Z" transform="translate(2185.82 -1415.116)" fill="#fff"/>
                <path id="Trazado_2650" data-name="Trazado 2650" d="M-2155.014,1435.613l.238.171.085-.121Z" transform="translate(2188.31 -1415.116)" fill="#fff"/>
                <path id="Trazado_2651" data-name="Trazado 2651" d="M-2155.014,1435.613h.29v.144Z" transform="translate(2188.31 -1415.116)" fill="#fff"/>
                <path id="Trazado_2652" data-name="Trazado 2652" d="M-2152.283,1436.446l-.085-.272-.144.044Z" transform="translate(2186.026 -1415.628)" fill="#fff"/>
                <path id="Trazado_2653" data-name="Trazado 2653" d="M-2152.351,1436.294l-.235-.17.085-.117Z" transform="translate(2186.094 -1415.476)" fill="#fff"/>
                <path id="Trazado_2654" data-name="Trazado 2654" d="M-2153.819,1436.294l.241-.17-.091-.117Z" transform="translate(2187.219 -1415.476)" fill="#fff"/>
                <path id="Trazado_2655" data-name="Trazado 2655" d="M-2153.819,1436.446l.094-.272.134.044Z" transform="translate(2187.219 -1415.628)" fill="#fff"/>
                <path id="Trazado_2656" data-name="Trazado 2656" d="M-2169.785,1436.885l-.065.222.107.037Z" transform="translate(2201.852 -1416.277)" fill="#fff"/>
                <path id="Trazado_2657" data-name="Trazado 2657" d="M-2169.477,1436.885l.078.222-.114.037Z" transform="translate(2201.544 -1416.277)" fill="#fff"/>
                <path id="Trazado_2658" data-name="Trazado 2658" d="M-2168.94,1438.753h-.238v.116Z" transform="translate(2201.239 -1417.982)" fill="#fff"/>
                <path id="Trazado_2659" data-name="Trazado 2659" d="M-2169.178,1438.753l-.192.135-.069-.1Z" transform="translate(2201.476 -1417.982)" fill="#fff"/>
                <path id="Trazado_2660" data-name="Trazado 2660" d="M-2171.57,1438.753l.186.135.068-.1Z" transform="translate(2203.422 -1417.982)" fill="#fff"/>
                <path id="Trazado_2661" data-name="Trazado 2661" d="M-2171.57,1438.753h.235v.116Z" transform="translate(2203.422 -1417.982)" fill="#fff"/>
                <path id="Trazado_2662" data-name="Trazado 2662" d="M-2169.4,1439.408l-.075-.225-.114.034Z" transform="translate(2201.613 -1418.375)" fill="#fff"/>
                <path id="Trazado_2663" data-name="Trazado 2663" d="M-2169.434,1439.34l-.192-.142.065-.09Z" transform="translate(2201.647 -1418.306)" fill="#fff"/>
                <path id="Trazado_2664" data-name="Trazado 2664" d="M-2170.6,1439.34l.186-.142-.068-.09Z" transform="translate(2202.534 -1418.306)" fill="#fff"/>
                <path id="Trazado_2665" data-name="Trazado 2665" d="M-2170.6,1439.408l.072-.225.114.034Z" transform="translate(2202.534 -1418.375)" fill="#fff"/>
                <path id="Trazado_2666" data-name="Trazado 2666" d="M-2252.157,1388.455l-.091.276.14.044Z" transform="translate(2277.061 -1372.072)" fill="#fff"/>
                <path id="Trazado_2667" data-name="Trazado 2667" d="M-2251.714,1388.455l.088.276-.137.044Z" transform="translate(2276.617 -1372.072)" fill="#fff"/>
                <path id="Trazado_2668" data-name="Trazado 2668" d="M-2251.061,1390.752h-.29v.145Z" transform="translate(2276.242 -1374.169)" fill="#fff"/>
                <path id="Trazado_2669" data-name="Trazado 2669" d="M-2251.368,1390.752l-.235.174-.085-.121Z" transform="translate(2276.549 -1374.169)" fill="#fff"/>
                <path id="Trazado_2670" data-name="Trazado 2670" d="M-2254.415,1390.752l.238.174.085-.121Z" transform="translate(2279.038 -1374.169)" fill="#fff"/>
                <path id="Trazado_2671" data-name="Trazado 2671" d="M-2254.415,1390.752h.291v.145Z" transform="translate(2279.038 -1374.169)" fill="#fff"/>
                <path id="Trazado_2672" data-name="Trazado 2672" d="M-2251.612,1391.608l-.085-.275-.14.044Z" transform="translate(2276.685 -1374.699)" fill="#fff"/>
                <path id="Trazado_2673" data-name="Trazado 2673" d="M-2251.749,1391.454l-.238-.171.085-.119Z" transform="translate(2276.822 -1374.545)" fill="#fff"/>
                <path id="Trazado_2674" data-name="Trazado 2674" d="M-2253.219,1391.454l.241-.171-.085-.119Z" transform="translate(2277.946 -1374.545)" fill="#fff"/>
                <path id="Trazado_2675" data-name="Trazado 2675" d="M-2253.219,1391.608l.094-.275.134.044Z" transform="translate(2277.946 -1374.699)" fill="#fff"/>
                <path id="Trazado_2676" data-name="Trazado 2676" d="M-2190.786,1380.551l-.065.224.107.034Z" transform="translate(2221.021 -1364.858)" fill="#fff"/>
                <path id="Trazado_2677" data-name="Trazado 2677" d="M-2190.479,1380.551l.078.224-.114.034Z" transform="translate(2220.714 -1364.858)" fill="#fff"/>
                <path id="Trazado_2678" data-name="Trazado 2678" d="M-2189.944,1382.438h-.235v.114Z" transform="translate(2220.406 -1366.58)" fill="#fff"/>
                <path id="Trazado_2679" data-name="Trazado 2679" d="M-2190.183,1382.438l-.192.137-.065-.095Z" transform="translate(2220.646 -1366.58)" fill="#fff"/>
                <path id="Trazado_2680" data-name="Trazado 2680" d="M-2192.608,1382.438l.189.137.065-.095Z" transform="translate(2222.624 -1366.58)" fill="#fff"/>
                <path id="Trazado_2681" data-name="Trazado 2681" d="M-2192.608,1382.438h.238v.114Z" transform="translate(2222.624 -1366.58)" fill="#fff"/>
                <path id="Trazado_2682" data-name="Trazado 2682" d="M-2190.4,1383.091l-.078-.223-.108.037Z" transform="translate(2220.782 -1366.973)" fill="#fff"/>
                <path id="Trazado_2683" data-name="Trazado 2683" d="M-2190.472,1382.973l-.192-.14.069-.094Z" transform="translate(2220.85 -1366.854)" fill="#fff"/>
                <path id="Trazado_2684" data-name="Trazado 2684" d="M-2191.636,1382.973l.189-.14-.069-.094Z" transform="translate(2221.737 -1366.854)" fill="#fff"/>
                <path id="Trazado_2685" data-name="Trazado 2685" d="M-2191.636,1383.091l.072-.223.111.037Z" transform="translate(2221.737 -1366.973)" fill="#fff"/>
                <path id="Trazado_2686" data-name="Trazado 2686" d="M-2216.712,1425.991l-.111.333.17.055Z" transform="translate(2244.726 -1406.333)" fill="#fff"/>
                <path id="Trazado_2687" data-name="Trazado 2687" d="M-2216.132,1425.991l.108.333-.163.055Z" transform="translate(2244.146 -1406.333)" fill="#fff"/>
                <path id="Trazado_2688" data-name="Trazado 2688" d="M-2215.356,1428.756h-.345v.176Z" transform="translate(2243.702 -1408.857)" fill="#fff"/>
                <path id="Trazado_2689" data-name="Trazado 2689" d="M-2215.731,1428.756l-.28.209-.1-.145Z" transform="translate(2244.078 -1408.857)" fill="#fff"/>
                <path id="Trazado_2690" data-name="Trazado 2690" d="M-2219.364,1428.756l.291.209.094-.145Z" transform="translate(2247.045 -1408.857)" fill="#fff"/>
                <path id="Trazado_2691" data-name="Trazado 2691" d="M-2219.364,1428.756h.349v.176Z" transform="translate(2247.045 -1408.857)" fill="#fff"/>
                <path id="Trazado_2692" data-name="Trazado 2692" d="M-2216.062,1429.8l-.1-.331-.169.052Z" transform="translate(2244.282 -1409.507)" fill="#fff"/>
                <path id="Trazado_2693" data-name="Trazado 2693" d="M-2216.131,1429.627l-.28-.207.1-.14Z" transform="translate(2244.35 -1409.335)" fill="#fff"/>
                <path id="Trazado_2694" data-name="Trazado 2694" d="M-2217.906,1429.627l.284-.207-.1-.14Z" transform="translate(2245.714 -1409.335)" fill="#fff"/>
                <path id="Trazado_2695" data-name="Trazado 2695" d="M-2217.906,1429.8l.107-.331.17.052Z" transform="translate(2245.714 -1409.507)" fill="#fff"/>
                <path id="Trazado_2696" data-name="Trazado 2696" d="M-2205.632,1408.073l-.091.277.14.042Z" transform="translate(2234.595 -1389.979)" fill="#fff"/>
                <path id="Trazado_2697" data-name="Trazado 2697" d="M-2205.189,1408.073l.091.277-.14.042Z" transform="translate(2234.152 -1389.979)" fill="#fff"/>
                <path id="Trazado_2698" data-name="Trazado 2698" d="M-2204.608,1410.39h-.293v.142Z" transform="translate(2233.844 -1392.094)" fill="#fff"/>
                <path id="Trazado_2699" data-name="Trazado 2699" d="M-2204.915,1410.39l-.238.17-.085-.118Z" transform="translate(2234.152 -1392.094)" fill="#fff"/>
                <path id="Trazado_2700" data-name="Trazado 2700" d="M-2207.853,1410.39l.235.17.085-.118Z" transform="translate(2236.539 -1392.094)" fill="#fff"/>
                <path id="Trazado_2701" data-name="Trazado 2701" d="M-2207.853,1410.39h.29v.142Z" transform="translate(2236.539 -1392.094)" fill="#fff"/>
                <path id="Trazado_2702" data-name="Trazado 2702" d="M-2205.122,1411.191l-.091-.279-.137.047Z" transform="translate(2234.255 -1392.571)" fill="#fff"/>
                <path id="Trazado_2703" data-name="Trazado 2703" d="M-2205.19,1411.055l-.235-.173.085-.119Z" transform="translate(2234.323 -1392.435)" fill="#fff"/>
                <path id="Trazado_2704" data-name="Trazado 2704" d="M-2206.7,1411.055l.238-.173-.085-.119Z" transform="translate(2235.482 -1392.435)" fill="#fff"/>
                <path id="Trazado_2705" data-name="Trazado 2705" d="M-2206.7,1411.191l.091-.279.14.047Z" transform="translate(2235.482 -1392.571)" fill="#fff"/>
                <path id="Trazado_2706" data-name="Trazado 2706" d="M-2216.508,1399.684l-.091.274.14.046Z" transform="translate(2244.522 -1382.322)" fill="#fff"/>
                <path id="Trazado_2707" data-name="Trazado 2707" d="M-2216,1399.684l.088.274-.13.046Z" transform="translate(2244.01 -1382.322)" fill="#fff"/>
                <path id="Trazado_2708" data-name="Trazado 2708" d="M-2215.411,1401.964h-.29v.146Z" transform="translate(2243.702 -1384.403)" fill="#fff"/>
                <path id="Trazado_2709" data-name="Trazado 2709" d="M-2215.718,1401.964l-.235.169-.085-.116Z" transform="translate(2244.01 -1384.403)" fill="#fff"/>
                <path id="Trazado_2710" data-name="Trazado 2710" d="M-2218.692,1401.964l.238.169.078-.116Z" transform="translate(2246.432 -1384.403)" fill="#fff"/>
                <path id="Trazado_2711" data-name="Trazado 2711" d="M-2218.692,1401.964h.291v.146Z" transform="translate(2246.432 -1384.403)" fill="#fff"/>
                <path id="Trazado_2712" data-name="Trazado 2712" d="M-2215.959,1402.8l-.088-.277-.14.042Z" transform="translate(2244.146 -1384.915)" fill="#fff"/>
                <path id="Trazado_2713" data-name="Trazado 2713" d="M-2216.027,1402.664l-.235-.171.085-.119Z" transform="translate(2244.214 -1384.777)" fill="#fff"/>
                <path id="Trazado_2714" data-name="Trazado 2714" d="M-2217.5,1402.664l.235-.171-.085-.119Z" transform="translate(2245.34 -1384.777)" fill="#fff"/>
                <path id="Trazado_2715" data-name="Trazado 2715" d="M-2217.5,1402.8l.088-.277.14.042Z" transform="translate(2245.34 -1384.915)" fill="#fff"/>
                <path id="Trazado_2716" data-name="Trazado 2716" d="M-2225.756,1408.728l-.072.223.114.036Z" transform="translate(2252.946 -1390.576)" fill="#fff"/>
                <path id="Trazado_2717" data-name="Trazado 2717" d="M-2225.381,1408.728l.078.223-.114.036Z" transform="translate(2252.57 -1390.576)" fill="#fff"/>
                <path id="Trazado_2718" data-name="Trazado 2718" d="M-2224.849,1410.578h-.231v.114Z" transform="translate(2252.263 -1392.265)" fill="#fff"/>
                <path id="Trazado_2719" data-name="Trazado 2719" d="M-2225.156,1410.578l-.189.137-.072-.1Z" transform="translate(2252.57 -1392.265)" fill="#fff"/>
                <path id="Trazado_2720" data-name="Trazado 2720" d="M-2227.472,1410.578l.186.137.065-.1Z" transform="translate(2254.446 -1392.265)" fill="#fff"/>
                <path id="Trazado_2721" data-name="Trazado 2721" d="M-2227.472,1410.578h.228v.114Z" transform="translate(2254.446 -1392.265)" fill="#fff"/>
                <path id="Trazado_2722" data-name="Trazado 2722" d="M-2225.309,1411.247l-.069-.222-.114.036Z" transform="translate(2252.638 -1392.674)" fill="#fff"/>
                <path id="Trazado_2723" data-name="Trazado 2723" d="M-2225.344,1411.144l-.186-.137.072-.095Z" transform="translate(2252.673 -1392.571)" fill="#fff"/>
                <path id="Trazado_2724" data-name="Trazado 2724" d="M-2226.5,1411.144l.186-.137-.068-.095Z" transform="translate(2253.56 -1392.571)" fill="#fff"/>
                <path id="Trazado_2725" data-name="Trazado 2725" d="M-2226.5,1411.247l.072-.222.108.036Z" transform="translate(2253.56 -1392.674)" fill="#fff"/>
                <path id="Trazado_2726" data-name="Trazado 2726" d="M-2220.769,1416l-.052.158.078.024Z" transform="translate(2248.376 -1397.211)" fill="#fff"/>
                <path id="Trazado_2727" data-name="Trazado 2727" d="M-2220.53,1416l.049.158-.078.024Z" transform="translate(2248.137 -1397.211)" fill="#fff"/>
                <path id="Trazado_2728" data-name="Trazado 2728" d="M-2220.169,1417.3h-.166v.083Z" transform="translate(2247.932 -1398.403)" fill="#fff"/>
                <path id="Trazado_2729" data-name="Trazado 2729" d="M-2220.305,1417.3l-.131.1-.049-.068Z" transform="translate(2248.068 -1398.403)" fill="#fff"/>
                <path id="Trazado_2730" data-name="Trazado 2730" d="M-2222.092,1417.3l.14.1.049-.068Z" transform="translate(2249.535 -1398.403)" fill="#fff"/>
                <path id="Trazado_2731" data-name="Trazado 2731" d="M-2222.092,1417.3h.17v.083Z" transform="translate(2249.535 -1398.403)" fill="#fff"/>
                <path id="Trazado_2732" data-name="Trazado 2732" d="M-2220.506,1417.8l-.049-.16-.078.024Z" transform="translate(2248.205 -1398.711)" fill="#fff"/>
                <path id="Trazado_2733" data-name="Trazado 2733" d="M-2220.575,1417.714l-.134-.1.055-.068Z" transform="translate(2248.273 -1398.625)" fill="#fff"/>
                <path id="Trazado_2734" data-name="Trazado 2734" d="M-2221.382,1417.714l.134-.1-.049-.068Z" transform="translate(2248.887 -1398.625)" fill="#fff"/>
                <path id="Trazado_2735" data-name="Trazado 2735" d="M-2221.382,1417.8l.055-.16.078.024Z" transform="translate(2248.887 -1398.711)" fill="#fff"/>
                <path id="Trazado_2736" data-name="Trazado 2736" d="M-2188.444,1447.665l-.091.279.14.047Z" transform="translate(2218.906 -1426.116)" fill="#fff"/>
                <path id="Trazado_2737" data-name="Trazado 2737" d="M-2188.033,1447.665l.091.279-.144.047Z" transform="translate(2218.496 -1426.116)" fill="#fff"/>
                <path id="Trazado_2738" data-name="Trazado 2738" d="M-2187.385,1449.963h-.291v.15Z" transform="translate(2218.122 -1428.214)" fill="#fff"/>
                <path id="Trazado_2739" data-name="Trazado 2739" d="M-2187.691,1449.963l-.235.174-.085-.12Z" transform="translate(2218.428 -1428.214)" fill="#fff"/>
                <path id="Trazado_2740" data-name="Trazado 2740" d="M-2190.664,1449.963l.231.174.092-.12Z" transform="translate(2220.85 -1428.214)" fill="#fff"/>
                <path id="Trazado_2741" data-name="Trazado 2741" d="M-2190.664,1449.963h.291v.15Z" transform="translate(2220.85 -1428.214)" fill="#fff"/>
                <path id="Trazado_2742" data-name="Trazado 2742" d="M-2187.931,1450.821l-.091-.279-.137.047Z" transform="translate(2218.563 -1428.742)" fill="#fff"/>
                <path id="Trazado_2743" data-name="Trazado 2743" d="M-2188,1450.72l-.235-.171.085-.117Z" transform="translate(2218.634 -1428.641)" fill="#fff"/>
                <path id="Trazado_2744" data-name="Trazado 2744" d="M-2189.468,1450.72l.235-.171-.085-.117Z" transform="translate(2219.758 -1428.641)" fill="#fff"/>
                <path id="Trazado_2745" data-name="Trazado 2745" d="M-2189.468,1450.821l.088-.279.14.047Z" transform="translate(2219.758 -1428.742)" fill="#fff"/>
                <path id="Trazado_2746" data-name="Trazado 2746" d="M-2180.242,1440.078l-.072.222.108.037Z" transform="translate(2211.403 -1419.192)" fill="#fff"/>
                <path id="Trazado_2747" data-name="Trazado 2747" d="M-2179.934,1440.078l.071.222-.114.037Z" transform="translate(2211.095 -1419.192)" fill="#fff"/>
                <path id="Trazado_2748" data-name="Trazado 2748" d="M-2179.406,1441.948h-.234v.111Z" transform="translate(2210.787 -1420.898)" fill="#fff"/>
                <path id="Trazado_2749" data-name="Trazado 2749" d="M-2179.645,1441.948l-.186.134-.072-.091Z" transform="translate(2211.027 -1420.898)" fill="#fff"/>
                <path id="Trazado_2750" data-name="Trazado 2750" d="M-2182.07,1441.948l.189.134.072-.091Z" transform="translate(2213.005 -1420.898)" fill="#fff"/>
                <path id="Trazado_2751" data-name="Trazado 2751" d="M-2182.07,1441.948h.238v.111Z" transform="translate(2213.005 -1420.898)" fill="#fff"/>
                <path id="Trazado_2752" data-name="Trazado 2752" d="M-2179.8,1442.581l-.072-.222-.107.037Z" transform="translate(2211.095 -1421.273)" fill="#fff"/>
                <path id="Trazado_2753" data-name="Trazado 2753" d="M-2179.866,1442.478l-.186-.137.069-.095Z" transform="translate(2211.163 -1421.171)" fill="#fff"/>
                <path id="Trazado_2754" data-name="Trazado 2754" d="M-2181.023,1442.478l.186-.137-.072-.095Z" transform="translate(2212.05 -1421.171)" fill="#fff"/>
                <path id="Trazado_2755" data-name="Trazado 2755" d="M-2181.023,1442.581l.072-.222.111.037Z" transform="translate(2212.05 -1421.273)" fill="#fff"/>
                <path id="Trazado_2756" data-name="Trazado 2756" d="M-2195.638,1437.781l-.072.22.107.039Z" transform="translate(2225.455 -1417.094)" fill="#fff"/>
                <path id="Trazado_2757" data-name="Trazado 2757" d="M-2195.262,1437.781l.072.22-.108.039Z" transform="translate(2225.08 -1417.094)" fill="#fff"/>
                <path id="Trazado_2758" data-name="Trazado 2758" d="M-2194.8,1439.612h-.231v.119Z" transform="translate(2224.84 -1418.766)" fill="#fff"/>
                <path id="Trazado_2759" data-name="Trazado 2759" d="M-2195.044,1439.612l-.189.14-.065-.1Z" transform="translate(2225.08 -1418.766)" fill="#fff"/>
                <path id="Trazado_2760" data-name="Trazado 2760" d="M-2197.466,1439.612l.189.14.065-.1Z" transform="translate(2227.058 -1418.766)" fill="#fff"/>
                <path id="Trazado_2761" data-name="Trazado 2761" d="M-2197.466,1439.612h.238v.119Z" transform="translate(2227.058 -1418.766)" fill="#fff"/>
                <path id="Trazado_2762" data-name="Trazado 2762" d="M-2195.262,1440.3l-.071-.222-.114.038Z" transform="translate(2225.215 -1419.192)" fill="#fff"/>
                <path id="Trazado_2763" data-name="Trazado 2763" d="M-2195.33,1440.217l-.192-.137.072-.093Z" transform="translate(2225.284 -1419.108)" fill="#fff"/>
                <path id="Trazado_2764" data-name="Trazado 2764" d="M-2196.494,1440.217l.189-.137-.068-.093Z" transform="translate(2226.171 -1419.108)" fill="#fff"/>
                <path id="Trazado_2765" data-name="Trazado 2765" d="M-2196.494,1440.3l.072-.222.117.038Z" transform="translate(2226.171 -1419.192)" fill="#fff"/>
                <path id="Trazado_2766" data-name="Trazado 2766" d="M-2254.236,1433.633l-.1.331.163.055Z" transform="translate(2278.969 -1413.309)" fill="#fff"/>
                <path id="Trazado_2767" data-name="Trazado 2767" d="M-2253.724,1433.633l.108.331-.163.055Z" transform="translate(2278.458 -1413.309)" fill="#fff"/>
                <path id="Trazado_2768" data-name="Trazado 2768" d="M-2252.941,1436.436h-.352v.175Z" transform="translate(2278.015 -1415.867)" fill="#fff"/>
                <path id="Trazado_2769" data-name="Trazado 2769" d="M-2253.317,1436.436l-.29.2-.1-.142Z" transform="translate(2278.39 -1415.867)" fill="#fff"/>
                <path id="Trazado_2770" data-name="Trazado 2770" d="M-2256.993,1436.436l.293.2.095-.142Z" transform="translate(2281.392 -1415.867)" fill="#fff"/>
                <path id="Trazado_2771" data-name="Trazado 2771" d="M-2256.993,1436.436h.352v.175Z" transform="translate(2281.392 -1415.867)" fill="#fff"/>
                <path id="Trazado_2772" data-name="Trazado 2772" d="M-2253.586,1437.44l-.1-.331-.163.052Z" transform="translate(2278.526 -1416.482)" fill="#fff"/>
                <path id="Trazado_2773" data-name="Trazado 2773" d="M-2253.725,1437.269l-.28-.205.1-.142Z" transform="translate(2278.664 -1416.31)" fill="#fff"/>
                <path id="Trazado_2774" data-name="Trazado 2774" d="M-2255.5,1437.269l.284-.205-.1-.142Z" transform="translate(2280.028 -1416.31)" fill="#fff"/>
                <path id="Trazado_2775" data-name="Trazado 2775" d="M-2255.5,1437.44l.114-.331.163.052Z" transform="translate(2280.028 -1416.482)" fill="#fff"/>
                <path id="Trazado_2776" data-name="Trazado 2776" d="M-2215.927,1459.866l-.036.113.052.018Z" transform="translate(2243.941 -1437.252)" fill="#fff"/>
                <path id="Trazado_2777" data-name="Trazado 2777" d="M-2215.688,1459.866l.036.113-.049.018Z" transform="translate(2243.702 -1437.252)" fill="#fff"/>
                <path id="Trazado_2778" data-name="Trazado 2778" d="M-2215.506,1460.818h-.121v.057Z" transform="translate(2243.635 -1438.122)" fill="#fff"/>
                <path id="Trazado_2779" data-name="Trazado 2779" d="M-2215.574,1460.818l-.1.068-.03-.049Z" transform="translate(2243.702 -1438.122)" fill="#fff"/>
                <path id="Trazado_2780" data-name="Trazado 2780" d="M-2216.823,1460.818l.1.068.03-.049Z" transform="translate(2244.726 -1438.122)" fill="#fff"/>
                <path id="Trazado_2781" data-name="Trazado 2781" d="M-2216.823,1460.818h.114v.057Z" transform="translate(2244.726 -1438.122)" fill="#fff"/>
                <path id="Trazado_2782" data-name="Trazado 2782" d="M-2215.691,1461.136l-.029-.111-.055.02Z" transform="translate(2243.771 -1438.311)" fill="#fff"/>
                <path id="Trazado_2783" data-name="Trazado 2783" d="M-2215.759,1461.118l-.091-.067.03-.046Z" transform="translate(2243.838 -1438.293)" fill="#fff"/>
                <path id="Trazado_2784" data-name="Trazado 2784" d="M-2216.336,1461.118l.091-.067-.03-.046Z" transform="translate(2244.282 -1438.293)" fill="#fff"/>
                <path id="Trazado_2785" data-name="Trazado 2785" d="M-2216.336,1461.136l.039-.111.052.02Z" transform="translate(2244.282 -1438.311)" fill="#fff"/>
              </g>
            </g>
          </g>
        </g>
      </g>
    </g>
  </g>
</svg>
