<svg xmlns="http://www.w3.org/2000/svg" viewBox="0 0 33 33">
  <defs>
    <style>.cls-1{fill:#ba0019;}.cls-2{fill:#fff;}.cls-3{fill:#1a237b;}</style>
  </defs>
  <g id="Capa_2" data-name="Capa 2">
    <g id="Capa_1-2" data-name="Capa 1">
      <path class="cls-1" d="M32.88,16.44H0A16.44,16.44,0,0,0,15.68,32.86l.76,0A16.44,16.44,0,0,0,32.88,16.44Z"/>
      <path class="cls-2" d="M32.88,16.44A16.45,16.45,0,0,0,16.44,0l-.76,0V16.44Z"/>
      <path class="cls-3" d="M15.68,0A16.43,16.43,0,0,0,0,16.44H15.68ZM10.75,12.41,8.33,10.66,5.92,12.41l.92-2.84L4.42,7.82h3L8.34,5l.91,2.84h3L9.83,9.57Z"/>
      <polygon class="cls-2" points="9.26 7.82 8.34 4.98 7.41 7.82 4.42 7.82 6.84 9.57 5.92 12.41 8.33 10.66 10.75 12.41 9.82 9.57 12.24 7.82 9.26 7.82"/>
    </g>
  </g>
</svg>