<svg xmlns="http://www.w3.org/2000/svg" xmlns:xlink="http://www.w3.org/1999/xlink" viewBox="0 0 345.37 254.81"><defs><style>.cls-1{isolation:isolate;}.cls-2{fill:#e81917;}.cls-3{fill:#f9f51d;}.cls-4{fill:#2c4b9e;}.cls-5{mix-blend-mode:multiply;}.cls-5,.cls-6{fill:url(#linear-gradient);}.cls-6{opacity:0.25;mix-blend-mode:overlay;}</style><linearGradient id="linear-gradient" x1="0.14" y1="127.82" x2="345.15" y2="127.82" gradientUnits="userSpaceOnUse"><stop offset="0" stop-color="#fff"/><stop offset="0.13" stop-color="#f7f7f7"/><stop offset="0.34" stop-color="#e0e0e0"/><stop offset="0.54" stop-color="#c4c5c5"/><stop offset="0.57" stop-color="#c1c2c3"/><stop offset="0.69" stop-color="#bebfc0"/><stop offset="0.91" stop-color="#fff"/></linearGradient></defs><g class="cls-1"><g id="Capa_2" data-name="Capa 2"><g id="Capa_1-2" data-name="Capa 1"><path class="cls-2" d="M345.35,235.22c-115.1-64.91-230.2,64.92-345.3,0V164.45c115.1,64.87,230.2-64.95,345.3,0Z"/><path class="cls-3" d="M345.37,117.53c-115.11-64.94-230.21,64.9-345.32,0V18.78c115.11,64.87,230.21-65,345.32,0Z"/><path class="cls-4" d="M0,117.53c115.12,64.94,230.25-64.95,345.37,0v58.69c-115.12-64.95-230.25,64.94-345.37,0Z"/><path class="cls-5" d="M345.15,90.76v72.86a.1.1,0,0,1-.1-.1V236c-115-64.67-230,65-344.91.11V19.55c114.89,65,229.9-64.76,344.91-.1V90.66A.1.1,0,0,0,345.15,90.76Z"/><path class="cls-6" d="M345.15,90.76v72.86a.1.1,0,0,1-.1-.1V236c-115-64.67-230,65-344.91.11V19.55c114.89,65,229.9-64.76,344.91-.1V90.66A.1.1,0,0,0,345.15,90.76Z"/></g></g></g></svg>