<svg xmlns="http://www.w3.org/2000/svg" xmlns:xlink="http://www.w3.org/1999/xlink" viewBox="0 0 355.67 257.98"><defs><style>.cls-1{isolation:isolate;}.cls-2{fill:#db2d2e;}.cls-3{fill:#fff;}.cls-4{fill:#2e4592;}.cls-5{mix-blend-mode:multiply;}.cls-5,.cls-6{fill:url(#linear-gradient);}.cls-6{opacity:0.25;mix-blend-mode:overlay;}</style><linearGradient id="linear-gradient" x1="0.89" y1="127.86" x2="355.23" y2="127.86" gradientUnits="userSpaceOnUse"><stop offset="0" stop-color="#fff"/><stop offset="0.13" stop-color="#f7f7f7"/><stop offset="0.34" stop-color="#e0e0e0"/><stop offset="0.54" stop-color="#c4c5c5"/><stop offset="0.57" stop-color="#c1c2c3"/><stop offset="0.69" stop-color="#bebfc0"/><stop offset="0.91" stop-color="#fff"/></linearGradient></defs><g class="cls-1"><g id="Capa_2" data-name="Capa 2"><g id="Capa_1-2" data-name="Capa 1"><path class="cls-2" d="M355.67,103.66c-118.56-66-237.11,66-355.67,0v-17c118.56,66,237.11-66,355.67,0Z"/><path class="cls-2" d="M355.67,69.81c-118.56-66-237.11,66-355.67,0v-17c118.56,66,237.11-66,355.67,0Z"/><path class="cls-2" d="M355.67,36C237.11-30,118.56,102,0,36V19c118.56,66,237.11-66,355.67,0Z"/><path class="cls-2" d="M355.67,137.52c-118.56-66-237.11,66-355.67,0v-17c118.56,66,237.11-66,355.67,0Z"/><path class="cls-2" d="M355.67,171.32c-118.56-66-237.11,66-355.67,0v-17c118.56,66,237.11-66,355.67,0Z"/><path class="cls-2" d="M355.67,205.15c-118.56-66-237.11,66-355.67,0v-17c118.56,66,237.11-66,355.67,0Z"/><path class="cls-2" d="M355.67,238.94c-118.56-66-237.11,66-355.67,0V222c118.56,66,237.11-66,355.67,0Z"/><path class="cls-3" d="M355.67,86.74c-118.56-66-237.11,66-355.67,0V69.79c118.56,66,237.11-66,355.67,0Z"/><path class="cls-3" d="M355.67,52.92c-118.56-66-237.11,66-355.67,0V36c118.56,66,237.11-66,355.67,0Z"/><path class="cls-3" d="M355.67,120.59c-118.56-66-237.11,66-355.67,0v-17c118.56,66,237.11-66,355.67,0Z"/><path class="cls-3" d="M355.67,154.38c-118.56-66-237.11,66-355.67,0V137.43c118.56,66,237.11-66,355.67,0Z"/><path class="cls-3" d="M355.67,188.23c-118.56-66-237.11,66-355.67,0V171.28c118.56,66,237.11-66,355.67,0Z"/><path class="cls-3" d="M355.67,222.07c-118.56-66-237.11,66-355.67,0V205.12c118.56,66,237.11-66,355.67,0Z"/><path class="cls-4" d="M133,31.28c-44.33,10-88.66,13-133-11.69V122c44.33,24.66,88.66,21.66,133,11.69Z"/><path class="cls-3" d="M111.16,55.88l1.4,3.74c-1.13-.64-2.24-1.3-3.37-2v0c-1.11,1-2.24,2-3.35,3,.46-1.38.94-2.77,1.4-4.17l0,0h0l-3.46-1.85c1.39-.18,2.79-.38,4.17-.59.39-1.38.76-2.77,1.15-4.16.42,1.27.86,2.52,1.29,3.79h0c1.41-.22,2.8-.46,4.21-.7l-3.47,2.91h0Z"/><path class="cls-3" d="M111.16,76.57c.46,1.25.93,2.48,1.4,3.73-1.13-.64-2.24-1.29-3.37-2v0c-1.11,1-2.24,2-3.35,3,.46-1.39.94-2.78,1.4-4.16l0,0h0c-1.15-.61-2.31-1.24-3.46-1.87,1.39-.18,2.79-.37,4.17-.58.39-1.38.76-2.77,1.15-4.16.42,1.25.86,2.52,1.29,3.78h0c1.41-.22,2.8-.47,4.21-.71-1.15,1-2.32,2-3.47,2.93h0Z"/><path class="cls-3" d="M111.16,97.27l1.4,3.72c-1.13-.64-2.24-1.3-3.37-2h0a0,0,0,0,1,0,0c-1.11,1-2.24,2-3.35,3,.46-1.38.94-2.77,1.4-4.15l0,0h0L103.78,96c1.39-.18,2.79-.39,4.17-.59.39-1.39.76-2.78,1.15-4.16.42,1.26.86,2.52,1.29,3.79h0l4.21-.7-3.47,2.91h0Z"/><path class="cls-3" d="M111.16,118c.46,1.24.93,2.48,1.4,3.73-1.13-.64-2.24-1.29-3.37-2v0l-3.35,3c.46-1.39.94-2.78,1.4-4.17l0,0h0c-1.15-.6-2.31-1.23-3.46-1.86,1.39-.18,2.79-.38,4.17-.58.39-1.39.76-2.78,1.15-4.17.42,1.26.86,2.53,1.29,3.79h0l4.21-.71-3.47,2.93h0Z"/><path class="cls-3" d="M89.16,58.48c.47,1.28.93,2.57,1.4,3.86-1.13-.74-2.24-1.49-3.37-2.26v0l-3.36,2.67,1.41-4,0,0h0c-1.16-.71-2.31-1.44-3.47-2.18,1.39,0,2.79-.11,4.18-.18.37-1.36.76-2.71,1.13-4.07.44,1.31.86,2.61,1.3,3.91h0c1.4-.09,2.8-.2,4.2-.32-1.16.87-2.3,1.74-3.46,2.6h0Z"/><path class="cls-3" d="M89.16,79.16c.47,1.29.93,2.58,1.4,3.86-1.13-.74-2.24-1.49-3.37-2.24v0c-1.12.89-2.24,1.78-3.36,2.65l1.41-4,0,0h0c-1.16-.72-2.31-1.45-3.47-2.2,1.39,0,2.79-.1,4.18-.18.37-1.35.76-2.7,1.13-4.06.44,1.31.86,2.6,1.3,3.9,0,0,0,0,0,0h0q2.1-.15,4.2-.33c-1.16.88-2.3,1.76-3.46,2.62h0Z"/><path class="cls-3" d="M89.16,99.86c.47,1.28.93,2.57,1.4,3.84-1.13-.74-2.24-1.49-3.37-2.25v0h0q-1.68,1.36-3.36,2.68l1.41-4a.11.11,0,0,0,0,0h0c-1.16-.7-2.31-1.43-3.47-2.17,1.39,0,2.79-.12,4.18-.19.37-1.36.76-2.7,1.13-4.06.44,1.31.86,2.6,1.3,3.91h0c1.4-.09,2.8-.2,4.2-.32-1.16.87-2.3,1.74-3.46,2.6h0Z"/><path class="cls-3" d="M89.16,120.54c.47,1.29.93,2.58,1.4,3.85-1.13-.74-2.24-1.49-3.37-2.24v0c-1.12.89-2.24,1.79-3.36,2.66l1.41-4,0,0h0c-1.16-.72-2.31-1.45-3.47-2.2,1.39,0,2.79-.1,4.18-.17.37-1.36.76-2.7,1.13-4.06.44,1.3.86,2.6,1.3,3.9l0,0h0l4.2-.33c-1.16.88-2.3,1.76-3.46,2.62h0Z"/><path class="cls-3" d="M67.14,58.8c.48,1.35,1,2.69,1.42,4q-1.68-1.3-3.36-2.65a0,0,0,0,1,0,0,0,0,0,0,1,0,0c-1.13.78-2.24,1.54-3.37,2.28.47-1.29.95-2.59,1.41-3.87l.05,0h0q-1.73-1.29-3.45-2.61c1.38.13,2.78.23,4.17.33l1.14-3.93c.42,1.35.86,2.71,1.28,4.06h0c1.4.06,2.8.12,4.2.15-1.16.75-2.31,1.48-3.47,2.21h0Z"/><path class="cls-3" d="M67.14,79.49l1.42,4q-1.68-1.31-3.36-2.64v0a0,0,0,0,0,0,0c-1.13.76-2.24,1.52-3.37,2.26.47-1.29.95-2.58,1.41-3.87l.05,0h0q-1.73-1.29-3.45-2.62c1.38.13,2.78.24,4.17.33L65.09,73c.42,1.35.86,2.7,1.28,4v0h0c1.4.06,2.8.11,4.2.14-1.16.76-2.31,1.5-3.47,2.23h0Z"/><path class="cls-3" d="M67.14,100.19c.48,1.33,1,2.67,1.42,4q-1.68-1.31-3.36-2.65s0,0,0,0,0,0,0,0c-1.13.77-2.24,1.53-3.37,2.27.47-1.29.95-2.57,1.41-3.86l.05,0h0q-1.73-1.28-3.45-2.6c1.38.13,2.78.23,4.17.32l1.14-3.92c.42,1.35.86,2.71,1.28,4h0c1.4.06,2.8.13,4.2.16-1.16.75-2.31,1.48-3.47,2.21h0Z"/><path class="cls-3" d="M67.14,120.87c.48,1.34,1,2.68,1.42,4q-1.68-1.31-3.36-2.65h0c-1.13.76-2.24,1.52-3.37,2.26.47-1.28.95-2.57,1.41-3.86l.05,0h0q-1.73-1.29-3.45-2.62c1.38.13,2.78.24,4.17.33l1.14-3.92c.42,1.35.86,2.69,1.28,4v0h0c1.4.06,2.8.11,4.2.14-1.16.77-2.31,1.5-3.47,2.24h0A0,0,0,0,1,67.14,120.87Z"/><path class="cls-3" d="M45.51,56.37c.47,1.41,1,2.81,1.41,4.22-1.12-1-2.25-2.06-3.37-3.12h0c-1.13.61-2.24,1.21-3.37,1.79.47-1.22.94-2.45,1.41-3.66l0,0h0c-1.16-1-2.31-2.06-3.47-3.12,1.39.34,2.79.64,4.18.93.39-1.25.76-2.51,1.15-3.76.42,1.41.86,2.83,1.28,4.24h0c1.4.27,2.81.51,4.21.74-1.16.59-2.31,1.17-3.47,1.74h0S45.5,56.36,45.51,56.37Z"/><path class="cls-3" d="M45.51,77.06c.47,1.4,1,2.8,1.41,4.21-1.12-1-2.25-2.06-3.37-3.11v0h0c-1.13.62-2.24,1.21-3.37,1.78l1.41-3.65,0,0h0c-1.16-1-2.31-2.07-3.47-3.13,1.39.34,2.79.65,4.18.93.39-1.24.76-2.5,1.15-3.76.42,1.42.86,2.83,1.28,4.24a0,0,0,0,0,0,0h0c1.4.27,2.81.51,4.21.73-1.16.6-2.31,1.18-3.47,1.76,0,0,0,0,0,0S45.5,77,45.51,77.06Z"/><path class="cls-3" d="M45.51,97.75c.47,1.41,1,2.81,1.41,4.21-1.12-1-2.25-2.07-3.37-3.12h0c-1.13.61-2.24,1.21-3.37,1.78.47-1.2.94-2.42,1.41-3.64l0,0h0c-1.16-1-2.31-2-3.47-3.11,1.39.34,2.79.64,4.18.92.39-1.24.76-2.5,1.15-3.76.42,1.42.86,2.84,1.28,4.25h0c1.4.26,2.81.51,4.21.74-1.16.59-2.31,1.17-3.47,1.73h0Z"/><path class="cls-3" d="M45.51,118.43c.47,1.41,1,2.81,1.41,4.22-1.12-1-2.25-2.06-3.37-3.11v0h0c-1.13.62-2.24,1.2-3.37,1.78l1.41-3.65,0,0h0c-1.16-1-2.31-2.08-3.47-3.13,1.39.33,2.79.65,4.18.93.39-1.24.76-2.5,1.15-3.76.42,1.42.86,2.83,1.28,4.24a0,0,0,0,1,0,0h0c1.4.26,2.81.51,4.21.73-1.16.6-2.31,1.17-3.47,1.75h0Z"/><path class="cls-3" d="M23.86,50.66c.47,1.49.93,3,1.4,4.45l-3.37-3.67v0h0c-1.12.44-2.24.84-3.36,1.24l1.41-3.44h0c-1.16-1.22-2.31-2.45-3.47-3.7,1.39.57,2.79,1.12,4.18,1.63l1.14-3.57c.43,1.49.87,3,1.29,4.45h0c1.41.5,2.81,1,4.22,1.42-1.16.42-2.32.8-3.48,1.18h0Z"/><path class="cls-3" d="M23.86,71.35c.47,1.48.93,3,1.4,4.44l-3.37-3.66h0l-3.36,1.22,1.41-3.43h0c-1.16-1.23-2.31-2.46-3.47-3.72,1.39.57,2.79,1.11,4.18,1.64.38-1.18.76-2.38,1.14-3.57.43,1.48.87,3,1.29,4.44v0h0c1.41.5,2.81,1,4.22,1.41-1.16.42-2.32.81-3.48,1.2h0Z"/><path class="cls-3" d="M23.86,92.05c.47,1.48.93,3,1.4,4.43l-3.37-3.67h0c-1.12.42-2.24.83-3.36,1.22l1.41-3.41,0,0h0c-1.16-1.22-2.31-2.46-3.47-3.7,1.39.57,2.79,1.11,4.18,1.63L21.8,85c.43,1.49.87,3,1.29,4.45h0c1.41.5,2.81,1,4.22,1.42-1.16.42-2.32.8-3.48,1.18h0Z"/><path class="cls-3" d="M23.86,112.73c.47,1.48.93,3,1.4,4.44l-3.37-3.66h0c-1.12.41-2.24.82-3.36,1.21.47-1.13.94-2.28,1.41-3.42h0c-1.16-1.23-2.31-2.47-3.47-3.72,1.39.56,2.79,1.11,4.18,1.64l1.14-3.57c.43,1.48.87,3,1.29,4.44v0h0c1.41.5,2.81,1,4.22,1.41q-1.74.61-3.48,1.2h0Z"/><path class="cls-3" d="M121.82,64.3,123.23,68c-1.13-.59-2.24-1.2-3.37-1.82v0a0,0,0,0,1,0,0c-1.12,1-2.24,2.08-3.36,3.1L117.9,65l0,0h0c-1.16-.56-2.3-1.14-3.46-1.72l4.17-.74,1.14-4.21,1.29,3.74v0h0c1.41-.28,2.81-.55,4.22-.85-1.16,1-2.31,2-3.47,3h0Z"/><path class="cls-3" d="M121.82,85c.47,1.23.94,2.46,1.41,3.67-1.13-.6-2.24-1.21-3.37-1.83h0c-1.12,1-2.24,2.09-3.36,3.11l1.41-4.21,0,0h0L114.45,84c1.39-.25,2.78-.49,4.17-.75L119.76,79l1.29,3.75h0c1.41-.27,2.81-.55,4.22-.84l-3.47,3h0Z"/><path class="cls-3" d="M121.82,105.71l1.41,3.68c-1.13-.6-2.24-1.22-3.37-1.83h0l-3.36,3.11,1.41-4.22,0,0h0c-1.16-.58-2.3-1.14-3.46-1.73l4.17-.74,1.14-4.21,1.29,3.74v0h0l4.22-.85c-1.16,1-2.31,2-3.47,3h0Z"/><path class="cls-3" d="M121.82,126.43l1.41,3.68c-1.13-.6-2.24-1.21-3.37-1.82h0l-3.36,3.1,1.41-4.22,0,0h0l-3.46-1.71,4.17-.75,1.14-4.21c.43,1.25.86,2.49,1.29,3.75v0c1.41-.27,2.81-.56,4.22-.84l-3.47,3h0Z"/><path class="cls-3" d="M121.82,43.71l1.41,3.68c-1.13-.6-2.24-1.21-3.37-1.83h0c-1.12,1-2.24,2.08-3.36,3.1l1.41-4.21,0,0h0l-3.46-1.73c1.39-.24,2.78-.48,4.17-.75l1.14-4.19,1.29,3.74v0l4.22-.85-3.47,3h0Z"/><path class="cls-3" d="M100.31,67.73l1.41,3.79-3.38-2.08v0Q96.66,70.88,95,72.27l1.41-4.1,0,0h0c-1.16-.65-2.3-1.32-3.46-2,1.39-.12,2.78-.26,4.17-.4l1.14-4.11,1.29,3.83v0h0c1.41-.16,2.81-.35,4.22-.54-1.16.94-2.31,1.87-3.47,2.79h0Z"/><path class="cls-3" d="M100.31,88.43c.47,1.27.94,2.52,1.41,3.78-1.12-.69-2.25-1.38-3.38-2.09h0C97.22,91.07,96.1,92,95,93l1.41-4.1,0,0h0c-1.16-.65-2.3-1.31-3.46-2,1.39-.12,2.78-.26,4.17-.41l1.14-4.11,1.29,3.84h0c1.41-.16,2.81-.34,4.22-.53l-3.47,2.78h0Z"/><path class="cls-3" d="M100.31,109.14l1.41,3.79c-1.12-.69-2.25-1.38-3.38-2.09h0c-1.12,1-2.24,1.91-3.36,2.84l1.41-4.1,0,0h0c-1.16-.66-2.3-1.33-3.46-2l4.17-.4L98.25,103l1.29,3.83v0h0c1.41-.17,2.81-.35,4.22-.54l-3.47,2.8h0Z"/><path class="cls-3" d="M100.31,129.86l1.41,3.79-3.38-2.08v0c-1.12,1-2.24,1.9-3.36,2.83l1.41-4.1,0,0h0c-1.16-.65-2.3-1.32-3.46-2,1.39-.12,2.78-.25,4.17-.4l1.14-4.12,1.29,3.85v0c1.41-.17,2.81-.34,4.22-.53l-3.47,2.78h0Z"/><path class="cls-3" d="M100.31,47.13c.47,1.27.94,2.54,1.41,3.79l-3.38-2.08v0Q96.66,50.28,95,51.67c.47-1.36.94-2.72,1.41-4.1l0,0h0c-1.16-.66-2.3-1.33-3.46-2,1.39-.12,2.78-.25,4.17-.41L98.25,41l1.29,3.83v0c1.41-.16,2.81-.33,4.22-.53-1.16,1-2.31,1.87-3.47,2.79h0Z"/><path class="cls-3" d="M77.94,69.29c.47,1.31.94,2.63,1.41,3.93-1.13-.8-2.24-1.61-3.37-2.44v0c-1.11.84-2.23,1.66-3.34,2.47.46-1.31.93-2.63,1.4-4l0,0h0c-1.16-.78-2.31-1.58-3.47-2.39,1.39,0,2.77.06,4.16.07.38-1.34.77-2.67,1.15-4,.43,1.31.86,2.64,1.29,4v0h0c1.4,0,2.81-.06,4.21-.11l-3.47,2.43h0Z"/><path class="cls-3" d="M77.94,90l1.41,3.92c-1.13-.81-2.24-1.62-3.37-2.45h0c-1.11.84-2.23,1.66-3.34,2.48L74,90s0,0,0,0h0c-1.16-.78-2.31-1.57-3.47-2.38,1.39,0,2.77,0,4.16.06.38-1.34.77-2.67,1.15-4l1.29,4h0c1.4,0,2.81,0,4.21-.1-1.16.82-2.32,1.62-3.47,2.42h0S77.93,90,77.94,90Z"/><path class="cls-3" d="M77.94,110.7l1.41,3.93c-1.13-.81-2.24-1.62-3.37-2.45h0c-1.11.84-2.23,1.66-3.34,2.48.46-1.32.93-2.63,1.4-4l0,0h0c-1.16-.79-2.31-1.59-3.47-2.4,1.39,0,2.77.06,4.16.07.38-1.34.77-2.67,1.15-4l1.29,4v0a0,0,0,0,1,0,0c1.4,0,2.81-.06,4.21-.1l-3.47,2.43h0Z"/><path class="cls-3" d="M77.94,131.42l1.41,3.93c-1.13-.8-2.24-1.61-3.37-2.43v0c-1.11.83-2.23,1.65-3.34,2.46.46-1.32.93-2.64,1.4-3.95l0,0h0c-1.16-.78-2.31-1.58-3.47-2.38,1.39,0,2.77,0,4.16.06.38-1.34.77-2.67,1.15-4l1.29,4v0c1.4,0,2.81,0,4.21-.11-1.16.83-2.32,1.63-3.47,2.43h0Z"/><path class="cls-3" d="M77.94,48.69l1.41,3.94C78.22,51.82,77.11,51,76,50.18v0c-1.11.84-2.23,1.67-3.34,2.48.46-1.32.93-2.64,1.4-4l0,0h0c-1.16-.78-2.31-1.58-3.47-2.39,1.39,0,2.77,0,4.16.06.38-1.33.77-2.65,1.15-4l1.29,4v0c1.4,0,2.81,0,4.21-.1l-3.47,2.43h0Z"/><path class="cls-3" d="M56.06,68.26c.47,1.38.94,2.74,1.4,4.11-1.11-.94-2.24-1.89-3.35-2.87v0h0c-1.13.7-2.24,1.37-3.37,2,.48-1.25,1-2.5,1.42-3.76l0,0h0q-1.73-1.41-3.45-2.87c1.38.23,2.77.44,4.16.63L54,61.66l1.29,4.13v0h0c1.4.17,2.81.32,4.21.44-1.15.67-2.31,1.34-3.47,2h0S56.06,68.25,56.06,68.26Z"/><path class="cls-3" d="M56.06,89c.47,1.36.94,2.73,1.4,4.1-1.11-.94-2.24-1.91-3.35-2.88h0c-1.13.69-2.24,1.37-3.37,2,.48-1.25,1-2.49,1.42-3.75l0,0h0c-1.15-.94-2.3-1.9-3.45-2.86,1.38.23,2.77.44,4.16.62.38-1.28.76-2.57,1.14-3.84l1.29,4.14h0c1.4.17,2.81.32,4.21.45-1.15.67-2.31,1.33-3.47,2h0Z"/><path class="cls-3" d="M56.06,109.66c.47,1.38.94,2.75,1.4,4.12-1.11-.94-2.24-1.91-3.35-2.88h0c-1.13.69-2.24,1.37-3.37,2,.48-1.25,1-2.5,1.42-3.76h0c-1.15-1-2.3-1.91-3.45-2.88,1.38.23,2.77.44,4.16.63.38-1.28.76-2.57,1.14-3.84l1.29,4.13v0h0c1.4.16,2.81.31,4.21.44-1.15.68-2.31,1.34-3.47,2h0Z"/><path class="cls-3" d="M56.06,130.38c.47,1.38.94,2.75,1.4,4.12-1.11-.94-2.24-1.9-3.35-2.87h0c-1.13.69-2.24,1.36-3.37,2,.48-1.25,1-2.51,1.42-3.76l0,0h0L48.7,127c1.38.23,2.77.43,4.16.62L54,123.78l1.29,4.15v0c1.4.17,2.81.31,4.21.45-1.15.67-2.31,1.32-3.47,2h0Z"/><path class="cls-3" d="M56.06,47.66l1.4,4.11c-1.11-.94-2.24-1.89-3.35-2.86v0h0c-1.13.7-2.24,1.36-3.37,2,.48-1.24,1-2.5,1.42-3.76l0,0h0c-1.15-.94-2.3-1.89-3.45-2.87,1.38.24,2.77.44,4.16.62L54,41.06l1.29,4.14v0c1.4.17,2.81.31,4.21.44-1.15.67-2.31,1.34-3.47,2h0Z"/><path class="cls-3" d="M34.65,64.27,36,68.6c-1.12-1.11-2.23-2.24-3.36-3.37v0h0c-1.12.51-2.23,1-3.35,1.51.47-1.18.94-2.37,1.4-3.55l0,0h0c-1.15-1.12-2.31-2.25-3.46-3.41,1.39.45,2.77.87,4.16,1.28.39-1.23.76-2.44,1.15-3.67.43,1.45.86,2.89,1.3,4.34h0c1.41.37,2.8.73,4.21,1-1.15.51-2.32,1-3.47,1.47h0Z"/><path class="cls-3" d="M34.65,85c.46,1.44.93,2.88,1.39,4.32L32.68,85.9h0c-1.12.53-2.23,1-3.35,1.53.47-1.18.94-2.36,1.4-3.54l0,0h0c-1.15-1.12-2.31-2.25-3.46-3.4,1.39.45,2.77.87,4.16,1.27.39-1.23.76-2.44,1.15-3.67.43,1.45.86,2.9,1.3,4.35h0c1.41.37,2.8.73,4.21,1.06-1.15.51-2.32,1-3.47,1.46h0Z"/><path class="cls-3" d="M34.65,105.68c.46,1.45.93,2.89,1.39,4.33l-3.36-3.39h0c-1.12.53-2.23,1-3.35,1.52.47-1.17.94-2.36,1.4-3.54h0c-1.15-1.13-2.31-2.26-3.46-3.42,1.39.45,2.77.87,4.16,1.28.39-1.23.76-2.45,1.15-3.67.43,1.45.86,2.89,1.3,4.34v0h0c1.41.37,2.8.73,4.21,1-1.15.51-2.32,1-3.47,1.48h0Z"/><path class="cls-3" d="M34.65,126.4c.46,1.45.93,2.89,1.39,4.33l-3.36-3.38v0h0c-1.12.52-2.23,1-3.35,1.51.47-1.17.94-2.36,1.4-3.55h0l0,0c-1.15-1.11-2.31-2.25-3.46-3.39,1.39.44,2.77.87,4.16,1.27.39-1.23.76-2.45,1.15-3.67.43,1.45.86,2.9,1.3,4.34v0c1.41.38,2.8.74,4.21,1.07-1.15.51-2.32,1-3.47,1.46h0Z"/><path class="cls-3" d="M34.65,43.68c.46,1.44.93,2.88,1.39,4.32-1.12-1.11-2.23-2.24-3.36-3.37v0h0c-1.12.51-2.23,1-3.35,1.51.47-1.18.94-2.36,1.4-3.55l0,0h0c-1.15-1.12-2.31-2.25-3.46-3.41,1.39.45,2.77.88,4.16,1.27.39-1.22.76-2.44,1.15-3.66.43,1.45.86,2.89,1.3,4.34h0c1.41.38,2.8.73,4.21,1.07-1.15.5-2.32,1-3.47,1.47h0Z"/><path class="cls-3" d="M12.86,56.66c.47,1.53,1,3.05,1.41,4.58q-1.68-2-3.36-4s0,0,0,0h0c-1.12.32-2.24.62-3.36.91l1.41-3.29H9q-1.74-2-3.48-4.05,2.08,1.06,4.17,2c.39-1.15.76-2.3,1.15-3.46.42,1.52.86,3,1.28,4.56v0h0q2.12.94,4.23,1.81c-1.16.3-2.32.59-3.48.86h0Z"/><path class="cls-3" d="M12.86,77.36c.47,1.53,1,3,1.41,4.57-1.12-1.32-2.24-2.64-3.36-4h0l-3.36.91,1.41-3.28a.08.08,0,0,0,0,0H9q-1.74-2-3.48-4,2.08,1.05,4.17,2c.39-1.15.76-2.3,1.15-3.46.42,1.52.86,3.05,1.28,4.57h0q2.12.94,4.23,1.82c-1.16.3-2.32.58-3.48.85h0Z"/><path class="cls-3" d="M12.86,98.07c.47,1.53,1,3.05,1.41,4.58l-3.36-4v0h0l-3.36.91c.47-1.1.94-2.19,1.41-3.3H9c-1.16-1.32-2.32-2.68-3.48-4.05q2.08,1.07,4.17,2c.39-1.15.76-2.3,1.15-3.46.42,1.52.86,3,1.28,4.56v0h0q2.12.94,4.23,1.81-1.74.45-3.48.87h0Z"/><path class="cls-3" d="M12.86,118.79c.47,1.53,1,3.06,1.41,4.58-1.12-1.31-2.24-2.64-3.36-4,0,0,0,0,0,0h0c-1.12.32-2.24.62-3.36.91L8.94,117H9q-1.74-2-3.48-4,2.08,1.05,4.17,2c.39-1.15.76-2.3,1.15-3.46.42,1.52.86,3,1.28,4.57v0h0c1.41.62,2.82,1.23,4.23,1.81-1.16.3-2.32.58-3.48.85h0Z"/><path class="cls-3" d="M12.86,36.06c.47,1.53,1,3,1.41,4.58-1.12-1.3-2.24-2.63-3.36-4,0,0,0,0,0,0h0c-1.12.33-2.24.62-3.36.91l1.41-3.29H9q-1.74-2-3.48-4.05,2.08,1.05,4.17,2c.39-1.14.76-2.3,1.15-3.45.42,1.53.86,3,1.28,4.57v0h0c1.41.61,2.82,1.22,4.23,1.8-1.16.31-2.32.59-3.48.86h0Z"/><path class="cls-5" d="M355.23,90.8v72.86a.1.1,0,0,1-.1-.1V236C237,171.35,118.89,301,.89,236.12V19.59c118,65,236.12-64.76,354.24-.1V90.7A.1.1,0,0,0,355.23,90.8Z"/><path class="cls-6" d="M355.23,90.8v72.86a.1.1,0,0,1-.1-.1V236C237,171.35,118.89,301,.89,236.12V19.59c118,65,236.12-64.76,354.24-.1V90.7A.1.1,0,0,0,355.23,90.8Z"/></g></g></g></svg>