<svg xmlns="http://www.w3.org/2000/svg" xmlns:xlink="http://www.w3.org/1999/xlink" viewBox="0 0 345.7 254.77"><defs><style>.cls-1{isolation:isolate;}.cls-2{fill:#e73434;}.cls-3{fill:#f9f51d;}.cls-4{mix-blend-mode:multiply;}.cls-4,.cls-5{fill:url(#linear-gradient);}.cls-5{opacity:0.25;mix-blend-mode:overlay;}</style><linearGradient id="linear-gradient" y1="126.99" x2="345.01" y2="126.99" gradientUnits="userSpaceOnUse"><stop offset="0" stop-color="#fff"/><stop offset="0.13" stop-color="#f7f7f7"/><stop offset="0.34" stop-color="#e0e0e0"/><stop offset="0.54" stop-color="#c4c5c5"/><stop offset="0.57" stop-color="#c1c2c3"/><stop offset="0.69" stop-color="#bebfc0"/><stop offset="0.91" stop-color="#fff"/></linearGradient></defs><g class="cls-1"><g id="Capa_2" data-name="Capa 2"><g id="Capa_1-2" data-name="Capa 1"><path class="cls-2" d="M345.51,235.91c-115-64.69-229.94,65-344.9.11V19.52c115,64.92,229.93-64.8,344.9-.11Z"/><path class="cls-3" d="M.61,177c115,64.95,230.06-64.94,345.09,0V77.28c-115-64.94-230.07,64.95-345.09,0Z"/><path class="cls-4" d="M345,89.93v72.86a.1.1,0,0,1-.1-.1v72.46c-115-64.67-230,65-344.91.1V18.72c114.89,65,229.9-64.76,344.91-.1V89.83A.1.1,0,0,0,345,89.93Z"/><path class="cls-5" d="M345,89.93v72.86a.1.1,0,0,1-.1-.1v72.46c-115-64.67-230,65-344.91.1V18.72c114.89,65,229.9-64.76,344.91-.1V89.83A.1.1,0,0,0,345,89.93Z"/></g></g></g></svg>