<svg xmlns="http://www.w3.org/2000/svg" xmlns:xlink="http://www.w3.org/1999/xlink" viewBox="0 0 33.96 32.81"><defs><style>.cls-1{fill:none;}.cls-2{clip-path:url(#clip-path);}.cls-3{clip-path:url(#clip-path-2);}.cls-4{fill:#fff;}.cls-5{fill:#1a237b;}.cls-6{fill:#ba0019;}.cls-7{clip-path:url(#clip-path-4);}.cls-8{fill:#223e84;}.cls-9{clip-path:url(#clip-path-5);}.cls-10{clip-path:url(#clip-path-6);}.cls-11{clip-path:url(#clip-path-7);}.cls-12{clip-path:url(#clip-path-8);}.cls-13{clip-path:url(#clip-path-9);}.cls-14{clip-path:url(#clip-path-10);}.cls-15{fill:#f5cd28;}.cls-16{fill:#bc0030;}.cls-17{fill:#272015;}.cls-18{fill:#999396;}.cls-19{fill:#347c63;}.cls-20{fill:#1a4104;}.cls-21{fill:#1a4204;}.cls-22{fill:#c0003b;}.cls-23{clip-path:url(#clip-path-11);}.cls-24{clip-path:url(#clip-path-12);}.cls-25{clip-path:url(#clip-path-13);}.cls-26{clip-path:url(#clip-path-14);}.cls-27{clip-path:url(#clip-path-15);}</style><clipPath id="clip-path" transform="translate(1.02 0.11)"><circle class="cls-1" cx="15.98" cy="15.98" r="15.98"/></clipPath><clipPath id="clip-path-2" transform="translate(1.02 0.11)"><rect class="cls-1" x="-1.02" y="-0.11" width="33.96" height="32.81"/></clipPath><clipPath id="clip-path-4" transform="translate(1.02 0.11)"><rect class="cls-1" x="18.25" y="11.93" width="1.2" height="1.33"/></clipPath><clipPath id="clip-path-5" transform="translate(1.02 0.11)"><rect class="cls-1" x="17.88" y="11.71" width="1.34" height="0.86"/></clipPath><clipPath id="clip-path-6" transform="translate(1.02 0.11)"><rect class="cls-1" x="16.48" y="11.4" width="2.37" height="0.99"/></clipPath><clipPath id="clip-path-7" transform="translate(1.02 0.11)"><rect class="cls-1" x="12.5" y="11.92" width="1.2" height="1.33"/></clipPath><clipPath id="clip-path-8" transform="translate(1.02 0.11)"><rect class="cls-1" x="12.73" y="11.69" width="1.34" height="0.85"/></clipPath><clipPath id="clip-path-9" transform="translate(1.02 0.11)"><rect class="cls-1" x="13.1" y="11.39" width="2.37" height="0.99"/></clipPath><clipPath id="clip-path-10" transform="translate(1.02 0.11)"><rect class="cls-1" x="14.86" y="11.02" width="2.23" height="0.78"/></clipPath><clipPath id="clip-path-11" transform="translate(1.02 0.11)"><rect class="cls-1" x="18.24" y="18.31" width="1.3" height="0.7"/></clipPath><clipPath id="clip-path-12" transform="translate(1.02 0.11)"><rect class="cls-1" x="17.54" y="18.11" width="1.43" height="0.54"/></clipPath><clipPath id="clip-path-13" transform="translate(1.02 0.11)"><rect class="cls-1" x="12.42" y="18.31" width="1.3" height="0.7"/></clipPath><clipPath id="clip-path-14" transform="translate(1.02 0.11)"><rect class="cls-1" x="13" y="18.11" width="1.42" height="0.54"/></clipPath><clipPath id="clip-path-15" transform="translate(1.02 0.11)"><rect class="cls-1" x="13.61" y="17.55" width="4.72" height="0.95"/></clipPath></defs><g id="Capa_2" data-name="Capa 2"><g id="Capa_1-2" data-name="Capa 1"><g class="cls-2"><g id="DOMINICAN_REPUBLIC" data-name="DOMINICAN REPUBLIC"><g class="cls-3"><rect class="cls-4" width="33.96" height="32.81"/><rect class="cls-5" width="12.84" height="11.99"/><rect class="cls-6" y="19.76" width="12.84" height="13.04"/><rect class="cls-5" x="21.11" y="19.76" width="12.84" height="13.04"/><rect class="cls-6" x="21.11" width="12.84" height="11.99"/><g class="cls-3"><path d="M19.54,13.46a.35.35,0,0,0-.16-.32s.2,0,.22.32Z" transform="translate(1.02 0.11)"/><path d="M19.46,13.48a.35.35,0,0,0-.16-.32s.2,0,.21.32Z" transform="translate(1.02 0.11)"/><path d="M19.38,13.49a.37.37,0,0,0-.16-.33s.2.05.21.33Z" transform="translate(1.02 0.11)"/><path d="M19.3,13.52a.39.39,0,0,0-.17-.33s.2.05.22.32Z" transform="translate(1.02 0.11)"/><path d="M19.21,13.55a.35.35,0,0,0-.16-.32c0-.05.2,0,.22.32Z" transform="translate(1.02 0.11)"/><path d="M19.13,13.59a.35.35,0,0,0-.16-.32s.2.05.21.32Z" transform="translate(1.02 0.11)"/><g class="cls-7"><path class="cls-8" d="M19.45,13.13c-.29-.8-.41-.91-.47-1a3.46,3.46,0,0,0-.58-.23l-.15.33s.46.22.55.43a2.56,2.56,0,0,1,.16.57l.27-.11c.07,0,.22,0,.22,0Z" transform="translate(1.02 0.11)"/></g><path d="M19,13.3v0a3.09,3.09,0,0,0-.16-.57c-.09-.19-.53-.41-.53-.41l.13-.37a2.05,2.05,0,0,1,.62.23,2.64,2.64,0,0,1,.47,1s0,0-.09,0a.34.34,0,0,0-.14,0l-.27.11Zm-.67-1a1.13,1.13,0,0,1,.54.41,2.27,2.27,0,0,1,.16.55l.25-.1a.36.36,0,0,1,.15,0c-.23-.73-.35-.86-.41-.92A2.6,2.6,0,0,0,18.4,12l-.12.32Z" transform="translate(1.02 0.11)"/><g class="cls-9"><path class="cls-8" d="M19.22,12.56a2.29,2.29,0,0,0-.78-.14c-.17,0-.52-.13-.56-.22s.3-.49.3-.49l.24.24c.16.16.53,0,.65.3Z" transform="translate(1.02 0.11)"/></g><path d="M19.22,12.59h0a1.22,1.22,0,0,0-.54-.12h-.23c-.38-.1-.55-.17-.58-.24s.2-.41.31-.54l.29.25c.05.06.15.07.25.09a.46.46,0,0,1,.41.22l.14.31s0,0,0,0Zm-.56-.19a1.2,1.2,0,0,1,.49.1l-.1-.24c-.08-.14-.21-.16-.36-.18A.42.42,0,0,1,18.4,12l-.24-.24c-.1.18-.27.42-.25.46s.1.09.54.2h.21Z" transform="translate(1.02 0.11)"/><path d="M18.66,12.43a1.43,1.43,0,0,1-.42-.16l-.19-.08c-.12,0-.16,0-.16,0s0-.11.17-.07l.2.08c.13.06.4.19.43.15l0,0a.11.11,0,0,1-.08,0Z" transform="translate(1.02 0.11)"/><g class="cls-10"><path class="cls-8" d="M16.61,11.43a5.3,5.3,0,0,1,1.28,0c.6.1.95.32.95.45a.73.73,0,0,1-.13.47s0-.12-.15-.16a10.12,10.12,0,0,0-1-.27c-.18,0-.71,0-.79,0s-.27-.05-.27-.15a1.26,1.26,0,0,1,.13-.39Z" transform="translate(1.02 0.11)"/></g><path d="M18.69,12.41l0,0a.15.15,0,0,0-.12-.11l-.14,0a7.21,7.21,0,0,0-.87-.23h-.79s-.3,0-.3-.17a2.22,2.22,0,0,1,.13-.41,3.7,3.7,0,0,1,.53,0,4.42,4.42,0,0,1,.78.06c.61.11,1,.33,1,.48a.78.78,0,0,1-.13.48Zm-1.25-.48h.1a6.45,6.45,0,0,1,.88.23l.14,0c.11,0,.15.1.15.14a.81.81,0,0,0,.11-.41c0-.12-.34-.33-.94-.44a4.3,4.3,0,0,0-.77-.06l-.47,0a1,1,0,0,0-.14.37c0,.07.15.11.25.12h.69Z" transform="translate(1.02 0.11)"/><path d="M16.92,11.89h0a.26.26,0,0,1-.14,0,.21.21,0,0,0-.14,0c-.07,0-.08,0-.08,0s0-.09.08-.11a.27.27,0,0,1,.16,0,.25.25,0,0,0,.12,0H17v0h0v0l0,.06a.1.1,0,0,1-.07,0Z" transform="translate(1.02 0.11)"/><path d="M12.41,13.45h-.06a.44.44,0,0,1,.19-.37c0,.05-.13.13-.13.37Z" transform="translate(1.02 0.11)"/><path d="M12.49,13.47h-.06a.42.42,0,0,1,.19-.37c0,.05-.12.13-.13.37Z" transform="translate(1.02 0.11)"/><path d="M12.57,13.48h-.05a.47.47,0,0,1,.18-.37c0,.06-.12.13-.13.38Z" transform="translate(1.02 0.11)"/><path d="M12.65,13.51H12.6a.42.42,0,0,1,.18-.37s-.12.12-.13.37Z" transform="translate(1.02 0.11)"/><path d="M12.74,13.54h-.06a.42.42,0,0,1,.19-.37c0,.05-.12.13-.13.37Z" transform="translate(1.02 0.11)"/><path d="M12.82,13.59h-.06a.49.49,0,0,1,.19-.37s-.12.13-.13.38Z" transform="translate(1.02 0.11)"/><g class="cls-11"><path class="cls-8" d="M12.5,13.12c.29-.8.41-.91.47-1a3.15,3.15,0,0,1,.58-.23l.14.33s-.44.22-.54.43a2.82,2.82,0,0,0-.17.57l-.27-.11c-.07,0-.21,0-.21,0Z" transform="translate(1.02 0.11)"/></g><path d="M13,13.29h0l-.27-.12h-.13c-.07,0-.1,0-.1,0a3,3,0,0,1,.47-1,2.43,2.43,0,0,1,.6-.24l.18.34s-.46.25-.55.45a3.31,3.31,0,0,0-.16.56v0Zm-.35-.19.07,0,.25.1a2,2,0,0,1,.16-.56c.09-.2.54-.42.55-.43l-.16-.3a3.77,3.77,0,0,0-.53.24,2.72,2.72,0,0,0-.47,1l.13,0Z" transform="translate(1.02 0.11)"/><g class="cls-12"><path class="cls-8" d="M12.73,12.55a2.05,2.05,0,0,1,.78-.14c.17,0,.52-.13.56-.22s-.31-.5-.31-.5l-.24.25c-.15.16-.52,0-.65.3Z" transform="translate(1.02 0.11)"/></g><path d="M12.73,12.58h0v0l.14-.3a.45.45,0,0,1,.41-.23.37.37,0,0,0,.25-.08l.24-.25c.16.13.4.44.36.53s-.2.15-.58.25h-.24a1.28,1.28,0,0,0-.54.12Zm1-.87-.18.25a.52.52,0,0,1-.3.11c-.15,0-.29,0-.36.18l-.1.24a1.19,1.19,0,0,1,.48-.1h.07a.31.31,0,0,0,.15,0c.42-.1.53-.17.54-.2a1.42,1.42,0,0,0-.3-.47Z" transform="translate(1.02 0.11)"/><path d="M13.28,12.41a.09.09,0,0,1-.07,0l0,0s.3-.08.42-.15a.83.83,0,0,1,.21-.08c.15-.05.21,0,.21,0s-.07,0-.12,0l-.08,0a.77.77,0,0,0-.19.08,1.28,1.28,0,0,1-.43.15Z" transform="translate(1.02 0.11)"/><g class="cls-13"><path class="cls-8" d="M15.35,11.41a5.64,5.64,0,0,0-1.29.05c-.6.1-1,.32-1,.45a.63.63,0,0,0,.15.47.18.18,0,0,1,.14-.16,8,8,0,0,1,1-.27c.18,0,.71,0,.79,0s.27,0,.27-.14a1.94,1.94,0,0,0-.12-.4Z" transform="translate(1.02 0.11)"/></g><path d="M13.25,12.4h0a.78.78,0,0,1-.13-.48c0-.15.37-.38,1-.48a4.58,4.58,0,0,1,.78-.06h.48a.85.85,0,0,1,.19.43c0,.14-.28.17-.3.17h-.79a8.45,8.45,0,0,0-.89.23l-.12,0a.15.15,0,0,0-.12.12l0,0Zm1.58-1a4.38,4.38,0,0,0-.77.06c-.6.11-.93.32-.93.43a1,1,0,0,0,.1.42.21.21,0,0,1,.16-.14l.12,0a7.38,7.38,0,0,1,.89-.23h.74c.16,0,.31-.06.31-.12a1.85,1.85,0,0,0-.13-.38Z" transform="translate(1.02 0.11)"/><path d="M15,11.88c-.09,0-.1-.06-.1-.08l.05,0v0s0,.05.06,0l.13,0a.26.26,0,0,1,.15,0,.16.16,0,0,1,.14.1s-.06,0-.14,0a.28.28,0,0,0-.13,0l-.14,0Z" transform="translate(1.02 0.11)"/><g class="cls-14"><path class="cls-8" d="M16,11c-.82,0-1,.13-1.08.27a1.54,1.54,0,0,0,.1.5s.13-.26,1-.25,1,.24,1,.24a2.53,2.53,0,0,0,.1-.5c0-.13-.35-.27-1.14-.26Z" transform="translate(1.02 0.11)"/></g><path d="M15,11.86l0-.06a1.69,1.69,0,0,1-.1-.52c0-.13.2-.28,1.11-.29.71,0,1.15.11,1.17.29a2.7,2.7,0,0,1-.1.5h0A2,2,0,0,0,16,11.57h0c-.83,0-1,.23-1,.24l0,0Zm1-.35c.81,0,1,.19,1.08.24s.07-.36.07-.47S16.76,11,16,11s-1,.09-1.09.26a1.29,1.29,0,0,0,.08.44,1.38,1.38,0,0,1,.95-.23Z" transform="translate(1.02 0.11)"/><polygon class="cls-15" points="18.12 11.94 18.15 11.6 18.19 11.6 18.16 11.9 18.28 11.92 18.28 11.96 18.12 11.94"/><polygon class="cls-15" points="18.33 11.96 18.36 11.62 18.39 11.62 18.36 11.96 18.33 11.96"/><polygon class="cls-15" points="18.64 11.98 18.7 11.64 18.88 11.67 18.88 11.71 18.73 11.69 18.71 11.79 18.85 11.81 18.84 11.85 18.7 11.83 18.69 11.95 18.84 11.97 18.83 12.01 18.64 11.98"/><polygon class="cls-15" points="19.18 12.11 19.28 11.82 19.2 11.8 19.21 11.76 19.41 11.82 19.39 11.86 19.31 11.83 19.21 12.12 19.18 12.11"/><path class="cls-15" d="M17.43,11.82h.12a0,0,0,0,0,0,0v0l0,0h-.09Zm0-.15h.09s0,0,0,0v0s0,0,0,0,0,0,0,0h-.09Zm-.05.19,0-.34h.1a0,0,0,0,1,0,0l0,0v0s0,0,0,0,0,0,0,0l0,0a.07.07,0,0,1,0,0v0s0,0,0,0a0,0,0,0,1,0,0H17.4Z" transform="translate(1.02 0.11)"/><path class="cls-15" d="M18,11.74l.07,0h.06a0,0,0,0,0,0,0s0,0,0,0a0,0,0,0,0,0,0l-.08,0Zm-.09.17.1-.33.1,0,.06,0a.1.1,0,0,0,0,0,.11.11,0,0,1,0,.05.05.05,0,0,1,0,0l-.06,0,0,0a.43.43,0,0,1,0,0l0,.1h0l0-.07a.11.11,0,0,0,0-.06s0,0,0,0v0h-.06l0,.14Z" transform="translate(1.02 0.11)"/><path class="cls-15" d="M18.55,12.12l.05,0h0l0,0,0,0a.14.14,0,0,1,0-.06.45.45,0,0,0,0-.08s0,0,0-.05l0,0-.05,0Zm-.05,0,.12-.33.09,0,0,0,0,0s0,0,0,.06a.25.25,0,0,1,0,.08l0,.07,0,0,0,0h-.08Z" transform="translate(1.02 0.11)"/><path class="cls-15" d="M18.37,11.93l.08,0v-.1a.15.15,0,0,1,0-.07l0,.06Zm-.12.11.21-.29h0l0,.36h0V12l-.1,0-.06.08Z" transform="translate(1.02 0.11)"/><polygon class="cls-15" points="16.89 11.58 16.89 11.28 16.8 11.28 16.8 11.23 17.02 11.23 17.02 11.28 16.93 11.28 16.93 11.58 16.89 11.58"/><polygon class="cls-15" points="17.36 11.58 17.38 11.23 17.41 11.24 17.4 11.58 17.36 11.58"/><path class="cls-15" d="M15.29,11.34l.07,0a.06.06,0,0,0,.05,0,.07.07,0,0,0,0-.05s0,0,0,0,0,0,0,0h0l-.07,0Zm0,.18-.07-.34h.19l0,0s0,0,0,0a.19.19,0,0,1,0,.08.11.11,0,0,1-.08,0H15.3l0,.14Z" transform="translate(1.02 0.11)"/><path class="cls-15" d="M15.57,11.32h.1l0-.1,0-.06a.13.13,0,0,1,0,.06Zm-.07.15.08-.35h0l.15.33h0l-.05-.1h-.12l0,.11Z" transform="translate(1.02 0.11)"/><path class="cls-15" d="M16.07,11.28h.12s0,0,0,0a0,0,0,0,0,0,0,.06.06,0,0,0,0,0h-.14Zm0,.19v-.34h.18l0,0a.09.09,0,0,1,0,.05.08.08,0,0,1,0,.06.06.06,0,0,1-.06,0l0,0s0,0,0,.05l0,.09h0l0-.07a.09.09,0,0,1,0-.05l0,0h-.08v.15Z" transform="translate(1.02 0.11)"/><path class="cls-15" d="M16.56,11.36h.09v-.09s0-.06,0-.08,0,0,0,.06Zm-.11.12.17-.32h0l.05.36h0v-.11l-.12,0-.05.1Z" transform="translate(1.02 0.11)"/><polygon class="cls-15" points="14.93 12.06 14.88 11.72 14.92 11.71 14.97 12.05 14.93 12.06"/><path class="cls-15" d="M14.31,11.76h0a.06.06,0,0,0,0,0s0,0,0,0h.09l0,0v0s0,0,0,0,0,0,0,0h-.05l-.05,0,0,0s0,0,0,0v0l0,0,.05,0h.06a.08.08,0,0,1,0,0s0,0,0,0h0a.05.05,0,0,0,0,0,.07.07,0,0,0-.06,0s0,0,0,0,0,0,0,0,0,0,0,0l.05,0,.07,0s0,0,0,0a.08.08,0,0,1,0,0,.11.11,0,0,1,0,.05s0,0,0,0l-.06,0h-.07l0,0a.08.08,0,0,1,0-.06Z" transform="translate(1.02 0.11)"/><path class="cls-15" d="M14,11.75a.2.2,0,0,1,0-.14.11.11,0,0,1,.09-.06h.07a.09.09,0,0,1,.06.06.19.19,0,0,1,0,.09.14.14,0,0,1,0,.09.16.16,0,0,1,0,.07.09.09,0,0,1-.07,0h-.08L14,11.83a.11.11,0,0,1,0-.08Zm0,0a.23.23,0,0,0,0,.1.07.07,0,0,0,.07,0,.08.08,0,0,0,.07,0,.37.37,0,0,0,0-.11.14.14,0,0,0,0-.07.08.08,0,0,0,0,0s0,0-.05,0-.06,0-.07,0a.31.31,0,0,0,0,.11Z" transform="translate(1.02 0.11)"/><path class="cls-15" d="M13.66,12l.06,0,0,0,0,0a.09.09,0,0,0,0,0,.11.11,0,0,0,0-.07s0-.06,0-.07a.05.05,0,0,0,0,0h0l-.06,0Zm0,0-.11-.33.1,0h.09a.08.08,0,0,1,0,.05.16.16,0,0,1,0,.07.64.64,0,0,0,0,.07.07.07,0,0,1,0,.05s0,0,0,0l0,0h0Z" transform="translate(1.02 0.11)"/><path class="cls-4" d="M13.58,12.63l.45.42v3.41a.62.62,0,0,0,.58.56h.72a.81.81,0,0,1,.66.36.81.81,0,0,1,.65-.36h.79a.61.61,0,0,0,.52-.57V13.05l.44-.42Z" transform="translate(1.02 0.11)"/><path d="M16,17.42l0,0a.78.78,0,0,0-.63-.34h-.72a.66.66,0,0,1-.61-.59V13.05l-.44-.41,4.83-.05-.42.48v3.39a.63.63,0,0,1-.18.41.5.5,0,0,1-.36.19h-.79a.78.78,0,0,0-.63.34l0,0Zm2.38-4.81-4.79,0L14,13v3.43a.61.61,0,0,0,.56.54h.72a.84.84,0,0,1,.66.33.78.78,0,0,1,.64-.33h.8a.48.48,0,0,0,.33-.18.53.53,0,0,0,.16-.37V13.05l.45-.44Z" transform="translate(1.02 0.11)"/><polygon class="cls-16" points="17.37 12.73 17.37 14.71 18.97 14.71 18.97 13.15 19.41 12.73 17.37 12.73"/><path d="M18,14.63H16.35l0-2,2.06,0-.43.45v1.57Zm.42-2-2,0,0,2,1.56,0V13.05l.45-.44Z" transform="translate(1.02 0.11)"/><polygon class="cls-8" points="14.6 12.73 16.64 12.73 16.64 14.71 15.05 14.71 15.05 13.15 14.6 12.73"/><path d="M15.64,14.63H14l0-1.58-.43-.42,2,0,0,2Zm0-2h-2L14,13v1.57l1.56,0v-2Z" transform="translate(1.02 0.11)"/><path class="cls-16" d="M14,15.32h1.59v1.77L15.47,17h-.86a.61.61,0,0,1-.58-.56Z" transform="translate(1.02 0.11)"/><path d="M15.64,17.12,15.47,17h-.86a.64.64,0,0,1-.61-.58V15.32l1.62,0,0,1.82Zm0-1.8-1.57,0v1.12a.6.6,0,0,0,.57.55h.86l.13.06V15.32Z" transform="translate(1.02 0.11)"/><path class="cls-8" d="M18,15.32h-1.6v1.77l.14-.07h.88a.61.61,0,0,0,.58-.56Z" transform="translate(1.02 0.11)"/><path d="M16.33,17.12v-1.8l1.62,0v1.16a.63.63,0,0,1-.59.58h-.88l-.16.08Zm1.6-1.8-1.58,0,0,1.73.11-.06h.89a.6.6,0,0,0,.56-.55V15.32Z" transform="translate(1.02 0.11)"/><path d="M16,17.42l0,0a.78.78,0,0,0-.63-.34h-.72a.66.66,0,0,1-.61-.59V13.05l-.44-.41,4.83-.05-.42.48v3.39a.63.63,0,0,1-.18.41.5.5,0,0,1-.36.19h-.79a.78.78,0,0,0-.63.34l0,0Zm2.38-4.81-4.79,0L14,13v3.43a.61.61,0,0,0,.56.54h.72a.84.84,0,0,1,.66.33.78.78,0,0,1,.64-.33h.8a.48.48,0,0,0,.33-.18.53.53,0,0,0,.16-.37V13.05l.45-.44Z" transform="translate(1.02 0.11)"/><polygon class="cls-15" points="16.93 13.87 16.93 14.43 17.08 14.43 17.08 13.87 17.23 13.87 17.23 13.72 17.08 13.72 17.08 13.58 16.93 13.58 16.93 13.72 16.79 13.72 16.79 13.87 16.93 13.87"/><path d="M16.08,14.35h-.17l0-.59-.12,0,0-.16.17,0,0-.12.17,0,0,.17.13,0,0,.17-.17,0,0,.57Zm-.17-.62,0,.6.09,0v-.55l.18,0,0-.11-.12,0,0-.17-.12,0,0,.12-.17,0,0,.12.12,0Z" transform="translate(1.02 0.11)"/><polygon class="cls-17" points="17.06 14.6 15.9 13.07 15.97 13.01 17.13 14.54 17.06 14.6 17.06 14.6"/><polygon class="cls-15" points="15.89 13.07 15.77 12.81 16 13.01 15.89 13.07"/><path class="cls-16" d="M15.52,14.07s-.15.59-.15.59a2.35,2.35,0,0,0,.45,0,2.26,2.26,0,0,0-.09-.42s-.2-.17-.21-.21Z" transform="translate(1.02 0.11)"/><path class="cls-4" d="M15.14,13.68l-.08.77s.52.46.51.4,0-.78,0-.78Z" transform="translate(1.02 0.11)"/><path class="cls-8" d="M14.71,13.22l0,.84a3.39,3.39,0,0,0,.46.34s0-.68,0-.68Z" transform="translate(1.02 0.11)"/><polygon points="15.72 14.04 15.69 13.31 15.74 13.32 15.72 14.04 15.72 14.04"/><polygon class="cls-17" points="17 14.65 15.63 13.29 15.7 13.22 17.06 14.58 17 14.65 17 14.65"/><polygon class="cls-15" points="15.63 13.29 15.46 13.05 15.73 13.21 15.63 13.29"/><path class="cls-4" d="M14.46,13.47v2.14a.75.75,0,0,0,.73.7,4.59,4.59,0,0,0,.72-.14V14.61Z" transform="translate(1.02 0.11)"/><path d="M15.15,16.34a.78.78,0,0,1-.72-.73V13.47l1.5,1.12v1.58a2.77,2.77,0,0,1-.75.17Zm-.71-2.85.05,2.12a.73.73,0,0,0,.66.68v0l0,0a4.65,4.65,0,0,0,.73-.15l0-1.53-1.45-1.12Z" transform="translate(1.02 0.11)"/><path class="cls-16" d="M14.46,15.18v.43a.75.75,0,0,0,.73.7,4.59,4.59,0,0,0,.72-.14c-.29-.14-1,.29-1-.85a.53.53,0,0,1-.43-.14Z" transform="translate(1.02 0.11)"/><path class="cls-8" d="M14.91,13.81l0,1.23a1.84,1.84,0,0,1-.43-.15V13.47Z" transform="translate(1.02 0.11)"/><path class="cls-16" d="M15.31,14.16v.95a.55.55,0,0,1,.28.05l.33.13v-.68Z" transform="translate(1.02 0.11)"/><path class="cls-8" d="M15.88,15.61a2.55,2.55,0,0,0-.41-.17.72.72,0,0,0-.18,0s0,.14,0,.22.15.13.19.13l.41,0Z" transform="translate(1.02 0.11)"/><path d="M15.15,16.34a.78.78,0,0,1-.72-.73V13.47l1.5,1.12v1.58a2.77,2.77,0,0,1-.75.17Zm-.71-2.85.05,2.12a.73.73,0,0,0,.66.68v0l0,0a4.65,4.65,0,0,0,.73-.15l0-1.53-1.45-1.12Z" transform="translate(1.02 0.11)"/><polygon class="cls-17" points="16.93 14.75 15.41 13.55 15.47 13.47 16.98 14.67 16.93 14.75 16.93 14.75"/><polygon class="cls-15" points="15.39 13.55 15.21 13.33 15.49 13.46 15.39 13.55"/><polygon class="cls-17" points="16.98 14.57 16.9 14.52 18.06 12.99 18.14 13.04 16.98 14.57 16.98 14.57"/><polygon class="cls-15" points="18.15 13.04 18.27 12.78 18.04 12.98 18.15 13.04"/><path class="cls-16" d="M16.48,14.05l.14.58a3.64,3.64,0,0,1-.45,0s.06-.4.08-.42.21-.18.23-.21Z" transform="translate(1.02 0.11)"/><path class="cls-4" d="M16.86,13.66l.08.77s-.53.46-.52.4,0-.78,0-.78Z" transform="translate(1.02 0.11)"/><path class="cls-8" d="M17.29,13.19l0,.85a4.52,4.52,0,0,1-.46.34s-.05-.69-.05-.69Z" transform="translate(1.02 0.11)"/><polygon points="18.37 14.01 18.29 13.29 18.35 13.29 18.37 14.01 18.37 14.01"/><polygon class="cls-17" points="17.04 14.63 16.97 14.56 18.33 13.19 18.41 13.26 17.04 14.63 17.04 14.63"/><polygon class="cls-15" points="18.41 13.27 18.57 13.03 18.31 13.19 18.41 13.27"/><path class="cls-4" d="M17.54,13.45v2.13a.75.75,0,0,1-.73.71,4.14,4.14,0,0,1-.73-.15V14.58Z" transform="translate(1.02 0.11)"/><path d="M16.84,16.31h0a5.07,5.07,0,0,1-.74-.14V14.58l1.46-1.15,0,2.15a.77.77,0,0,1-.72.73Zm-.72-.17c.05,0,.43.1.69.12l0,0v0a.73.73,0,0,0,.67-.68V13.45l-1.42,1.16v1.53Z" transform="translate(1.02 0.11)"/><path class="cls-16" d="M17.54,15.15v.43a.75.75,0,0,1-.73.71,4.14,4.14,0,0,1-.73-.15c.29-.13,1,.29,1-.85a.57.57,0,0,0,.44-.14Z" transform="translate(1.02 0.11)"/><path class="cls-8" d="M17.09,13.78V15a1.73,1.73,0,0,0,.44-.14V13.45Z" transform="translate(1.02 0.11)"/><path class="cls-16" d="M16.68,14.13v.95a.51.51,0,0,0-.27.05l-.34.14v-.69Z" transform="translate(1.02 0.11)"/><path class="cls-8" d="M16.12,15.58a3.17,3.17,0,0,1,.39-.17.72.72,0,0,1,.19,0s0,.14,0,.23-.14.13-.18.13l-.41,0Z" transform="translate(1.02 0.11)"/><path d="M16.84,16.31h0a5.07,5.07,0,0,1-.74-.14V14.58l1.46-1.15,0,2.15a.77.77,0,0,1-.72.73Zm-.72-.17c.05,0,.43.1.69.12l0,0v0a.73.73,0,0,0,.67-.68V13.45l-1.42,1.16v1.53Z" transform="translate(1.02 0.11)"/><polygon class="cls-17" points="17.11 14.73 17.06 14.65 18.57 13.45 18.63 13.52 17.11 14.73 17.11 14.73"/><polygon class="cls-15" points="18.64 13.52 18.82 13.3 18.55 13.44 18.64 13.52"/><path class="cls-16" d="M16.24,16.09s.16.2.19.16a1.92,1.92,0,0,0-.12-.48,1.85,1.85,0,0,1-.13-.56c0-.23-.16,0-.16,0Z" transform="translate(1.02 0.11)"/><path d="M16.41,16.28s-.1-.06-.18-.16L16,15.24c0-.05.08-.15.14-.15s.06.09.07.12a1.24,1.24,0,0,0,.08.41,1,1,0,0,1,0,.14.84.84,0,0,1,.05.17c.07.21.1.3.07.34Zm-.27-1.14s-.06.06-.09.11l.22.84a1.47,1.47,0,0,0,.14.14,1.3,1.3,0,0,0-.08-.29.6.6,0,0,0,0-.16.57.57,0,0,0,0-.14,1.31,1.31,0,0,1-.09-.43c0-.06,0-.07,0-.07Z" transform="translate(1.02 0.11)"/><path class="cls-16" d="M16.12,16.55l.28,0s-.09-.37-.12-.58a7.77,7.77,0,0,0-.26-.87Z" transform="translate(1.02 0.11)"/><path d="M16.43,16.59h-.31L16,15.13a2.75,2.75,0,0,1,.32.85,5.54,5.54,0,0,0,.11.58v0ZM16,15.13l.14,1.42h.22c0-.09-.09-.37-.11-.55a7.11,7.11,0,0,0-.25-.86Z" transform="translate(1.02 0.11)"/><path class="cls-4" d="M15.91,15.06a2.8,2.8,0,0,0-.39.94,1,1,0,0,0,.25.61c.06.1.22.42.22.42a2.19,2.19,0,0,0,.2-.5c0-.13-.07-.72,0-1a7,7,0,0,1,.2-.77Z" transform="translate(1.02 0.11)"/><path d="M16,17.09,16,17s-.15-.32-.21-.42l-.05-.06a.89.89,0,0,1-.21-.56,2.27,2.27,0,0,1,.4-.94l.44-.27s-.13.57-.15.79a2.77,2.77,0,0,0,0,.56,3.54,3.54,0,0,1,0,.4A2.32,2.32,0,0,1,16,17l0,.05Zm.33-2.28-.4.27a2.46,2.46,0,0,0-.37.92.87.87,0,0,0,.2.53l0,.06c.05.08.15.29.2.38a2.72,2.72,0,0,0,.18-.44,1.91,1.91,0,0,0,0-.38,4.17,4.17,0,0,1,0-.57c0-.23.2-.75.2-.77Z" transform="translate(1.02 0.11)"/><path class="cls-8" d="M15.91,15.06a2.8,2.8,0,0,0-.39.94,1,1,0,0,0,.25.61,4.46,4.46,0,0,1,0-.65,1.62,1.62,0,0,1,.46-1.07Z" transform="translate(1.02 0.11)"/><path class="cls-16" d="M16.07,14.88a5.09,5.09,0,0,0-.16.78c0,.15.07.52.09.82A5.31,5.31,0,0,1,16,17a2.19,2.19,0,0,0,.2-.5c0-.13-.07-.72,0-1a7,7,0,0,1,.2-.77Z" transform="translate(1.02 0.11)"/><path d="M16,17.09,16,17s-.15-.32-.21-.42l-.05-.06a.89.89,0,0,1-.21-.56,2.27,2.27,0,0,1,.4-.94l.44-.27s-.13.57-.15.79a2.77,2.77,0,0,0,0,.56,3.54,3.54,0,0,1,0,.4A2.32,2.32,0,0,1,16,17l0,.05Zm.33-2.28-.4.27a2.46,2.46,0,0,0-.37.92.87.87,0,0,0,.2.53l0,.06c.05.08.15.29.2.38a2.72,2.72,0,0,0,.18-.44,1.91,1.91,0,0,0,0-.38,4.17,4.17,0,0,1,0-.57c0-.23.2-.75.2-.77Z" transform="translate(1.02 0.11)"/><path class="cls-16" d="M15.85,14.92c-.08.08,0,.26,0,.26a.24.24,0,0,1,.19-.07c.12,0,.2.18.2.18a.22.22,0,0,0,.09-.17c0-.12-.25-.26-.46-.2Z" transform="translate(1.02 0.11)"/><path d="M16.21,15.33l0,0s-.07-.17-.17-.18h0a.22.22,0,0,0-.17.06.2.2,0,0,1,0-.29.42.42,0,0,1,.45.11.11.11,0,0,1,0,.11.27.27,0,0,1-.09.19l0,0ZM16,15.08a.32.32,0,0,1,.23.17.21.21,0,0,0,.05-.14s0,0,0-.06a.44.44,0,0,0-.39-.1s0,.14,0,.19.07-.06.15-.06Z" transform="translate(1.02 0.11)"/><path d="M15.58,14.44l.25.65L16,15a.3.3,0,0,1,.16,0l.18-.09a.73.73,0,0,1,.18,0v0a7.14,7.14,0,0,0-1-.49Z" transform="translate(1.02 0.11)"/><path d="M15.82,15.13l-.26-.68,0-.08h0a5.58,5.58,0,0,1,1,.48l0,0,0,.05s-.14,0-.2,0l-.17.08H16l-.18.07,0,0Zm-.22-.71.25.63L16,15a.53.53,0,0,1,.17,0l.17-.08a.8.8,0,0,1,.19,0,8.14,8.14,0,0,0-.94-.46Z" transform="translate(1.02 0.11)"/><path class="cls-4" d="M15.6,14.38l.25.65L16,15a.27.27,0,0,1,.15,0l.18-.09a.82.82,0,0,1,.18,0l-.25-.71-.18,0a.61.61,0,0,0-.15.1.72.72,0,0,0-.2,0,.42.42,0,0,0-.17.1Z" transform="translate(1.02 0.11)"/><path d="M15.84,15.07l-.26-.68a.36.36,0,0,1,.18-.13l.13,0H16a1,1,0,0,1,.15-.11.84.84,0,0,1,.18,0l.29.73s-.14,0-.2.06l-.17.08h-.08l-.08,0-.19.06,0,0Zm.44-.92-.15,0a.73.73,0,0,0-.14.1h-.21a.37.37,0,0,0-.16.09l.25.6.16-.06a.34.34,0,0,1,.17,0l.16-.09a.89.89,0,0,1,.19,0l-.27-.67Z" transform="translate(1.02 0.11)"/><polygon class="cls-18" points="17.24 15.05 16.97 14.38 17.01 14.38 17.24 15.05 17.24 15.05"/><path class="cls-18" d="M15.65,14.44l0,0a.61.61,0,0,1,.37-.1.73.73,0,0,0-.34.13Z" transform="translate(1.02 0.11)"/><path class="cls-18" d="M15.68,14.52l0,0a.55.55,0,0,1,.35-.1.74.74,0,0,0-.33.13Z" transform="translate(1.02 0.11)"/><path class="cls-18" d="M15.7,14.61l0,0a.45.45,0,0,1,.36-.1.73.73,0,0,0-.34.13Z" transform="translate(1.02 0.11)"/><path class="cls-18" d="M15.73,14.69l0,0a.53.53,0,0,1,.37-.1.86.86,0,0,0-.34.12Z" transform="translate(1.02 0.11)"/><path class="cls-18" d="M15.77,14.79v0a.56.56,0,0,1,.36-.1.77.77,0,0,0-.35.13Z" transform="translate(1.02 0.11)"/><path class="cls-18" d="M15.8,14.88l0,0a.51.51,0,0,1,.36-.1.73.73,0,0,0-.34.13Z" transform="translate(1.02 0.11)"/><path class="cls-18" d="M15.83,15v0a.49.49,0,0,1,.36-.09.7.7,0,0,0-.35.12Z" transform="translate(1.02 0.11)"/><path class="cls-18" d="M16,14.34l0,0a.46.46,0,0,1,.33-.14.76.76,0,0,0-.31.16Z" transform="translate(1.02 0.11)"/><path class="cls-18" d="M16,14.44l0,0a.48.48,0,0,1,.34-.14.74.74,0,0,0-.32.16Z" transform="translate(1.02 0.11)"/><path class="cls-18" d="M16.05,14.51l0,0a.48.48,0,0,1,.34-.14.65.65,0,0,0-.32.16Z" transform="translate(1.02 0.11)"/><path class="cls-18" d="M16.09,14.61l0,0a.5.5,0,0,1,.34-.14.82.82,0,0,0-.32.17Z" transform="translate(1.02 0.11)"/><path class="cls-18" d="M16.12,14.69h0a.49.49,0,0,1,.34-.15.82.82,0,0,0-.31.16Z" transform="translate(1.02 0.11)"/><path class="cls-18" d="M16.16,14.78l0,0a.49.49,0,0,1,.34-.15.78.78,0,0,0-.31.17Z" transform="translate(1.02 0.11)"/><path class="cls-18" d="M16.19,14.86l0,0a.48.48,0,0,1,.33-.14.61.61,0,0,0-.31.16Z" transform="translate(1.02 0.11)"/><path d="M15.84,15.07l-.26-.68a.36.36,0,0,1,.18-.13l.13,0H16a1,1,0,0,1,.15-.11.84.84,0,0,1,.18,0l.29.73s-.14,0-.2.06l-.17.08h-.08l-.08,0-.19.06,0,0Zm.44-.92-.15,0a.73.73,0,0,0-.14.1h-.21a.37.37,0,0,0-.16.09l.25.6.16-.06a.34.34,0,0,1,.17,0l.16-.09a.89.89,0,0,1,.19,0l-.27-.67Z" transform="translate(1.02 0.11)"/><path class="cls-19" d="M15.14,18.88a3.76,3.76,0,0,0,.59-.4c.19-.17.36-.39.57-.6s.31-.15.42-.39a1.1,1.1,0,0,0,.05-.57c.07,0,.1.08.14.16s.11-.28.11-.19,0,.36,0,.35.18-.39.18-.39-.06.46-.05.41.19-.29.19-.29v.29a1.43,1.43,0,0,0,.16-.36s.1.2.14.15.07-.35.13-.32a.45.45,0,0,1,.08.19,6.11,6.11,0,0,1,0-1L18,16v-.38s.14.44.16.49a1.63,1.63,0,0,0-.06-.45c0-.11-.06-.31-.06-.31l.2.31a2.09,2.09,0,0,0-.17-.5s-.19.19-.16.18.13-.39.17-.39.16.26.15.23l-.11-.58.14.26a.6.6,0,0,0,0-.24,1.36,1.36,0,0,1-.05-.22s.1.14.08.1a3,3,0,0,1,0-.3l.1.19.08.13v-.12l.09.08s-.19-.42-.28-.43-.21.13-.21.13.16-.27.21-.27h.07l-.06-.29s.35.48.33.41-.15-.39-.17-.51a2.09,2.09,0,0,0-.07-.32l.16.22c0,.05.13.25.13.22v-.42l.16.37.16-.44.09.42a2,2,0,0,0,.08-.29c0-.08.08-.08.08-.08s0,.35,0,.39,0,.22,0,.22l.19-.39a.41.41,0,0,1,.18-.12l-.09.2c0,.05-.21.45-.17.45s.17-.21.26-.21.24.22.2.24-.16-.07-.22-.07-.47.46-.4.44.31-.27.31-.27-.08.2-.05.19l.3-.17s-.39.34-.33.34a1.42,1.42,0,0,0,.26-.1l-.26.32a1,1,0,0,1,.28-.14.9.9,0,0,1,.22.05l-.3,0s-.3.4-.22.36a1,1,0,0,0,.21-.19L19.5,15l.37-.23-.51.53a2.13,2.13,0,0,1,.4-.26,2.81,2.81,0,0,1,.3.3s-.32-.16-.35-.16-.51.6-.43.56a1.43,1.43,0,0,1,.38-.17c.07,0,.18.31.15.31s-.18-.09-.22-.09a4.36,4.36,0,0,0-.44.24l.38-.07a1.79,1.79,0,0,0,.34,0,1.91,1.91,0,0,1,.26-.11s-.2.13-.31.22a.75.75,0,0,1-.29.11l.34,0-.57.18-.25.12h.38l.4.05-.49.07a.28.28,0,0,0-.12,0l.47.05-.31.05.28.1a1.19,1.19,0,0,1,.21.12s-.41-.08-.49-.08l-.22,0a.57.57,0,0,1,.23.05.1.1,0,0,1,.07.06l-.22,0a1.87,1.87,0,0,0,.21.14.37.37,0,0,1,.1.07l-.35,0,.3.22s-.31-.07-.37-.07h-.05a1.83,1.83,0,0,1,.2.17.59.59,0,0,0,.06.12l-.21-.06a.69.69,0,0,0-.18-.06l.15.17-.26-.05.14.21-.27-.09s.13.07.13.12-.05.29-.09.25,0-.16-.09-.22a.26.26,0,0,0-.08-.08.5.5,0,0,0-.18-.05s.2.15.23.19l-.33,0s.31.15.26.15l-1.82-.13c-.11,0-.61.57-.72.62s-.34.34-.45.36a1.22,1.22,0,0,0-.24.09Z" transform="translate(1.02 0.11)"/><path class="cls-20" d="M15.33,19l-.21-.1c.05-.07.41-.29.59-.45s.21-.21.31-.32l.26-.28a1.24,1.24,0,0,1,.21-.15.44.44,0,0,0,.21-.23.69.69,0,0,0,.05-.39c0-.05,0-.1,0-.17s.14,0,.18.12L17,17c0-.09,0-.11.07-.11,0,.18,0,.35,0,.37a1.53,1.53,0,0,1,.13-.38h0s0,0,0,0a1.55,1.55,0,0,1,0,.31c0-.09.13-.23.14-.25l0,.26a2.68,2.68,0,0,0,.11-.31c.07,0,.09,0,.12.07l0,.07a1.05,1.05,0,0,1,0-.13c0-.13.06-.21.11-.21a.39.39,0,0,1,.11.21,2.63,2.63,0,0,1,0-1l.2,0,0-.35s.12.21.17.36c0-.11,0-.26-.06-.32s-.07-.3-.07-.3.16.14.23.24c-.06-.12-.16-.39-.18-.41l-.1.11a.15.15,0,0,1,0-.13c.06-.18.09-.25.12-.25s.16.22.16.24h0c-.08-.07-.14-.18-.17-.19a1.22,1.22,0,0,0-.07.21h0a.08.08,0,0,1,.06,0c.08,0,.2.51.2.52a1.11,1.11,0,0,1-.2-.22c0,.06,0,.15.06.21a1.7,1.7,0,0,1,0,.48,2.35,2.35,0,0,1-.21-.5l.06.37-.22,0s0,.51,0,.94c-.06-.05-.09-.15-.12-.16a1.66,1.66,0,0,0-.05.16.3.3,0,0,1,0,.15c-.06,0-.09,0-.12-.08s0-.06,0-.06a1.25,1.25,0,0,1-.13.34v0l0-.26a1.74,1.74,0,0,1-.14.3c-.05,0-.06,0,0-.27a2.42,2.42,0,0,1-.11.25c-.05,0-.06,0-.06-.26,0,.1,0,.12-.07.12s-.1-.16-.15-.16a.33.33,0,0,1,0,.14.81.81,0,0,1-.07.41.43.43,0,0,1-.22.25,1,1,0,0,0-.2.15l-.26.27c-.1.12-.21.23-.31.33a6,6,0,0,1-.6.41l.18.05a.67.67,0,0,1,.23-.08.78.78,0,0,0,.26-.2,1.06,1.06,0,0,1,.19-.16,3.2,3.2,0,0,0,.28-.25c.24-.24.38-.38.45-.38l1.15.09.62,0-.22-.1h.29l-.08-.05a.72.72,0,0,1-.12-.11.29.29,0,0,1,.21,0,.32.32,0,0,1,.1.09.34.34,0,0,1,0,.12l0,.1a1.5,1.5,0,0,0,0-.24s0-.07-.1-.1h0a.09.09,0,0,1,.1,0l.17,0-.16-.16h.29l-.19-.13s.15,0,.22,0l.15.05,0-.06a1.46,1.46,0,0,0-.19-.16L19,17.3h.12a3.06,3.06,0,0,1,.37.07l-.31-.18h.29l0,0a.59.59,0,0,1-.21-.14l.19,0,0,0a.72.72,0,0,0-.23-.05c0-.05.14-.07.23-.07l.38.06-.11-.05-.28-.1h.05l.27-.09h-.47c0-.05.06-.1.12-.1a2.55,2.55,0,0,0,.35-.05l-.26,0h-.38v-.05h0v0a1.23,1.23,0,0,1,.2-.1c.12-.05.57-.18.57-.18h0s-.45.18-.56.23l-.14.06h.26l.4.05c0,.05-.43.12-.49.12a.16.16,0,0,0-.1.05h.45l-.26.09.23.06a1.83,1.83,0,0,1,.22.13,3,3,0,0,1-.5,0h0l.06,0a.24.24,0,0,1,.09.08l-.25,0h0a.56.56,0,0,1,.22.09.29.29,0,0,1,.11.07H19.2l.31.17a1.26,1.26,0,0,1-.36,0,.58.58,0,0,1,.14.13l.08.12s-.18,0-.24,0a1.06,1.06,0,0,0-.19-.05l.18.13h-.29l.17.16-.19,0s.06.05.06.08,0,.28-.11.28-.06-.08-.08-.13a.23.23,0,0,0,0-.1.26.26,0,0,0-.08-.08h0l-.08,0,.06,0a.39.39,0,0,1,.11.09H18.3c.3.09.3.11.3.13a4.17,4.17,0,0,1-.72,0l-1.14-.09a2.07,2.07,0,0,0-.41.36,2.33,2.33,0,0,1-.29.27,1,1,0,0,0-.19.15.82.82,0,0,1-.27.21.76.76,0,0,0-.24.08Zm4.2-2.83c0-.05.18-.08.28-.15l.11-.09,0,0a.62.62,0,0,1-.21,0h-.13l-.38.07h0s0,0,0,0a1.25,1.25,0,0,1,.39-.25l.12,0,.1,0s-.12-.25-.15-.25a1.79,1.79,0,0,0-.32.13l-.06,0c0-.06.36-.61.43-.61a2.38,2.38,0,0,1,.36.16c-.15-.09-.28-.23-.31-.24a1.62,1.62,0,0,0-.38.25h0a.47.47,0,0,1,.09-.12l.37-.44-.33.26,0-.19a.45.45,0,0,1-.16.15c-.06-.07.17-.38.2-.4l.18,0h-.09a1.17,1.17,0,0,0-.27.14h0a.09.09,0,0,1,0-.06l.16-.25a.45.45,0,0,1-.21.1s0-.05.13-.23l-.09.06s-.06,0,0-.16a.78.78,0,0,1-.25.24c-.05-.09.33-.49.39-.49l.12,0a.19.19,0,0,0,.1,0s-.14-.18-.2-.18-.12.07-.17.12-.07.08-.09.08,0-.09.1-.36l0-.11s.05-.13.08-.18-.09.07-.12.11l-.18.39c-.05,0,0-.2,0-.23s0-.25,0-.35a.43.43,0,0,0,0,.05c0,.09-.09.29-.09.29h0v0L19,13.16l-.11.45-.19-.32a1.77,1.77,0,0,1,0,.36s0,0-.13-.12l-.05-.09-.09-.12a1.6,1.6,0,0,1,.05.21,2.08,2.08,0,0,0,.12.35c0,.07.05.13.05.15s-.06,0-.37-.38l.09.27-.09,0a.3.3,0,0,0-.09.1l.08,0c.11,0,.27.35.31.45l-.13-.05h0l0,0,.13.05c-.13-.16-.25-.37-.3-.38h0c-.06,0-.15.09-.18.13h0s0,0,0-.08.13-.23.17-.23h.07l-.08-.25a4.08,4.08,0,0,1,.3.31s0,0,0,0-.1-.29-.12-.37a2.8,2.8,0,0,0-.06-.31h0s0,0,0,0l.15.15,0,.1s.06.08.07.11a2.43,2.43,0,0,1,0-.39h0s0,0,0,0l.19.32.11-.44.12.37a1.89,1.89,0,0,1,.05-.23c0-.11.09-.11.1-.11a2.94,2.94,0,0,1,0,.42v.08a1.83,1.83,0,0,1,.11-.26c0-.08.17-.13.18-.14s0,.19-.05.24a.42.42,0,0,1-.05.12,1.86,1.86,0,0,0-.1.25s0,0,0,0,.14-.15.21-.15.22.18.23.24l0,.06-.13,0-.09,0a1.85,1.85,0,0,0-.38.41l.27-.29c0,.1,0,.18,0,.2s.27-.18.27-.18h0s0,0-.05.07-.23.26-.24.29.14-.09.22-.13v0l-.17.26a.44.44,0,0,1,.22-.12.6.6,0,0,1,.23.06h0s0,0,0,0l-.24.06a1.46,1.46,0,0,0-.22.33,1.06,1.06,0,0,1,.17-.2h0a0,0,0,0,1,0,.05l0,.18.33-.25-.37.44a.63.63,0,0,1,.28-.17,1.45,1.45,0,0,1,.31.3,2.35,2.35,0,0,1-.36-.11,5.29,5.29,0,0,0-.38.47,1.12,1.12,0,0,1,.33-.14c.08,0,.18.27.18.32s-.08,0-.15,0l-.1,0a2.12,2.12,0,0,0-.32.17l.26-.06h.13a.68.68,0,0,0,.19,0l.27-.1s-.18.17-.28.26a.68.68,0,0,1-.3.11Zm-1.25-1-.14-.52.16.21a1.23,1.23,0,0,0,0-.19,2,2,0,0,1-.06-.23.24.24,0,0,1,.1.05,1,1,0,0,1,0-.25c.05,0,.12.15.14.18a.5.5,0,0,0,.08.12v0c-.06,0-.12-.08-.13-.12l-.1-.19a1.85,1.85,0,0,1,.05.28s0,0-.08,0l0,.12a.72.72,0,0,1,0,.26l-.19-.25.14.51Z" transform="translate(1.02 0.11)"/><path class="cls-20" d="M16.77,17.64l0,0a1.49,1.49,0,0,0,.23-.28.35.35,0,0,0,0-.1c.06,0,0,.06,0,.12a2,2,0,0,1-.25.3Z" transform="translate(1.02 0.11)"/><path class="cls-20" d="M16.88,17.68l0-.05a1,1,0,0,0,.29-.41s-.07.33-.26.46Z" transform="translate(1.02 0.11)"/><path class="cls-20" d="M17.2,17.56l0,0a.74.74,0,0,0,.16-.27s0,.25-.13.32Z" transform="translate(1.02 0.11)"/><path class="cls-20" d="M17.25,17.69l0,0a.87.87,0,0,0,.32-.65.64.64,0,0,1-.29.69Z" transform="translate(1.02 0.11)"/><path class="cls-20" d="M17.46,17.7l0,0a1.4,1.4,0,0,0,.32-.86,1.06,1.06,0,0,1-.28.9Z" transform="translate(1.02 0.11)"/><path class="cls-20" d="M17.56,17.75l0,0c.26-.14.27-.78.27-.86l.05,0c0,.17,0,.79-.3.94Z" transform="translate(1.02 0.11)"/><path class="cls-20" d="M18,17.29a1.89,1.89,0,0,0-.13-.68c.06,0,.18.28.18.68Z" transform="translate(1.02 0.11)"/><path class="cls-20" d="M18.13,17.15h-.05a1.53,1.53,0,0,0-.16-.73s.22.27.21.73Z" transform="translate(1.02 0.11)"/><path class="cls-20" d="M18.17,17.12h-.05c.1-1-.11-1.08-.11-1.08s.26.07.16,1.08Z" transform="translate(1.02 0.11)"/><path class="cls-20" d="M18.32,16.69h-.05a.9.9,0,0,0-.08-.56s.16.13.13.57Z" transform="translate(1.02 0.11)"/><path class="cls-20" d="M18.46,16.4h-.05a1.45,1.45,0,0,0-.16-.72h0a1,1,0,0,1,.2.72Z" transform="translate(1.02 0.11)"/><path class="cls-20" d="M18.46,17l0-.05c.38-.25.65-.36.75-.32a2.38,2.38,0,0,0-.73.37Z" transform="translate(1.02 0.11)"/><path class="cls-20" d="M18.29,17.34l0-.05c.78-.53.94-.42,1-.4a2,2,0,0,0-.93.45Z" transform="translate(1.02 0.11)"/><path class="cls-20" d="M19.21,17.16a2.66,2.66,0,0,0-.52,0v0c.32,0,.5,0,.55.06Z" transform="translate(1.02 0.11)"/><path class="cls-20" d="M18.92,17.47a1.07,1.07,0,0,0-.42,0v-.05a.63.63,0,0,1,.44.07,0,0,0,0,1,0,0Z" transform="translate(1.02 0.11)"/><path class="cls-20" d="M18.72,16l0,0c.53-.61.65-.66.66-.66s-.1.1-.62.69Z" transform="translate(1.02 0.11)"/><path class="cls-20" d="M18.7,16.16l0-.05.61-.4s0,.09-.58.45Z" transform="translate(1.02 0.11)"/><path class="cls-20" d="M18.65,16.45l0,0c.4-.39.58-.42.59-.42s-.17.08-.55.46Z" transform="translate(1.02 0.11)"/><path class="cls-20" d="M18.64,16.61l0,0c.69-.55,1-.44,1-.44a2.13,2.13,0,0,0-1,.47Z" transform="translate(1.02 0.11)"/><path class="cls-20" d="M18.55,16.78l0-.05a2.23,2.23,0,0,1,.53-.25l.07,0a1.61,1.61,0,0,0-.56.26Z" transform="translate(1.02 0.11)"/><path class="cls-20" d="M18.9,14.56a7.57,7.57,0,0,0-.22-.9c.07,0,.14.26.26.89Z" transform="translate(1.02 0.11)"/><path class="cls-20" d="M19,14.58c-.05,0,0-.29,0-.35a1.52,1.52,0,0,0-.17-.62l0,0a1.29,1.29,0,0,1,.18.65,3.17,3.17,0,0,1-.08.35Z" transform="translate(1.02 0.11)"/><path class="cls-20" d="M19.11,13.88c-.05,0-.08-.1-.06-.41h.05a1,1,0,0,0,0,.41Z" transform="translate(1.02 0.11)"/><path class="cls-20" d="M19.08,14.24l0,0a3.83,3.83,0,0,0,.18-.46c.05,0,0,.33-.14.48Z" transform="translate(1.02 0.11)"/><path class="cls-20" d="M18.88,15c0-.06.05-.13.14-.35l.28-.67h0c-.07.2-.19.48-.27.68l-.13.3-.06,0Z" transform="translate(1.02 0.11)"/><path class="cls-20" d="M18.9,15.33l0,0a3.72,3.72,0,0,1,.54-.9s-.11.16-.49.93Z" transform="translate(1.02 0.11)"/><path class="cls-20" d="M18.92,15.45l-.05,0a5.4,5.4,0,0,0,.52-.79c.05,0,0,.18-.47.82Z" transform="translate(1.02 0.11)"/><path class="cls-20" d="M18.83,15.74l0,0c.52-.67.72-.74.73-.74s-.18.12-.69.77Z" transform="translate(1.02 0.11)"/><path class="cls-20" d="M18.52,16.08a1.85,1.85,0,0,0-.29-.89c.06,0,.28.3.35.89Z" transform="translate(1.02 0.11)"/><path class="cls-20" d="M18.62,15.77a7.14,7.14,0,0,0-.34-.88l0,0a2.46,2.46,0,0,1,.3.91Z" transform="translate(1.02 0.11)"/><path class="cls-20" d="M18.67,15.55a2.61,2.61,0,0,0-.36-1l0,0a1.55,1.55,0,0,1,.32,1.06Z" transform="translate(1.02 0.11)"/><path class="cls-20" d="M18.74,15.74a2.68,2.68,0,0,0-.26-1.2l.05,0a1.71,1.71,0,0,1,.21,1.22Z" transform="translate(1.02 0.11)"/><path class="cls-20" d="M18.83,15.26s0-.25-.24-.75l.05,0a2.17,2.17,0,0,1,.19.77Z" transform="translate(1.02 0.11)"/><path class="cls-20" d="M18.87,14.79a1.25,1.25,0,0,0-.51-.86l0,0c.6.57.48.89.47.9Z" transform="translate(1.02 0.11)"/><path class="cls-20" d="M18.35,17.18c-.05,0,0-.23,0-.31a.83.83,0,0,1,0-.13c0,.08-.08.19-.15.35l-.05,0c.21-.48.24-.56.24-.57a0,0,0,0,1,0,0s0,0,0,0a1.58,1.58,0,0,1,0,.32,1.66,1.66,0,0,1-.08.31Z" transform="translate(1.02 0.11)"/><path class="cls-20" d="M18.66,17.69a2,2,0,0,0-.85-.15v-.05a1.35,1.35,0,0,1,.87.2Z" transform="translate(1.02 0.11)"/><path class="cls-20" d="M18.37,17.74l-.62-.06v-.05a5,5,0,0,1,.67.1Z" transform="translate(1.02 0.11)"/><path class="cls-20" d="M18.82,17.59c-.11,0-.69-.21-.89-.22v-.06a4,4,0,0,1,.9.28Z" transform="translate(1.02 0.11)"/><path class="cls-21" d="M16.88,17.42s0-.06,0-.14a.67.67,0,0,0,0-.22H17a.84.84,0,0,1,0,.25c0,.09-.06.11-.06.12Z" transform="translate(1.02 0.11)"/><path class="cls-19" d="M16.63,19a11.08,11.08,0,0,1-1.31-1.1c-.13,0-1.52.2-1.51.16a2.19,2.19,0,0,1,.1-.34c.07-.1.24-.2.22-.2h-.38a1.23,1.23,0,0,1-.23.22c-.06,0-.34,0-.41.08a1.1,1.1,0,0,0-.18.16,1.64,1.64,0,0,1,0-.18s.06-.11.06-.11h-.29s.05-.11.1-.17a.47.47,0,0,1,.21-.16l.18-.06L13,17.25a.9.9,0,0,1,.19-.08l.2,0s-.12-.13-.12-.18-.12.19-.21.21a1.49,1.49,0,0,1-.36,0c-.09,0-.22.14-.22.14a.47.47,0,0,1,0-.19.1.1,0,0,1,.06-.07h-.14a1.31,1.31,0,0,1,0-.22l.07-.13a.52.52,0,0,1-.12-.13,1.2,1.2,0,0,1-.07-.18h.27a1.1,1.1,0,0,1,.24.08.45.45,0,0,1-.07-.14s0-.13,0-.13a1.3,1.3,0,0,1,.21.12s0-.24-.13-.29-.42-.12-.49-.21a3.57,3.57,0,0,1-.18-.48.26.26,0,0,0-.11-.11h.22s0-.13-.05-.2a.51.51,0,0,1,0-.19s.09.15.14.15.13.09.13.09v-.09l.16.2s0-.14,0-.16A.21.21,0,0,1,12.8,15a.36.36,0,0,0,0,.11,2.41,2.41,0,0,1,.08.25s0,.46,0,.49a2.1,2.1,0,0,0,.15.33v-.3c0-.08-.08-.24-.07-.3s0-.17,0-.17a.79.79,0,0,0,.1.16s.1.15.1.15l.1-.17s-.23-.17-.26-.25,0-.24,0-.24a1.2,1.2,0,0,1-.21-.13,3.25,3.25,0,0,1-.26-.4h.08a.93.93,0,0,1-.08-.24c0-.08,0-.23,0-.23s.08.06.09.09.11,0,.11,0a2.11,2.11,0,0,1-.15-.48,1.08,1.08,0,0,1,.21-.41l.1.17.21-.31a.74.74,0,0,1,.09.18v.16l.16,0s.09,0,.09,0a.43.43,0,0,0-.14.07s-.08.2-.12.22a1.17,1.17,0,0,0-.25.16,1,1,0,0,0-.08.27.91.91,0,0,1,.15.24c0,.06,0,.22,0,.22s.07.08.12.07.11-.09.09-.14-.15-.18-.17-.24,0-.48,0-.48l.21.11a.71.71,0,0,0,.13-.17,2.14,2.14,0,0,0,.07-.25l.09.27s.07-.12.13-.14l.19-.1a1.43,1.43,0,0,0-.05.18s0,.47,0,.51-.37.37-.4.4,0,.21,0,.21l.25-.21s0,.11,0,.18a.83.83,0,0,1,0,.12l.17-.06s.13,0,.13,0a.88.88,0,0,1-.07.13s-.12.26-.16.3-.28.13-.3.17-.22.25-.27.33a.48.48,0,0,0-.05.22,1,1,0,0,1,.14-.27c.07-.06.22-.23.22-.23l0,.19a1.67,1.67,0,0,1,.19-.12l.33-.07s-.19.15-.19.19,0,.24-.09.29a4.1,4.1,0,0,1-.4.25.38.38,0,0,0-.05.16.19.19,0,0,0,0,.08.85.85,0,0,1,.09-.14c.06-.05,0-.16,0-.16s.12.11.13.16a2.41,2.41,0,0,1,0,.38.75.75,0,0,0,0,.26s.14.16.18.16-.17-.33-.14-.48.14-.25.15-.33a.64.64,0,0,0,0-.15.92.92,0,0,1,.14.19.34.34,0,0,1,.12-.12s.11.27.14.33a1.33,1.33,0,0,1,.14-.19.55.55,0,0,1,.1.35.41.41,0,0,1-.17.26.84.84,0,0,1-.14.08,1.36,1.36,0,0,0,.24.06.39.39,0,0,1,.13,0l-.29.09s.35,0,.35,0a.62.62,0,0,0,0-.24.56.56,0,0,1-.05-.16l.16,0c.06,0,.15,0,.15,0s-.11-.23-.08-.23.37.31.37.26a2,2,0,0,1,.14-.32l.14.27a1.22,1.22,0,0,1,0,.22.56.56,0,0,1-.08.22,2.08,2.08,0,0,0,.29.38,5.11,5.11,0,0,0,.77.73l.32.18Z" transform="translate(1.02 0.11)"/><path class="cls-20" d="M16.63,19h0a4.42,4.42,0,0,1-1-.82,1.49,1.49,0,0,0-.31-.28c-.17,0-.56.06-.9.1l-.58.07,0,0V18a1.2,1.2,0,0,1,.09-.29,1.36,1.36,0,0,1,.17-.17h-.32a.89.89,0,0,1-.22.21l-.17,0a1,1,0,0,0-.24.05.85.85,0,0,0-.18.14s0-.14,0-.18a.22.22,0,0,1,0-.11l-.21,0h-.05a1.52,1.52,0,0,1,.28,0,1.11,1.11,0,0,0,0,.13A.88.88,0,0,0,13,18s.09-.12.15-.15a1.46,1.46,0,0,1,.26-.06l.16,0a1,1,0,0,0,.21-.21l.4,0h0l0,.06a1.21,1.21,0,0,0-.16.16,1.31,1.31,0,0,0-.09.28,1.42,1.42,0,0,0,.56,0c.34,0,.73-.1.87-.1s.22.12.38.28a4.11,4.11,0,0,0,1,.82l.13-.18-.1,0-.22-.12a3.86,3.86,0,0,1-.62-.58,1.26,1.26,0,0,0-.15-.16,2.44,2.44,0,0,1-.3-.38s.09-.14.09-.23a1,1,0,0,0,0-.22s-.13-.26-.13-.26-.11.27-.11.31-.13,0-.26-.14a.54.54,0,0,0-.13-.1.64.64,0,0,1,.06.12.25.25,0,0,1,0,.09v0h-.17a.42.42,0,0,1-.15,0s0,.09.05.14a.59.59,0,0,1,0,.25v0h-.08a2.58,2.58,0,0,1-.29,0h0l.21-.1h-.09a.87.87,0,0,1-.24-.07s.06-.05.13-.1a.46.46,0,0,0,.17-.26.7.7,0,0,0-.1-.33l-.12.19c-.06-.08-.13-.3-.16-.33l-.1.12a1.22,1.22,0,0,0-.15-.17.22.22,0,0,1,0,.13s0,.06-.05.09a1.23,1.23,0,0,0-.11.23,1.13,1.13,0,0,0,.1.38c0,.08,0,.1,0,.11s-.19-.14-.2-.17a.57.57,0,0,1,0-.26,2.26,2.26,0,0,0,0-.37,1.1,1.1,0,0,0-.11-.14.15.15,0,0,1,0,.15.33.33,0,0,0-.08.13.1.1,0,0,1-.08-.09s0-.15.06-.17.34-.2.4-.25a.54.54,0,0,0,.09-.28s.13-.16.19-.2l-.31.1a.72.72,0,0,0-.19.11l-.07-.19s-.13.18-.19.23a.68.68,0,0,0-.13.27s0-.16,0-.24.11-.14.17-.22l.1-.11a.58.58,0,0,1,.17-.1l.13-.07a.54.54,0,0,0,.08-.17c0-.07.06-.12.08-.13l.06-.12s0,0-.08,0l-.19.07s0-.08,0-.14a1.63,1.63,0,0,1,0-.18l-.22.23a.35.35,0,0,1,0-.25c.25-.23.37-.36.39-.38a1.92,1.92,0,0,0,0-.48.41.41,0,0,1,.05-.19l-.17.1c-.05,0-.1.1-.12.13l-.11-.24a.8.8,0,0,1-.05.21.61.61,0,0,1-.14.18L13.08,14c0,.1,0,.42,0,.47s.05.08.09.13a.48.48,0,0,1,.08.1.1.1,0,0,1,0,.09.2.2,0,0,1-.08.08c-.08,0-.13-.07-.14-.07s0-.18,0-.24a.79.79,0,0,0-.14-.23.79.79,0,0,1,.08-.29,1.84,1.84,0,0,1,.25-.17s0-.06.06-.1,0-.09.06-.11a.55.55,0,0,1,.14-.08l-.08,0H13.2l0-.18a.8.8,0,0,0-.08-.17l-.18.3-.13-.16s-.18.27-.18.4a2.16,2.16,0,0,0,.15.47s-.13,0-.14,0l-.08-.08a1.46,1.46,0,0,1,0,.21.83.83,0,0,0,.08.23l-.09,0c.09.1.23.34.27.38s.2.12.2.13,0,.17.06.24.19.2.24.25l-.08.18a1.11,1.11,0,0,1-.13-.14.56.56,0,0,1-.09-.13.57.57,0,0,1,0,.13.33.33,0,0,0,0,.15.56.56,0,0,1,0,.15v.3a1,1,0,0,1-.19-.33l0-.24c0-.11,0-.23,0-.25a1.17,1.17,0,0,0-.09-.24,1,1,0,0,1,0-.12s0,0-.06.06,0,.09,0,.15l-.18-.19v.08s-.11-.08-.14-.08-.11-.09-.14-.14a.81.81,0,0,0,0,.16l0,.2-.19,0a.14.14,0,0,1,.08.1l0,.07a1.51,1.51,0,0,0,.16.4.76.76,0,0,0,.3.14l.18.06a.7.7,0,0,1,.14.3c-.11,0-.21-.09-.23-.09a.22.22,0,0,1,0,.11.69.69,0,0,0,.06.13c-.07,0-.2-.05-.25-.05h-.26s.05.11.07.15a.49.49,0,0,0,.13.12.6.6,0,0,1-.08.16,1.31,1.31,0,0,0,0,.21l.13,0s0,.06,0,.1a.5.5,0,0,0,0,.17.34.34,0,0,1,.21-.14,2.23,2.23,0,0,0,.36-.05s.11-.11.15-.16,0-.06.06-.06a.55.55,0,0,0,.13.18.44.44,0,0,1-.21.07l-.19.07.16,0-.18.08a.46.46,0,0,0-.2.16.2.2,0,0,0,0,.09.18.18,0,0,1-.06.08h0a.25.25,0,0,0,0-.08l.06-.1a.51.51,0,0,1,.21-.17l.19-.05-.16,0a.42.42,0,0,1,.2-.1l.19,0a.22.22,0,0,1-.12-.14l0,0a.68.68,0,0,1-.17.17,1.57,1.57,0,0,1-.37,0c-.07,0-.17.1-.21.14a.3.3,0,0,1-.05-.21.14.14,0,0,1,.07-.09l-.13.05a.78.78,0,0,1,0-.24l.08-.14a.34.34,0,0,1-.13-.11.9.9,0,0,1-.06-.18l.28,0a1,1,0,0,1,.22.06.17.17,0,0,1-.07-.11l0-.13s.18.07.23.1-.09-.22-.14-.26a.93.93,0,0,0-.18-.06c-.13,0-.29-.09-.32-.15a1.59,1.59,0,0,1-.16-.41l0-.07A.21.21,0,0,0,12,15.3h0a0,0,0,0,1,0,0l.19,0-.07-.18a.63.63,0,0,1,0-.2c.07.06.13.14.16.14s.13.08.14.1V15l.17.2a.25.25,0,0,1,0-.17l.1-.05a.54.54,0,0,1,0,.12,1.58,1.58,0,0,1,.09.26s0,.14,0,.25,0,.23,0,.24a2.24,2.24,0,0,0,.15.33l0-.3a.51.51,0,0,0,0-.14.9.9,0,0,1,0-.16,1.19,1.19,0,0,0,0-.17l.12.14a.67.67,0,0,1,.12.16l.06-.17a1.21,1.21,0,0,1-.25-.23,1.32,1.32,0,0,1,0-.25.84.84,0,0,1-.21-.11c0-.06-.25-.4-.26-.42l.09,0s-.09-.15-.09-.22,0-.23,0-.23h0a.15.15,0,0,1,.11.08l.1,0a1.39,1.39,0,0,1-.17-.46,1,1,0,0,1,.22-.42l.13.17.18-.31a.44.44,0,0,1,.12.19v.16h.14s.08,0,.1.05-.11.07-.14.1a.23.23,0,0,0-.05.1c0,.07,0,.11-.07.12a1.75,1.75,0,0,0-.25.16,1.51,1.51,0,0,0-.07.26h0a1,1,0,0,1,.15.23c0,.07,0,.23,0,.23a.15.15,0,0,0,.09.05.08.08,0,0,0,.07-.05.19.19,0,0,0,0-.07l-.07-.09a.92.92,0,0,1-.11-.15c0-.06,0-.47,0-.48l.23.1s.1-.12.12-.17a1.67,1.67,0,0,0,.07-.24h0l.1.23a.21.21,0,0,1,.12-.13l.19-.1c0,.09,0,.17,0,.19a2.21,2.21,0,0,1,0,.53s-.21.21-.37.36a.39.39,0,0,0-.05.23l.22-.23s.05.13.06.19a.48.48,0,0,1,0,.13A.52.52,0,0,1,13.9,15a.16.16,0,0,1,.13,0,.28.28,0,0,1-.06.15l-.07.13a.94.94,0,0,1-.09.18l-.14.07a.69.69,0,0,0-.16.09l-.1.11c-.06.08-.14.17-.17.22a.25.25,0,0,0,0,.13.6.6,0,0,1,.11-.21,1.9,1.9,0,0,0,.21-.22l.07.19a.51.51,0,0,1,.18-.12l.33-.08c-.07.1-.16.19-.16.21a.55.55,0,0,1-.11.3l-.28.19a.34.34,0,0,1,.14.15,3.23,3.23,0,0,1,0,.34v0a.53.53,0,0,1,.1-.24s0-.07,0-.09a.8.8,0,0,0,0-.15s.14.12.16.19a.18.18,0,0,1,.11-.13,2.07,2.07,0,0,1,.15.34.45.45,0,0,1,.12-.2.55.55,0,0,1,.13.36.42.42,0,0,1-.18.27.55.55,0,0,1-.14.08,1.6,1.6,0,0,1,.23,0,.39.39,0,0,1,.13,0h0l-.22.1a2.08,2.08,0,0,1,.25,0,.24.24,0,0,0,0-.22,1.47,1.47,0,0,1,0-.17s.14,0,.18,0h.1s0-.05,0-.08-.06-.14,0-.15,0,0,.16.09a1.07,1.07,0,0,0,.21.15,1.19,1.19,0,0,1,.14-.31,1.13,1.13,0,0,1,.16.27,1,1,0,0,1,0,.23.67.67,0,0,1-.09.23h0a3.35,3.35,0,0,0,.29.35l.16.17a3,3,0,0,0,.6.57l.23.12.1.05-.15.23ZM13.7,16.89v.05a.67.67,0,0,0,0,.24,1.06,1.06,0,0,0,.15.15.49.49,0,0,1,0-.07,1,1,0,0,1-.11-.37Zm-.18-.48-.09.06s0,.09,0,.14a.14.14,0,0,0,0,.06.32.32,0,0,1,.08-.13.19.19,0,0,0,0-.13Z" transform="translate(1.02 0.11)"/><path class="cls-20" d="M12.5,17l0,0a.28.28,0,0,1,.19-.09.15.15,0,0,0,.09,0,1.65,1.65,0,0,0,.21-.11s-.12.11-.2.14a.18.18,0,0,1-.1,0,.27.27,0,0,0-.17.08Z" transform="translate(1.02 0.11)"/><path class="cls-20" d="M12.62,17.1s.16-.07.22-.11.06-.06.11-.11a.88.88,0,0,1,.25-.26v0a1.2,1.2,0,0,0-.24.26.33.33,0,0,1-.11.12.94.94,0,0,1-.24.08Z" transform="translate(1.02 0.11)"/><path class="cls-20" d="M12.66,17.16v0a.57.57,0,0,0,.27-.06,1.15,1.15,0,0,1,.14-.11s-.07.09-.12.14-.26.06-.28.06Z" transform="translate(1.02 0.11)"/><path class="cls-1" d="M13.58,16.62v0Z" transform="translate(1.02 0.11)"/><path class="cls-20" d="M12.89,17.62v0a4.53,4.53,0,0,0,.5-.1c0,.05-.42.12-.5.13Z" transform="translate(1.02 0.11)"/><path class="cls-20" d="M13.12,17.76h0v0a.78.78,0,0,0,.49-.25.59.59,0,0,1-.47.28Z" transform="translate(1.02 0.11)"/><path class="cls-20" d="M13.71,17.48a1.19,1.19,0,0,1-.53-.1l0,0a2.24,2.24,0,0,0,1,.06,1.58,1.58,0,0,1-.52.07Z" transform="translate(1.02 0.11)"/><path class="cls-20" d="M14,17.29s0-.08,0-.51h0c0,.51-.05.51-.07.51Z" transform="translate(1.02 0.11)"/><path class="cls-1" d="M13.87,17.05c0-.14,0-.19,0-.19Z" transform="translate(1.02 0.11)"/><path class="cls-1" d="M13.94,16.61s0,.17,0,.17Z" transform="translate(1.02 0.11)"/><path class="cls-20" d="M14.18,17.19h0a.57.57,0,0,0,.06-.23s0,.12,0,.24Z" transform="translate(1.02 0.11)"/><path class="cls-1" d="M14.15,16.88v0Z" transform="translate(1.02 0.11)"/><path class="cls-1" d="M14.37,17c0,.13-.08.13-.08.13Z" transform="translate(1.02 0.11)"/><path class="cls-20" d="M15,17.44s-.27-.22-.42-.29l0,0a2.54,2.54,0,0,1,.4.32Z" transform="translate(1.02 0.11)"/><path class="cls-20" d="M15.17,17.35s-.14-.14-.26-.21v0a1.68,1.68,0,0,1,.26.24Z" transform="translate(1.02 0.11)"/><path class="cls-20" d="M15.23,17.57s.09-.22-.06-.38l0,0a.36.36,0,0,1,0,.41Z" transform="translate(1.02 0.11)"/><path class="cls-1" d="M15.36,17l0,.3Z" transform="translate(1.02 0.11)"/><path class="cls-20" d="M12.55,15.88s-.11-.07-.15-.12a.38.38,0,0,1-.05-.12s0-.06,0-.08a.43.43,0,0,0-.26-.2v0a.44.44,0,0,1,.25.19.24.24,0,0,1,.05.12.15.15,0,0,0,0,.1l.14.14Z" transform="translate(1.02 0.11)"/><path class="cls-20" d="M12.84,16.08s-.08-.1-.12-.15h0l-.09,0a.33.33,0,0,1-.11-.17s0-.06,0-.07v-.06c0-.09,0-.24-.24-.26v0c.27,0,.26.2.26.29s0,.08,0,.12a.43.43,0,0,0,.09.15c.06,0,.08,0,.1.05a.54.54,0,0,1,.1.17Z" transform="translate(1.02 0.11)"/><path class="cls-20" d="M12.4,15.33s0-.08-.08-.16-.1-.09-.1-.09l0,0s0,0,.1.1a.19.19,0,0,1,.06.18Z" transform="translate(1.02 0.11)"/><path class="cls-20" d="M12.64,15.57a.37.37,0,0,1-.07-.38l0,0a.57.57,0,0,0,.05.36Z" transform="translate(1.02 0.11)"/><path class="cls-20" d="M12.74,15.61s.08-.23-.07-.33l0,0c.17.12.05.36.05.36Z" transform="translate(1.02 0.11)"/><path class="cls-1" d="M12.71,15.72v0Z" transform="translate(1.02 0.11)"/><path class="cls-1" d="M13.13,15.16a.25.25,0,0,1,.11.19Z" transform="translate(1.02 0.11)"/><path class="cls-20" d="M13.33,16.22s0,0,0-.12a1.68,1.68,0,0,0,.15-.34l0,0a2,2,0,0,1-.15.34c-.06.08-.06.1-.06.1Z" transform="translate(1.02 0.11)"/><path class="cls-20" d="M13.3,16.48h0c.09-.3.24-.36.25-.36a.88.88,0,0,0-.22.37Z" transform="translate(1.02 0.11)"/><path class="cls-20" d="M13.44,16.25v0a1.24,1.24,0,0,0,.47-.42.82.82,0,0,1-.46.45Z" transform="translate(1.02 0.11)"/><path class="cls-20" d="M12.52,16.82v0a.51.51,0,0,1,.32-.1h.1a.39.39,0,0,0,.18-.12s0,.11-.17.15h-.11c-.06,0-.13,0-.31.1Z" transform="translate(1.02 0.11)"/><path class="cls-20" d="M12.81,16.64c-.05,0-.29-.12-.45-.08v0a.9.9,0,0,1,.47.12Z" transform="translate(1.02 0.11)"/><path class="cls-20" d="M13.06,16.56s-.08-.17-.3-.19v0a.34.34,0,0,1,.3.22Z" transform="translate(1.02 0.11)"/><path class="cls-20" d="M13.54,17.32a1.23,1.23,0,0,0-.48,0v0c.43,0,.48,0,.48.05Z" transform="translate(1.02 0.11)"/><path class="cls-1" d="M13.41,16.91c0-.17,0-.2,0-.2Z" transform="translate(1.02 0.11)"/><path class="cls-20" d="M13.31,15.88l0,0a2.93,2.93,0,0,1,.4-.54s-.18.22-.37.56Z" transform="translate(1.02 0.11)"/><path class="cls-20" d="M13.68,15.46l0,0a2,2,0,0,0,.31-.38,1.09,1.09,0,0,1-.29.4Z" transform="translate(1.02 0.11)"/><path class="cls-20" d="M13.35,15.44a2.5,2.5,0,0,0,0-.33c0-.15,0-.21,0-.31a.77.77,0,0,1,.16-.19.36.36,0,0,0,.11-.12,1,1,0,0,0,.09-.35.41.41,0,0,1,.14-.29s-.11.14-.11.29a.78.78,0,0,1-.07.3.48.48,0,0,1-.13.19.6.6,0,0,0-.16.19c-.05.08-.05.13,0,.29s0,.18,0,.33Z" transform="translate(1.02 0.11)"/><path class="cls-20" d="M13.36,15.17a.7.7,0,0,1-.08-.4s0-.07.08-.11a.65.65,0,0,0,.23-.68h0a.69.69,0,0,1-.23.71.31.31,0,0,0-.08.1,1.23,1.23,0,0,0,0,.39Z" transform="translate(1.02 0.11)"/><path class="cls-20" d="M13,14.93a4.18,4.18,0,0,1-.44-.32l0,0a4.07,4.07,0,0,1,.42.34Z" transform="translate(1.02 0.11)"/><path class="cls-20" d="M13,14.78a1.2,1.2,0,0,1-.17-.06l-.13-.06-.09,0v0a.25.25,0,0,1,.11.05l.12,0,.18.08Z" transform="translate(1.02 0.11)"/><path class="cls-20" d="M12.9,14.65s0-.07-.08-.14l-.08-.08c-.07-.06-.19-.15-.2-.28h0a.46.46,0,0,0,.19.26.38.38,0,0,1,.09.08.23.23,0,0,1,.05.16Z" transform="translate(1.02 0.11)"/><path class="cls-1" d="M13.3,17v0Z" transform="translate(1.02 0.11)"/><path class="cls-20" d="M13.25,14.58a2.93,2.93,0,0,1,0-.47,3.35,3.35,0,0,1,0,.47Z" transform="translate(1.02 0.11)"/><path class="cls-20" d="M13.4,14.51s.07-.23.07-.47h0a1.35,1.35,0,0,1-.1.47Z" transform="translate(1.02 0.11)"/><path class="cls-20" d="M13.25,14.5a.65.65,0,0,1-.06-.2.22.22,0,0,1,0-.08.34.34,0,0,0,0-.12s0,0,.07.11a.31.31,0,0,1,0,.08,1.2,1.2,0,0,0,.06.2Z" transform="translate(1.02 0.11)"/><path class="cls-20" d="M12.87,14.23h0a.74.74,0,0,1,.09-.4c0-.05,0-.08,0-.12a.92.92,0,0,0,0-.18s.06.06.09.17a.22.22,0,0,1,0,.14.84.84,0,0,0-.09.39Z" transform="translate(1.02 0.11)"/><path class="cls-20" d="M13,13.78s.07-.19.22-.25v0a.66.66,0,0,0-.23.22Z" transform="translate(1.02 0.11)"/><path class="cls-20" d="M12.93,14.05h0a1,1,0,0,1,.24-.36.24.24,0,0,1,.2,0s-.11,0-.18.07a.87.87,0,0,0-.23.34Z" transform="translate(1.02 0.11)"/><path class="cls-1" d="M12.79,13.54a.45.45,0,0,0,0,.24Z" transform="translate(1.02 0.11)"/><path class="cls-20" d="M13,13.68l0,0a1.19,1.19,0,0,0,.13-.41.61.61,0,0,1-.1.43Z" transform="translate(1.02 0.11)"/><path class="cls-20" d="M13.52,15.45h0a2.16,2.16,0,0,1,.18-.59s-.13.34-.15.59Z" transform="translate(1.02 0.11)"/><path class="cls-22" d="M12.86,14.2a.09.09,0,0,0-.09-.09.09.09,0,0,0,0,.18.09.09,0,0,0,.09-.09Z" transform="translate(1.02 0.11)"/><path class="cls-20" d="M12.77,14.31a.11.11,0,0,1-.1-.11c0-.13.2-.12.2,0a.1.1,0,0,1-.1.11Z" transform="translate(1.02 0.11)"/><path class="cls-22" d="M13,14.33a.09.09,0,0,0-.09-.09.08.08,0,0,0-.08.09.09.09,0,0,0,.08.1.1.1,0,0,0,.09-.1Z" transform="translate(1.02 0.11)"/><path class="cls-20" d="M12.91,14.44a.11.11,0,0,1-.1-.11.1.1,0,0,1,.2,0,.1.1,0,0,1-.1.11Z" transform="translate(1.02 0.11)"/><path class="cls-22" d="M13.31,15a.09.09,0,1,0-.17,0,.09.09,0,1,0,.17,0Z" transform="translate(1.02 0.11)"/><path class="cls-20" d="M13.22,15.11a.1.1,0,0,1-.09-.1.1.1,0,0,1,.2,0,.11.11,0,0,1-.11.1Z" transform="translate(1.02 0.11)"/><path class="cls-22" d="M13.47,15.1a.08.08,0,1,0-.16,0,.08.08,0,1,0,.16,0Z" transform="translate(1.02 0.11)"/><path class="cls-20" d="M13.39,15.21a.1.1,0,0,1-.1-.11.1.1,0,0,1,.2,0,.11.11,0,0,1-.1.11Z" transform="translate(1.02 0.11)"/><path class="cls-22" d="M12.86,16.09a.09.09,0,0,0-.08-.1.1.1,0,0,0-.08.1.09.09,0,0,0,.08.09.08.08,0,0,0,.08-.09Z" transform="translate(1.02 0.11)"/><path class="cls-20" d="M12.78,16.2a.12.12,0,0,1-.1-.11.1.1,0,0,1,.2,0,.11.11,0,0,1-.1.11Z" transform="translate(1.02 0.11)"/><path class="cls-22" d="M13.27,16.29a.09.09,0,0,0-.09-.09.09.09,0,0,0-.08.09.09.09,0,1,0,.17,0Z" transform="translate(1.02 0.11)"/><path class="cls-20" d="M13.18,16.4a.1.1,0,0,1-.09-.11.1.1,0,0,1,.19,0,.1.1,0,0,1-.1.11Z" transform="translate(1.02 0.11)"/><path class="cls-22" d="M13.51,17.1a.09.09,0,0,0-.08-.1s-.08,0-.08.1a.08.08,0,0,0,.08.09.09.09,0,0,0,.08-.09Z" transform="translate(1.02 0.11)"/><path class="cls-20" d="M13.43,17.21a.1.1,0,0,1-.1-.11.1.1,0,1,1,.19,0,.1.1,0,0,1-.09.11Z" transform="translate(1.02 0.11)"/><path class="cls-22" d="M13.94,17.32a.09.09,0,1,0-.08.1.1.1,0,0,0,.08-.1Z" transform="translate(1.02 0.11)"/><path class="cls-20" d="M13.86,17.43a.1.1,0,0,1-.1-.11.1.1,0,0,1,.19,0,.1.1,0,0,1-.09.11Z" transform="translate(1.02 0.11)"/><path class="cls-22" d="M14.16,17.31a.09.09,0,0,0-.08-.09.08.08,0,0,0-.08.09.09.09,0,0,0,.08.1.1.1,0,0,0,.08-.1Z" transform="translate(1.02 0.11)"/><path class="cls-20" d="M14.08,17.42a.11.11,0,0,1-.1-.11.1.1,0,0,1,.2,0,.11.11,0,0,1-.1.11Z" transform="translate(1.02 0.11)"/><path class="cls-22" d="M14.84,17.47a.09.09,0,0,0-.08-.1s-.08,0-.08.1a.08.08,0,0,0,.08.09.09.09,0,0,0,.08-.09Z" transform="translate(1.02 0.11)"/><path class="cls-20" d="M14.76,17.57a.1.1,0,1,1,.1-.1.1.1,0,0,1-.1.1Z" transform="translate(1.02 0.11)"/><path class="cls-1" d="M19.65,18.77c-.11-.17-.18-.19-.18-.19Z" transform="translate(1.02 0.11)"/><path class="cls-1" d="M19.61,18.82c-.1-.17-.17-.18-.17-.18Z" transform="translate(1.02 0.11)"/><path class="cls-1" d="M19.56,18.88c-.1-.18-.17-.19-.17-.19Z" transform="translate(1.02 0.11)"/><path class="cls-1" d="M19.52,18.93c-.1-.16-.16-.18-.16-.18Z" transform="translate(1.02 0.11)"/><path class="cls-1" d="M19.47,19c-.1-.17-.17-.19-.17-.19Z" transform="translate(1.02 0.11)"/><path class="cls-1" d="M19.44,19c-.11-.17-.17-.19-.17-.19Z" transform="translate(1.02 0.11)"/><path class="cls-1" d="M19.39,19.08c-.11-.17-.18-.19-.18-.19Z" transform="translate(1.02 0.11)"/><path class="cls-1" d="M19.36,19.14c-.11-.17-.18-.19-.18-.19Z" transform="translate(1.02 0.11)"/><path class="cls-1" d="M19.3,19.18c-.1-.17-.17-.19-.17-.19Z" transform="translate(1.02 0.11)"/><g class="cls-23"><path class="cls-16" d="M19.53,18.62a.9.9,0,0,0-.7-.18c-.08-.07-.25-.17-.38-.11s-.21.33-.21.37.14.13.25.14l.46,0c.09,0,.21.15.21.15a3,3,0,0,1,.37-.39Z" transform="translate(1.02 0.11)"/></g><path d="M19.16,19.05l0,0a.47.47,0,0,0-.19-.15h-.46c-.11,0-.27-.08-.27-.17s.07-.33.21-.39a.47.47,0,0,1,.42.11H19a.7.7,0,0,1,.51.18,4,4,0,0,0-.37.43l0,0Zm-.63-.71h-.08c-.1,0-.18.31-.18.35s.11.11.22.12H19a.48.48,0,0,1,.2.14,2.09,2.09,0,0,1,.36-.37.83.83,0,0,0-.48-.13h-.22a.48.48,0,0,0-.29-.12Z" transform="translate(1.02 0.11)"/><g class="cls-24"><path class="cls-16" d="M18.81,18.6c0-.12-.09-.19-.17-.17a6.73,6.73,0,0,1-.71.22c-.14,0-.39-.15-.39-.24s.36-.22.36-.22l.25.08a1.68,1.68,0,0,1,.51-.16c.2,0,.31.12.3.22a.68.68,0,0,1-.15.27Z" transform="translate(1.02 0.11)"/></g><path d="M17.92,18.67a.51.51,0,0,1-.26-.09s-.15-.1-.15-.17.29-.21.38-.24l.27.07a1.56,1.56,0,0,1,.5-.15.37.37,0,0,1,.28.1.18.18,0,0,1,0,.14.61.61,0,0,1-.17.3c0-.13-.09-.18-.15-.18l-.23.08a2.58,2.58,0,0,1-.5.14Zm0-.46c-.15.06-.33.16-.33.2s0,.08.13.13a.49.49,0,0,0,.23.08v0a2.18,2.18,0,0,0,.49-.15l.22-.07a.17.17,0,0,1,.19.18c0-.06.1-.19.11-.26a.18.18,0,0,0,0-.09.31.31,0,0,0-.24-.09,1.57,1.57,0,0,0-.49.15l-.28-.08Z" transform="translate(1.02 0.11)"/><path d="M18.65,18.7h0a1.17,1.17,0,0,1-.22,0c-.07,0-.11,0-.14,0s0-.1.07-.1l.08,0a1.17,1.17,0,0,0,.22,0c.16,0,.16-.07.16-.1h.06c0,.05,0,.14-.2.14Z" transform="translate(1.02 0.11)"/><path d="M12.34,18.78l0,0a.55.55,0,0,1,.18-.2c0,.05-.05.07-.14.23Z" transform="translate(1.02 0.11)"/><path d="M12.37,18.84l0,0c.1-.17.18-.2.18-.2s0,.07-.14.23Z" transform="translate(1.02 0.11)"/><path d="M12.42,18.89l0,0c.11-.17.18-.2.19-.2s-.06.07-.15.23Z" transform="translate(1.02 0.11)"/><path d="M12.46,19l-.05,0c.11-.17.18-.2.2-.2s-.06.07-.15.23Z" transform="translate(1.02 0.11)"/><path d="M12.51,19l0,0c.1-.17.18-.19.18-.19s0,.07-.14.22Z" transform="translate(1.02 0.11)"/><path d="M12.54,19.05l0,0a.51.51,0,0,1,.19-.2c0,.05,0,.07-.15.23Z" transform="translate(1.02 0.11)"/><path d="M12.6,19.09l0,0c.11-.17.18-.19.19-.19s-.05.07-.14.22Z" transform="translate(1.02 0.11)"/><path d="M12.63,19.15l0,0c.11-.17.18-.19.19-.19s0,.07-.15.22Z" transform="translate(1.02 0.11)"/><path d="M12.67,19.19l0,0c.11-.18.18-.2.19-.2s-.05.07-.15.22Z" transform="translate(1.02 0.11)"/><g class="cls-25"><path class="cls-16" d="M12.42,18.62a.93.93,0,0,1,.71-.18.42.42,0,0,1,.39-.11c.12.05.2.33.2.37s-.14.13-.25.14l-.46,0c-.08,0-.21.15-.21.15a2.16,2.16,0,0,0-.38-.39Z" transform="translate(1.02 0.11)"/></g><path d="M12.8,19.05l0,0a2,2,0,0,0-.37-.39.61.61,0,0,1,.52-.22h.15c.14-.08.32-.17.44-.11s.23.34.23.39-.16.16-.28.17H13a.47.47,0,0,0-.19.15l0,0Zm.13-.58a.63.63,0,0,0-.48.17c.09,0,.29.25.35.33a.46.46,0,0,1,.21-.14h.46c.11,0,.22-.07.22-.12s-.07-.3-.18-.35a.44.44,0,0,0-.36.11h-.22Z" transform="translate(1.02 0.11)"/><g class="cls-26"><path class="cls-16" d="M13.16,18.6c0-.12.08-.19.17-.17a5.86,5.86,0,0,0,.7.22c.14,0,.39-.15.39-.24s-.36-.22-.36-.22l-.25.08a1.58,1.58,0,0,0-.51-.16c-.2,0-.31.12-.3.22a.66.66,0,0,0,.16.27Z" transform="translate(1.02 0.11)"/></g><path d="M14,18.67h0a2.58,2.58,0,0,1-.5-.14l-.21-.08a.14.14,0,0,0-.14.15c-.06,0-.2-.2-.21-.27a.2.2,0,0,1,.06-.14.33.33,0,0,1,.27-.1,1.86,1.86,0,0,1,.52.15l.23-.08c.11,0,.4.14.4.25s-.26.26-.41.26Zm-.74-.27.25.07a2.12,2.12,0,0,0,.48.15v0c.14,0,.36-.14.36-.21s-.19-.14-.35-.2l-.23.08a2.26,2.26,0,0,0-.52-.15.32.32,0,0,0-.23.08.11.11,0,0,0,0,.1.57.57,0,0,0,.14.26.13.13,0,0,1,.13-.18Z" transform="translate(1.02 0.11)"/><path d="M13.31,18.7c-.16,0-.19-.09-.19-.14h.05c0,.08.06.11.17.1a1.3,1.3,0,0,0,.22,0l.07,0s.1.06.11.07a.28.28,0,0,1-.11,0h-.07a1.06,1.06,0,0,1-.22,0Z" transform="translate(1.02 0.11)"/><g class="cls-27"><path class="cls-16" d="M16,17.55c-1.7,0-2.39.29-2.4.53a.42.42,0,0,0,.32.42c.11,0,.4-.15.39-.2s-.05-.06,0-.08A7.86,7.86,0,0,1,16,18.08a6.47,6.47,0,0,1,1.7.14c0,.05-.08.07-.14.13.24,0,.3.13.42.14a.41.41,0,0,0,.33-.39c0-.25-.71-.51-2.32-.55Z" transform="translate(1.02 0.11)"/></g><path d="M13.93,18.53a.35.35,0,0,1-.21-.12.47.47,0,0,1-.14-.33c0-.27.69-.55,2.17-.55H16A4.12,4.12,0,0,1,18.3,18a.16.16,0,0,1,.06.14.44.44,0,0,1-.35.41h0a.22.22,0,0,1-.14-.06.48.48,0,0,0-.24-.08h-.06v0l.08-.06.05,0A7.61,7.61,0,0,0,16,18.1a7,7,0,0,0-1.71.15h0l0,.09a.78.78,0,0,1-.39.18Zm1.82-1c-1.53,0-2.11.31-2.12.5a.47.47,0,0,0,.13.3.26.26,0,0,0,.17.09.67.67,0,0,0,.36-.17s0,0,0-.05a4.66,4.66,0,0,1,1.77-.2,4.89,4.89,0,0,1,1.72.17s0,.07-.07.09l-.07.06a.31.31,0,0,1,.29,0,.18.18,0,0,0,.11.05h0a.39.39,0,0,0,.31-.37.18.18,0,0,0,0-.09c-.09-.09-.5-.38-2.26-.42Z" transform="translate(1.02 0.11)"/><polygon class="cls-15" points="15.19 18.23 15.1 17.97 15.25 17.91 15.27 17.95 15.14 17.99 15.17 18.07 15.29 18.03 15.3 18.06 15.18 18.1 15.21 18.19 15.35 18.14 15.36 18.18 15.19 18.23"/><path class="cls-15" d="M14.71,17.73h0l0,.17V18s0,0,0,0l-.05,0a.08.08,0,0,1-.07,0l0,0s0,0,0-.08l0-.17h0l0,.17a.13.13,0,0,1,0,.06s0,0,0,0h0l.05,0a.17.17,0,0,0,0-.08Z" transform="translate(1.02 0.11)"/><polygon class="cls-15" points="16.07 18.08 16.07 17.81 16.11 17.81 16.11 18.05 16.23 18.05 16.23 18.08 16.07 18.08"/><rect class="cls-15" x="16.28" y="17.8" width="0.04" height="0.29"/><path class="cls-15" d="M15.52,17.88h0a.2.2,0,0,1,0,.08l0,0s0,0-.06,0,0,0,0,0,0-.06,0-.09,0,0,0-.08,0,0,0-.05l.05,0a.05.05,0,0,1,0,0,.06.06,0,0,1,0,.06h0a.08.08,0,0,0,0-.05s0,0,0,0h0a.08.08,0,0,0,0,.05.11.11,0,0,0,0,0,.15.15,0,0,0,0,.07.05.05,0,0,0,0,0l0,0,0,0s0,0,0-.06Z" transform="translate(1.02 0.11)"/><path class="cls-15" d="M16.46,18V17.7h.05l.07.19s0,0,0,0a.08.08,0,0,1,0,0l.06-.19h.05V18h0v-.24L16.6,18h0l-.07-.24V18Z" transform="translate(1.02 0.11)"/><rect class="cls-15" x="17.77" y="17.81" width="0.04" height="0.28"/><polygon class="cls-15" points="17.87 18.1 17.87 17.82 17.9 17.82 18.01 18.04 18.01 17.82 18.04 17.82 18.04 18.1 18.01 18.1 17.9 17.88 17.9 18.1 17.87 18.1"/><rect class="cls-15" x="18.11" y="17.83" width="0.03" height="0.27"/><path class="cls-15" d="M17.34,17.94h0a.43.43,0,0,1,0,.07.08.08,0,0,1-.07,0,.09.09,0,0,1-.06,0,.08.08,0,0,1,0-.06.19.19,0,0,1,0-.08.24.24,0,0,0,0-.08l0-.05h.06s0,0,.06,0a.14.14,0,0,1,0,.07h0s0,0,0,0h0a0,0,0,0,0-.05,0l0,0s0,0,0,.06v.06l0,0h.08l0,0Z" transform="translate(1.02 0.11)"/><polygon class="cls-15" points="18.64 18.21 18.7 17.91 18.74 17.92 18.8 18.18 18.86 17.95 18.88 17.95 18.82 18.25 18.8 18.24 18.72 17.98 18.67 18.21 18.64 18.21"/><path class="cls-15" d="M14,18.22,13.84,18l.09,0H14s0,0,0,0,0,0,0,.05a.05.05,0,0,1,0,.05h0l0,0,.07.06h0l0,0,0,0H14l0,0,.05.12Zm0-.16L14,18l0,0s0,0,0,0a0,0,0,0,0,0,0s0,0,0,0,0,0,0,0l-.08,0Z" transform="translate(1.02 0.11)"/><path class="cls-15" d="M14.38,18.06l-.06-.28.09,0h.07l0,0s0,0,0,0a.06.06,0,0,1,0,.07s0,0-.06,0h-.06l0,.11Zm0-.15.07,0,0,0v0a0,0,0,0,0,0,0h-.06l-.06,0Z" transform="translate(1.02 0.11)"/><path class="cls-15" d="M14.83,18l0-.28h.13l0,0v.08a0,0,0,0,1,0,0l0,0s0,0,0,0a.06.06,0,0,1,0,0s0,0,0,0h-.14Zm0-.16h.08s0,0,0,0,0,0,0,0a0,0,0,0,0,0,0h0s0,0,0,0h-.05Zm0,.13H15v0a0,0,0,0,0,0,0h-.1Z" transform="translate(1.02 0.11)"/><path class="cls-15" d="M15.58,18l.09-.3h0l.09.3h0l0-.09h-.09l0,.09Zm.06-.12h.09l0-.08a.64.64,0,0,0,0-.07.13.13,0,0,1,0,.06Z" transform="translate(1.02 0.11)"/><path class="cls-15" d="M16,18v-.29h.11l0,0,0,.05a.17.17,0,0,1,0,.07.13.13,0,0,1,0,.06.05.05,0,0,1,0,0s0,0,0,0l0,0H16Zm0,0h.09l0,0v0s0,0,0-.06a.14.14,0,0,0,0-.07s0,0,0,0,0,0,0,0H16Z" transform="translate(1.02 0.11)"/><path class="cls-15" d="M16.21,17.84a.3.3,0,0,1,0-.12.09.09,0,0,1,.08,0s0,0,.05,0l0,.05v.16s0,0,0,.06l-.05,0a.11.11,0,0,1-.06,0l0-.06a.19.19,0,0,1,0-.07Zm0,0a.11.11,0,0,0,0,.08,0,0,0,0,0,.05,0,.07.07,0,0,0,.05,0,.22.22,0,0,0,0-.09v-.06l0,0a0,0,0,0,0,0,0,0,0,0,0,0-.05,0,.13.13,0,0,0,0,.1Z" transform="translate(1.02 0.11)"/><path class="cls-15" d="M17.37,18l.15-.28h0l0,.32h0V18l-.1,0,0,.08Zm.09-.11.08,0v-.09a.2.2,0,0,1,0-.07s0,0,0,.06Z" transform="translate(1.02 0.11)"/><path class="cls-15" d="M17.82,18.15l.2-.24h0l0,.32h0v-.1l-.08,0-.07.07Zm.11-.09.07,0V18a.17.17,0,0,0,0-.07l0,0Z" transform="translate(1.02 0.11)"/><path class="cls-16" d="M16.79,18.39a.47.47,0,0,0-.42,0v.19a.73.73,0,0,1,.18,0l.17.09Z" transform="translate(1.02 0.11)"/><path d="M16.75,18.7l-.2-.1a.52.52,0,0,0-.17,0l0-.22a.49.49,0,0,1,.45,0l-.05.34Zm-.29-.17.11,0,.14.07.06-.24a2.27,2.27,0,0,0-.39,0l0,.16Z" transform="translate(1.02 0.11)"/><path class="cls-16" d="M15.17,18.4a.49.49,0,0,1,.43,0v.19a.5.5,0,0,0-.18,0l-.18.08Z" transform="translate(1.02 0.11)"/><path d="M15.22,18.71l-.07-.3a.48.48,0,0,1,.47-.06v.21c-.06,0-.16,0-.2.05l-.2.1Zm.21-.34a.65.65,0,0,0-.25.06l.07.21.15-.08a.89.89,0,0,1,.19,0v-.15s-.07,0-.15,0Z" transform="translate(1.02 0.11)"/><path class="cls-16" d="M15.82,18.34v.27a.28.28,0,0,0,.16,0,.28.28,0,0,0,.14,0v-.28a.42.42,0,0,0-.17,0,.33.33,0,0,0-.13,0Z" transform="translate(1.02 0.11)"/><path d="M16,18.67a.26.26,0,0,1-.18-.05v-.28a.19.19,0,0,1,.15-.07l.18,0v.31a.22.22,0,0,1-.16.06Zm-.13-.06.25,0v-.25s-.06,0-.11,0-.13,0-.13,0v.26Z" transform="translate(1.02 0.11)"/><path class="cls-16" d="M16.12,18.62c.05.08.36.06.36,0a.87.87,0,0,0,0-.17h-.36Z" transform="translate(1.02 0.11)"/><path d="M16.28,18.7h0c-.06,0-.15,0-.18-.06v-.2l.39,0s0,.12,0,.19-.15.09-.23.09Zm.18-.26-.34,0,0,.15s.31,0,.31,0a1.26,1.26,0,0,0,0-.16Z" transform="translate(1.02 0.11)"/><path class="cls-16" d="M16.12,18.33a.77.77,0,0,1,.24-.06.2.2,0,0,1,.13.06v.25a.2.2,0,0,0-.13-.06.4.4,0,0,0-.23.08Z" transform="translate(1.02 0.11)"/><path d="M16.09,18.64v-.31a.46.46,0,0,1,.25-.08c.12,0,.17.06.17.07v.26c-.06,0-.11,0-.15,0a.65.65,0,0,0-.22.08l0,0Zm.26-.15a.21.21,0,0,1,.15.07l0-.23s0,0-.11,0a.66.66,0,0,0-.23.05v.2a.73.73,0,0,1,.21-.06Z" transform="translate(1.02 0.11)"/><path class="cls-16" d="M15.82,18.63c0,.07-.35.05-.36,0v-.16h.36Z" transform="translate(1.02 0.11)"/><path d="M15.67,18.7c-.08,0-.22,0-.24-.09v-.16l.39,0,0,.21c0,.06-.13.07-.18.07Zm-.2-.23s0,.09,0,.14a.65.65,0,0,0,.31,0v-.17l-.33,0Z" transform="translate(1.02 0.11)"/><path class="cls-16" d="M15.82,18.33a.64.64,0,0,0-.24-.06.24.24,0,0,0-.13.07l0,.24a.18.18,0,0,1,.13-.06.58.58,0,0,1,.22.08Z" transform="translate(1.02 0.11)"/><path d="M15.85,18.64l0,0a.4.4,0,0,0-.21-.07h0a.16.16,0,0,0-.11.05l-.06-.26a.18.18,0,0,1,.15-.09,1.15,1.15,0,0,1,.25.05l0,.34Zm-.26-.14a.47.47,0,0,1,.21.06v-.23l-.2,0a.23.23,0,0,0-.13.05l0,.2s.07-.05.1-.05Z" transform="translate(1.02 0.11)"/></g></g></g></g></g></g></svg>