<svg xmlns="http://www.w3.org/2000/svg" xmlns:xlink="http://www.w3.org/1999/xlink" viewBox="0 0 33.21 33.37"><defs><style>.cls-1{fill:none;}.cls-2{clip-path:url(#clip-path);}.cls-3{fill:#fff;}.cls-4{fill:#1a237b;}.cls-5{clip-path:url(#clip-path-2);}.cls-6{fill:#eac126;}.cls-6,.cls-8{fill-rule:evenodd;}.cls-7,.cls-8{fill:#292c2f;}</style><clipPath id="clip-path" transform="translate(0)"><circle class="cls-1" cx="16.5" cy="16.5" r="16.5"/></clipPath><clipPath id="clip-path-2" transform="translate(0)"><rect class="cls-1" width="57.21" height="33.37"/></clipPath></defs><g id="Capa_2" data-name="Capa 2"><g id="Capa_1-2" data-name="Capa 1"><g class="cls-2"><rect class="cls-3" width="33.21" height="33.37"/><path class="cls-4" d="M0,29.66H33.21V26H0Zm0-7.41H33.21V18.53H0Zm18.55-7.42H33.21V11.12H18.55Zm0-7.42H33.21V3.71H18.55Z" transform="translate(0)"/><g class="cls-5"><path class="cls-6" d="M10.15,10.14l.15,2.41c-2.23,1.61-.86,2.56-2.47,3.08,1.09-1.09-.33-1.09.9-3.55" transform="translate(0)"/><path class="cls-7" d="M10.2,10.14l.14,2.41h-.09l-.19-2.41Zm.14,2.41h0v0l0,0Zm0,0a3.25,3.25,0,0,0-1.47,2H8.73a3.3,3.3,0,0,1,1.52-2.08Zm-1.47,2a1.23,1.23,0,0,1-1,1.09l0-.1a1.11,1.11,0,0,0,.9-1Zm-1,1.09-.24.09.15-.14h0Zm-.09,0c.47-.52.47-.8.37-1.18h.15a1.23,1.23,0,0,1-.43,1.23Zm.37-1.18a3.59,3.59,0,0,1,.53-2.37l.09.05a3.24,3.24,0,0,0-.47,2.32Z" transform="translate(0)"/><path class="cls-7" d="M9.39,12a5.45,5.45,0,0,0-.75,2.36l-.14,0a6.39,6.39,0,0,1,.8-2.37Zm-.75,2.36c-.1.62-.19,1.09-.76,1.33l0-.1c.52-.23.57-.66.67-1.27Z" transform="translate(0)"/><path class="cls-6" d="M10.15,10.14,10,7.68c2.23-1.61.86-2.56,2.47-3.07-1,1.13.33,1.13-.9,3.55" transform="translate(0)"/><path class="cls-7" d="M10.06,10.14,9.92,7.73,10,7.68l.19,2.46ZM9.92,7.73V7.68h0Zm0-.05a2.94,2.94,0,0,0,1.46-2l.15,0a3.33,3.33,0,0,1-1.52,2Zm1.46-2a1.28,1.28,0,0,1,1-1.09l0,.09a1.11,1.11,0,0,0-.9,1Zm1-1.09.23,0-.14.14,0,0Zm.09.09c-.47.52-.47.76-.38,1.14l-.14,0a1.27,1.27,0,0,1,.43-1.28Zm-.38,1.14a3.7,3.7,0,0,1-.52,2.41l-.09,0A3.39,3.39,0,0,0,12,5.84Z" transform="translate(0)"/><path class="cls-7" d="M10.86,8.25a6.47,6.47,0,0,0,.81-2.32h.09A6.12,6.12,0,0,1,11,8.3Zm.81-2.32c.09-.66.14-1.09.71-1.37l0,.09c-.53.24-.58.67-.67,1.28Z" transform="translate(0)"/><path class="cls-6" d="M10.15,10.14l-2.46.14C6.08,8.06,5.14,9.43,4.62,7.82c1.13,1.09,1.08-.28,3.54.9" transform="translate(0)"/><path class="cls-7" d="M10.15,10.19l-2.46.19v-.14l2.42-.15Zm-2.46.19h0l-.05-.05.05-.05Zm-.05-.05a3,3,0,0,0-2-1.46v-.1a3,3,0,0,1,2.08,1.51Zm-2-1.46a1.28,1.28,0,0,1-1.09-1l.09,0a1.25,1.25,0,0,0,1,.95Zm-1.09-1-.09-.19.18.14h0Zm.09,0A1.1,1.1,0,0,0,5.8,8.2l0,.1a1.29,1.29,0,0,1-1.28-.43ZM5.8,8.2a3.29,3.29,0,0,1,2.41.48l-.09.09A3.52,3.52,0,0,0,5.85,8.3Z" transform="translate(0)"/><path class="cls-7" d="M8.26,9.43a5.56,5.56,0,0,0-2.32-.8V8.48a5.82,5.82,0,0,1,2.37.86Zm-2.32-.8c-.66-.1-1.09-.19-1.37-.76l.09,0c.24.53.67.62,1.28.66Z" transform="translate(0)"/><path class="cls-6" d="M10.15,10.14,12.57,10c1.6,2.23,2.55.9,3.07,2.46-1.13-1-1.09.33-3.55-.9" transform="translate(0)"/><path class="cls-7" d="M10.11,10.09l2.46-.19V10l-2.42.19Zm2.46-.19h0l0,0Zm0,0a3.1,3.1,0,0,0,2,1.52v.09A3.2,3.2,0,0,1,12.52,10Zm2,1.52a1.17,1.17,0,0,1,1.09,1H15.6a1.13,1.13,0,0,0-1-.9Zm1.09,1,.09.19-.18-.14,0-.05Zm-.09.05a1.11,1.11,0,0,0-1.14-.38L14.41,12a1.16,1.16,0,0,1,1.28.37Zm-1.14-.38a3.57,3.57,0,0,1-2.37-.52l.05-.09a3.42,3.42,0,0,0,2.27.52Z" transform="translate(0)"/><path class="cls-7" d="M12,10.85a6.37,6.37,0,0,0,2.36.81l0,.09A5.72,5.72,0,0,1,12,11Zm2.36.81c.62.09,1,.14,1.33.75l-.09.05c-.24-.57-.67-.61-1.28-.71Z" transform="translate(0)"/><path class="cls-6" d="M10.15,10.14,8.54,12c-2.74-.48-2.46,1.18-3.92.42,1.56-.05.56-1,3.12-1.89" transform="translate(0)"/><path class="cls-7" d="M10.15,10.14,8.59,12l-.09-.05,1.61-1.85ZM8.59,12l-.05,0v0Zm-.05,0a3.06,3.06,0,0,0-2.46.38L6,12.32a3.22,3.22,0,0,1,2.55-.43Zm-2.46.38a1.3,1.3,0,0,1-1.51.05l0-.1a1.16,1.16,0,0,0,1.37,0Zm-1.51.05-.19-.1h.24v.05Zm0-.1A1.09,1.09,0,0,0,5.7,11.8l.1.09a1.17,1.17,0,0,1-1.18.57ZM5.7,11.8a3.68,3.68,0,0,1,2-1.33l0,.1c-1.37.47-1.76.94-2,1.32Z" transform="translate(0)"/><path class="cls-7" d="M8.31,11A6,6,0,0,0,6.08,12l0-.09a6.18,6.18,0,0,1,2.23-1.09ZM6.08,12c-.52.38-.85.67-1.46.43v-.1c.56.19.89,0,1.41-.42Z" transform="translate(0)"/><path class="cls-6" d="M10.15,10.14,11.71,8.3c2.75.42,2.46-1.23,3.93-.48-1.56,0-.57,1-3.12,1.9" transform="translate(0)"/><path class="cls-7" d="M10.11,10.09l1.56-1.84.09.1-1.61,1.79Zm1.56-1.84h0V8.3Zm0,0a3.23,3.23,0,0,0,2.46-.38l.1.1a3.33,3.33,0,0,1-2.56.38Zm2.46-.38a1.34,1.34,0,0,1,1.52-.09l0,.09a1.15,1.15,0,0,0-1.37.1Zm1.52-.09.19.09-.24,0v-.1Zm0,.14a1.12,1.12,0,0,0-1.09.52l-.09,0a1.3,1.3,0,0,1,1.18-.61Zm-1.09.52a3.55,3.55,0,0,1-2,1.32l0-.09a3.3,3.3,0,0,0,2-1.28Z" transform="translate(0)"/><path class="cls-7" d="M12,9.29A4.8,4.8,0,0,0,14.17,8.2l.05.1A5.26,5.26,0,0,1,12,9.43ZM14.17,8.2c.53-.38.9-.61,1.47-.42v.09c-.57-.19-.9.1-1.42.43Z" transform="translate(0)"/><path class="cls-6" d="M10.15,10.14,8.31,8.53c.42-2.74-1.23-2.46-.48-3.92,0,1.56,1,.57,1.9,3.12" transform="translate(0)"/><path class="cls-7" d="M10.11,10.19,8.26,8.58l.09-.1,1.8,1.61ZM8.26,8.58h0V8.53h.05Zm0-.05a3.44,3.44,0,0,0-.38-2.46L8,6a3.31,3.31,0,0,1,.38,2.5ZM7.88,6.07a1.17,1.17,0,0,1-.09-1.46l.09,0A1.21,1.21,0,0,0,8,6ZM7.79,4.61l.09-.19v.19H7.79Zm.09,0a1.11,1.11,0,0,0,.57,1.08l0,.1a1.25,1.25,0,0,1-.61-1.18Zm.57,1.08a3.63,3.63,0,0,1,1.32,2l-.09,0a3.67,3.67,0,0,0-1.28-2Z" transform="translate(0)"/><path class="cls-7" d="M9.3,8.3A4.9,4.9,0,0,0,8.21,6.07l.1,0A5.14,5.14,0,0,1,9.44,8.3ZM8.21,6.07c-.38-.52-.61-.85-.42-1.46h.09c-.19.56,0,.9.43,1.42Z" transform="translate(0)"/><path class="cls-6" d="M10.15,10.14,12,11.7c-.42,2.75,1.23,2.46.48,3.93,0-1.51-1-.52-1.9-3.12" transform="translate(0)"/><path class="cls-7" d="M10.15,10.09,12,11.66l-.05.09-1.84-1.56ZM12,11.66l0,0,0,.05L12,11.7Zm0,.09a3.49,3.49,0,0,0,.38,2.46l-.1,0a3.52,3.52,0,0,1-.38-2.56Zm.38,2.46a1.18,1.18,0,0,1,.09,1.47l-.09,0a1.16,1.16,0,0,0-.1-1.37Zm.09,1.47-.09.19v-.24h0Zm-.09,0a1.2,1.2,0,0,0-.57-1.09l0,0a1.16,1.16,0,0,1,.62,1.14Zm-.57-1.09c-.38-.23-.85-.61-1.33-2h.1a3.94,3.94,0,0,0,1.27,2Z" transform="translate(0)"/><path class="cls-7" d="M11,11.94A5.35,5.35,0,0,0,12,14.16l-.09.1A5.38,5.38,0,0,1,10.86,12ZM12,14.16a1.54,1.54,0,0,1,.43,1.52l-.09,0c.19-.57-.05-.9-.43-1.37Z" transform="translate(0)"/><polyline class="cls-6" points="10.15 10.14 11.19 10.14 10.15 16.1 9.06 10.14 10.15 10.14 10.15 16.1"/><path class="cls-7" d="M10.15,10.09h1v.1h-1Zm1,0h.1v.05h-.1Zm.1.05-1.09,6h-.14l1.09-6Zm-1.09,6,0,.29-.09-.29h.14Zm-.14,0L9,10.14h.14l1.09,6ZM9,10.09h.09v.05H9Zm.09,0h1.09v.1H9.06Zm1.09,0h0v.05h0Zm0,6h-.14v-6h.14Z" transform="translate(0)"/><polyline class="cls-6" points="10.15 10.14 9.06 10.14 10.15 4.13 11.19 10.14 10.15 10.14 10.15 4.13"/><path class="cls-7" d="M10.15,10.19H9.06v-.1h1.09Zm-1.09,0H9v0h.09Zm-.09,0,1.09-6,.14,0-1.09,6Zm1.09-6,.09-.28,0,.28h-.14Zm.14,0,1.09,6h-.14l-1.09-6Zm1.09,6.06h-.1v0h.1Zm-.1,0h-1v-.1h1Zm-1,0h-.09v0h.09Zm-.09-6.06h.14v6h-.14Z" transform="translate(0)"/><polyline class="cls-6" points="10.15 10.14 10.15 11.23 4.14 10.14 10.15 9.05 10.15 10.14 4.14 10.14"/><path class="cls-7" d="M10.2,11.23h-.14V10.14h.14Zm0,0v0h-.09l0,0Zm-.09,0-6-1.09.05-.1,6,1.09Zm-6-1.09-.28,0,.28-.05v.1Zm0-.1,6-1.08,0,.09-6,1.09Zm6-1.08.09,0v.09h0Zm.09,1.13h-.14V9.05h.14Zm0,0h0v0h0Zm0,0h-6v-.1h6Z" transform="translate(0)"/><polyline class="cls-6" points="10.15 10.14 10.15 9.05 16.11 10.14 10.15 11.23 10.15 10.14 16.11 10.14"/><path class="cls-7" d="M10.06,9.05h.14v1.09h-.14Zm0,0V9l.09,0v0Zm.09,0,6,1.08-.05.1-6-1.09Zm6,1.08.28.05-.28,0v-.1Zm0,.1-6,1.09,0-.1,6-1.09Zm-6,1.09h-.09v0h.09Zm-.09-1.14h.14v1.09h-.14Zm0-.05h.09v.05h-.09Zm.09,0h6v.1h-6Z" transform="translate(0)"/><polyline class="cls-6" points="10.15 10.14 10.9 10.9 5.89 14.35 9.34 9.34 10.15 10.14 5.89 14.35"/><path class="cls-7" d="M10.15,10.09l.81.76-.1.1-.75-.76Zm.81.76,0,.05-.09,0v0Zm-.05.1-5,3.45-.05-.09,5-3.46Zm-5,3.45-.24.19.15-.28,0,0Zm-.09-.09,3.45-5,.09,0-3.45,5Zm3.45-5,0-.05,0,.05H9.3Zm.09,0,.76.75,0,.1L9.3,9.38Zm.76.75,0,.05,0,0v-.1Zm0,.1L5.94,14.4l-.05-.09,4.22-4.22Z" transform="translate(0)"/><polyline class="cls-6" points="10.15 10.14 9.34 9.34 14.36 5.89 10.9 10.9 10.15 10.14 14.36 5.89"/><path class="cls-7" d="M10.11,10.19,9.3,9.38l.09,0,.76.75ZM9.3,9.38v0h0Zm0,0,5-3.5,0,.09-5,3.45Zm5-3.5.23-.15-.14.24-.05,0Zm.09.09L11,11l-.1-.1,3.46-5ZM11,11l-.05.05L10.86,11l.05,0Zm-.1,0-.75-.76,0-.1.81.76Zm-.75-.76,0,0,0-.05,0,.05Zm0-.1,4.21-4.2.09,0-4.26,4.26Z" transform="translate(0)"/><polyline class="cls-6" points="10.15 10.14 9.34 10.9 5.89 5.89 10.9 9.34 10.15 10.14 5.89 5.89"/><path class="cls-7" d="M10.15,10.19,9.39,11l-.09-.1.81-.76ZM9.39,11l0,.05,0-.05,0,0ZM9.3,11l-3.45-5,.09,0,3.45,5Zm-3.45-5L5.7,5.69l.24.15-.05,0Zm.09-.09,5,3.5-.05,0-5-3.45Zm5,3.5H11l0,0Zm.05,0-.81.81,0-.1.75-.75Zm-.81.81h0l0,0Zm0,0L5.89,5.93l.05,0,4.21,4.2Z" transform="translate(0)"/><polyline class="cls-6" points="10.15 10.14 10.9 9.34 14.36 14.35 9.34 10.9 10.15 10.14 14.36 14.35"/><path class="cls-7" d="M10.11,10.09l.75-.75.1,0-.81.81Zm.75-.75.05-.05.05.05h-.1Zm.1,0,3.45,5-.09.09-3.46-5Zm3.45,5,.14.28-.23-.19,0-.05Zm-.09.09L9.35,11l0-.1,5,3.46ZM9.35,11l0,0v-.05l0,.05Zm0-.1.81-.76,0,.1L9.39,11Zm.81-.76,0,0v.09Zm0,0,4.26,4.22-.09.09-4.21-4.21Z" transform="translate(0)"/><path class="cls-6" d="M12.14,10.14a2,2,0,0,0-4,0,2,2,0,0,0,4,0" transform="translate(0)"/><path class="cls-7" d="M12,10.14a1.78,1.78,0,0,0-.56-1.37l.09-.09a2.06,2.06,0,0,1,.62,1.46Zm-.56-1.37a1.71,1.71,0,0,0-1.33-.57V8.06a2,2,0,0,1,1.42.62ZM10.15,8.2a1.74,1.74,0,0,0-1.37.57l-.09-.09a2,2,0,0,1,1.46-.62Zm-1.37.57a1.75,1.75,0,0,0-.57,1.37H8.07a2.06,2.06,0,0,1,.62-1.46Zm-.57,1.37a1.87,1.87,0,0,0,.57,1.37l-.09.05a2,2,0,0,1-.62-1.42Zm.57,1.37a1.88,1.88,0,0,0,1.37.57v.1a2,2,0,0,1-1.46-.62Zm1.37.57a1.86,1.86,0,0,0,1.33-.57l.09.05a2,2,0,0,1-1.42.62Zm1.33-.57A1.9,1.9,0,0,0,12,10.14h.15a2,2,0,0,1-.62,1.42Z" transform="translate(0)"/><path class="cls-8" d="M11.57,9.34c-.09.14-.19-.1-.61-.1s-.52.24-.62.19.38-.38.52-.38a1,1,0,0,1,.71.29" transform="translate(0)"/><path class="cls-8" d="M11.05,9.48c.14.14,0,.38-.09.38s-.38-.24-.24-.38" transform="translate(0)"/><path class="cls-8" d="M10.48,9.67c0-.24.2-.29.48-.29s.42.24.52.29c-.1,0-.24-.19-.52-.19s-.28,0-.48.19" transform="translate(0)"/><path class="cls-8" d="M10.53,9.72c.05-.1.15.09.38.09a.71.71,0,0,0,.43-.14c.09-.09-.19.23-.38.23s-.48-.14-.43-.18" transform="translate(0)"/><path class="cls-8" d="M11.15,9.81c.23-.09.09-.28,0-.33s.19.24,0,.33" transform="translate(0)"/><path class="cls-8" d="M10.15,10.9c.1,0,.15-.05.29-.05s.47.24.66.15c-.42.18-.24,0-.95,0h-.09" transform="translate(0)"/><path class="cls-8" d="M11.19,11.18a2,2,0,0,0-.23-.33.47.47,0,0,1,.23.33" transform="translate(0)"/><path class="cls-8" d="M10.15,11.32c.43,0,.38-.09.95-.32a7.58,7.58,0,0,1-.95.18h-.09" transform="translate(0)"/><path class="cls-8" d="M10.15,10.66c.1,0,.15-.09.29-.09a.66.66,0,0,1,.42.14c.05,0,0-.14-.18-.14s-.1-.29-.24-.33,0,.09,0,.19-.14.09-.18,0c0,.14-.1.14-.15.14" transform="translate(0)"/><path class="cls-8" d="M8.69,9.34c.09.14.18-.1.61-.1s.52.24.62.19-.38-.38-.53-.38a.93.93,0,0,0-.7.29" transform="translate(0)"/><path class="cls-8" d="M9.21,9.48c-.15.14-.05.38.09.38s.38-.24.24-.38" transform="translate(0)"/><path class="cls-8" d="M9.77,9.67c0-.24-.19-.29-.47-.29s-.43.24-.52.29c.14,0,.24-.19.52-.19s.28,0,.47.19" transform="translate(0)"/><path class="cls-8" d="M9.73,9.72c-.05-.1-.15.09-.38.09a.69.69,0,0,1-.43-.14c-.09-.09.19.23.38.23s.47-.14.43-.18" transform="translate(0)"/><path class="cls-8" d="M9.11,9.81c-.24-.09-.09-.28,0-.33s-.19.24,0,.33" transform="translate(0)"/><path class="cls-8" d="M10.15,10.9c-.14,0-.19-.05-.33-.05s-.47.24-.66.15c.42.18.23,0,1,0h0" transform="translate(0)"/><path class="cls-8" d="M9.06,11.18a2,2,0,0,0,.24-.33.83.83,0,0,0-.24.33" transform="translate(0)"/><path class="cls-8" d="M10.15,11.32c-.47,0-.38-.09-1-.32a7,7,0,0,0,1,.18h0" transform="translate(0)"/><path class="cls-8" d="M10.15,10.66c-.14,0-.19-.09-.33-.09a.71.71,0,0,0-.43.14s0-.14.19-.14.1-.29.24-.33-.05.09-.05.19.15.09.19,0c0,.14.1.14.19.14" transform="translate(0)"/><path class="cls-8" d="M10.15,11.51c-.09,0-.33.05,0,.05s0-.05,0-.05" transform="translate(0)"/></g></g></g></g></svg>