<svg id="Grupo_1196" data-name="Grupo 1196" xmlns="http://www.w3.org/2000/svg" xmlns:xlink="http://www.w3.org/1999/xlink" width="32.25" height="32.251" viewBox="0 0 32.25 32.251">
  <defs>
    <clipPath id="clip-path">
      <ellipse id="Elipse_62" data-name="Elipse 62" cx="16.125" cy="16.125" rx="16.125" ry="16.125" transform="translate(0 0)" fill="none"/>
    </clipPath>
    <clipPath id="clip-path-2">
      <rect id="Rectángulo_131" data-name="Rectángulo 131" width="55.293" height="32.252" fill="none"/>
    </clipPath>
  </defs>
  <g id="Grupo_1195" data-name="Grupo 1195" transform="translate(0 0)" clip-path="url(#clip-path)">
    <g id="USA" transform="translate(-6.449 -0.001)">
      <g id="Grupo_1194" data-name="Grupo 1194">
        <g id="Grupo_1193" data-name="Grupo 1193">
          <g id="Grupo_1192" data-name="Grupo 1192" clip-path="url(#clip-path-2)">
            <rect id="Rectángulo_117" data-name="Rectángulo 117" width="55.293" height="2.481" transform="translate(0 29.771)" fill="#cb001c"/>
            <rect id="Rectángulo_118" data-name="Rectángulo 118" width="55.293" height="2.481" transform="translate(0 27.291)" fill="#fff"/>
            <rect id="Rectángulo_119" data-name="Rectángulo 119" width="55.293" height="2.479" transform="translate(0 24.812)" fill="#cb001c"/>
            <rect id="Rectángulo_120" data-name="Rectángulo 120" width="55.293" height="2.481" transform="translate(0 22.331)" fill="#fff"/>
            <rect id="Rectángulo_121" data-name="Rectángulo 121" width="55.293" height="2.482" transform="translate(0 19.849)" fill="#cb001c"/>
            <rect id="Rectángulo_122" data-name="Rectángulo 122" width="55.293" height="2.479" transform="translate(0 17.37)" fill="#fff"/>
            <rect id="Rectángulo_123" data-name="Rectángulo 123" width="55.293" height="2.484" transform="translate(0 14.886)" fill="#cb001c"/>
            <rect id="Rectángulo_124" data-name="Rectángulo 124" width="55.293" height="2.479" transform="translate(0 12.407)" fill="#fff"/>
            <rect id="Rectángulo_125" data-name="Rectángulo 125" width="55.293" height="2.481" transform="translate(0 9.926)" fill="#cb001c"/>
            <rect id="Rectángulo_126" data-name="Rectángulo 126" width="55.293" height="2.482" transform="translate(0 7.444)" fill="#fff"/>
            <rect id="Rectángulo_127" data-name="Rectángulo 127" width="55.293" height="2.481" transform="translate(0 4.963)" fill="#cb001c"/>
            <rect id="Rectángulo_128" data-name="Rectángulo 128" width="55.293" height="2.481" transform="translate(0 2.482)" fill="#fff"/>
            <rect id="Rectángulo_129" data-name="Rectángulo 129" width="55.293" height="2.482" fill="#cb001c"/>
            <rect id="Rectángulo_130" data-name="Rectángulo 130" width="25.251" height="17.37" fill="#2a3560"/>
            <path id="Trazado_2786" data-name="Trazado 2786" d="M-2538.679,684.6l.216.658h.692l-.56.405.212.656-.56-.405-.56.405.219-.656-.56-.405h.685Z" transform="translate(2540.961 -682.686)" fill="#fff"/>
            <path id="Trazado_2787" data-name="Trazado 2787" d="M-2538.679,718.29l.216.655h.692l-.56.4.212.66-.56-.407-.56.407.219-.66-.56-.4h.685Z" transform="translate(2540.961 -713.475)" fill="#fff"/>
            <path id="Trazado_2788" data-name="Trazado 2788" d="M-2538.679,751.957l.216.655h.692l-.56.405.212.658-.56-.407-.56.407.219-.658-.56-.405h.685Z" transform="translate(2540.961 -744.243)" fill="#fff"/>
            <path id="Trazado_2789" data-name="Trazado 2789" d="M-2538.679,785.608l.216.658h.692l-.56.405.212.655-.56-.4-.56.4.219-.655-.56-.405h.685Z" transform="translate(2540.961 -774.997)" fill="#fff"/>
            <path id="Trazado_2790" data-name="Trazado 2790" d="M-2538.679,819.278l.216.66h.692l-.56.4.212.656-.56-.405-.56.405.219-.656-.56-.4h.685Z" transform="translate(2540.961 -805.767)" fill="#fff"/>
            <path id="Trazado_2791" data-name="Trazado 2791" d="M-2515.246,702.333l.206.658h.695l-.556.407.209.655-.553-.4-.557.4.209-.655-.557-.407h.692Z" transform="translate(2519.548 -698.892)" fill="#fff"/>
            <path id="Trazado_2792" data-name="Trazado 2792" d="M-2515.246,736.02l.206.655h.695l-.556.407.209.655-.553-.4-.557.4.209-.655-.557-.407h.692Z" transform="translate(2519.548 -729.678)" fill="#fff"/>
            <path id="Trazado_2793" data-name="Trazado 2793" d="M-2515.246,769.69l.206.656h.695l-.556.405.209.656-.553-.405-.557.405.209-.656-.557-.405h.692Z" transform="translate(2519.548 -760.449)" fill="#fff"/>
            <path id="Trazado_2794" data-name="Trazado 2794" d="M-2515.246,803.376l.206.655h.695l-.556.405.209.655-.553-.407-.557.407.209-.655-.557-.405h.692Z" transform="translate(2519.548 -791.235)" fill="#fff"/>
            <path id="Trazado_2795" data-name="Trazado 2795" d="M-2491.519,684.6l.215.658h.692l-.56.405.215.656-.563-.405-.553.405.212-.656-.56-.405h.688Z" transform="translate(2497.861 -682.686)" fill="#fff"/>
            <path id="Trazado_2796" data-name="Trazado 2796" d="M-2491.519,718.29l.215.655h.692l-.56.4.215.66-.563-.407-.553.407.212-.66-.56-.4h.688Z" transform="translate(2497.861 -713.475)" fill="#fff"/>
            <path id="Trazado_2797" data-name="Trazado 2797" d="M-2491.519,751.957l.215.655h.692l-.56.405.215.658-.563-.407-.553.407.212-.658-.56-.405h.688Z" transform="translate(2497.861 -744.243)" fill="#fff"/>
            <path id="Trazado_2798" data-name="Trazado 2798" d="M-2491.519,785.608l.215.658h.692l-.56.405.215.655-.563-.4-.553.4.212-.655-.56-.405h.688Z" transform="translate(2497.861 -774.997)" fill="#fff"/>
            <path id="Trazado_2799" data-name="Trazado 2799" d="M-2491.519,819.278l.215.66h.692l-.56.4.215.656-.563-.405-.553.405.212-.656-.56-.4h.688Z" transform="translate(2497.861 -805.767)" fill="#fff"/>
            <path id="Trazado_2800" data-name="Trazado 2800" d="M-2468.086,702.333l.213.658h.695l-.563.407.216.655-.56-.4-.556.4.216-.655-.563-.407h.692Z" transform="translate(2476.448 -698.892)" fill="#fff"/>
            <path id="Trazado_2801" data-name="Trazado 2801" d="M-2468.086,736.02l.213.655h.695l-.563.407.216.655-.56-.4-.556.4.216-.655-.563-.407h.692Z" transform="translate(2476.448 -729.678)" fill="#fff"/>
            <path id="Trazado_2802" data-name="Trazado 2802" d="M-2468.086,769.69l.213.656h.695l-.563.405.216.656-.56-.405-.556.405.216-.656-.563-.405h.692Z" transform="translate(2476.448 -760.449)" fill="#fff"/>
            <path id="Trazado_2803" data-name="Trazado 2803" d="M-2468.086,803.376l.213.655h.695l-.563.405.216.655-.56-.407-.556.407.216-.655-.563-.405h.692Z" transform="translate(2476.448 -791.235)" fill="#fff"/>
            <path id="Trazado_2804" data-name="Trazado 2804" d="M-2444.286,684.6l.215.658h.686l-.56.405.222.656-.563-.405-.56.405.212-.656-.553-.405h.688Z" transform="translate(2454.695 -682.686)" fill="#fff"/>
            <path id="Trazado_2805" data-name="Trazado 2805" d="M-2444.286,718.29l.215.655h.686l-.56.4.222.66-.563-.407-.56.407.212-.66-.553-.4h.688Z" transform="translate(2454.695 -713.475)" fill="#fff"/>
            <path id="Trazado_2806" data-name="Trazado 2806" d="M-2444.286,751.957l.215.655h.686l-.56.405.222.658-.563-.407-.56.407.212-.658-.553-.405h.688Z" transform="translate(2454.695 -744.243)" fill="#fff"/>
            <path id="Trazado_2807" data-name="Trazado 2807" d="M-2444.286,785.608l.215.658h.686l-.56.405.222.655-.563-.4-.56.4.212-.655-.553-.405h.688Z" transform="translate(2454.695 -774.997)" fill="#fff"/>
            <path id="Trazado_2808" data-name="Trazado 2808" d="M-2444.286,819.278l.215.66h.686l-.56.4.222.656-.563-.405-.56.405.212-.656-.553-.4h.688Z" transform="translate(2454.695 -805.767)" fill="#fff"/>
            <path id="Trazado_2809" data-name="Trazado 2809" d="M-2420.853,702.333l.212.658h.688l-.557.407.209.655-.553-.4-.557.4.209-.655-.557-.407h.688Z" transform="translate(2433.282 -698.892)" fill="#fff"/>
            <path id="Trazado_2810" data-name="Trazado 2810" d="M-2420.853,736.02l.212.655h.688l-.557.407.209.655-.553-.4-.557.4.209-.655-.557-.407h.688Z" transform="translate(2433.282 -729.678)" fill="#fff"/>
            <path id="Trazado_2811" data-name="Trazado 2811" d="M-2420.853,769.69l.212.656h.688l-.557.405.209.656-.553-.405-.557.405.209-.656-.557-.405h.688Z" transform="translate(2433.282 -760.449)" fill="#fff"/>
            <path id="Trazado_2812" data-name="Trazado 2812" d="M-2420.853,803.376l.212.655h.688l-.557.405.209.655-.553-.407-.557.407.209-.655-.557-.405h.688Z" transform="translate(2433.282 -791.235)" fill="#fff"/>
            <path id="Trazado_2813" data-name="Trazado 2813" d="M-2397.127,684.6l.216.658h.689l-.557.405.216.656-.563-.405-.553.405.209-.656-.557-.405h.689Z" transform="translate(2411.596 -682.686)" fill="#fff"/>
            <path id="Trazado_2814" data-name="Trazado 2814" d="M-2397.127,718.29l.216.655h.689l-.557.4.216.66-.563-.407-.553.407.209-.66-.557-.4h.689Z" transform="translate(2411.596 -713.475)" fill="#fff"/>
            <path id="Trazado_2815" data-name="Trazado 2815" d="M-2397.127,751.957l.216.655h.689l-.557.405.216.658-.563-.407-.553.407.209-.658-.557-.405h.689Z" transform="translate(2411.596 -744.243)" fill="#fff"/>
            <path id="Trazado_2816" data-name="Trazado 2816" d="M-2397.127,785.608l.216.658h.689l-.557.405.216.655-.563-.4-.553.4.209-.655-.557-.405h.689Z" transform="translate(2411.596 -774.997)" fill="#fff"/>
            <path id="Trazado_2817" data-name="Trazado 2817" d="M-2397.127,819.278l.216.66h.689l-.557.4.216.656-.563-.405-.553.405.209-.656-.557-.4h.689Z" transform="translate(2411.596 -805.767)" fill="#fff"/>
            <path id="Trazado_2818" data-name="Trazado 2818" d="M-2373.66,702.333l.212.658h.7l-.56.407.213.655-.56-.4-.557.4.216-.655-.56-.407h.692Z" transform="translate(2390.15 -698.892)" fill="#fff"/>
            <path id="Trazado_2819" data-name="Trazado 2819" d="M-2373.66,736.02l.212.655h.7l-.56.407.213.655-.56-.4-.557.4.216-.655-.56-.407h.692Z" transform="translate(2390.15 -729.678)" fill="#fff"/>
            <path id="Trazado_2820" data-name="Trazado 2820" d="M-2373.66,769.69l.212.656h.7l-.56.405.213.656-.56-.405-.557.405.216-.656-.56-.405h.692Z" transform="translate(2390.15 -760.449)" fill="#fff"/>
            <path id="Trazado_2821" data-name="Trazado 2821" d="M-2373.66,803.376l.212.655h.7l-.56.405.213.655-.56-.407-.557.407.216-.655-.56-.405h.692Z" transform="translate(2390.15 -791.235)" fill="#fff"/>
            <path id="Trazado_2822" data-name="Trazado 2822" d="M-2349.893,684.6l.216.658h.688l-.556.405.209.656-.556-.405-.553.405.209-.656-.557-.405h.688Z" transform="translate(2368.429 -682.686)" fill="#fff"/>
            <path id="Trazado_2823" data-name="Trazado 2823" d="M-2349.893,718.29l.216.655h.688l-.556.4.209.66-.556-.407-.553.407.209-.66-.557-.4h.688Z" transform="translate(2368.429 -713.475)" fill="#fff"/>
            <path id="Trazado_2824" data-name="Trazado 2824" d="M-2349.893,751.957l.216.655h.688l-.556.405.209.658-.556-.407-.553.407.209-.658-.557-.405h.688Z" transform="translate(2368.429 -744.243)" fill="#fff"/>
            <path id="Trazado_2825" data-name="Trazado 2825" d="M-2349.893,785.608l.216.658h.688l-.556.405.209.655-.556-.4-.553.4.209-.655-.557-.405h.688Z" transform="translate(2368.429 -774.997)" fill="#fff"/>
            <path id="Trazado_2826" data-name="Trazado 2826" d="M-2349.893,819.278l.216.66h.688l-.556.4.209.656-.556-.405-.553.405.209-.656-.557-.4h.688Z" transform="translate(2368.429 -805.767)" fill="#fff"/>
            <path id="Trazado_2827" data-name="Trazado 2827" d="M-2326.425,702.333l.209.658h.691l-.553.407.206.655-.553-.4-.563.4.216-.655-.553-.407h.685Z" transform="translate(2346.982 -698.892)" fill="#fff"/>
            <path id="Trazado_2828" data-name="Trazado 2828" d="M-2326.425,736.02l.209.655h.691l-.553.407.206.655-.553-.4-.563.4.216-.655-.553-.407h.685Z" transform="translate(2346.982 -729.678)" fill="#fff"/>
            <path id="Trazado_2829" data-name="Trazado 2829" d="M-2326.425,769.69l.209.656h.691l-.553.405.206.656-.553-.405-.563.405.216-.656-.553-.405h.685Z" transform="translate(2346.982 -760.449)" fill="#fff"/>
            <path id="Trazado_2830" data-name="Trazado 2830" d="M-2326.425,803.376l.209.655h.691l-.553.405.206.655-.553-.407-.563.407.216-.655-.553-.405h.685Z" transform="translate(2346.982 -791.235)" fill="#fff"/>
            <path id="Trazado_2831" data-name="Trazado 2831" d="M-2302.733,684.6l.219.658h.685l-.557.405.215.656-.562-.405-.554.405.209-.656-.556-.405h.688Z" transform="translate(2325.33 -682.686)" fill="#fff"/>
            <path id="Trazado_2832" data-name="Trazado 2832" d="M-2302.733,718.29l.219.655h.685l-.557.4.215.66-.562-.407-.554.407.209-.66-.556-.4h.688Z" transform="translate(2325.33 -713.475)" fill="#fff"/>
            <path id="Trazado_2833" data-name="Trazado 2833" d="M-2302.733,751.957l.219.655h.685l-.557.405.215.658-.562-.407-.554.407.209-.658-.556-.405h.688Z" transform="translate(2325.33 -744.243)" fill="#fff"/>
            <path id="Trazado_2834" data-name="Trazado 2834" d="M-2302.733,785.608l.219.658h.685l-.557.405.215.655-.562-.4-.554.4.209-.655-.556-.405h.688Z" transform="translate(2325.33 -774.997)" fill="#fff"/>
            <path id="Trazado_2835" data-name="Trazado 2835" d="M-2302.733,819.278l.219.66h.685l-.557.4.215.656-.562-.405-.554.405.209-.656-.556-.4h.688Z" transform="translate(2325.33 -805.767)" fill="#fff"/>
          </g>
        </g>
      </g>
    </g>
  </g>
</svg>
