<svg xmlns="http://www.w3.org/2000/svg" xmlns:xlink="http://www.w3.org/1999/xlink" viewBox="0 0 345.37 254.57"><defs><style>.cls-1{isolation:isolate;}.cls-2{fill:#e81917;}.cls-3{fill:#f9f51d;}.cls-4{fill:#2c4b9e;}.cls-5{mix-blend-mode:multiply;}.cls-5,.cls-6{fill:url(#linear-gradient);}.cls-6{opacity:0.25;mix-blend-mode:overlay;}.cls-7{fill:url(#Degradado_sin_nombre_44);}.cls-8{fill:url(#Degradado_sin_nombre_44-2);}.cls-9{fill:url(#Degradado_sin_nombre_44-3);}.cls-10{fill:url(#Degradado_sin_nombre_44-4);}.cls-11{fill:url(#Degradado_sin_nombre_44-5);}.cls-12{fill:url(#Degradado_sin_nombre_44-6);}.cls-13{fill:url(#Degradado_sin_nombre_44-7);}.cls-14{fill:url(#Degradado_sin_nombre_44-8);}</style><linearGradient id="linear-gradient" x1="0.14" y1="126.99" x2="345.15" y2="126.99" gradientUnits="userSpaceOnUse"><stop offset="0" stop-color="#fff"/><stop offset="0.13" stop-color="#f7f7f7"/><stop offset="0.34" stop-color="#e0e0e0"/><stop offset="0.54" stop-color="#c4c5c5"/><stop offset="0.57" stop-color="#c1c2c3"/><stop offset="0.69" stop-color="#bebfc0"/><stop offset="0.91" stop-color="#fff"/></linearGradient><linearGradient id="Degradado_sin_nombre_44" x1="-862.34" y1="1446.35" x2="-851.96" y2="1446.35" gradientTransform="matrix(1.89, 0, 0, -1.81, 1654.18, 2753.64)" gradientUnits="userSpaceOnUse"><stop offset="0" stop-color="#fff"/><stop offset="0.13" stop-color="#f6f6f6"/><stop offset="0.34" stop-color="#dfe0e0"/><stop offset="0.54" stop-color="#c4c5c6"/><stop offset="0.57" stop-color="#c1c2c3"/><stop offset="0.69" stop-color="#bebfc0"/><stop offset="0.91" stop-color="#fff"/></linearGradient><linearGradient id="Degradado_sin_nombre_44-2" x1="-843.5" y1="1442.91" x2="-833.12" y2="1442.91" gradientTransform="matrix(1.89, 0, 0, -1.81, 1657.98, 2754.3)" xlink:href="#Degradado_sin_nombre_44"/><linearGradient id="Degradado_sin_nombre_44-3" x1="-824.65" y1="1444.37" x2="-814.27" y2="1444.37" gradientTransform="matrix(1.89, 0, 0, -1.81, 1661.78, 2754.02)" xlink:href="#Degradado_sin_nombre_44"/><linearGradient id="Degradado_sin_nombre_44-4" x1="-806.46" y1="1449.04" x2="-796.08" y2="1449.04" gradientTransform="matrix(1.89, 0, 0, -1.81, 1665.45, 2753.12)" xlink:href="#Degradado_sin_nombre_44"/><linearGradient id="Degradado_sin_nombre_44-5" x1="-786.66" y1="1455.09" x2="-776.28" y2="1455.09" gradientTransform="matrix(1.89, 0, 0, -1.81, 1669.44, 2751.96)" xlink:href="#Degradado_sin_nombre_44"/><linearGradient id="Degradado_sin_nombre_44-6" x1="-766.42" y1="1457.91" x2="-756.04" y2="1457.91" gradientTransform="matrix(1.89, 0, 0, -1.81, 1673.52, 2751.41)" xlink:href="#Degradado_sin_nombre_44"/><linearGradient id="Degradado_sin_nombre_44-7" x1="-745.34" y1="1459.76" x2="-734.96" y2="1459.76" gradientTransform="matrix(1.89, 0, 0, -1.81, 1677.78, 2751.06)" xlink:href="#Degradado_sin_nombre_44"/><linearGradient id="Degradado_sin_nombre_44-8" x1="-726.62" y1="1455.09" x2="-716.24" y2="1455.09" gradientTransform="matrix(1.89, 0, 0, -1.81, 1681.55, 2751.96)" xlink:href="#Degradado_sin_nombre_44"/></defs><g class="cls-1"><g id="Capa_2" data-name="Capa 2"><g id="Capa_2-2" data-name="Capa 2"><path class="cls-2" d="M345.35,235.81c-115.1-64.91-230.2,64.92-345.3,0V165c115.1,64.87,230.2-65,345.3,0Z"/><path class="cls-3" d="M345.37,94.12C230.26,29.18,115.16,159,.05,94.15V19.37c115.11,64.87,230.21-65,345.32,0Z"/><path class="cls-4" d="M0,94.12c115.12,64.94,230.25-64.95,345.37,0v71.69c-115.12-64.95-230.25,64.94-345.37,0Z"/><path class="cls-5" d="M345.15,89.93v72.86a.1.1,0,0,1-.1-.1v72.46c-115-64.67-230,65-344.91.1V18.72C115,83.71,230-46,345.05,18.62V89.83A.1.1,0,0,0,345.15,89.93Z"/><path class="cls-6" d="M345.15,89.93v72.86a.1.1,0,0,1-.1-.1v72.46c-115-64.67-230,65-344.91.1V18.72C115,83.71,230-46,345.05,18.62V89.83A.1.1,0,0,0,345.15,89.93Z"/><path id="Trazado_2346" data-name="Trazado 2346" class="cls-7" d="M32.47,132.16l3.05,6.16,6.78,1-4.91,4.78,1.17,6.77-6.08-3.2-6.07,3.2,1.17-6.77-4.91-4.78,6.78-1Z"/><path id="Trazado_2347" data-name="Trazado 2347" class="cls-8" d="M71.92,139l3,6.15,6.79,1L76.84,151,78,157.78l-6.07-3.2-6.07,3.2L67,151l-4.91-4.78,6.79-1Z"/><path id="Trazado_2348" data-name="Trazado 2348" class="cls-9" d="M111.37,136.12l3,6.15,6.79,1-4.91,4.79,1.16,6.77-6.07-3.2-6.07,3.2,1.16-6.77-4.91-4.79,6.79-1Z"/><path id="Trazado_2349" data-name="Trazado 2349" class="cls-10" d="M149.47,126.78l3,6.15,6.78,1-4.9,4.79,1.16,6.76-6.07-3.19-6.08,3.19,1.17-6.76L139.66,134l6.78-1Z"/><path id="Trazado_2350" data-name="Trazado 2350" class="cls-11" d="M190.92,114.7l3,6.15,6.79,1-4.91,4.78,1.17,6.77-6.08-3.2-6.07,3.2,1.16-6.77-4.91-4.78,6.79-1Z"/><path id="Trazado_2351" data-name="Trazado 2351" class="cls-12" d="M233.29,109.05l3,6.15,6.79,1L238.21,121l1.17,6.76-6.08-3.19-6.07,3.19,1.16-6.76-4.91-4.79,6.79-1Z"/><path id="Trazado_2352" data-name="Trazado 2352" class="cls-13" d="M277.43,105.35l3,6.16,6.79,1-4.91,4.78,1.16,6.77-6.07-3.2-6.07,3.2,1.16-6.77-4.91-4.78,6.79-1Z"/><path id="Trazado_2353" data-name="Trazado 2353" class="cls-14" d="M316.62,114.7l3,6.15,6.79,1-4.91,4.78,1.16,6.77-6.07-3.2-6.07,3.2,1.16-6.77-4.91-4.78,6.79-1Z"/></g></g></g></svg>